<svg xmlns="http://www.w3.org/2000/svg" width="48" height="58" viewBox="0 0 48 58" fill="none">
    <g filter="url(#filter0_d_182269_2928)">
        <path
            d="M44 21.9913C44 40.1649 24.0001 51.5234 24.0001 51.5234C24.0001 51.5234 4.00024 40.1649 4.00024 21.9913C4.00024 10.9505 12.9545 2.00024 24.0001 2.00024C35.0458 2.00024 44 10.9505 44 21.9913Z"
            fill="url(#paint0_linear_182269_2928)" />
        <path
            d="M24.0001 51.5234L23.5063 52.393L24.0001 52.6735L24.494 52.393L24.0001 51.5234ZM24.0001 51.5234C24.494 52.393 24.4943 52.3928 24.4948 52.3925L24.4961 52.3918L24.5 52.3896L24.5132 52.382L24.5609 52.3544C24.602 52.3304 24.6615 52.2954 24.7381 52.2496C24.8914 52.1579 25.1134 52.0226 25.3943 51.8449C25.9559 51.4895 26.7537 50.9637 27.7091 50.2765C29.6181 48.9032 32.165 46.8785 34.7149 44.2717C39.7964 39.0771 45 31.4553 45 21.9913C45 10.3978 35.5976 1.00024 24.0001 1.00024C12.4026 1.00024 3.00024 10.3978 3.00024 21.9913C3.00024 31.4553 8.20387 39.0771 13.2853 44.2717C15.8353 46.8785 18.3822 48.9032 20.2912 50.2765C21.2465 50.9637 22.0444 51.4895 22.606 51.8449C22.8869 52.0226 23.1089 52.1579 23.2621 52.2496C23.3388 52.2954 23.3983 52.3304 23.4394 52.3544L23.4871 52.382L23.5003 52.3896L23.5042 52.3918L23.5055 52.3925C23.5059 52.3928 23.5063 52.393 24.0001 51.5234Z"
            stroke="white" stroke-width="2" />
    </g>
    <path
        d="M35.5123 14.5464L33.6533 10.8446C33.576 10.6909 33.4573 10.5616 33.3103 10.4713C33.1634 10.381 32.9941 10.3332 32.8214 10.3333H16.0908C15.9181 10.3332 15.7488 10.381 15.6018 10.4713C15.4549 10.5616 15.3361 10.6909 15.2589 10.8446L13.3999 14.5464C13.3358 14.6752 13.3024 14.8169 13.3023 14.9606V30.6932C13.3023 31.1841 13.4982 31.6549 13.8468 32.002C14.1954 32.3491 14.6682 32.5441 15.1613 32.5441H33.7509C34.2439 32.5441 34.7168 32.3491 35.0654 32.002C35.414 31.6549 35.6099 31.1841 35.6099 30.6932V14.9606C35.6097 14.8169 35.5763 14.6752 35.5123 14.5464ZM28.8316 23.0189C28.7453 23.105 28.6428 23.1732 28.53 23.2198C28.4171 23.2664 28.2962 23.2904 28.174 23.2904C28.0519 23.2904 27.9309 23.2664 27.8181 23.2198C27.7052 23.1732 27.6027 23.105 27.5164 23.0189L25.3856 20.8962V27.9169C25.3856 28.1623 25.2876 28.3977 25.1133 28.5713C24.939 28.7448 24.7026 28.8423 24.4561 28.8423C24.2096 28.8423 23.9732 28.7448 23.7988 28.5713C23.6245 28.3977 23.5266 28.1623 23.5266 27.9169V20.8962L21.3958 23.0189C21.3094 23.1049 21.2069 23.1731 21.0941 23.2197C20.9812 23.2662 20.8603 23.2901 20.7382 23.2901C20.616 23.2901 20.4951 23.2662 20.3823 23.2197C20.2694 23.1731 20.1669 23.1049 20.0806 23.0189C19.9942 22.933 19.9257 22.8309 19.879 22.7185C19.8322 22.6062 19.8082 22.4858 19.8082 22.3642C19.8082 22.2426 19.8322 22.1222 19.879 22.0098C19.9257 21.8975 19.9942 21.7954 20.0806 21.7094L23.7985 18.0076C23.8848 17.9216 23.9873 17.8533 24.1002 17.8067C24.213 17.7602 24.3339 17.7362 24.4561 17.7362C24.5782 17.7362 24.6992 17.7602 24.812 17.8067C24.9249 17.8533 25.0274 17.9216 25.1137 18.0076L28.8316 21.7094C28.918 21.7954 28.9866 21.8974 29.0334 22.0098C29.0802 22.1221 29.1042 22.2426 29.1042 22.3642C29.1042 22.4858 29.0802 22.6062 29.0334 22.7186C28.9866 22.8309 28.918 22.933 28.8316 23.0189ZM15.7352 14.0351L16.6647 12.1842H32.2475L33.177 14.0351H15.7352Z"
        fill="white" />
    <defs>
        <filter id="filter0_d_182269_2928" x="0.000244141" y="0.000244141" width="47.9998" height="57.8232"
            filterUnits="userSpaceOnUse" color-interpolation-filters="sRGB">
            <feFlood flood-opacity="0" result="BackgroundImageFix" />
            <feColorMatrix in="SourceAlpha" type="matrix" values="0 0 0 0 0 0 0 0 0 0 0 0 0 0 0 0 0 0 127 0"
                result="hardAlpha" />
            <feOffset dy="2" />
            <feGaussianBlur stdDeviation="1" />
            <feColorMatrix type="matrix" values="0 0 0 0 0 0 0 0 0 0 0 0 0 0 0 0 0 0 0.25 0" />
            <feBlend mode="normal" in2="BackgroundImageFix" result="effect1_dropShadow_182269_2928" />
            <feBlend mode="normal" in="SourceGraphic" in2="effect1_dropShadow_182269_2928" result="shape" />
        </filter>
        <linearGradient id="paint0_linear_182269_2928" x1="24.0001" y1="2.00024" x2="24.0001" y2="51.5234"
            gradientUnits="userSpaceOnUse">
            <stop stop-color="#11AC88" />
            <stop offset="1" stop-color="#02785E" />
        </linearGradient>
    </defs>
</svg>