<svg xmlns="http://www.w3.org/2000/svg" xmlns:xlink="http://www.w3.org/1999/xlink" fill="none" version="1.1" width="14"
    height="14" viewBox="0 0 14 14">
    <defs>
        <clipPath id="master_svg0_1414_49950">
            <rect x="0" y="0" width="14" height="14" rx="0" />
        </clipPath>
    </defs>
    <g>
        <g clip-path="url(#master_svg0_1414_49950)">
            <g>
                <rect x="0" y="0" width="14" height="14" rx="0" fill="#FFFFFF" fill-opacity="0.009999999776482582" />
            </g>
            <g>
                <path
                    d="M13.333448046875,10.7921075Q13.333448046875,9.6952455,11.268548046875,9.0757745Q11.198248046875,9.0546885,11.124868046875,9.0546875Q11.103478046875,9.0546875,11.082168046875,9.0565135Q11.007268046875,9.0629335,10.937568046875,9.0910925Q10.867868046875,9.1192525,10.809528046875,9.1666625Q10.751188046875,9.2140725,10.709368046875,9.2765405Q10.667548046875,9.3390085,10.645948046875,9.4110115Q10.624858046875,9.4813022,10.624858046875,9.5546875L10.624858046875,9.555620019Q10.625098046875,9.6811825,10.684628046875,9.7917365Q10.731778046875,9.8793045,10.808848046875,9.9421625Q10.885928046875,10.0050215,10.981188046875,10.0336005Q11.709948046875,10.2522225,12.085748046875,10.5187785Q12.333448046875,10.6944475,12.333448046875,10.7921075Q12.333448046875,10.8897875,12.085748046875,11.0654575Q11.709948046875,11.3320175,10.981198046875,11.5506375Q9.342938046875,12.0421075,7.000078046875,12.0421075Q4.657218046875,12.0421075,3.018968046875,11.5506375Q2.2902380468750003,11.3320175,1.914426046875,11.0654575Q1.666748046875,10.8897875,1.666748046875,10.7921075Q1.666748046875,10.6944475,1.914425046875,10.5187785Q2.2902380468750003,10.2522215,3.018968046875,10.0336005Q3.0962080468749997,10.0104265,3.162258046875,9.9641405Q3.228298046875,9.9178555,3.276438046875,9.8531525Q3.324578046875,9.7884495,3.349938046875,9.7118925Q3.375288046875,9.6353355,3.375288046875,9.554688499771L3.375248046875,9.54833435Q3.374358046875,9.4781967,3.354198046875,9.4110115Q3.325628046875,9.3157495,3.262768046875,9.2386765Q3.199908046875,9.1616025,3.112338046875,9.1144505Q3.001348046875,9.0546875,2.875288046875,9.0546875L2.8638280468749997,9.0548185Q2.7963080468749997,9.0563665,2.731618046875,9.0757745Q0.666748046875,9.6952435,0.666748046875,10.7921075Q0.666748046875,11.8889975,2.731618046875,12.5084575Q4.510448046875,13.0421075,7.000078046875,13.0421075Q9.489708046875,13.0421075,11.268548046875,12.5084575Q13.333448046875,11.8889975,13.333448046875,10.7921075Z"
                    fill-rule="evenodd" fill="#8C8C8C" fill-opacity="1" />
            </g>
            <g>
                <path
                    d="M3.969658953125,1.89343375Q2.708251953125,3.12396875,2.708251953125,4.86682875Q2.708251953125,8.00216875,6.726381953125,10.62817875Q6.787381953125,10.66803875,6.857211953125001,10.68883875Q6.927051953125,10.70963875,6.999921953125,10.70963875Q7.072781953125,10.70963875,7.1426219531249995,10.68883875Q7.212451953125,10.66803875,7.273451953125,10.62817875Q11.291581953125,8.00216875,11.291581953125,4.86682875Q11.291581953125,3.12396875,10.030181953125,1.89343375Q8.773961953125,0.66796875,6.999921953125,0.66796875Q5.225871953125,0.66796875,3.969658953125,1.89343375ZM6.999921953125,9.60834875Q3.708251953125,7.35958875,3.708251953125,4.86682875Q3.708251953125,3.54545875,4.667951953125,2.60924875Q5.632841953125,1.66796875,6.999921953125,1.66796875Q8.366991953125,1.66796875,9.331881953125,2.60924875Q10.291581953125,3.54545875,10.291581953125,4.86682875Q10.291581953125,7.35958875,6.999921953125,9.60834875Z"
                    fill-rule="evenodd" fill="#8C8C8C" fill-opacity="1" />
            </g>
            <g>
                <path
                    d="M5.615333246875,3.5735851Q5.041748046875,4.14717,5.041748046875,4.95833Q5.041748046875,5.7695,5.615333146875,6.3430800000000005Q6.188918046875,6.91667,7.000078046875,6.91667Q7.811248046875,6.91667,8.384828046875,6.3430800000000005Q8.958418046875,5.7695,8.958418046875,4.95833Q8.958418046875,4.14717,8.384828046875,3.5735852Q7.811248046875,3,7.000078046875,3Q6.188918046875,3,5.615333246875,3.5735851ZM6.322440046875,5.63597Q6.041748046875,5.3552800000000005,6.041748046875,4.95833Q6.041748046875,4.56138,6.322440046875,4.280692Q6.603128046875,4,7.000078046875,4Q7.3970280468750005,4,7.677718046875,4.280692Q7.958418046875,4.56138,7.958418046875,4.95833Q7.958418046875,5.3552800000000005,7.677718046875,5.63597Q7.3970280468750005,5.91667,7.000078046875,5.91667Q6.603128046875,5.91667,6.322440046875,5.63597Z"
                    fill-rule="evenodd" fill="#8C8C8C" fill-opacity="1" />
            </g>
        </g>
    </g>
</svg>