<svg xmlns="http://www.w3.org/2000/svg" xmlns:xlink="http://www.w3.org/1999/xlink" fill="none" version="1.1" width="35"
    height="35.5" viewBox="0 0 35 35.5">
    <defs>
        <filter id="master_svg0_1393_63787" filterUnits="objectBoundingBox" color-interpolation-filters="sRGB" x="-2"
            y="0" width="36" height="36">
            <feFlood flood-opacity="0" result="BackgroundImageFix" />
            <feColorMatrix in="SourceAlpha" type="matrix" values="0 0 0 0 0 0 0 0 0 0 0 0 0 0 0 0 0 0 127 0" />
            <feOffset dy="2" dx="0" />
            <feGaussianBlur stdDeviation="0.5" />
            <feColorMatrix type="matrix" values="0 0 0 0 0 0 0 0 0 0 0 0 0 0 0 0 0 0 0.10000000149011612 0" />
            <feBlend mode="normal" in2="BackgroundImageFix" result="effect1_dropShadow" />
            <feBlend mode="normal" in="SourceGraphic" in2="effect1_dropShadow" result="shape" />
        </filter>
        <clipPath id="master_svg1_1393_63788">
            <rect x="28.5" y="5" width="22" height="22" rx="0" />
        </clipPath>
    </defs>
    <g>
        <g filter="url(#master_svg0_1393_63787)">
            <rect x="1.5" y="0" width="32" height="32" rx="2" fill="#FFFFFF" fill-opacity="1" />
        </g>
        <g transform="matrix(-1,0,0,1,57,0)" clip-path="url(#master_svg1_1393_63788)">
            <g>
                <path
                    d="M44.331102343750004,11.84820025C43.90560234375,11.74807625,43.49260234375,12.01090325,43.39240234375,12.43643625C43.29230234375,12.86195625,43.55520234375,13.27497625,43.980702343749996,13.37509625C46.44620234375,13.950816249999999,48.17340234375,15.03966625,48.17340234375,16.00336625C48.17340234375,17.48019625,44.46880234375,19.11973625,39.50010234375,19.11973625C34.53143234375,19.11973625,30.82683234375,17.48019625,30.82683234375,16.00336625C30.82683234375,15.34003625,31.67789234375,14.463956249999999,33.55522234375,13.80062625L33.27988234375,14.16357625C33.01705234375,14.50149625,33.07963234375,15.00211625,33.43006234375,15.26494625C33.56774234375,15.37758625,33.74295234375,15.427646249999999,33.90566234375,15.427646249999999C34.14345234375,15.427646249999999,34.38125234375,15.31500625,34.53143234375,15.11475625L37.34743234375,11.41015625L31.65286234375,11.41015625C31.22733234375,11.41015625,30.87689234375,11.76059225,30.864382343750002,12.18612025C30.864382343750002,12.59913625,31.18978234375,12.94956625,31.60279234375,12.96208625C30.11344434375,13.77559625,29.27490234375,14.83941625,29.27490234375,16.00336625C29.27490234375,18.66917625,33.68038234375,20.68418625,39.512602343750004,20.68418625C45.34490234375,20.68418625,49.75030234375,18.66917625,49.75030234375,16.00336625C49.737802343750005,14.18860625,47.722802343750004,12.63667625,44.331102343750004,11.84820025Z"
                    fill="#252525" fill-opacity="1" />
            </g>
        </g>
    </g>
</svg>