<svg xmlns="http://www.w3.org/2000/svg" xmlns:xlink="http://www.w3.org/1999/xlink" fill="none" version="1.1" width="35"
    height="35.5" viewBox="0 0 35 35.5">
    <defs>
        <filter id="master_svg0_1393_63782" filterUnits="objectBoundingBox" color-interpolation-filters="sRGB" x="-2"
            y="0" width="36" height="36">
            <feFlood flood-opacity="0" result="BackgroundImageFix" />
            <feColorMatrix in="SourceAlpha" type="matrix" values="0 0 0 0 0 0 0 0 0 0 0 0 0 0 0 0 0 0 127 0" />
            <feOffset dy="2" dx="0" />
            <feGaussianBlur stdDeviation="0.5" />
            <feColorMatrix type="matrix" values="0 0 0 0 0 0 0 0 0 0 0 0 0 0 0 0 0 0 0.10000000149011612 0" />
            <feBlend mode="normal" in2="BackgroundImageFix" result="effect1_dropShadow" />
            <feBlend mode="normal" in="SourceGraphic" in2="effect1_dropShadow" result="shape" />
        </filter>
        <clipPath id="master_svg1_1393_63783">
            <rect x="6.5" y="5" width="22" height="22" rx="0" />
        </clipPath>
    </defs>
    <g>
        <g filter="url(#master_svg0_1393_63782)">
            <rect x="1.5" y="0" width="32" height="32" rx="2" fill="#FFFFFF" fill-opacity="1" />
        </g>
        <g clip-path="url(#master_svg1_1393_63783)">
            <g>
                <path
                    d="M22.33110234375,11.84820025C21.905602343749997,11.74807625,21.49260234375,12.01090325,21.39240234375,12.43643625C21.292302343750002,12.86195625,21.55520234375,13.27497625,21.98070234375,13.37509625C24.44620234375,13.950816249999999,26.17340234375,15.03966625,26.17340234375,16.00336625C26.17340234375,17.48019625,22.46880234375,19.11973625,17.50010234375,19.11973625C12.53143234375,19.11973625,8.82683234375,17.48019625,8.82683234375,16.00336625C8.82683234375,15.34003625,9.677892343749999,14.463956249999999,11.55522234375,13.80062625L11.27988234375,14.16357625C11.01705234375,14.50149625,11.07963234375,15.00211625,11.43006234375,15.26494625C11.56774234375,15.37758625,11.74295234375,15.427646249999999,11.90566234375,15.427646249999999C12.143452343749999,15.427646249999999,12.381252343749999,15.31500625,12.53143234375,15.11475625L15.34743234375,11.41015625L9.65286234375,11.41015625C9.22733234375,11.41015625,8.87689234375,11.76059225,8.86438234375,12.18612025C8.86438234375,12.59913625,9.18978234375,12.94956625,9.60279234375,12.96208625C8.11344434375,13.77559625,7.27490234375,14.83941625,7.27490234375,16.00336625C7.27490234375,18.66917625,11.68038234375,20.68418625,17.51260234375,20.68418625C23.34490234375,20.68418625,27.75030234375,18.66917625,27.75030234375,16.00336625C27.73780234375,14.18860625,25.72280234375,12.63667625,22.33110234375,11.84820025Z"
                    fill="#252525" fill-opacity="1" />
            </g>
        </g>
    </g>
</svg>