<svg xmlns="http://www.w3.org/2000/svg" xmlns:xlink="http://www.w3.org/1999/xlink" fill="none" version="1.1" width="35"
    height="35.5" viewBox="0 0 35 35.5">
    <defs>
        <filter id="master_svg0_1393_63095" filterUnits="objectBoundingBox" color-interpolation-filters="sRGB" x="-2"
            y="0" width="36" height="36">
            <feFlood flood-opacity="0" result="BackgroundImageFix" />
            <feColorMatrix in="SourceAlpha" type="matrix" values="0 0 0 0 0 0 0 0 0 0 0 0 0 0 0 0 0 0 127 0" />
            <feOffset dy="2" dx="0" />
            <feGaussianBlur stdDeviation="0.5" />
            <feColorMatrix type="matrix" values="0 0 0 0 0 0 0 0 0 0 0 0 0 0 0 0 0 0 0.10000000149011612 0" />
            <feBlend mode="normal" in2="BackgroundImageFix" result="effect1_dropShadow" />
            <feBlend mode="normal" in="SourceGraphic" in2="effect1_dropShadow" result="shape" />
        </filter>
        <clipPath id="master_svg1_1393_63096">
            <rect x="6.5" y="27.00390625" width="22" height="22" rx="0" />
        </clipPath>
    </defs>
    <g>
        <g filter="url(#master_svg0_1393_63095)">
            <rect x="1.5" y="0" width="32" height="32" rx="2" fill="#FFFFFF" fill-opacity="1" />
        </g>
        <g transform="matrix(0,-1,1,0,-20.50390625,33.50390625)" clip-path="url(#master_svg1_1393_63096)">
            <g>
                <path
                    d="M22.33110234375,33.8521065C21.905602343749997,33.7519825,21.49260234375,34.0148095,21.39240234375,34.4403425C21.292302343750002,34.8658625,21.55520234375,35.2788825,21.98070234375,35.3790025C24.44620234375,35.9547225,26.17340234375,37.043572499999996,26.17340234375,38.0072725C26.17340234375,39.4841025,22.46880234375,41.1236425,17.50010234375,41.1236425C12.53143234375,41.1236425,8.82683234375,39.4841025,8.82683234375,38.0072725C8.82683234375,37.3439425,9.677892343749999,36.4678625,11.55522234375,35.8045325L11.27988234375,36.1674825C11.01705234375,36.5054025,11.07963234375,37.0060225,11.43006234375,37.2688525C11.56774234375,37.3814925,11.74295234375,37.4315525,11.90566234375,37.4315525C12.143452343749999,37.4315525,12.381252343749999,37.3189125,12.53143234375,37.1186625L15.34743234375,33.4140625L9.65286234375,33.4140625C9.22733234375,33.4140625,8.87689234375,33.7644985,8.86438234375,34.1900265C8.86438234375,34.6030425,9.18978234375,34.9534725,9.60279234375,34.9659925C8.11344434375,35.7795025,7.27490234375,36.8433225,7.27490234375,38.0072725C7.27490234375,40.6730825,11.68038234375,42.688092499999996,17.51260234375,42.688092499999996C23.34490234375,42.688092499999996,27.75030234375,40.6730825,27.75030234375,38.0072725C27.73780234375,36.1925125,25.72280234375,34.6405825,22.33110234375,33.8521065Z"
                    fill="#252525" fill-opacity="1" />
            </g>
        </g>
    </g>
</svg>