<svg xmlns="http://www.w3.org/2000/svg" xmlns:xlink="http://www.w3.org/1999/xlink" fill="none" version="1.1" width="35"
    height="35.5" viewBox="0 0 35 35.5">
    <defs>
        <filter id="master_svg0_1393_63792" filterUnits="objectBoundingBox" color-interpolation-filters="sRGB" x="-2"
            y="0" width="36" height="36">
            <feFlood flood-opacity="0" result="BackgroundImageFix" />
            <feColorMatrix in="SourceAlpha" type="matrix" values="0 0 0 0 0 0 0 0 0 0 0 0 0 0 0 0 0 0 127 0" />
            <feOffset dy="2" dx="0" />
            <feGaussianBlur stdDeviation="0.5" />
            <feColorMatrix type="matrix" values="0 0 0 0 0 0 0 0 0 0 0 0 0 0 0 0 0 0 0.10000000149011612 0" />
            <feBlend mode="normal" in2="BackgroundImageFix" result="effect1_dropShadow" />
            <feBlend mode="normal" in="SourceGraphic" in2="effect1_dropShadow" result="shape" />
        </filter>
        <clipPath id="master_svg1_1393_63793">
            <rect x="6.5" y="5.00390625" width="22" height="22" rx="0" />
        </clipPath>
    </defs>
    <g>
        <g filter="url(#master_svg0_1393_63792)">
            <rect x="1.5" y="0" width="32" height="32" rx="2" fill="#FFFFFF" fill-opacity="1" />
        </g>
        <g transform="matrix(0,1,1,0,1.49609375,-1.49609375)" clip-path="url(#master_svg1_1393_63793)">
            <g>
                <path
                    d="M22.33110234375,11.8521065C21.905602343749997,11.7519825,21.49260234375,12.0148095,21.39240234375,12.4403425C21.292302343750002,12.8658625,21.55520234375,13.2788825,21.98070234375,13.3790025C24.44620234375,13.954722499999999,26.17340234375,15.0435725,26.17340234375,16.0072725C26.17340234375,17.4841025,22.46880234375,19.1236425,17.50010234375,19.1236425C12.53143234375,19.1236425,8.82683234375,17.4841025,8.82683234375,16.0072725C8.82683234375,15.3439425,9.677892343749999,14.467862499999999,11.55522234375,13.8045325L11.27988234375,14.1674825C11.01705234375,14.5054025,11.07963234375,15.0060225,11.43006234375,15.2688525C11.56774234375,15.3814925,11.74295234375,15.431552499999999,11.90566234375,15.431552499999999C12.143452343749999,15.431552499999999,12.381252343749999,15.3189125,12.53143234375,15.1186625L15.34743234375,11.4140625L9.65286234375,11.4140625C9.22733234375,11.4140625,8.87689234375,11.7644985,8.86438234375,12.1900265C8.86438234375,12.6030425,9.18978234375,12.9534725,9.60279234375,12.9659925C8.11344434375,13.7795025,7.27490234375,14.8433225,7.27490234375,16.0072725C7.27490234375,18.6730825,11.68038234375,20.6880925,17.51260234375,20.6880925C23.34490234375,20.6880925,27.75030234375,18.6730825,27.75030234375,16.0072725C27.73780234375,14.1925125,25.72280234375,12.6405825,22.33110234375,11.8521065Z"
                    fill="#252525" fill-opacity="1" />
            </g>
        </g>
    </g>
</svg>