<svg xmlns="http://www.w3.org/2000/svg" xmlns:xlink="http://www.w3.org/1999/xlink" fill="none" version="1.1" width="14"
    height="14" viewBox="0 0 14 14">
    <defs>
        <clipPath id="master_svg0_1414_49944">
            <rect x="0" y="0" width="14" height="14" rx="0" />
        </clipPath>
    </defs>
    <g>
        <g clip-path="url(#master_svg0_1414_49944)">
            <g>
                <rect x="0" y="0" width="14" height="14" rx="0" fill="#FFFFFF" fill-opacity="0.009999999776482582" />
            </g>
            <g>
                <path
                    d="M2.521738046875,2.52295875Q0.666748046875,4.37794875,0.666748046875,7.00129875Q0.666748046875,9.62464875,2.521738046875,11.47966875Q4.376728046875,13.33466875,7.000078046875,13.33466875Q9.623438046875,13.33466875,11.478448046875,11.47966875Q13.333448046875,9.62465875,13.333448046875,7.00129875Q13.333448046875,4.37794875,11.478448046875,2.52295875Q9.623428046875,0.66796875,7.000078046875,0.66796875Q4.376728046875,0.66796875,2.521738046875,2.52295875ZM3.228848046875,10.77253875Q1.666748046875,9.21043875,1.666748046875,7.00129875Q1.666748046875,4.7921587500000005,3.228848046875,3.23006875Q4.790948046875,1.66796875,7.000078046875,1.66796875Q9.209218046875,1.66796875,10.771318046875,3.23006875Q12.333448046875,4.7921587500000005,12.333448046875,7.00129875Q12.333448046875,9.21043875,10.771318046875,10.77253875Q9.209218046875,12.33466875,7.000078046875,12.33466875Q4.7909380468750005,12.33466875,3.228848046875,10.77253875Z"
                    fill-rule="evenodd" fill="#8C8C8C" fill-opacity="1" />
            </g>
            <g>
                <path
                    d="M6.648400125,7.356120000000001L9.121553125,9.82928Q9.191883125,9.8996,9.283773125,9.937660000000001Q9.375653125,9.97573,9.475113125,9.97573Q9.488053125,9.97573,9.500983125,9.97506Q9.593603125,9.97026,9.678343125,9.932559999999999Q9.763083125,9.894860000000001,9.828663125,9.82928Q9.898993125,9.758949999999999,9.937053125,9.667069999999999Q9.975113125,9.57518,9.975113125,9.475719999999999Q9.975113125,9.37627,9.937053125,9.284379999999999Q9.898993125,9.192499999999999,9.828663125,9.12217L7.501974125,6.7954799999999995L7.502303125,3.5000500312L7.502303125,3.5Q7.502303125,3.4541515,7.493965125,3.4090677Q7.486058125,3.366314,7.470890125,3.325568Q7.455722125,3.284821,7.433749125,3.247304Q7.411775125,3.209787,7.383655125,3.176626Q7.355536125,3.143465,7.322115125,3.115655Q7.288693125,3.087846,7.250974125,3.066222Q7.213254125,3.044599,7.172368125,3.029811Q7.131482125,3.015022,7.088656825,3.007513Q7.045831925,3.000004,7.002353632,3L7.0023036,3Q6.956455125,3,6.911371325,3.008338Q6.868618125,3.016245,6.827871125,3.031413Q6.787125125,3.0465809999999998,6.749608125,3.068555Q6.712091125,3.090529,6.678930125,3.118648Q6.645769125,3.146767,6.617959125,3.180189Q6.590149125,3.21361,6.568526125,3.25133Q6.546902125,3.28905,6.532114125,3.329936Q6.517326125,3.370822,6.509817125,3.4136468Q6.502308125,3.4564717,6.502303125,3.4999499688L6.502303125,3.499999999999499L6.501953125,7.0025200000000005Q6.501943125,7.10199,6.540004125,7.19388Q6.578064125,7.28578,6.648400125,7.356120000000001Z"
                    fill-rule="evenodd" fill="#8C8C8C" fill-opacity="1" />
            </g>
        </g>
    </g>
</svg>