<svg xmlns="http://www.w3.org/2000/svg" width="44" height="54" viewBox="0 0 44 54" fill="none">
    <g filter="url(#filter0_d_182269_2931)">
        <path
            d="M42 20.0782C42 38.3312 22 49.7392 22 49.7392C22 49.7392 2 38.3312 2 20.0782C2 8.98933 10.9543 0 22 0C33.0457 0 42 8.98933 42 20.0782Z"
            fill="url(#paint0_linear_182269_2931)" />
        <path
            d="M41 20.0782C41 28.829 36.202 36.0061 31.2836 41.0559C28.8335 43.5715 26.3803 45.5308 24.5394 46.861C23.6197 47.5254 22.8551 48.0312 22.323 48.3694C22.2032 48.4456 22.0952 48.5132 22 48.5722C21.9048 48.5132 21.7968 48.4456 21.677 48.3694C21.1449 48.0312 20.3803 47.5254 19.4606 46.861C17.6197 45.5308 15.1665 43.5715 12.7164 41.0559C7.79801 36.0061 3 28.829 3 20.0782C3 9.53793 11.5103 1 22 1C32.4897 1 41 9.53793 41 20.0782Z"
            stroke="white" stroke-width="2" />
    </g>
    <path
        d="M32.3846 17.7425V17.6552C32.3829 16.0334 31.7441 14.4786 30.6085 13.3319C29.4728 12.1852 27.933 11.5402 26.3269 11.5385H25.4615C25.0025 11.5385 24.5623 11.7226 24.2377 12.0503C23.9131 12.3781 23.7308 12.8226 23.7308 13.2861V26.3933H22V15.0337C22 14.802 21.9088 14.5797 21.7465 14.4158C21.5842 14.252 21.3641 14.1599 21.1346 14.1599H9.88462C9.42559 14.1599 8.98536 14.344 8.66078 14.6718C8.3362 14.9995 8.15385 15.444 8.15385 15.9075V27.2671C8.15464 27.9767 8.36932 28.6693 8.76936 29.2527C9.1694 29.8362 9.73584 30.2828 10.3934 30.5334C11.0509 30.7839 11.7684 30.8264 12.4504 30.6552C13.1324 30.484 13.7467 30.1073 14.2115 29.575C14.627 30.0517 15.1633 30.405 15.7627 30.5971C16.3621 30.7892 17.0019 30.8128 17.6136 30.6653C18.2253 30.5179 18.7856 30.205 19.2344 29.7602C19.6832 29.3155 20.0036 28.7556 20.1611 28.1409H29.0312C29.2405 28.9662 29.7411 29.6859 30.4389 30.1648C31.1367 30.6437 31.9837 30.8487 32.8207 30.7414C33.6577 30.6341 34.427 30.2218 34.9841 29.582C35.5413 28.9422 35.8478 28.119 35.8461 27.2671V22.0242C35.8449 21.0174 35.5 20.0418 34.8694 19.2618C34.2389 18.4819 33.3613 17.9453 32.3846 17.7425ZM11.6154 29.0147C11.2731 29.0147 10.9384 28.9122 10.6538 28.7202C10.3692 28.5282 10.1474 28.2552 10.0164 27.9359C9.88536 27.6165 9.85109 27.2652 9.91787 26.9261C9.98465 26.5871 10.1495 26.2757 10.3915 26.0313C10.6336 25.7869 10.942 25.6205 11.2777 25.553C11.6135 25.4856 11.9615 25.5202 12.2777 25.6525C12.594 25.7848 12.8643 26.0088 13.0545 26.2962C13.2446 26.5836 13.3462 26.9214 13.3462 27.2671C13.3462 27.7306 13.1638 28.1751 12.8392 28.5028C12.5146 28.8306 12.0744 29.0147 11.6154 29.0147ZM16.8077 29.0147C16.4654 29.0147 16.1308 28.9122 15.8461 28.7202C15.5615 28.5282 15.3397 28.2552 15.2087 27.9359C15.0777 27.6165 15.0434 27.2652 15.1102 26.9261C15.177 26.5871 15.3418 26.2757 15.5839 26.0313C15.8259 25.7869 16.1343 25.6205 16.47 25.553C16.8058 25.4856 17.1538 25.5202 17.47 25.6525C17.7863 25.7848 18.0566 26.0088 18.2468 26.2962C18.437 26.5836 18.5385 26.9214 18.5385 27.2671C18.5385 27.7306 18.3561 28.1751 18.0315 28.5028C17.7069 28.8306 17.2667 29.0147 16.8077 29.0147ZM32.3846 29.0147C32.0423 29.0147 31.7077 28.9122 31.423 28.7202C31.1384 28.5282 30.9166 28.2552 30.7856 27.9359C30.6546 27.6165 30.6203 27.2652 30.6871 26.9261C30.7539 26.5871 30.9187 26.2757 31.1608 26.0313C31.4028 25.7869 31.7112 25.6205 32.047 25.553C32.3827 25.4856 32.7307 25.5202 33.0469 25.6525C33.3632 25.7848 33.6335 26.0088 33.8237 26.2962C34.0139 26.5836 34.1154 26.9214 34.1154 27.2671C34.1154 27.7306 33.933 28.1751 33.6084 28.5028C33.2839 28.8306 32.8436 29.0147 32.3846 29.0147Z"
        fill="white" />
    <defs>
        <filter id="filter0_d_182269_2931" x="0" y="0" width="44" height="53.7392" filterUnits="userSpaceOnUse"
            color-interpolation-filters="sRGB">
            <feFlood flood-opacity="0" result="BackgroundImageFix" />
            <feColorMatrix in="SourceAlpha" type="matrix" values="0 0 0 0 0 0 0 0 0 0 0 0 0 0 0 0 0 0 127 0"
                result="hardAlpha" />
            <feOffset dy="2" />
            <feGaussianBlur stdDeviation="1" />
            <feColorMatrix type="matrix" values="0 0 0 0 0 0 0 0 0 0 0 0 0 0 0 0 0 0 0.25 0" />
            <feBlend mode="normal" in2="BackgroundImageFix" result="effect1_dropShadow_182269_2931" />
            <feBlend mode="normal" in="SourceGraphic" in2="effect1_dropShadow_182269_2931" result="shape" />
        </filter>
        <linearGradient id="paint0_linear_182269_2931" x1="22" y1="0" x2="22" y2="49.7392"
            gradientUnits="userSpaceOnUse">
            <stop stop-color="#FA8C16" />
            <stop offset="1" stop-color="#D76E03" />
        </linearGradient>
    </defs>
</svg>