<svg xmlns="http://www.w3.org/2000/svg" xmlns:xlink="http://www.w3.org/1999/xlink" fill="currentColor" version="1.1" width="14"
  height="14" viewBox="0 0 14 14">
  <defs>
    <clipPath id="master_svg0_1833_69573">
      <rect x="0" y="0" width="14" height="14" rx="0" />
    </clipPath>
  </defs>
  <g clip-path="url(#master_svg0_1833_69573)">
    <g>
      <path
        d="M12.4679984375,2.59765625C12.4679984375,2.59765625,11.5122984375,2.59765625,11.5122984375,2.59765625C11.3783484375,2.59765625,11.2511984375,2.65917965,11.1691684375,2.76445325C11.1691684375,2.76445325,5.5322484375,9.90527625,5.5322484375,9.90527625C5.5322484375,9.90527625,2.8293184375,6.48046625,2.8293184375,6.48046625C2.7884384375,6.42855625,2.7363184375,6.38657625,2.6768784375,6.35768625C2.6174484375000002,6.3288062499999995,2.5522384375,6.31375625,2.4861584375000003,6.31367625C2.4861584375000003,6.31367625,1.5304944375,6.31367625,1.5304944375,6.31367625C1.4388930375,6.31367625,1.3883070375,6.418946249999999,1.4443617375,6.49003625C1.4443617375,6.49003625,5.189088437500001,11.23417625,5.189088437500001,11.23417625C5.3640884374999995,11.45566625,5.7004184375,11.45566625,5.8767884375,11.23417625C5.8767884375,11.23417625,12.5540984375,2.77265625,12.5540984375,2.77265625C12.6101984375,2.70292925,12.5595984375,2.59765625,12.4679984375,2.59765625C12.4679984375,2.59765625,12.4679984375,2.59765625,12.4679984375,2.59765625Z"
        fill="currentColor" fill-opacity="1" />
      <path
        d="M1.2521354375,6.28785625Q1.1675864375,6.46202625,1.2873074375,6.61386625L5.0320984375,11.35809625Q5.223468437499999,11.60029625,5.5324284375,11.60029625Q5.8409084375,11.60029625,6.0332384375,11.35876625L12.7110984375,2.89655325Q12.8316984375,2.74660425,12.7461984375,2.57132505Q12.6614984375,2.39765625,12.4679984375,2.39765625L11.5122984375,2.39765625Q11.2014284375,2.39765625,11.0114084375,2.64152315L5.5322684375,9.58246625L2.9863184375,6.35656625Q2.8959084375,6.24177625,2.7643084375,6.177816249999999Q2.6327184375,6.11384625,2.4863984375,6.11367625L1.5304944375,6.11367625Q1.3366906375,6.11367625,1.2521354375,6.28785625ZM5.5322484375,9.90527625L5.6596584375,9.74387625L11.1691684375,2.76445325C11.2511984375,2.65917965,11.3783484375,2.59765625,11.5122984375,2.59765625L12.4679984375,2.59765625C12.5595984375,2.59765625,12.6101984375,2.70292925,12.5540984375,2.77265625L5.8767884375,11.23417625C5.7004184375,11.45566625,5.3640884374999995,11.45566625,5.189088437500001,11.23417625L1.4443617375,6.49003625C1.3883070375,6.418946249999999,1.4388930375,6.31367625,1.5304944375,6.31367625L2.4861584375000003,6.31367625C2.5522384375,6.31375625,2.6174484375000002,6.3288062499999995,2.6768784375,6.35768625C2.7363184375,6.38657625,2.7884384375,6.42855625,2.8293184375,6.48046625L5.404868437499999,9.74386625L5.5322484375,9.90527625Z"
        fill-rule="evenodd" fill="currentColor" fill-opacity="1" />
    </g>
  </g>
</svg>