<svg xmlns="http://www.w3.org/2000/svg" xmlns:xlink="http://www.w3.org/1999/xlink" fill="currentColor" version="1.1" width="14"
  height="14" viewBox="0 0 14 14">
  <defs>
    <clipPath id="master_svg0_1833_69578">
      <rect x="0" y="0" width="14" height="14" rx="0" />
    </clipPath>
  </defs>
  <g clip-path="url(#master_svg0_1833_69578)">
    <g>
      <path
        d="M7.708315625,6.99999875C7.708315625,6.99999875,11.297175625,2.72207075,11.297175625,2.72207075C11.357335625,2.65097675,11.306745625,2.54296875,11.213785625,2.54296875C11.213785625,2.54296875,10.122765625,2.54296875,10.122765625,2.54296875C10.058505624999999,2.54296875,9.996985625,2.57167965,9.954605625,2.62089845C9.954605625,2.62089845,6.994645625,6.1496087500000005,6.994645625,6.1496087500000005C6.994645625,6.1496087500000005,4.034675625,2.62089845,4.034675625,2.62089845C3.993665625,2.57167965,3.932145625,2.54296875,3.866515625,2.54296875C3.866515625,2.54296875,2.775500625,2.54296875,2.775500625,2.54296875C2.682531525,2.54296875,2.631945425,2.65097675,2.692101725,2.72207075C2.692101725,2.72207075,6.280965625,6.99999875,6.280965625,6.99999875C6.280965625,6.99999875,2.692101725,11.27792875,2.692101725,11.27792875C2.678626125,11.29377875,2.669981065,11.31315875,2.667192505,11.33376875C2.664403945,11.35438875,2.667589025,11.37536875,2.676369925,11.39422875C2.685150825,11.41307875,2.699158825,11.42901875,2.716730325,11.44015875C2.734301825,11.45128875,2.754698925,11.45714875,2.775500625,11.45702875C2.775500625,11.45702875,3.866515625,11.45702875,3.866515625,11.45702875C3.930775625,11.45702875,3.9922956249999997,11.42831875,4.034675625,11.37909875C4.034675625,11.37909875,6.994645625,7.85038875,6.994645625,7.85038875C6.994645625,7.85038875,9.954605625,11.37909875,9.954605625,11.37909875C9.995615625,11.42831875,10.057145625,11.45702875,10.122765625,11.45702875C10.122765625,11.45702875,11.213785625,11.45702875,11.213785625,11.45702875C11.306745625,11.45702875,11.357335625,11.34902875,11.297175625,11.27792875C11.297175625,11.27792875,7.708315625,6.99999875,7.708315625,6.99999875Z"
        fill="currentColor" fill-opacity="1" />
      <path
        d="M6.994645625,8.16159875L4.186235625,11.50960875Q4.059285625,11.65702875,3.866515625,11.65702875L2.776591625,11.65702875Q2.686113925,11.65752875,2.609682025,11.60909875Q2.533255625,11.56066875,2.4950636250000002,11.47864875Q2.456867625,11.39662875,2.468997625,11.30695875Q2.481126625,11.21729875,2.538879625,11.14938875L6.019905625,6.99999875L2.539424625,2.85125875Q2.411632625,2.70023175,2.495142625,2.52128225Q2.578355525,2.34296875,2.775500625,2.34296875L3.866515625,2.34296875Q4.063415625,2.34296875,4.187905625,2.49236585L6.994645625,5.83840875L9.803045625,2.49039315Q9.929995625,2.34296875,10.122765625,2.34296875L11.213785625,2.34296875Q11.410925625,2.34296875,11.494135625,2.52128225Q11.577645625,2.70023275,11.450405625,2.85061275L7.969375625,6.99999875L11.449855625,11.14873875Q11.577645625,11.29976875,11.494135625,11.47871875Q11.410925625,11.65702875,11.213785625,11.65702875L10.122765625,11.65702875Q9.925865625,11.65702875,9.801375625,11.50763875L6.994645625,8.16159875ZM2.692101725,11.27792875L6.280965625,6.99999875L2.692101725,2.72207075C2.631945425,2.65097675,2.682531525,2.54296875,2.775500625,2.54296875L3.866515625,2.54296875C3.932145625,2.54296875,3.993665625,2.57167965,4.034675625,2.62089845L6.864115625,5.99400875L6.994645625,6.1496087500000005L7.125165625,5.99400875L9.954605625,2.62089845C9.996985625,2.57167965,10.058505624999999,2.54296875,10.122765625,2.54296875L11.213785625,2.54296875C11.306745625,2.54296875,11.357335625,2.65097675,11.297175625,2.72207075L7.708315625,6.99999875L11.297175625,11.27792875C11.357335625,11.34902875,11.306745625,11.45702875,11.213785625,11.45702875L10.122765625,11.45702875C10.057145625,11.45702875,9.995615625,11.42831875,9.954605625,11.37909875L7.125165625,8.00599875L6.994645625,7.85038875L6.864115625,8.00599875L4.034675625,11.37909875C3.9922956249999997,11.42831875,3.930775625,11.45702875,3.866515625,11.45702875L2.775500625,11.45702875C2.754698925,11.45714875,2.734301825,11.45128875,2.716730325,11.44015875C2.699158825,11.42901875,2.685150825,11.41307875,2.676369925,11.39422875C2.667589025,11.37536875,2.664403945,11.35438875,2.667192505,11.33376875C2.669981065,11.31315875,2.678626125,11.29377875,2.692101725,11.27792875Z"
        fill-rule="evenodd" fill="currentColor" fill-opacity="1" />
    </g>
  </g>
</svg>