<svg xmlns="http://www.w3.org/2000/svg" xmlns:xlink="http://www.w3.org/1999/xlink" fill="none" version="1.1" width="24"
    height="24" viewBox="0 0 24 24">
    <defs>
        <clipPath id="master_svg0_669_49086/669_49017">
            <rect x="24" y="24" width="24" height="24" rx="0" />
        </clipPath>
    </defs>
    <g>
        <g transform="matrix(-1,1.8814782265508256e-7,-1.8814782265508256e-7,-1,48.000004515547744,47.999995484452256)"
            clip-path="url(#master_svg0_669_49086/669_49017)"></g>
        <g transform="matrix(0,-1,1,0,-9,22.625)">
            <path
                d="M12.890229999999999,15.8924116C12.890229999999999,15.8924116,6.940234,21.02366,6.940234,21.02366C6.7699219,21.17054,6.7699219,21.45334,6.940234,21.60179C6.940234,21.60179,12.890229999999999,26.733,12.890229999999999,26.733C13.1121,26.9237,13.43712,26.7518,13.43712,26.444000000000003C13.43712,26.444000000000003,13.43712,16.181474,13.43712,16.181474C13.43712,15.8736613,13.1121,15.701787,12.890229999999999,15.8924116C12.890229999999999,15.8924116,12.890229999999999,15.8924116,12.890229999999999,15.8924116Z"
                fill="#252525" fill-opacity="1" />
        </g>
    </g>
</svg>