<svg xmlns="http://www.w3.org/2000/svg" xmlns:xlink="http://www.w3.org/1999/xlink" fill="currentColor" version="1.1"
    width="20" height="20" viewBox="0 0 20 20">
    <defs>
        <clipPath id="master_svg0_884_36296/884_35062">
            <rect x="1" y="1.5" width="18" height="17" rx="0" />
        </clipPath>
    </defs>
    <g>
        <g>
            <g clip-path="url(#master_svg0_884_36296/884_35062)">
                <g>
                    <path
                        d="M16.027709921875,13.9190075C14.698969921875,13.9190075,13.617919921875,12.8981775,13.617919921875,11.6430975C13.617919921875,10.3880175,14.698799921875,9.3671875,16.027699921875,9.3671875C17.356609921875,9.3671875,18.437489921875,10.3881875,18.437489921875,11.6430975C18.437489921875,12.8980075,17.356609921875,13.9190075,16.027709921875,13.9190075ZM16.027709921875,10.5052275C15.363249921875,10.5052275,14.822899921874999,11.015717500000001,14.822899921874999,11.6430975C14.822899921874999,12.2704675,15.363429921875,12.7809675,16.027709921875,12.7809675C16.692159921875,12.7809675,17.232509921875,12.2704675,17.232509921875,11.6430975C17.232509921875,11.015717500000001,16.692159921875,10.5052275,16.027709921875,10.5052275Z"
                        fill-opacity="1" />
                    <path
                        d="M17.765269921875,13.2879875Q18.487499921875,12.605857499999999,18.487489921875,11.6430975Q18.487489921875,10.6803275,17.765269921875,9.9981995Q17.044239921875,9.3171875,16.027699921875,9.3171875Q15.011149921874999,9.3171873,14.290140921875,9.9981365Q13.567919921875,10.6802375,13.567920121875,11.6430975Q13.567920721875,12.6059275,14.290208921875,13.2880575Q15.011249921875,13.9689975,16.027709921875,13.9690075Q17.044239921875,13.9689975,17.765269921875,13.2879875ZM17.696609921875,10.0708995Q18.387489921875,10.7234375,18.387489921875,11.6430975Q18.387489921875,12.5627575,17.696609921875,13.2152875Q17.004469921875,13.8690075,16.027709921875,13.8690075Q15.050999921875,13.8690075,14.358868921875,13.2153475Q13.667920121875,12.5628175,13.667920121875,11.6430975Q13.667919921875,10.7233375,14.358803921875,10.0708385Q15.050899921875,9.4171877,16.027699921875,9.4171875Q17.004469921875,9.4171875,17.696609921875,10.0708995ZM16.913609921875,12.4836475Q17.282509921875,12.1351975,17.282509921875,11.6430975Q17.282509921875,11.1509875,16.913609921875,10.8025475Q16.545899921874998,10.4552275,16.027709921875,10.4552275Q15.509519921875,10.4552275,15.141799921875,10.8025475Q14.772899921875,11.1509875,14.772899921875,11.6430975Q14.772899921875,12.135177500000001,15.141869921875,12.4836475Q15.509619921875,12.8309675,16.027709921875,12.8309675Q16.545899921874998,12.8309675,16.913609921875,12.4836475ZM16.844939921875,10.8752475Q17.182509921875,11.1940875,17.182509921875,11.6430975Q17.182509921875,12.0920975,16.844939921875,12.410947499999999Q16.506139921875,12.7309675,16.027709921875,12.7309675Q15.549379921875,12.7309675,15.210529921875,12.410947499999999Q14.872899921875,12.0920675,14.872899921875,11.6430975Q14.872899921875,11.1940875,15.210469921875,10.8752475Q15.549279921875,10.5552275,16.027709921875,10.5552275Q16.506139921875,10.5552275,16.844939921875,10.8752475Z"
                        fill-rule="evenodd" fill-opacity="1" />
                </g>
                <g>
                    <path
                        d="M10.47211990625,17.954326875C10.31760890625,17.954326875,10.16291990625,17.898376875,10.04514790625,17.786816875C9.81047980625,17.564026875,9.81118300625,17.203776875,10.046904906249999,16.982136875000002L14.505768906250001,12.788752875C14.74184890625,12.567121975,15.12311890625,12.567951875,15.35778890625,12.790411875C15.592448906249999,13.013204875,15.59174890625,13.373458875,15.35602890625,13.595089875L10.89715890625,17.788646875C10.77973790625,17.899206875,10.62592990625,17.954326875,10.47211990625,17.954326875Z"
                        fill-opacity="1" />
                    <path
                        d="M10.93141890625,17.825066875L10.93143890625,17.825046874999998L15.39027890625,13.631516874999999Q15.58275890625,13.450541875,15.58329890625,13.193291875Q15.58383890625,12.936085875,15.39218890625,12.754125875Q15.20173890625,12.573592075,14.93240890625,12.573048375Q14.66305890625,12.572504675,14.471518906250001,12.752329875L10.01265490625,16.945716875Q9.82017370625,17.126686875,9.81963030625,17.383936875Q9.81908700625,17.641146875,10.01076290625,17.823116875Q10.20205890625,18.004326875,10.47212090625,18.004326875Q10.74102590625,18.004326875,10.93141890625,17.825066875ZM15.32177890625,13.558661875L10.86290490625,17.752216875000002L10.86288290625,17.752236875Q10.70136890625,17.904326875,10.47211890625,17.904326875Q10.24190290625,17.904326875,10.07953390625,17.750516875Q9.91917780625,17.598276875,9.91963010625,17.384146875Q9.92008240625,17.170016875,10.08115490625,17.018566875L14.54002890625,12.825175875Q14.702558906250001,12.672584575,14.93220890625,12.673048175Q15.161788906249999,12.673511575,15.323388906249999,12.826698875Q15.48374890625,12.978950875,15.483298906249999,13.193080875Q15.48284890625,13.407217875,15.32177890625,13.558661875Z"
                        fill-rule="evenodd" fill-opacity="1" />
                </g>
                <g>
                    <path
                        d="M12.723426796875,14.923721875C12.569796796875,14.923721875,12.416336796875001,14.868821875,12.298916796875,14.758521875L11.511586796875001,14.019921875C11.275516796875,13.798521875,11.274286796875,13.438221875,11.508606796875,13.215321875C11.743266796875,12.992521875,12.124716796875,12.991121875,12.360616796875,13.212421875L13.147936796875,13.951021875C13.384016796875,14.172521875,13.385246796875,14.532821875,13.150926796875,14.755721875C13.037886796875,14.863421875,12.883956796875,14.923921875,12.723426796875,14.923721875ZM11.210476796875,16.739321875C11.056316796874999,16.739321875,10.902156796875001,16.683721875,10.784556796875,16.572621875L8.886646796874999,14.780121875C8.651276796874999,14.558021875,8.651276796874999,14.197621875,8.886646796874999,13.975621875C9.122016796875,13.753321875,9.503116796875,13.753321875,9.738486796875,13.975621875L11.636396796875001,15.768121875C11.871766796875,15.990221875,11.871766796875,16.350621875,11.636396796875001,16.572621875C11.523516796875,16.679421875,11.370266796875,16.739421874999998,11.210476796875,16.739321875ZM9.343676796875,11.092771875C6.702396796875,11.092771875,4.553466796875,9.050611875000001,4.553466796875,6.540791875C4.553466796875,4.061841875,6.702396796875,2.044921875,9.343676796875,2.044921875C11.984966796875,2.044921875,14.133716796875,4.061841875,14.133716796875,6.540791875C14.133716796875,9.050781875,11.984966796875,11.092771875,9.343676796875,11.092771875ZM9.343676796875,3.182791875C7.366846796875,3.182791875,5.7582667968750005,4.689221874999999,5.7582667968750005,6.540791875C5.7582667968750005,8.423411875,7.366666796875,9.954901875000001,9.343676796875,9.954901875000001C11.320696796875,9.954901875000001,12.928736796875,8.423411875,12.928736796875,6.540791875C12.928916796875,4.689221874999999,11.320696796875,3.182791875,9.343676796875,3.182791875Z"
                        fill-opacity="1" />
                    <path
                        d="M12.763626796875,9.794271875Q14.183716796875,8.444751875,14.183716796875,6.540791875Q14.183716796875,4.659901875,12.763406796875,3.326791875Q11.344406796874999,1.994921875,9.343676796875,1.994921875Q7.342926796875,1.994922675,5.923876796875,3.326791875Q4.503466696875,4.6599418749999995,4.503466796875,6.540791875Q4.503467596875,8.444641875,5.9236467968749995,9.794211875Q7.342756796874999,11.142791875,9.343676796875,11.142771875Q11.344606796875,11.142761875,12.763626796875,9.794271875ZM12.694966796875,3.399711875Q14.083706796875,4.703191875,14.083716796875,6.540791875Q14.083706796875,8.401821875,12.694736796875,9.721781875Q11.304686796875,11.042781875,9.343676796875,11.042771875Q7.382706796875,11.042751875,5.992536796875,9.721721875Q4.603465996875,8.401701875,4.603466796875,6.540791875Q4.603466796875,4.703211875,5.992306796875,3.399711875Q7.382506796875,2.094921075,9.343676796875,2.094921875Q11.304826796875,2.094921975,12.694966796875,3.399711875ZM11.912066796875,8.990031875Q12.978726796875,7.974211875,12.978736796875,6.540791875Q12.978886796875,5.130431875,11.911836796875,4.130961875000001Q10.846186796875,3.1327918749999997,9.343676796875,3.1327918749999997Q7.841276796875,3.1327918749999997,6.7754867968750006,4.130961875000001Q5.7082767968749994,5.130451875,5.708266796875,6.540791875Q5.7082767968749994,7.974171875,6.775116796875,8.990041875Q7.840916796875,10.004911875000001,9.343676796875,10.004901875Q10.846416796875001,10.004901875,11.912066796875,8.990031875ZM11.843476796874999,4.203941875Q12.878856796875,5.173771875,12.878736796875,6.540781875Q12.878736796875,7.931351875,11.843106796875,8.917621875Q10.806406796874999,9.904911875,9.343676796875,9.904901875Q7.880906796875,9.904911875,6.844076796875,8.917621875Q5.8082667968749995,7.931311875,5.8082667968749995,6.540791875Q5.8082667968749995,5.1738018750000005,6.843836796874999,4.203941875Q7.880786796875,3.232791875,9.343676796875,3.232791875Q10.806666796875,3.232791875,11.843476796874999,4.203941875ZM13.185396796875,14.791921875L13.185406796875,14.791921875Q13.376766796875,14.609821875,13.375826796875,14.352621875Q13.374896796875,14.095421875,13.182146796875,13.914621875L12.394826796875,13.176021875Q12.203416796875,12.996421875,11.933976796875001,12.997321875Q11.664596796875,12.998221875,11.474136796875001,13.179021875Q11.282766796875,13.361121875,11.283696796874999,13.618321875Q11.284636796874999,13.875621875,11.477386796874999,14.056421875L12.264696796875,14.795021875Q12.455086796875001,14.973721875,12.723386796875,14.973721875Q12.994256796875,14.974021875,13.185396796875,14.791921875ZM13.275826796875,14.353021875Q13.276606796875,14.567121875,13.116456796875,14.719521875L13.116446796875,14.719521875Q12.954296796875,14.873921875,12.723466796875,14.873721875Q12.494666796875,14.873721875,12.333136796875,14.722121875L11.545796796874999,13.983521875Q11.384476796875,13.832121875,11.383696796875,13.618021875Q11.382926796875001,13.403921875,11.543066796875,13.251521875Q11.704646796875,13.098121875,11.934316796874999,13.097321875Q12.163996796875,13.096521875,12.326406796875,13.248921875L13.113726796875,13.987521875Q13.275056796875,14.138921875,13.275826796875,14.353021875ZM11.670696796875,16.609021875L11.670756796875,16.608921875Q11.862926796875,16.427721875,11.862926796875,16.170421875000002Q11.862926796875,15.913121875,11.670726796875,15.731721875L9.772816796875,13.939321875Q9.581836796874999,13.758921875,9.312566796875,13.758921875Q9.043296796875001,13.758921875,8.852346796875,13.939221875Q8.660116796875,14.120521875,8.660116796875,14.377821875Q8.660126796875,14.635121875,8.852316796875,14.816521875L10.750226796875001,16.608921875Q10.941166796874999,16.789321875,11.210446796875,16.789321875Q11.479926796874999,16.789521875,11.670696796875,16.609021875ZM11.762926796875,16.170421875000002Q11.762926796875,16.384521875,11.602086796875,16.536221875000003L11.602026796875,16.536321875Q11.440186796875,16.689421875,11.210506796875,16.689321874999997Q10.980926796875,16.689321874999997,10.818886796874999,16.536221875000003L8.920976796875,14.743821875Q8.760116796875,14.592021875,8.760126796875,14.377821875Q8.760126796875,14.163721875,8.920956796875,14.012021875Q9.083056796874999,13.858921875,9.312566796875,13.858921875Q9.542076796875001,13.858921875,9.704156796875,14.012021875L11.602066796875,15.804421875Q11.762926796875,15.956221875,11.762926796875,16.170421875000002Z"
                        fill-rule="evenodd" fill-opacity="1" />
                </g>
                <g>
                    <path
                        d="M7.69955,17.933374375L2.164902,17.933374375C1.832148,17.933374375,1.5625,17.678714375,1.5625,17.364444374999998C1.5625,13.280954375,5.05316,9.958984375,9.343630000000001,9.958984375C9.67639,9.958984375,9.94604,10.213652375,9.94604,10.527920375C9.94604,10.842187375,9.67639,11.096854375,9.343630000000001,11.096854375C5.91871,11.096854375,3.09672,13.605184375,2.7942,16.795504375L7.69955,16.795504375C8.0323,16.795504375,8.30195,17.050174375,8.30195,17.364444374999998C8.30195,17.678714375,8.0323,17.933374375,7.69955,17.933374375Z"
                        fill-opacity="1" />
                    <path
                        d="M8.15987,17.803114375Q8.35195,17.621694375,8.35195,17.364444374999998Q8.35196,17.107184375,8.15987,16.925774375Q7.969,16.745504375,7.69955,16.745504375L2.84939,16.745504375Q3.0913500000000003,14.398444375,4.93096,12.787424375Q6.80432,11.146854375,9.343630000000001,11.146854375Q9.61308,11.146854375,9.80395,10.966584375Q9.99604,10.785170375,9.99604,10.527920375Q9.99604,10.270669375,9.80395,10.089251375Q9.61308,9.908984375,9.343630000000001,9.908983875Q6.10577,9.908981275,3.80967,12.094184375000001Q1.5125,14.280424374999999,1.5125001,17.364444374999998Q1.5125,17.621694375,1.704587,17.803114375Q1.895457,17.983374375,2.164902,17.983374375L7.69955,17.983374375Q7.969,17.983374375,8.15987,17.803114375ZM8.0912,16.998474375Q8.25195,17.150294375,8.25195,17.364444374999998Q8.25195,17.578594375,8.0912,17.730414375Q7.92924,17.883374375,7.69955,17.883374375L2.164902,17.883374375Q1.935215,17.883374375,1.77325,17.730414375Q1.6125001,17.578594375,1.6125001,17.364444374999998Q1.6125,14.323304375,3.87861,12.166624375Q6.14574,10.008972175,9.343630000000001,10.008983875Q9.57332,10.008984375,9.73529,10.161952375Q9.89604,10.313773375,9.89604,10.527920375Q9.89603,10.742066375,9.73529,10.893887375Q9.57332,11.046854375,9.343630000000001,11.046854375Q6.76672,11.046854375,4.865069999999999,12.712194375Q2.97415,14.368164375,2.74442,16.790784375L2.73923,16.845504375L7.69955,16.845504375Q7.92924,16.845504375,8.0912,16.998474375Z"
                        fill-rule="evenodd" fill-opacity="1" />
                </g>
            </g>
        </g>
        <g></g>
    </g>
</svg>