<svg xmlns="http://www.w3.org/2000/svg" xmlns:xlink="http://www.w3.org/1999/xlink" fill="none" version="1.1" width="24"
    height="24" viewBox="0 0 24 24">
    <defs>
        <clipPath id="master_svg0_669_49020/669_49014">
            <rect x="24" y="24" width="24" height="24" rx="0" />
        </clipPath>
    </defs>
    <g>
        <g transform="matrix(-1,1.8814782265508256e-7,-1.8814782265508256e-7,-1,48.000004515547744,47.999995484452256)"
            clip-path="url(#master_svg0_669_49020/669_49014)"></g>
        <g transform="matrix(-1,0,0,-1,31.2490234375,36)">
            <path
                d="M21.70224171875,18.0799116C21.70224171875,18.0799116,15.75224571875,23.21116,15.75224571875,23.21116C15.58193361875,23.35804,15.58193361875,23.64084,15.75224571875,23.78929C15.75224571875,23.78929,21.70224171875,28.9205,21.70224171875,28.9205C21.924111718749998,29.1112,22.24913171875,28.9393,22.24913171875,28.631500000000003C22.24913171875,28.631500000000003,22.24913171875,18.368974,22.24913171875,18.368974C22.24913171875,18.0611613,21.924111718749998,17.889287,21.70224171875,18.0799116C21.70224171875,18.0799116,21.70224171875,18.0799116,21.70224171875,18.0799116Z"
                fill="#252525" fill-opacity="1" />
        </g>
    </g>
</svg>