<svg xmlns="http://www.w3.org/2000/svg" xmlns:xlink="http://www.w3.org/1999/xlink" fill="currentColor" version="1.1"
    width="20" height="20" viewBox="0 0 20 20">
    <defs>
        <clipPath id="master_svg0_884_36086">
            <rect x="0" y="0" width="20" height="20" rx="0" />
        </clipPath>
    </defs>
    <g clip-path="url(#master_svg0_884_36086)">
        <g>
            <path
                d="M17.1875,16.3281C17.1875,16.3281,2.8125,16.3281,2.8125,16.3281C2.466797,16.3281,2.1875,16.6074,2.1875,16.9531C2.1875,16.9531,2.1875,17.6563,2.1875,17.6563C2.1875,17.7422,2.2578125,17.8125,2.34375,17.8125C2.34375,17.8125,17.6563,17.8125,17.6563,17.8125C17.7422,17.8125,17.8125,17.7422,17.8125,17.6563C17.8125,17.6563,17.8125,16.9531,17.8125,16.9531C17.8125,16.6074,17.5332,16.3281,17.1875,16.3281ZM5.0332,14.6875C5.07227,14.6875,5.111330000000001,14.6836,5.15039,14.6777C5.15039,14.6777,8.43555,14.1016,8.43555,14.1016C8.47461,14.0937,8.51172,14.0762,8.53906,14.0469C8.53906,14.0469,16.8184,5.767580000000001,16.8184,5.767580000000001C16.8365,5.74951,16.8508,5.72805,16.860599999999998,5.70442C16.8704,5.68079,16.875500000000002,5.65546,16.875500000000002,5.62988C16.875500000000002,5.6043,16.8704,5.57897,16.860599999999998,5.55535C16.8508,5.53172,16.8365,5.510260000000001,16.8184,5.49219C16.8184,5.49219,13.5723,2.2441407,13.5723,2.2441407C13.5352,2.2070313,13.4863,2.1875,13.4336,2.1875C13.3809,2.1875,13.332,2.2070313,13.2949,2.2441407C13.2949,2.2441407,5.01562,10.52344,5.01562,10.52344C4.986330000000001,10.55273,4.96875,10.58789,4.96094,10.62695C4.96094,10.62695,4.38477,13.9121,4.38477,13.9121C4.3657699999999995,14.0167,4.37255,14.1244,4.40454,14.2258C4.43654,14.3273,4.4927600000000005,14.4193,4.56836,14.4941C4.69727,14.6191,4.85938,14.6875,5.0332,14.6875C5.0332,14.6875,5.0332,14.6875,5.0332,14.6875ZM6.34961,11.28125C6.34961,11.28125,13.4336,4.19922,13.4336,4.19922C13.4336,4.19922,14.8652,5.63086,14.8652,5.63086C14.8652,5.63086,7.78125,12.7129,7.78125,12.7129C7.78125,12.7129,6.044919999999999,13.0195,6.044919999999999,13.0195C6.044919999999999,13.0195,6.34961,11.28125,6.34961,11.28125C6.34961,11.28125,6.34961,11.28125,6.34961,11.28125Z"
                fill-opacity="1" />
        </g>
    </g>
</svg>