<svg xmlns="http://www.w3.org/2000/svg" xmlns:xlink="http://www.w3.org/1999/xlink" fill="currentColor" version="1.1"
    width="20" height="20" viewBox="0 0 20 20">
    <defs>
        <clipPath id="master_svg0_884_36242/884_35049">
            <rect x="1" y="1" width="18" height="18" rx="0" />
        </clipPath>
    </defs>
    <g>
        <g>
            <g clip-path="url(#master_svg0_884_36242/884_35049)">
                <g>
                    <path
                        d="M17.87643515625,9.999556875C17.87643515625,10.386246875,17.56293515625,10.699676875,17.176335156249998,10.699676875L2.82365415625,10.699676875C2.43697015625,10.699676875,2.12353515625,10.386246875,2.12353515625,9.999556875C2.12353515625,9.612876875000001,2.43697015625,9.299436875,2.82365415625,9.299436875L17.176335156249998,9.299436875C17.563035156250002,9.299456875,17.87643515625,9.612886875000001,17.87643515625,9.999556875ZM10.00001515625,2.123046875C10.38664515625,2.123046875,10.70012515625,2.436534875,10.70012515625,2.823271875L10.70012515625,17.175846874999998C10.70012515625,17.562646875,10.38664515625,17.876046875,10.00001515625,17.876046875C9.61332515625,17.876046875,9.299835156250001,17.562646875,9.299835156250001,17.175846874999998L9.299835156250001,2.823271875C9.299835156250001,2.436534875,9.61332515625,2.123046875,10.00001515625,2.123046875Z"
                        fill-opacity="1" />
                    <path
                        d="M9.469565156249999,2.2927788749999998Q9.24983515625,2.512512875,9.24983515625,2.823271875L9.24983515625,9.249436875L2.82365415625,9.249436875Q2.5129321562499998,9.249436875,2.29323315625,9.469136875Q2.07353515625,9.688826875,2.07353515625,9.999556875Q2.07353515625,10.310276875,2.29323315625,10.529976875Q2.5129291562500002,10.749676875,2.82365415625,10.749676875L9.24983515625,10.749676875L9.24983515625,17.175846874999998Q9.24983515625,17.486646874999998,9.469565156249999,17.706346875Q9.68927515625,17.926046875,10.00001515625,17.926046875Q10.31070515625,17.926046875,10.53041515625,17.706346875Q10.75012515625,17.486646874999998,10.75012515625,17.175846874999998L10.75012515625,10.749676875L17.176335156249998,10.749676875Q17.487035156250002,10.749676875,17.706735156249998,10.529976875Q17.92643515625,10.310276875,17.92643515625,9.999556875Q17.92643515625,9.688846875,17.706735156249998,9.469146875Q17.487035156250002,9.249456875,17.176335156249998,9.249436875L10.75012515625,9.249436875L10.75012515625,2.823271875Q10.75012515625,2.512516875,10.53041515625,2.292779875Q10.31070515625,2.073046875,10.00001515625,2.073046875Q9.689285156250001,2.073046875,9.469565156249999,2.2927788749999998ZM10.65012515625,9.249436875L10.65012515625,2.823271875Q10.65012515625,2.553934875,10.45969515625,2.363486875Q10.26927515625,2.173046875,10.00001515625,2.173046875Q9.73070515625,2.173046975,9.54027515625,2.363487875Q9.34984515625,2.553931875,9.34983515625,2.823271875L9.34983515625,9.249436875L10.65012515625,9.249436875ZM9.34983515625,9.349436875L10.65012515625,9.349436875L10.65012515625,10.649676875L9.34983515625,10.649676875L9.34983515625,9.349436875ZM9.24983515625,9.349436875L2.82365415625,9.349436875Q2.55435315625,9.349436875,2.36394415625,9.539846875Q2.17353515625,9.730256875,2.17353515625,9.999556875Q2.17353525625,10.268856875,2.36394415625,10.459266875Q2.55435115625,10.649676875,2.82365415625,10.649676875L9.24983515625,10.649676875L9.24983515625,9.349436875ZM9.34983515625,10.749676875L9.34983515625,17.175846874999998Q9.34983515625,17.445146875,9.54027515625,17.635646875Q9.73069515625,17.826046875,10.00001515625,17.826046875Q10.26928515625,17.826046875,10.45970515625,17.635646875Q10.65012515625,17.445146875,10.65012515625,17.175846874999998L10.65012515625,10.749676875L9.34983515625,10.749676875ZM10.75012515625,10.649676875L10.75012515625,9.349436875L17.176335156249998,9.349436875Q17.44563515625,9.349456875,17.63603515625,9.539866875000001Q17.82643515625,9.730276875000001,17.82643515625,9.999556875Q17.82643515625,10.268856875,17.63603515625,10.459266875Q17.44563515625,10.649676875,17.176335156249998,10.649676875L10.75012515625,10.649676875Z"
                        fill-rule="evenodd" fill-opacity="1" />
                </g>
            </g>
        </g>
        <g></g>
    </g>
</svg>