<svg xmlns="http://www.w3.org/2000/svg" xmlns:xlink="http://www.w3.org/1999/xlink" fill="currentColor" version="1.1"
    width="20" height="20" viewBox="0 0 20 20">
    <defs>
        <clipPath id="master_svg0_884_36243/884_35043">
            <rect x="2" y="2" width="16" height="16" rx="0" />
        </clipPath>
    </defs>
    <g>
        <g>
            <g clip-path="url(#master_svg0_884_36243/884_35043)">
                <g>
                    <path
                        d="M10.3624059375,10.533405625C8.0086659375,10.533405625,6.1005859375,8.625325625,6.1005859375,6.271585625C6.1005859375,3.917845625,8.0086659375,2.0097655486315,10.3624059375,2.009765625C12.7161459375,2.0097655486315,14.6242259375,3.917845625,14.6242259375,6.271585625C14.6242259375,8.625325625,12.7161459375,10.533405625,10.3624059375,10.533405625ZM10.3624059375,3.250495625C8.7109059375,3.2488856249999998,7.3717059375,4.588085625,7.3733159375,6.239585625C7.3717059375,7.891075625,8.7109059375,9.230285625,10.3624059375,9.228675625000001C12.0138959375,9.230285625,13.3531059375,7.891075625,13.351495937500001,6.239585625C13.351495937500001,4.6177656250000005,12.0162259375,3.250495625,10.3624059375,3.250495625Z"
                        fill-opacity="1" />
                    <path
                        d="M13.4113159375,9.320495625Q14.6742259375,8.057585625,14.6742259375,6.271585625Q14.6742059375,4.485565625,13.4113159375,3.2226656250000003Q12.1484059375,1.959765625,10.3624059375,1.959766125Q8.5763959375,1.959766425,7.3134859375,3.2226656250000003Q6.0505858375,4.485565625,6.0505859375,6.271585625Q6.0505867375,8.057585625,7.3134859375,9.320495625Q8.5763659375,10.583405625,10.3624059375,10.583405625Q12.1484259375,10.583415625,13.4113159375,9.320495625ZM13.340605937500001,3.293375625Q14.5742159375,4.526985625,14.5742259375,6.271585625Q14.5742459375,8.016175624999999,13.340605937500001,9.249785625000001Q12.106995937499999,10.483415625,10.3624059375,10.483405625Q8.6177959375,10.483395625,7.3841959374999995,9.249785625000001Q6.1505851375,8.016155625,6.1505859375,6.271585625Q6.1505860375,4.526995625,7.3841959374999995,3.293375625Q8.6178059375,2.059764825,10.3624059375,2.059766125Q12.1069759375,2.059765725,13.340605937500001,3.293375625ZM12.512215937499999,8.389395624999999Q13.4027059375,7.498915625,13.4014959375,6.239585625L13.4014959375,6.239535625Q13.4014859375,4.997065624999999,12.5126159375,4.101635625Q11.618105937500001,3.2004956250000003,10.3624059375,3.2004956250000003Q9.103095937500001,3.199265625,8.2125859375,4.089765625Q7.3220859375,4.9802656249999995,7.3233159375,6.239635625Q7.3220859375,7.498895625,8.2125859375,8.389395624999999Q9.1030859375,9.279895625,10.3624559375,9.278675625Q11.6217159375,9.279905625,12.512215937499999,8.389395624999999ZM12.441645937499999,4.172085624999999Q13.3014959375,5.038295625,13.3014959375,6.239585625L13.3014959375,6.239635625Q13.3026759375,7.457515625,12.4415059375,8.318685625Q11.5803359375,9.179855625,10.3623559375,9.178675625Q9.1444659375,9.179865625,8.2832959375,8.318685625Q7.4221259375,7.457515625,7.4233159375,6.239535625Q7.4221259375,5.021655625,8.2832959375,4.160475625Q9.1444659375,3.2993056249999997,10.3624059375,3.300495625Q11.5764659375,3.300495625,12.441645937499999,4.172085624999999Z"
                        fill-rule="evenodd" fill-opacity="1" />
                </g>
                <g>
                    <path
                        d="M3.3658561875,17.56205875C3.0147341875,17.56125875,2.7302924395,17.27681875,2.7294921875,16.92569875C2.7294921875,12.72787875,6.1644021875,9.29296875,10.362222187499999,9.29296875C10.7120321875,9.29296875,10.9985821875,9.57951375,10.9985821875,9.92933275C10.9977821875,10.28045475,10.7133421875,10.56489875,10.362222187499999,10.56569875C6.8640421875,10.56569875,4.0014921875,13.42751875,4.0014921875,16.92569875C4.0006921875,17.27653875,3.7166941875,17.56085875,3.3658561875,17.56205875ZM16.6276921875,14.69951875L11.7294921875,14.69951875C11.3789321875,14.69831875,11.0950521875,14.41443875,11.0938521875,14.06387875C11.0938521875,13.71405875,11.3796721875,13.42751875,11.7294921875,13.42751875L16.6276921875,13.42751875C16.9767921875,13.42751875,17.2632921875,13.71405875,17.2632921875,14.06387875C17.262092187500002,14.414428749999999,16.9781921875,14.69831875,16.6276921875,14.69951875Z"
                        fill-opacity="1" />
                    <path
                        d="M3.8503121875,17.410328749999998Q4.0508421875,17.20956875,4.0514921875,16.92580875L4.0514921875,16.92569875Q4.0515021875,14.32282875,5.9053921875,12.46923875Q7.7592121875,10.61568875,10.3623321875,10.61569875Q10.646312187500001,10.61504875,10.8471321875,10.414238749999999Q11.0479421875,10.21343175,11.0485821875,9.92933275Q11.0485821875,9.64625675,10.8469421875,9.44461375Q10.6452921875,9.24296875,10.362222187499999,9.24296875Q7.1931421875,9.24298095,4.9363221875,11.49979875Q2.6794919875,13.756618750000001,2.6794923875,16.92580875Q2.6801395875,17.20978875,2.8809481875,17.41060875Q3.0817571875,17.61141875,3.3660261875,17.61205875Q3.6497821875,17.61108875,3.8503121875,17.410328749999998ZM5.8346821875,12.398518750000001Q3.9515121875,14.281398750000001,3.9514921875,16.92569875L3.9514921875,16.92557875Q3.9509421875,17.16808875,3.7795621875,17.339658749999998Q3.6081851875,17.51123875,3.3656851875,17.51205875Q3.1232721875,17.51150875,2.9516591875,17.33988875Q2.7800452875,17.16827875,2.7794920875,16.92557875Q2.7794923875,13.79803875,5.0070321875,11.57050875Q7.2345721875,9.34297185,10.362222187499999,9.34296875Q10.6038721875,9.34296875,10.7762221875,9.51532375Q10.9485821875,9.68767875,10.9485821875,9.92933275Q10.9480321875,10.17191675,10.7764121875,10.34352875Q10.604802187499999,10.51514875,10.3621021875,10.51569875Q7.7178321875,10.51569875,5.8346821875,12.398518750000001ZM17.1118921875,14.54805875Q17.3122921875,14.34757875,17.3132921875,14.064048750000001L17.3132921875,14.06387875Q17.3132921875,13.78087875,17.1117921875,13.579168750000001Q16.910292187499998,13.37751875,16.6276921875,13.37751875L11.7294921875,13.37751875Q11.4464621875,13.37751875,11.2451121875,13.57918875Q11.0438521875,13.78075875,11.0438521875,14.064048750000001Q11.0448221875,14.34757875,11.2453121875,14.54805875Q11.4457921875,14.748548750000001,11.7294921875,14.74951875L16.627892187500002,14.74951875Q16.9113921875,14.748548750000001,17.1118921875,14.54805875ZM17.040992187500002,13.64985875Q17.213292187500002,13.82220875,17.213292187500002,14.06370875L17.213292187500002,14.06387875Q17.2123921875,14.30606875,17.041192187500002,14.47734875Q16.8697921875,14.64868875,16.6274921875,14.64951875L11.7294921875,14.64951875Q11.4873621875,14.64868875,11.3160221875,14.47734875Q11.1446821875,14.30600875,11.1438521875,14.06370875Q11.1438521875,13.822128750000001,11.3158721875,13.64983875Q11.4879321875,13.47751875,11.7294921875,13.47751875L16.6276921875,13.47751875Q16.8687921875,13.47751875,17.040992187500002,13.64985875Z"
                        fill-rule="evenodd" fill-opacity="1" />
                </g>
                <g>
                    <path
                        d="M14.17811646875,17.1474725C13.82727846875,17.146272500000002,13.54327774075,16.861942499999998,13.54248046875,16.5111025L13.54248046875,11.6129265C13.54248046875,11.2631085,13.82829846875,10.9765625,14.17811646875,10.9765625C14.52793546875,10.9765625,14.81448046875,11.2631085,14.81448046875,11.6129265L14.81448046875,16.5103825C14.81328046875,16.8612225,14.52895546875,17.1452225,14.17811646875,17.1460225L14.17811646875,17.1474725Z"
                        fill-opacity="1" />
                    <path
                        d="M14.22811646875,17.1943125L14.22811646875,17.1976425L14.17794646875,17.1974725Q13.89419046875,17.1965025,13.69365746875,16.9957425Q13.49312536875,16.7949725,13.49248056875,16.5112225L13.49248046875,11.6129265Q13.49248046875,11.3298065,13.69373346875,11.1282355Q13.89508846875,10.9265625,14.17811646875,10.9265625Q14.46119146875,10.9265625,14.66284046875,11.1282075Q14.86448046875,11.3298525,14.86448046875,11.6129265L14.86448046875,16.5103825Q14.86351046875,16.7943125,14.66275046875,16.9948425Q14.47986746875,17.1775125,14.22811646875,17.1943125ZM14.13776946875,17.0961125L14.17800346875,17.0960225Q14.420505468750001,17.0954625,14.59208046875,16.9240925Q14.76365046875,16.7527125,14.76448046875,16.5103825L14.76448046875,11.6129265Q14.76448046875,11.3712735,14.59212046875,11.1989175Q14.41977046875,11.0265625,14.17811646875,11.0265625Q13.93655546875,11.0265625,13.76450046875,11.1988905Q13.59248046875,11.3711815,13.59248046875,11.6129265L13.59248036875,16.5109925Q13.59303136875,16.7534925,13.76440846875,16.9250725Q13.92128946875,17.0821325,14.13776946875,17.0961125Z"
                        fill-rule="evenodd" fill-opacity="1" />
                </g>
            </g>
        </g>
        <g></g>
    </g>
</svg>