<svg xmlns="http://www.w3.org/2000/svg" xmlns:xlink="http://www.w3.org/1999/xlink" fill="currentColor" version="1.1"
    width="20" height="20" viewBox="0 0 20 20">
    <defs>
        <clipPath id="master_svg0_884_36248">
            <rect x="0" y="0" width="20" height="20" rx="0" />
        </clipPath>
    </defs>
    <g clip-path="url(#master_svg0_884_36248)">
        <g>
            <path
                d="M16.875,5C16.875,5,14.375,5,14.375,5C14.375,5,14.375,3.4375,14.375,3.4375C14.375,2.748047,13.8145,2.1875,13.125,2.1875C13.125,2.1875,6.875,2.1875,6.875,2.1875C6.18555,2.1875,5.625,2.748047,5.625,3.4375C5.625,3.4375,5.625,5,5.625,5C5.625,5,3.125,5,3.125,5C2.779297,5,2.5,5.2793,2.5,5.625C2.5,5.625,2.5,6.25,2.5,6.25C2.5,6.33594,2.5703125,6.40625,2.65625,6.40625C2.65625,6.40625,3.83594,6.40625,3.83594,6.40625C3.83594,6.40625,4.31836,16.6211,4.31836,16.6211C4.34961,17.287100000000002,4.90039,17.8125,5.566409999999999,17.8125C5.566409999999999,17.8125,14.4336,17.8125,14.4336,17.8125C15.1016,17.8125,15.6504,17.289099999999998,15.6816,16.6211C15.6816,16.6211,16.164099999999998,6.40625,16.164099999999998,6.40625C16.164099999999998,6.40625,17.3438,6.40625,17.3438,6.40625C17.4297,6.40625,17.5,6.33594,17.5,6.25C17.5,6.25,17.5,5.625,17.5,5.625C17.5,5.2793,17.2207,5,16.875,5ZM7.03125,3.59375C7.03125,3.59375,12.9688,3.59375,12.9688,3.59375C12.9688,3.59375,12.9688,5,12.9688,5C12.9688,5,7.03125,5,7.03125,5C7.03125,5,7.03125,3.59375,7.03125,3.59375ZM14.2832,16.4063C14.2832,16.4063,5.7168,16.4063,5.7168,16.4063C5.7168,16.4063,5.24414,6.40625,5.24414,6.40625C5.24414,6.40625,14.7559,6.40625,14.7559,6.40625C14.7559,6.40625,14.2832,16.4063,14.2832,16.4063Z"
                fill-opacity="1" />
        </g>
        <g>
            <path
                d="M7.25,9L7.25,14Q7.25,14.07387,7.264411,14.14632Q7.278822,14.21877,7.30709,14.28701Q7.335359,14.355260000000001,7.376398,14.41668Q7.417437,14.478100000000001,7.46967,14.53033Q7.521903,14.58256,7.583322,14.6236Q7.644742,14.66464,7.712987,14.692910000000001Q7.781233,14.72118,7.853682,14.73559Q7.9261315,14.75,8,14.75Q8.0738685,14.75,8.146318,14.73559Q8.218767,14.72118,8.287013,14.692910000000001Q8.355258,14.66464,8.416678,14.6236Q8.478097,14.58256,8.53033,14.53033Q8.582563,14.478100000000001,8.623602,14.41668Q8.664641,14.355260000000001,8.69291,14.28701Q8.721178,14.21877,8.735589000000001,14.14632Q8.75,14.07387,8.75,14L8.75,9Q8.75,8.9261315,8.735589000000001,8.853682Q8.721178,8.781233,8.69291,8.712987Q8.664641,8.644742,8.623602,8.583322Q8.582563,8.521903,8.53033,8.46967Q8.478097,8.417437,8.416678,8.376398Q8.355258,8.335359,8.287013,8.30709Q8.218767,8.278822,8.146318,8.264410999999999Q8.0738685,8.25,8,8.25Q7.9261315,8.25,7.853682,8.264410999999999Q7.781233,8.278822,7.712987,8.30709Q7.644742,8.335359,7.583322,8.376398Q7.521903,8.417437,7.46967,8.46967Q7.417437,8.521903,7.376398,8.583322Q7.335359,8.644742,7.30709,8.712987Q7.278822,8.781233,7.264411,8.853682Q7.25,8.9261315,7.25,9Z"
                fill-rule="evenodd" fill-opacity="1" />
        </g>
        <g>
            <path
                d="M11.25,9L11.25,14Q11.25,14.07387,11.264410999999999,14.14632Q11.278822,14.21877,11.30709,14.28701Q11.335359,14.355260000000001,11.376398,14.41668Q11.417437,14.478100000000001,11.46967,14.53033Q11.521903,14.58256,11.583322,14.6236Q11.644742,14.66464,11.712987,14.692910000000001Q11.781233,14.72118,11.853682,14.73559Q11.9261315,14.75,12,14.75Q12.0738685,14.75,12.146318,14.73559Q12.218767,14.72118,12.287013,14.692910000000001Q12.355258,14.66464,12.416678,14.6236Q12.478097,14.58256,12.53033,14.53033Q12.582563,14.478100000000001,12.623602,14.41668Q12.664641,14.355260000000001,12.69291,14.28701Q12.721178,14.21877,12.735589000000001,14.14632Q12.75,14.07387,12.75,14L12.75,9Q12.75,8.9261315,12.735589000000001,8.853682Q12.721178,8.781233,12.69291,8.712987Q12.664641,8.644742,12.623602,8.583322Q12.582563,8.521903,12.53033,8.46967Q12.478097,8.417437,12.416678,8.376398Q12.355258,8.335359,12.287013,8.30709Q12.218767,8.278822,12.146318,8.264410999999999Q12.0738685,8.25,12,8.25Q11.9261315,8.25,11.853682,8.264410999999999Q11.781233,8.278822,11.712987,8.30709Q11.644742,8.335359,11.583322,8.376398Q11.521903,8.417437,11.46967,8.46967Q11.417437,8.521903,11.376398,8.583322Q11.335359,8.644742,11.30709,8.712987Q11.278822,8.781233,11.264410999999999,8.853682Q11.25,8.9261315,11.25,9Z"
                fill-rule="evenodd" fill-opacity="1" />
        </g>
    </g>
</svg>