<svg xmlns="http://www.w3.org/2000/svg" xmlns:xlink="http://www.w3.org/1999/xlink" fill="currentColor" version="1.1"
    width="24" height="24" viewBox="0 0 24 24">
    <defs>
        <clipPath id="master_svg0_669_49423/669_49415">
            <rect x="2" y="2" width="20" height="20" rx="0" />
        </clipPath>
    </defs>
    <g>
        <g clip-path="url(#master_svg0_669_49423/669_49415)">
            <g>
                <path
                    d="M7.833418046875,12.832685625L7.735918046875,12.838515625C7.316278046875,12.888005625,7.000078046875,13.243595625,7.000078046875,13.666015625L7.000078046875,15.332715625L7.833418046875,15.332715625C8.255898046875,15.332715625,8.611488046875,15.648915625,8.660918046875,16.068515625L8.666748046875,16.166015625L8.666748046875,19.499315625C8.666748046875,19.959615625,8.293648046875,20.332715625,7.833418046875,20.332715625L4.500081046875,20.332715625C4.039844046875,20.332715625,3.666748195887,19.959615625,3.666748046875,19.499315625L3.666748046875,16.166015625C3.666748046875,15.705815625,4.039844046875,15.332715625,4.500081046875,15.332715625L5.333418046875,15.332715625L5.333418046875,13.666015625L5.3375780468750005,13.519345625C5.415168046875,12.197905625,6.509538046875,11.166015625,7.833418046875,11.166015625L11.166748046875,11.166015625L11.166748046875,8.666015625L8.666748046875,8.666015625C8.244268046875,8.665955624999999,7.888678046875,8.349755625,7.839248046875,7.930185625L7.833418046875,7.832685625L7.833418046875,4.499348625C7.833418046875,4.039111625,8.206508046875001,3.666015774012,8.666748046875,3.666015625L15.333448046875,3.666015625C15.793648046875,3.666015326977,16.166748046875,4.039111625,16.166748046875,4.499348625L16.166748046875,7.832685625C16.166748046875,8.292915625,15.793648046875,8.666015625,15.333448046875,8.666015625L12.833418046875,8.666015625L12.833418046875,11.166015625L16.166748046875,11.166015625C17.490548046875,11.165945624999999,18.584948046875,12.197825625,18.662548046875,13.519345625L18.666748046875,13.666015625L18.666748046875,15.332715625L19.500048046875,15.332715625C19.922548046875,15.332715625,20.278148046875,15.648915625,20.327548046875,16.068515625L20.333448046875,16.166015625L20.333448046875,19.499315625C20.333448046875,19.959615625,19.960348046875,20.332715625,19.500048046875,20.332715625L16.166748046875,20.332715625C15.706548046875,20.332715625,15.333448046875,19.959615625,15.333448046875,19.499315625L15.333448046875,16.166015625C15.333448046875,15.705815625,15.706548046875,15.332715625,16.166748046875,15.332715625L17.000048046875,15.332715625L17.000048046875,13.666015625C17.000048046875,13.243535625,16.683848046875,12.887945625,16.264248046875,12.838515625L16.166748046875,12.832685625L7.833418046875,12.832685625Z"
                    fill-opacity="1" />
            </g>
        </g>
        <g></g>
    </g>
</svg>