<svg xmlns="http://www.w3.org/2000/svg" xmlns:xlink="http://www.w3.org/1999/xlink" fill="currentColor" version="1.1"
    width="24" height="24" viewBox="0 0 24 24">
    <defs>
        <clipPath id="master_svg0_669_49103/669_20074">
            <rect x="2" y="2" width="20" height="20" rx="0" />
        </clipPath>
    </defs>
    <g>
        <g>
            <g clip-path="url(#master_svg0_669_49103/669_20074)">
                <g>
                    <path
                        d="M12.000371796875001,4.75C9.540611796875,4.75,7.537841796875,6.75202,7.537841796875,9.21251C7.537841796875,11.67153,9.539151796875,13.67432,12.000371796875001,13.67432C14.460851796875,13.67432,16.463611796875,11.67155,16.463611796875,9.21251C16.463611796875,6.75202,14.460851796875,4.75,12.000371796875001,4.75Z"
                        fill-opacity="1" />
                </g>
                <g>
                    <path
                        d="M15.439816015625,13.5703125C14.488996015625,14.3219155,13.304916015625,14.7875925,12.000336015624999,14.7875925C10.695736015625,14.7875925,9.512416015625,14.3204825,8.559406015625001,13.5703125C6.755196015625,14.7190025,5.498968015625,16.7362225,5.326416015625,19.072512500000002C5.958125015625,19.158392499999998,7.082256015625,19.2507925,8.686466015625001,19.2507925L15.311296015625,19.2507925C16.916216015625,19.2507925,18.041116015625,19.158392499999998,18.673516015624998,19.072512500000002C18.502416015625002,16.7347425,17.246216015625002,14.7190025,15.439816015625,13.5703125Z"
                        fill-opacity="1" />
                </g>
            </g>
        </g>
        <g></g>
    </g>
</svg>