<svg xmlns="http://www.w3.org/2000/svg" xmlns:xlink="http://www.w3.org/1999/xlink" fill="none" version="1.1" width="56" height="56" viewBox="0 0 56 56"><defs><clipPath id="master_svg0_1730_70799"><rect x="10" y="10" width="36" height="36" rx="0"/></clipPath></defs><g><g><rect x="0" y="0" width="56" height="56" rx="4" fill="#9280FF" fill-opacity="0.10000000149011612"/></g><g><g><g clip-path="url(#master_svg0_1730_70799)"><g><path d="M32.782234375,14.02568671875C33.369334375,14.15224671875,33.854434375,14.45459671875,34.237634375,14.94326671875C34.620834375,15.43193671875,34.838834375000005,16.03662671875,34.888034375000004,16.75732671875C34.888034375000004,16.982326718750002,34.902134375,17.33389671875,34.926734374999995,17.80498671875C34.951334375,18.27959671875,34.965434375,18.77881671875,34.965434375,19.30264671875C34.965434375,19.82295671875,34.947834375,20.30107671875,34.909134375,20.722956718749998C34.870534375,21.14834671875,34.800134375,21.40849671875,34.698234375,21.506936718749998C34.543534375,21.68271671875,34.395834375,21.763576718750002,34.258734375,21.74951671875C34.118134375,21.73545671875,34.047834375,21.809286718750002,34.047834375,21.95693671875C34.047834375,22.03428671875,34.030234375,22.29443671875,33.988034375,22.74448671875C33.949434374999996,23.19448671875,33.840434375,23.81668671875,33.664634375,24.61478671875C33.559134375,25.04018671875,33.415034375000005,25.41978671875,33.225134374999996,25.75378671875C33.035334375000005,26.09128671875,32.834934375,26.39718671875,32.631034375,26.67138671875C32.374434375,26.97018671875,32.117734375,27.24438671875,31.864634375,27.494086718749998C31.840034375,27.82098671875,31.825934375,28.13038671875,31.825934375,28.43268671875L31.825934375,29.21668671875C31.825934375,29.49448671875,31.840034375,29.70538671875,31.864634375,29.85298671875C31.889234375,30.15538671875,31.966534375,30.36628671875,32.093134375000005,30.48938671875C32.223234375000004,30.61588671875,32.476334375,30.72838671875,32.859534374999996,30.82688671875C32.986134375,30.87608671875,33.218134375000005,30.95338671875,33.548634375,31.05188671875C33.882634374999995,31.15028671875,34.276334375000005,31.28388671875,34.736934375000004,31.44558671875C35.197434375,31.60728671875,35.675534375,31.77608671875,36.174734375,31.94838671875C36.670534375,32.12408671875,37.152134375,32.29288671875,37.612634375,32.45458671875C38.069734374999996,32.616286718750004,38.481034375,32.76748671875,38.839634375,32.90458671875C39.198234375,33.04168671875,39.465434375,33.14718671875,39.641234374999996,33.22098671875C40.150934375,33.47058671875,40.491934375,33.73078671875,40.657234375,34.00848671875C40.822434375,34.28268671875,40.970134375,34.634286718750005,41.100134374999996,35.05618671875C41.149434375,35.28118671875,41.219734375,35.692486718750004,41.311134375,36.29018671875C41.399034375,36.88778671875,41.493934374999995,37.51008671875,41.595834374999995,38.16048671875C41.697834375,38.80728671875,41.782234375,39.419086718749995,41.845534375,39.995586718750005C41.908734375,40.56868671875,41.954434375000005,40.93078671875,41.979034375,41.07838671875C42.003734375,41.40188671875,41.947434375,41.67608671875,41.806834375,41.90108671875C41.666234375,42.12608671875,41.342734375,42.298386718749995,40.829434375000005,42.42488671875C40.397034375000004,42.523386718750004,39.764234375,42.632286718749995,38.934534375,42.74478671875C38.104834374999996,42.857286718750004,37.141534375,42.962786718749996,36.044734375000004,43.06118671875C34.947834375,43.159686718749995,33.741934375,43.24408671875,32.427134375,43.303786718750004C31.112234375,43.36708671875,29.727134375,43.39878671875,28.271634375,43.39878671875C26.816234375,43.39878671875,25.424034374999998,43.37408671875,24.095134375,43.32138671875C22.766234375,43.27218671875,21.549734375,43.20538671875,20.438834375,43.11748671875C19.327904375,43.02958671875,18.347044375,42.93118671875,17.489234375,42.81868671875C16.634934375,42.706186718750004,15.963454375000001,42.58658671875,15.478294375,42.46358671875C15.376344375,42.43898671875,15.249784375,42.38978671875,15.095094375,42.31588671875C14.943924375,42.23858671875,14.796264375,42.14718671875,14.655644375,42.03118671875C14.515014375,41.92218671875,14.406034375,41.78158671875,14.328684375,41.61978671875C14.251344375,41.46158671875,14.226734375,41.27878671875,14.251344375,41.07838671875C14.275954375,40.902686718750005,14.349784375,40.50888671875,14.462284375,39.89718671875C14.578294374999999,39.28548671875,14.711894375,38.63158671875,14.863064375,37.93198671875C15.017744375,37.235886718749995,15.158374375000001,36.57838671875,15.284934374999999,35.96668671875C15.415014375,35.35498671875,15.502904375,34.97528671875,15.552124375,34.82768671875C15.654074375,34.525286718749996,15.801734374999999,34.21588671875,15.991574374999999,33.888986718750004C16.184934375,33.56548671875,16.508374375,33.22798671875,16.968924375,32.879986718750004C17.197434375,32.70768671875,17.619314375000002,32.51788671875,18.234544375,32.32098671875C18.846264375,32.120586718750005,19.482594374999998,31.93428671875,20.147044375,31.75848671875C20.811534375,31.58618671875,21.437234375,31.43508671875,22.024434375,31.30848671875C22.611534374999998,31.18548671875,22.994734375,31.09758671875,23.174034374999998,31.04838671875C23.557234375,30.97448671875,23.894734375,30.87958671875,24.190034375,30.77058671875C24.485334375,30.65808671875,24.629434375000002,30.49988671875,24.629434375000002,30.30298671875L24.629434375000002,28.13038671875C24.348234375,27.90538671875,24.081034375,27.65928671875,23.824434375,27.38508671875C23.595834375000003,27.16008671875,23.363834375,26.89288671875,23.135334375,26.57998671875C22.906834375000003,26.26708671875,22.702934374999998,25.93658671875,22.523634375,25.58858671875C22.165034374999998,24.91708671875,21.936534375,24.298386718750002,21.834534375,23.739386718749998C21.729034374999998,23.176886718749998,21.669334375,22.84638671875,21.641234375,22.74798671875C21.616534375,22.649486718749998,21.518134375000002,22.56513671875,21.352934375,22.50536671875C21.187634375000002,22.442086718749998,21.068134375,22.31200671875,20.990834375,22.11161671875C20.786934375,21.68622671875,20.688434375,21.23974671875,20.702534375,20.76513671875C20.716534375000002,20.29052671875,20.748234375,19.61552671875,20.800934375,18.74365671875C20.874734375,17.87177671875,21.022434375,17.03505671875,21.240434375,16.23700671875C21.458334375,15.43896671875,21.936534375,14.70068671875,22.678334375,14.02919671875C23.061534375,13.70576671875,23.571234375,13.43857371875,24.207634374999998,13.22412071875C24.843934375,13.01318371875,25.497834375,12.85498071875,26.162234375,12.75654271875C26.826734375,12.65810521875,27.459534375,12.60888671875,28.060734375,12.60888671875C28.658334375,12.60888671875,29.111934375,12.64755851875,29.417734375,12.72138671875C29.751734375,12.81982471875,30.018934375,12.92529271875,30.222834375,13.03779271875C30.426734375,13.15029271875,30.588434375,13.25576171875,30.700934375,13.35419871875C30.816934375,13.45263671875,30.911934375,13.54755871875,30.989234375,13.63544671875C31.063034375,13.72333671875,31.140434375,13.79365671875,31.217734375,13.84286671875C31.344334375,13.94482671875,31.513034375,13.97294671875,31.713434375,13.93779671875C31.913834375,13.89560671875,32.272434375,13.92724671875,32.782234375,14.02568671875ZM29.259534375,34.52878671875L30.293134375,38.42058671875L31.980634375,34.00848671875L30.370534375,32.88348671875L29.259534375,34.52878671875ZM26.499834375,32.80618671875L24.970534375,34.004986718750004L26.693134375,38.41708671875L27.610734375,34.490186718749996L26.499834375,32.80618671875ZM40.133334375000004,18.18115671875C40.491934375,18.23037671875,40.776734375000004,18.40615671875,40.994734375,18.70498671875C41.212634375,19.00380671875,41.335734375,19.36591671875,41.360334375,19.79130671875C41.360334375,19.91787671875,41.374434375,20.12177671875,41.399034375,20.41006671875C41.423634375,20.698346718750003,41.437634375,20.99013671875,41.437634375,21.28896671875C41.437634375,21.591306718749998,41.423634375,21.86904671875,41.399034375,22.129206718749998C41.374434375,22.39287671875,41.335734375,22.547556718750002,41.283034375,22.59677671875C41.181034374999996,22.69868671875,41.086134375,22.740886718749998,40.994734375,22.726886718750002C40.906834375,22.71628671875,40.861134375,22.75848671875,40.861134375,22.856886718749998C40.861134375,22.90618671875,40.854034375,23.06438671875,40.843534375000004,23.324486718750002C40.829434375000005,23.58468671875,40.759134375,23.96788671875,40.632634374999995,24.46358671875C40.579834375000004,24.713186718750002,40.506034375,24.93818671875,40.400534375,25.13858671875C40.298634375,25.33898671875,40.182634375,25.51118671875,40.056034374999996,25.66238671875C39.929434375,25.83468671875,39.774834375,25.99638671875,39.595534375,26.14758671875C39.567334375,26.34798671875,39.556834375,26.53428671875,39.556834375,26.71008671875L39.556834375,27.57138671875C39.584934375,27.74368671875,39.634134375,27.87018671875,39.711534375,27.94408671875C39.785334375000005,28.02138671875,39.940034374999996,28.08118671875,40.168534375,28.13038671875C40.274034375,28.15498671875,40.513034375000004,28.23228671875,40.896234375,28.355386718749997C41.279434375,28.481886718749998,41.694334375,28.62258671875,42.140834375,28.78428671875C42.587334375,28.94598671875,43.002134375,29.09718671875,43.385334375,29.23428671875C43.768534375,29.37138671875,44.035734375,29.47688671875,44.186934375,29.55418671875C44.492734375,29.70538671875,44.703734375,29.86008671875,44.819734375,30.02178671875C44.932234375,30.18348671875,45.016634375,30.40498671875,45.069334375,30.67568671875C45.093934375,30.80228671875,45.132634375,31.03778671875,45.185334375,31.38588671875C45.238034375,31.73388671875,45.287334375,32.11008671875,45.336534375,32.507286718749995C45.389234375,32.90458671875,45.441934375,33.26668671875,45.491234375,33.590186718750005C45.540434375,33.91358671875,45.565034375,34.12448671875,45.565034375,34.226486718749996C45.589634375,34.42688671875,45.558034375,34.59208671875,45.470134375,34.72918671875C45.378734375,34.866286718750004,45.181834375,34.96118671875,44.875934375,35.01048671875C44.622834375,35.05968671875,44.288834375,35.12298671875,43.881034375,35.196786718750005C43.473234375,35.27408671875,42.935334375,35.33388671875,42.270934374999996,35.38308671875C42.221634375,35.08428671875,42.144334375,34.79598671875,42.042334374999996,34.52178671875C41.968534375000004,34.27218671875,41.877134375,34.011986718749995,41.775134375,33.73778671875C41.673234375,33.46358671875,41.546634375,33.22798671875,41.391934375000005,33.027686718750005C41.110734375,32.654986718749996,40.815434374999995,32.356186718749996,40.513034375000004,32.13118671875C40.207234375,31.90618671875,39.901334375000005,31.71978671875,39.595534375,31.56868671875C39.289634375,31.42098671875,38.983734375,31.30148671875,38.677934375,31.21358671875C38.372034375,31.12568671875,38.066234375,31.03078671875,37.760334375,30.93228671875C36.456034375,30.48228671875,35.411934375,30.17298671875,34.620934375000004,29.99718671875C33.829834375000004,29.82138671875,33.383434375,29.67368671875,33.281434375,29.54718671875C33.232234375000004,29.47338671875,33.197034375,29.38548671875,33.186534375,29.28698671875C33.172434375,29.18508671875,33.168934375,29.07608671875,33.168934375,28.94948671875C33.168934375,28.82298671875,33.183034375,28.68938671875,33.207634375,28.538186718749998C33.562634375,28.43978671875,33.833434374999996,28.37648671875,34.012734375,28.351886718750002C34.191934375,28.327286718750003,34.332634375,28.30268671875,34.434534375,28.27798671875C34.638434375,28.22878671875,34.831834375,28.17258671875,35.007634374999995,28.10928671875C35.186934375,28.04598671875,35.274834375,27.95458671875,35.274834375,27.827986718749997L35.274834375,26.52368671875L35.197434375,26.48508671875L35.046234375,26.411186718750002C34.993534374999996,26.38658671875,34.944334375,26.32688671875,34.895134375,26.22488671875C35.046234375,25.90148671875,35.200934375,25.514786718750003,35.352134375,25.06478671875C35.478734375,24.66748671875,35.612334375,24.17878671875,35.752934374999995,23.60578671875C35.893534375,23.03268671875,36.013034375000004,22.34717671875,36.118534374999996,21.54912671875C36.192334375,20.92334671875,36.245134375,20.36435671875,36.269734375,19.86514671875C36.297834375,19.36592671875,36.308434375000004,18.92998671875,36.308434375000004,18.557326718749998L36.308434375000004,17.39717671875C36.614234374999995,17.347956718749998,36.941234375,17.32334671875,37.285734375000004,17.32334671875C37.630234375,17.32334671875,37.904434375,17.347956718749998,38.108434375,17.39717671875C38.540834375,17.52021671875,38.804434375,17.64678671875,38.892334375000004,17.77334671875C38.983734375,17.89639671875,39.078734374999996,17.99834671875,39.180634375,18.07217671875C39.282634375,18.12139671875,39.391634374999995,18.14248671875,39.507634374999995,18.12842671875C39.616634375000004,18.11084671875,39.827534375,18.12842671875,40.133334375000004,18.18115671875ZM38.182234375,30.15188671875L38.449434374999996,31.16088671875L39.138434375,31.38588671875L39.676334374999996,30.03938671875L38.871234375,29.36788671875L38.182234375,30.15188671875ZM36.188834375,29.47688671875L35.538434375,30.11318671875L35.577134375,30.26088671875L36.765434375,30.59838671875L36.916534375,30.18698671875L36.188834375,29.47688671875ZM19.187284375,17.35849671875C18.779474375,17.309286718750002,18.371664375,17.295216718749998,17.960334375000002,17.31982671875C17.601734375,17.34443671875,17.215024375,17.40771671875,16.793144375,17.50615671875C16.371274375,17.60459671875,15.981034375,17.78037671875,15.625954375,18.02998671875C15.316584375,18.23037671875,15.077524375,18.465926718749998,14.898224375,18.74014671875C14.718924375,19.01435671875,14.585334375,19.29560671875,14.497444375,19.58388671875C14.409554374999999,19.87216671875,14.349784375,20.13935671875,14.325174375,20.388966718749998C14.300564375,20.638576718750002,14.286504375,20.83896671875,14.286504375,20.98662671875C14.261894375,21.31006671875,14.237284375,21.60537671875,14.212674375,21.86552671875C14.188064375,22.12568671875,14.198614375,22.357716718749998,14.251344375,22.55810671875C14.304084375,22.75848671875,14.339234375,22.89558671875,14.367364375000001,22.969486718749998C14.391974375,23.04328671875,14.441194375,23.106586718750002,14.518534375,23.15578671875C14.595884375,23.20498671875,14.659164375,23.23658671875,14.708374375,23.25068671875C14.761114375,23.264786718750003,14.810334375,23.42998671875,14.863064375,23.75698671875C14.887674375,24.08038671875,14.972054374999999,24.40028671875,15.112674375000001,24.70968671875C15.253304374999999,25.02258671875,15.400954375000001,25.279186718749997,15.555644375,25.47608671875C15.632984375,25.59908671875,15.727914375000001,25.71868671875,15.843924375,25.83118671875C15.959944375,25.94368671875,16.065414375,26.05968671875,16.167364375,26.18618671875C16.272834375000002,26.31278671875,16.399394375,26.435886718749998,16.550564375,26.56238671875L16.550564375,27.64868671875C16.525954375,27.799886718750003,16.469704375,27.92298671875,16.378304375,28.02488671875C16.286894375,28.123386718749998,16.114624375,28.19718671875,15.861504374999999,28.24988671875C15.731424375,28.274486718749998,15.520484374999999,28.32368671875,15.228694375,28.39758671875C14.933384375,28.47138671875,14.616974375,28.55228671875,14.268924375000001,28.64368671875C13.924394375,28.72798671875,13.579864375,28.82298671875,13.235334375,28.92138671875C12.890804375,29.01978671875,12.616584375,29.10768671875,12.412674375,29.18158671875C11.674394375,29.53308671875,11.227910375,30.13078671875,11.073223375,30.97798671875C10.967754375,31.37878671875,10.855254375,31.87798671875,10.728691375,32.47568671875C10.602129375,33.07338671875,10.510723075,33.49518671875,10.461504375,33.74838671875C10.412285575,33.99798671875,10.415801175,34.25808671875,10.479082475,34.53228671875C10.542363375,34.80658671875,10.753301375,34.982286718750004,11.111895375,35.05618671875C11.291191375,35.10538671875,11.512674375,35.14058671875,11.779864375,35.16518671875C12.047054375,35.18978671875,12.310724375,35.22838671875,12.563844375,35.277686718750005C12.845094375,35.32688671875,13.140414375,35.36198671875,13.442754375,35.386586718749996C13.495484375,35.087786718749996,13.572834375,34.788986718749996,13.671274375,34.490186718749996C13.748614374999999,34.21588671875,13.857594375,33.94168671875,13.998224375,33.66748671875C14.138844375,33.393286718750005,14.311114374999999,33.13308671875,14.515024375,32.88348671875C14.718924375,32.65848671875,14.968534375,32.44048671875,15.260334375,32.22958671875C15.555644375,32.018686718750004,15.840414375,31.81128671875,16.121664375,31.61088671875C16.431034375,31.38588671875,16.757984375,31.17488671875,17.116584375000002,30.97448671875L16.736894375,30.03938671875L17.580644375,29.40298671875L18.463064375000002,30.37688671875L18.923614375,30.26438671875C18.976344375,30.26438671875,19.050174374999997,30.23978671875,19.155644375,30.19048671875C19.204864375,30.16588671875,19.257594375,30.15538671875,19.306814375000002,30.15538671875L20.034554375,29.33268671875L20.684934374999997,29.85658671875C20.815034375,29.83198671875,20.927534375,29.80728671875,21.029434375,29.78268671875C21.131434374999998,29.75808671875,21.247434374999997,29.73348671875,21.374034375,29.70888671875L21.757234375,29.63158671875C22.041934375,29.58228671875,22.277534375000002,29.53308671875,22.467334375,29.48388671875C22.660734375,29.43468671875,22.766234375,29.31158671875,22.790834375,29.11128671875C22.790834375,29.00928671875,22.797834375,28.92838671875,22.811934375,28.86868671875C22.825934375,28.80538671875,22.829434374999998,28.74908671875,22.829434374999998,28.69988671875L22.829434374999998,28.58738671875C22.600934375,28.51358671875,22.383034375,28.43978671875,22.175534374999998,28.362386718750003L21.641234375,28.21478671875C21.461934375,28.16198671875,21.321234375,28.11278671875,21.219334375000003,28.063586718750003C21.015434374999998,27.98978671875,20.899434375,27.880786718750002,20.874834375,27.74368671875C20.850134375,27.606586718750002,20.836134375,27.423686718749998,20.836134375,27.202286718750003L20.836134375,26.82608671875C20.836134375,26.702986718749997,20.850134375,26.576486718749997,20.874834375,26.45338671875C20.874834375,26.33038671875,20.888834375000002,26.17918671875,20.913434375,26.00338671875C20.709534375,25.70458671875,20.505634375,25.38118671875,20.301744375,25.03308671875C20.125954375,24.73078671875,19.953694374999998,24.389786718750003,19.784944375000002,24.00298671875C19.616194375,23.61628671875,19.482594374999998,23.211986718749998,19.384164374999997,22.78658671875C19.254084374999998,22.213576718749998,19.166194375,21.60537671875,19.116974374999998,20.95498671875C19.064244375,20.30811671875,19.053694375,19.72100671875,19.078304375000002,19.19717671875C19.071274375,18.56787671875,19.109944374999998,17.95615671875,19.187284375,17.35849671875Z" fill="#9280FF" fill-opacity="1"/></g></g></g><g></g></g></g></svg>