<svg xmlns="http://www.w3.org/2000/svg" xmlns:xlink="http://www.w3.org/1999/xlink" fill="none" version="1.1" width="56" height="56" viewBox="0 0 56 56"><defs><clipPath id="master_svg0_1730_70770"><rect x="8" y="8" width="40" height="40" rx="0"/></clipPath></defs><g><g><rect x="0" y="0" width="56" height="56" rx="4" fill="#0DB5A5" fill-opacity="0.10000000149011612"/></g><g clip-path="url(#master_svg0_1730_70770)"><g><path d="M26.801818750000002,42.8182296875L13.96846875,36.651629687500005C12.71697375,36.0603296875,12.08098075,34.6470296875,12.46847175,33.3182296875L26.801818750000002,40.3182296875L28.13511875,40.9849296875L40.96851875,34.8182296875L43.635118750000004,33.3182296875C43.94001875,34.6401296875,43.32671875,36.0031296875,42.135118750000004,36.651629687500005L29.30181875,42.8182296875C28.54361875,43.3189296875,27.55991875,43.3189296875,26.801818750000002,42.8182296875ZM26.801818750000002,36.8182296875L13.96846875,30.6516296875C12.71590775,30.0614296875,12.07948975,28.647129687499998,12.46847175,27.3182296875L26.801818750000002,34.3182296875L28.13511875,34.9849296875L40.96851875,28.8182296875L43.635118750000004,27.3182296875C43.941218750000004,28.6402296875,43.32761875,30.0039296875,42.135118750000004,30.6516296875L29.30181875,36.8182296875C28.54361875,37.3189296875,27.55991875,37.3189296875,26.801818750000002,36.8182296875ZM26.801818750000002,30.8182296875L13.96846875,24.6432296875C12.51106575,23.9849296875,11.90274575,22.2398596875,12.63513875,20.8182596875C12.90042675,20.224919687499998,13.37513875,19.7502096875,13.96846875,19.4849196875L26.801818750000002,13.3182546875C27.55901875,12.8144876875,28.54461875,12.8144876875,29.30181875,13.3182546875L42.135118750000004,19.4849196875C43.591918750000005,20.1482096875,44.19921875,21.894099687500002,43.46841875,23.3182296875C43.20901875,23.9156296875,42.73241875,24.392129687500002,42.135118750000004,24.651629687499998L29.30181875,30.8266296875C28.54231875,31.3229296875,27.561218750000002,31.3229296875,26.801818750000002,30.8266296875L26.801818750000002,30.8182296875Z" fill="#0DB5A5" fill-opacity="1"/></g></g></g></svg>