<svg xmlns="http://www.w3.org/2000/svg" xmlns:xlink="http://www.w3.org/1999/xlink" fill="none" version="1.1" width="56" height="56" viewBox="0 0 56 56"><defs><clipPath id="master_svg0_1730_70829"><rect x="12" y="12" width="32" height="32" rx="0"/></clipPath></defs><g><g><rect x="0" y="0" width="56" height="56" rx="4" fill="#F18D37" fill-opacity="0.10000000149011612"/></g><g><g><g clip-path="url(#master_svg0_1730_70829)"><g><path d="M43.068462499999995,41.91226796875C43.4796625,41.91226796875,43.7383625,41.802367968750005,43.8801625,41.51876796875C44.0219625,41.23166796875,43.9546625,39.63306796875,43.9546625,39.18286796875L43.9546625,31.98736796875C43.9546625,30.95236796875,43.8907625,30.73966796875,42.8203625,30.73966796875L35.6248625,30.73966796875C33.168462500000004,30.73966796875,33.4838625,30.50926796875,33.4838625,33.44066796875L33.4838625,40.60076796875C33.4838625,41.64636796875,33.4980625,41.91226796875,34.5968625,41.908667968749995L36.9717625,41.908667968749995C37.4538625,39.08006796875,41.3847625,39.08006796875,41.866862499999996,41.908667968749995C42.267362500000004,41.908667968749995,42.6679625,41.908667968749995,43.068462499999995,41.91226796875ZM32.0908625,41.89806796875C32.6190625,41.89446796875,32.7856625,41.504567968749996,32.7856625,40.99066796875L32.7856625,34.53596796875C32.7856625,34.00066796875,32.6899625,33.61086796875,32.1830625,33.53986796875L28.9574625,33.52926796875C28.3761625,33.55056796875,28.2024625,33.869567968750005,27.9507625,34.16376796875C27.8409625,34.291367968749995,27.716862499999998,34.47216796875,27.5998625,34.62806796875C27.124962500000002,35.262567968750005,26.2493625,36.329467968749995,25.9658625,37.00296796875C25.699962499999998,37.640967968750005,25.8027625,39.26436796875,25.8027625,40.06546796875C25.8027625,41.36636796875,25.5972625,42.07876796875,27.1851625,41.89446796875C27.3198625,41.579067968749996,27.3021625,41.36636796875,27.486462500000002,41.04026796875C28.5356625,39.18286796875,31.5379625,39.29276796875,32.0908625,41.89806796875L32.0908625,41.89806796875ZM26.9831625,37.71896796875C27.0008625,37.34676796875,27.954362500000002,36.152267968749996,28.2485625,35.74106796875C28.500262499999998,35.39016796875,28.7235625,34.947067968750005,29.0637625,34.92586796875C29.5139625,34.90106796875,30.2370625,34.90456796875,30.6907625,34.93296796875L30.6907625,37.715467968750005C29.7160625,37.74736796875,28.000462499999998,37.729567968750004,26.9831625,37.71896796875ZM37.0946625,41.90156796875C36.8677625,42.87286796875,37.555462500000004,43.66326796875,38.3068625,43.82986796875C39.281662499999996,44.04956796875,40.0472625,43.383267968750005,40.2280625,42.628267968749995C40.469162499999996,41.62866796875,39.7849625,40.884267968749995,39.0229625,40.68936796875C38.0446625,40.44476796875,37.268362499999995,41.15366796875,37.0946625,41.90156796875ZM27.286762500000002,42.09656796875C27.198162500000002,43.04296796875,27.8929625,43.78376796875,28.7329625,43.858167968749996C29.6758625,43.946767968749995,30.4166625,43.244967968750004,30.4875625,42.39076796875C30.5690625,41.43366796875,29.8637625,40.74246796875,29.0094625,40.65746796875C28.105562499999998,40.568767968749995,27.364762499999998,41.28126796875,27.286762500000002,42.09656796875ZM12.6015625,19.58840796875L12.6015625,43.85106796875L18.1417525,43.85106796875L18.1417525,24.01916796875L37.6015625,24.01916796875L37.6015625,27.97486796875L43.1417625,27.97486796875L43.1417625,19.65928796875C43.1417625,19.361567968750002,42.5639625,19.20206796875,42.3300625,19.09572796875L40.8909625,18.41515796875C40.6888625,18.32653796875,40.5896625,18.25212796875,40.3875625,18.16350796875C40.015362499999995,17.99690796875,39.774362499999995,17.87637796875,39.4021625,17.71334796875C37.6405625,16.929977968750002,35.3897625,15.74253796875,33.638662499999995,14.991097968750001L28.300562499999998,12.46378696875C27.350562500000002,12.00300526875,27.5667625,11.99941156875,26.840162499999998,12.32556796875L22.0620625,14.73944796875C21.7395325,14.90247796875,21.4311225,15.03006796875,21.0908725,15.20731796875L13.4806245,19.02837796875C13.2750315,19.13472796875,12.6015625596046,19.31900796875,12.6015625,19.58840796875ZM19.7793725,35.17036796875L23.189262499999998,35.17036796875L23.189262499999998,38.11946796875L19.7793725,38.11946796875L19.7793725,35.17046796875L19.7793725,35.17036796875ZM19.7793725,31.23596796875L23.189262499999998,31.23596796875L23.189262499999998,34.121267968750004L19.7793725,34.121267968750004L19.7793725,31.23586796875L19.7793725,31.23596796875Z" fill="#F18D37" fill-opacity="1"/></g></g></g><g></g></g></g></svg>