<svg xmlns="http://www.w3.org/2000/svg" xmlns:xlink="http://www.w3.org/1999/xlink" fill="none" version="1.1" width="56" height="56" viewBox="0 0 56 56"><defs><clipPath id="master_svg0_1668_000600"><rect x="8" y="8" width="40" height="40" rx="0"/></clipPath></defs><g><g><rect x="0" y="0" width="56" height="56" rx="4" fill="#377BF0" fill-opacity="0.10000000149011612"/></g><g><g clip-path="url(#master_svg0_1668_000600)"><g><path d="M21.2964845,11.911376953125L32.6362875,11.911376953125Q32.8780875,11.911376953125,32.8780875,12.153173953125L32.8780875,16.089496953125Q32.8780875,16.331296953125,32.6362875,16.331296953125L21.2964845,16.331296953125Q21.0546875,16.331296953125,21.0546875,16.089496953125L21.0546875,12.153173953125Q21.0546875,11.911376953125,21.2964845,11.911376953125Z" fill="#377BF0" fill-opacity="1"/></g><g><path d="M24.131644375,42.914169531249996L22.396484375,42.914169531249996C22.248924375,42.914569531249995,22.128954375,42.79526953125,22.128514375,42.64776953125L22.128514375,39.43136953125C22.128494375,39.39506953125,22.135944375,39.359169531250004,22.150394375,39.32586953125L25.085584375,33.98216953125C25.128284375,33.88436953125,25.224984375,33.82136953125,25.331684375000002,33.82156953125L28.451184375,33.82156953125C28.598684374999998,33.82226953125,28.718684375000002,33.70306953125,28.719184374999998,33.55556953125L28.719184374999998,30.51256953125C28.719784375,30.36836953125,28.836984375,30.25186953125,28.981284375,30.25206953125L39.658984375,30.25206953125L39.658984375,15.65205053125C39.659884375000004,15.18501153125,39.283384375,14.80492091125,38.816384375,14.80126953125L34.279684375,14.80126953125L34.279684375,16.89774953125C34.280584375000004,17.36478953125,33.904084375,17.74487953125,33.437084375,17.74853953125L20.493364375,17.74853953125C20.026334375,17.74487953125,19.649914375,17.36478953125,19.650784375,16.89774953125L19.650784375,14.80126953125L15.114455375,14.80126953125C14.647276375,14.80470693125,14.270613551,15.18486053125,14.27148616314,15.65205053125L14.27148616314,42.53136953125C14.270612955,42.99856953125,14.647276375,43.37866953125,15.114455375,43.38216953125L24.648084375,43.38216953125C24.514884375,43.09616953125,24.271484375,42.914169531249996,24.131644375,42.914169531249996ZM18.975394375,22.972749531250003C18.974954375,22.75613953125,19.149404375,22.579759531249998,19.366014375,22.57782953125L34.561284375,22.57782953125C34.777984375,22.579759531249998,34.952384375,22.75613953125,34.951984374999995,22.972749531250003L34.951984374999995,25.07856953125C34.952384375,25.29526953125,34.777984375,25.471569531249997,34.561284375,25.47356953125L19.368754375,25.47356953125C19.152144375,25.471569531249997,18.977694375,25.29526953125,18.978124375,25.07856953125L18.975394375,22.972749531250003ZM18.975394375,31.83136953125L18.975394375,29.72506953125C18.974954375,29.50846953125,19.149404375,29.33206953125,19.366014375,29.33016953125L26.769484374999998,29.33016953125C26.986084375,29.33226953125,27.160384375,29.50856953125,27.160184375,29.72506953125L27.160184375,31.83136953125C27.160384375,32.04786953125,26.986084375,32.22416953125,26.769484374999998,32.22626953125L19.368754375,32.22626953125C19.151994375,32.22456953125,18.977304375,32.04806953125,18.977734375,31.83136953125L18.975394375,31.83136953125Z" fill="#377BF0" fill-opacity="1"/></g><g><path d="M26.22187625,35.199128515625L23.92968745,39.505768515625C23.91682124,39.533538515625,23.91015744209,39.563798515625,23.91015625,39.594448515625004L23.91015625,41.713978515625C23.91335583,41.840378515625,24.01811625,41.940378515625,24.14453125,41.937778515625L26.09257625,41.937778515625C26.21178625,41.935378515625004,26.31327625,42.024078515625,26.32695625,42.142478515625C26.43593625,43.333478515625,27.48827625,44.268278515625,28.77031625,44.268278515625C30.05233625,44.268278515625,31.10468625,43.333478515625,31.21327625,42.142478515625C31.22695625,42.024078515625,31.32844625,41.935378515625004,31.44765625,41.937778515625L34.600356250000004,41.937778515625C34.71955625,41.935578515625,34.82095625,42.024178515624996,34.83475625,42.142478515625C34.94335625,43.333478515625,35.995656249999996,44.268278515625,37.277756249999996,44.268278515625C38.55975625,44.268278515625,39.61215625,43.333478515625,39.721056250000004,42.142478515625C39.734756250000004,42.024078515625,39.83625625,41.935378515625004,39.95545625,41.937778515625L41.412856250000004,41.937778515625C41.53925625,41.940178515625,41.64385625,41.840278515625,41.64725625,41.713978515625L41.64725625,32.152256515625C41.64385625,32.025887515625,41.53925625,31.925851825625,41.412856250000004,31.928038120225L30.31913625,31.928038120225C30.19487625,31.925196175625,30.091686250000002,32.023322115625,30.08827625,32.147569515625L30.08827625,34.839758515625C30.08507625,34.966218515625,29.98038625,35.066378515625,29.85390625,35.063978515625L26.43984625,35.063978515625C26.34698625,35.062458515624996,26.26179625,35.115278515625,26.22187625,35.199128515625ZM36.03515625,41.976078515625C36.01285625,41.302648515625,36.59215625,40.751868515625,37.30115625,40.773348515625C37.94295625,40.792878515625,38.46605625,41.289758515624996,38.48675625,41.899918515625004C38.509356249999996,42.573378515625,37.92965625,43.124178515625,37.22065625,43.102678515625C36.57885625,43.083078515625,36.05585625,42.586278515625,36.03515625,41.976078515625ZM27.54491625,41.976078515625C27.52226625,41.302648515625,28.10194625,40.751868515625,28.81093625,40.773348515625C29.45273625,40.792878515625,29.97577625,41.289758515624996,29.99609625,41.899918515625004C30.01874625,42.573378515625,29.43945625,43.124178515625,28.73046625,43.102678515625C28.08827625,43.083078515625,27.56562625,42.586278515625,27.54491625,41.976078515625ZM29.85976625,39.547958515625L25.84062625,39.547958515625C25.67553625,39.555008515625,25.559416249999998,39.387628515624996,25.62382625,39.235458515625L27.13124625,36.497958515625C27.17010625,36.413558515625,27.25514625,36.360088515625,27.34804625,36.361628515625L29.86015625,36.361628515625C29.98663625,36.359228515625,30.09133625,36.459388515625,30.09452625,36.585848515625L30.09452625,39.324128515625C30.09133625,39.450688515625004,29.98633625,39.550798515625,29.85976625,39.547958515625Z" fill="#377BF0" fill-opacity="1"/></g></g></g></g></svg>