<svg width="14" height="14" viewBox="0 0 14 14" fill="none" xmlns="http://www.w3.org/2000/svg">
<g id="&#230;&#142;&#146;&#229;&#144;&#141;&#229;&#155;&#190;&#230;&#160;&#135;" clip-path="url(#clip0_8576_257699)">
<path id="Vector" opacity="0.4" d="M13.3656 6.94054C12.8979 6.36566 12.4825 5.85083 12.0964 5.36818C11.9782 4.74553 11.8436 4.08474 11.6955 3.40339C11.6287 3.09654 11.3752 2.84642 11.0649 2.78074C10.3786 2.63611 9.71282 2.50442 9.08494 2.38865C8.59472 2.00684 8.0706 1.59517 7.48435 1.13076C7.35945 1.0319 7.21104 0.979492 7.05558 0.979492C6.89979 0.979492 6.75138 1.0319 6.62614 1.13109C6.04359 1.59351 5.52215 2.00418 5.03294 2.38566C4.40305 2.5021 3.73488 2.63512 3.04556 2.78108C2.73531 2.84709 2.48215 3.09721 2.41533 3.40372C2.26793 4.08441 2.13329 4.74421 2.01543 5.36652C1.62931 5.8495 1.21363 6.36533 0.745241 6.9412C0.644848 7.0646 0.591797 7.21122 0.591797 7.36514C0.591797 7.51906 0.644848 7.66602 0.745241 7.78942C1.2143 8.36694 1.63065 8.88344 2.01678 9.36709C2.13429 9.9884 2.26826 10.6475 2.41533 11.3266C2.48215 11.6331 2.73498 11.8832 3.04489 11.9495C3.73622 12.0962 4.40607 12.2298 5.03731 12.3473C5.52551 12.7284 6.04561 13.1384 6.62547 13.5992C6.75071 13.6987 6.89912 13.7511 7.05525 13.7511C7.21104 13.7511 7.35945 13.6987 7.48435 13.5995C8.06791 13.1364 8.59036 12.7254 9.0799 12.344C9.70912 12.2275 10.3766 12.0952 11.0649 11.9495C11.3755 11.8835 11.6287 11.6334 11.6955 11.3269C11.8429 10.6465 11.9772 9.98674 12.0951 9.3651C12.4812 8.88178 12.8972 8.36595 13.3656 7.78942C13.466 7.66602 13.519 7.51939 13.519 7.36514C13.519 7.21089 13.466 7.06427 13.3653 6.94087L13.3656 6.94054ZM13.2101 7.06394C13.2283 7.0865 13.2444 7.10972 13.2581 7.13393C13.2444 7.10972 13.2286 7.0865 13.2101 7.06394C12.9439 6.73653 12.6739 6.40348 12.4016 6.06546C12.6739 6.40348 12.9439 6.73686 13.2101 7.06394ZM13.2323 7.63649C13.2262 7.64512 13.2199 7.65341 13.2132 7.6617C13.2199 7.65341 13.2262 7.64478 13.2323 7.63649ZM11.7637 4.70141C11.814 4.9522 11.8627 5.20231 11.9097 5.45177C11.8624 5.20198 11.8137 4.95186 11.7637 4.70141C11.7301 4.53423 11.6962 4.36704 11.6613 4.19952C11.6958 4.36704 11.7301 4.53423 11.7637 4.70141ZM11.0233 2.97314C11.0958 2.9884 11.165 3.01792 11.2271 3.05806C11.2395 3.06602 11.2516 3.07465 11.2634 3.08327C11.2929 3.1055 11.3208 3.13005 11.346 3.15692C11.3205 3.13005 11.2929 3.1055 11.2634 3.08327C11.2516 3.07432 11.2395 3.06602 11.2271 3.05806C11.165 3.01792 11.0962 2.9884 11.0233 2.97314ZM8.17032 1.92391C8.0716 1.84628 7.97322 1.76899 7.87552 1.6917C7.97356 1.76899 8.0716 1.84628 8.17032 1.92391ZM7.05592 1.1762C7.0576 1.1762 7.05928 1.1762 7.06129 1.1762C7.05961 1.1762 7.0576 1.1762 7.05592 1.1762ZM7.32923 1.26146C7.32923 1.26146 7.32654 1.25947 7.3252 1.2588C7.32654 1.2598 7.32789 1.26079 7.32923 1.26146ZM7.31882 1.25482C7.31479 1.25217 7.3111 1.24985 7.30707 1.24752C7.3111 1.24985 7.31479 1.2525 7.31882 1.25482ZM7.26141 1.22264C7.25838 1.22132 7.25536 1.21966 7.252 1.21833C7.25503 1.21966 7.25838 1.22132 7.26141 1.22264ZM7.24428 1.21501C7.24059 1.21336 7.23689 1.2117 7.23287 1.21037C7.23656 1.21203 7.24025 1.21369 7.24428 1.21501ZM7.20903 1.20141C7.20433 1.19976 7.19929 1.1981 7.19425 1.19677C7.19929 1.1981 7.20399 1.19976 7.20903 1.20141ZM7.18418 1.19378C7.18116 1.19279 7.17814 1.19213 7.17511 1.19113C7.17814 1.19179 7.18116 1.19279 7.18418 1.19378ZM7.16168 1.18815C7.15967 1.18781 7.15732 1.18715 7.1553 1.18649C7.15732 1.18682 7.15967 1.18748 7.16168 1.18815ZM7.10158 1.17853C7.09957 1.17853 7.09755 1.17819 7.09554 1.17786C7.09755 1.17786 7.09957 1.17819 7.10158 1.17853ZM7.08412 1.17687C7.08144 1.17687 7.07875 1.17654 7.07573 1.1762C7.07841 1.1762 7.0811 1.17654 7.08412 1.17687ZM6.99548 13.5498C6.99313 13.5498 6.99078 13.5491 6.98843 13.5488C6.99078 13.5488 6.99313 13.5494 6.99548 13.5498ZM6.97567 13.5468C6.97131 13.5461 6.96728 13.5451 6.96291 13.5445C6.96728 13.5455 6.97131 13.5461 6.97567 13.5468ZM6.95586 13.5431C6.95116 13.5421 6.94679 13.5411 6.94243 13.5398C6.94679 13.5408 6.9515 13.5421 6.95586 13.5431ZM6.93639 13.5385C6.93404 13.5378 6.93168 13.5372 6.929 13.5365C6.93135 13.5372 6.9337 13.5378 6.93639 13.5385ZM5.11823 2.56977C5.25723 2.4613 5.3959 2.35315 5.53357 2.24501C5.3959 2.35282 5.25723 2.4613 5.11823 2.56977ZM2.39921 4.44964C2.3653 4.61683 2.33172 4.78368 2.29916 4.95021C2.27968 5.04939 2.26054 5.14824 2.24174 5.2471C2.26088 5.14824 2.28002 5.04939 2.29916 4.95021C2.33206 4.78368 2.3653 4.61649 2.39921 4.44964ZM2.00402 5.69824C1.91706 5.80671 1.83043 5.91452 1.7438 6.02233C1.83043 5.91485 1.91706 5.80671 2.00402 5.69824ZM0.79527 7.30543C0.797956 7.28586 0.801649 7.26629 0.806686 7.24672C0.801649 7.26596 0.79762 7.28553 0.79527 7.30543C0.792584 7.32501 0.791576 7.34491 0.79124 7.36481C0.79124 7.34491 0.792584 7.32534 0.79527 7.30543ZM0.793255 7.40429C0.795605 7.43049 0.79997 7.4567 0.807021 7.48257C0.800306 7.4567 0.795605 7.43049 0.793255 7.40429ZM2.20413 9.28283C1.76428 8.73184 1.32779 8.19113 0.901035 7.66568C0.89197 7.6544 0.88324 7.64313 0.875517 7.63118C0.86343 7.6136 0.852685 7.59569 0.843284 7.57711C0.830861 7.55257 0.820452 7.52736 0.812394 7.50181C0.820452 7.52736 0.830525 7.55257 0.843284 7.57711C0.852685 7.59536 0.86343 7.6136 0.875517 7.63118C0.883575 7.64279 0.89197 7.6544 0.901035 7.66568C1.32779 8.19113 1.76428 8.73184 2.20413 9.28283C2.23536 9.44869 2.26726 9.61488 2.30016 9.78141C2.26759 9.61488 2.2357 9.44869 2.20413 9.28283ZM2.61041 11.2848C2.55601 11.0333 2.50296 10.7822 2.45092 10.5314C2.50263 10.7819 2.55601 11.033 2.61041 11.2848C2.61679 11.3133 2.62518 11.3415 2.63559 11.369C2.62518 11.3418 2.61645 11.3136 2.61041 11.2848ZM3.38736 11.8195C3.28731 11.7986 3.18759 11.7777 3.08753 11.7565C3.18759 11.7777 3.28764 11.7986 3.38736 11.8195ZM5.12293 12.1618C5.03865 12.1463 4.95404 12.1303 4.86976 12.1144C4.95437 12.1303 5.03865 12.1463 5.12293 12.1618C5.19243 12.2159 5.2616 12.27 5.33043 12.3241C5.26126 12.27 5.19209 12.2159 5.12293 12.1618ZM7.05558 13.5538C7.05222 13.5538 7.0492 13.5538 7.04585 13.5538C7.0492 13.5538 7.05256 13.5538 7.05558 13.5538C7.08244 13.5538 7.10897 13.5514 7.13549 13.5471C7.17142 13.5411 7.20668 13.5305 7.24126 13.5163C7.20701 13.5305 7.17142 13.5411 7.13549 13.5471C7.10897 13.5518 7.08244 13.5538 7.05558 13.5538ZM7.00656 13.5511C7.00958 13.5511 7.0126 13.5518 7.01563 13.5521C7.0126 13.5521 7.00958 13.5514 7.00656 13.5511ZM7.02503 13.5524C7.02872 13.5524 7.03208 13.5531 7.03577 13.5531C7.03208 13.5531 7.02872 13.5528 7.02503 13.5524ZM7.36012 13.4456C7.35105 13.4526 7.34199 13.4595 7.33259 13.4658C7.34199 13.4595 7.35105 13.4529 7.36012 13.4456C7.53002 13.3109 7.70126 13.1753 7.87417 13.0389C7.70159 13.1753 7.53002 13.3109 7.36012 13.4456ZM13.3196 7.38438C13.3189 7.39765 13.3179 7.41059 13.3162 7.42386C13.3135 7.44343 13.3099 7.463 13.3048 7.48257C13.3099 7.46333 13.3139 7.44376 13.3162 7.42386C13.3179 7.41059 13.3189 7.39765 13.3196 7.38438C13.3206 7.36448 13.3199 7.34491 13.3182 7.32501C13.3172 7.31174 13.3152 7.2988 13.3132 7.28553C13.3156 7.29847 13.3172 7.31174 13.3182 7.32501C13.3199 7.34491 13.3203 7.36448 13.3196 7.38438Z" fill="#575757"/>
<g id="Group">
<path id="Vector_2" d="M13.2097 6.58436C12.7836 6.06057 12.3481 5.52185 11.9089 4.97252C11.783 4.30675 11.646 3.63767 11.5003 2.96494C11.4503 2.73538 11.2552 2.54265 11.0228 2.49356C10.3453 2.35092 9.6707 2.21657 8.99985 2.0935C8.4408 1.65862 7.8925 1.22671 7.35964 0.80443C7.26899 0.732447 7.16221 0.696289 7.05544 0.696289C6.94867 0.696289 6.84156 0.732447 6.7509 0.80443C6.2204 1.22539 5.67445 1.65629 5.11775 2.08985C4.44454 2.21392 3.76764 2.34926 3.08739 2.49323C2.85504 2.54265 2.6603 2.73539 2.61027 2.96461C2.46488 3.63634 2.32789 4.30476 2.20231 4.96987C1.76314 5.51986 1.32698 6.05957 0.900559 6.58402C0.754501 6.76349 0.754501 7.00598 0.900559 7.18577C1.32731 7.71122 1.76381 8.25192 2.20366 8.80291C2.3289 9.46702 2.46488 10.1344 2.61027 10.8052C2.6603 11.0347 2.85504 11.2271 3.08705 11.2769C3.76899 11.4215 4.44757 11.5575 5.12245 11.6823C5.67713 12.1152 6.22141 12.5451 6.75057 12.9654C6.84156 13.0377 6.94833 13.0738 7.05544 13.0738C7.16221 13.0738 7.26899 13.0377 7.35998 12.9657C7.89116 12.5444 8.43812 12.1132 8.99548 11.6789C9.66802 11.5552 10.3442 11.4202 11.0235 11.2769C11.2558 11.2275 11.4509 11.0347 11.501 10.8052C11.6463 10.1338 11.783 9.46536 11.9082 8.80092C12.3477 8.2506 12.7839 7.71055 13.2103 7.1861C13.3564 7.00664 13.3564 6.76382 13.2103 6.58436H13.2097Z" fill="url(#paint0_linear_8576_257699)"/>
<path id="Vector_3" d="M7.05552 0.697103C7.1623 0.697103 7.26907 0.73326 7.35972 0.805244C7.89258 1.22753 8.44122 1.65943 8.99993 2.09432C9.67078 2.21739 10.3453 2.3514 11.0229 2.49437C11.2553 2.54347 11.4503 2.7362 11.5007 2.96575C11.6464 3.63815 11.7837 4.30757 11.9093 4.97333C12.3482 5.52266 12.784 6.06138 13.2101 6.58517C13.3561 6.76463 13.3565 7.00745 13.2101 7.18691C12.7837 7.7117 12.3475 8.25141 11.908 8.80174C11.7827 9.46651 11.6461 10.1346 11.5007 10.806C11.4507 11.0356 11.2556 11.2283 11.0232 11.2777C10.344 11.4213 9.66776 11.556 8.99523 11.6798C8.43786 12.114 7.89124 12.5449 7.35972 12.9665C7.26873 13.0385 7.16196 13.0747 7.05519 13.0747C6.94841 13.0747 6.84131 13.0385 6.75031 12.9662C6.22149 12.5459 5.67688 12.116 5.1222 11.6831C4.44731 11.5583 3.76873 11.4223 3.0868 11.2777C2.85445 11.2283 2.65971 11.0356 2.61001 10.806C2.46496 10.1353 2.32864 9.46784 2.2034 8.80373C1.76355 8.25274 1.32706 7.71203 0.900304 7.18658C0.754247 7.00712 0.754247 6.7643 0.900304 6.58484C1.32672 6.06039 1.76255 5.52067 2.20206 4.97068C2.32764 4.30558 2.46429 3.63716 2.61001 2.96542C2.66004 2.73587 2.85478 2.54347 3.08713 2.49404C3.76739 2.35007 4.44429 2.21506 5.1175 2.09067C5.67386 1.65677 6.21981 1.2262 6.75065 0.805244C6.84164 0.73326 6.94841 0.697103 7.05519 0.697103M7.05552 0.166347C6.82519 0.166347 6.59754 0.246292 6.41455 0.391587C5.85785 0.833441 5.35757 1.22753 4.88884 1.59342C4.28044 1.70686 3.63711 1.83524 2.97499 1.97523C2.53682 2.06844 2.17923 2.42173 2.08521 2.85396C1.94352 3.50845 1.81358 4.14336 1.69909 4.74444C1.32807 5.20819 0.92918 5.70279 0.482279 6.25245C0.179084 6.62498 0.179084 7.14578 0.482279 7.51897C0.929516 8.06929 1.32907 8.56489 1.70043 9.02963C1.81459 9.62972 1.94419 10.264 2.08521 10.9168C2.17923 11.3497 2.53648 11.703 2.97398 11.7962C3.63846 11.9372 4.28346 12.0662 4.89354 12.1803C5.3626 12.5469 5.86155 12.9403 6.41421 13.3798C6.59721 13.5255 6.82519 13.6054 7.05552 13.6054C7.28586 13.6054 7.5135 13.5255 7.6965 13.3802C8.25286 12.939 8.75381 12.5442 9.22456 12.1773C9.83262 12.0642 10.4749 11.9362 11.1361 11.7965C11.5746 11.7033 11.9322 11.3504 12.0262 10.9175C12.1679 10.2636 12.2975 9.62872 12.412 9.02764C12.7833 8.56323 13.1825 8.0683 13.6291 7.51864C13.9323 7.14578 13.9323 6.62465 13.6288 6.25179C13.1825 5.70312 12.7837 5.20919 12.4133 4.7461C12.2985 4.14436 12.1682 3.50845 12.0262 2.85396C11.9318 2.42073 11.5739 2.06745 11.1357 1.9749C10.4763 1.8359 9.83565 1.70852 9.22892 1.59607C8.75751 1.22852 8.25454 0.833441 7.69582 0.390592C7.51283 0.245629 7.28552 0.166016 7.05552 0.166016V0.166347Z" fill="url(#paint1_linear_8576_257699)"/>
</g>
<path id="Vector_4" opacity="0.2" d="M7.06135 11.8271C9.67491 11.8271 11.7936 9.73395 11.7936 7.15185C11.7936 4.56976 9.67491 2.47656 7.06135 2.47656C4.4478 2.47656 2.3291 4.56976 2.3291 7.15185C2.3291 9.73395 4.4478 11.8271 7.06135 11.8271Z" fill="#575757"/>
<g id="Group_2">
<path id="Vector_5" d="M7.06135 11.4707C9.67491 11.4707 11.7936 9.3775 11.7936 6.79541C11.7936 4.21332 9.67491 2.12012 7.06135 2.12012C4.4478 2.12012 2.3291 4.21332 2.3291 6.79541C2.3291 9.3775 4.4478 11.4707 7.06135 11.4707Z" fill="url(#paint2_linear_8576_257699)"/>
<path id="Vector_6" d="M7.06097 10.794C9.29623 10.794 11.1083 9.00381 11.1083 6.79545C11.1083 4.5871 9.29623 2.79688 7.06097 2.79688C4.82571 2.79688 3.01367 4.5871 3.01367 6.79545C3.01367 9.00381 4.82571 10.794 7.06097 10.794Z" fill="url(#paint3_linear_8576_257699)"/>
<path id="Vector_7" d="M7.06161 2.99359C9.26355 2.99359 11.0548 4.73081 11.1079 6.89397C11.1086 6.86113 11.1092 6.82829 11.1092 6.79545C11.1092 4.58718 9.29712 2.79688 7.06194 2.79688C4.82676 2.79688 3.01465 4.58718 3.01465 6.79545C3.01465 6.82829 3.01498 6.86113 3.01599 6.89397C3.06904 4.73115 4.86001 2.99359 7.06228 2.99359H7.06161Z" fill="#D7B403"/>
<path id="Vector_8" opacity="0.8" d="M7.06167 9.92059C8.64363 9.92059 9.92606 8.65359 9.92606 7.09066C9.92606 5.52774 8.64363 4.26074 7.06167 4.26074C5.4797 4.26074 4.19727 5.52774 4.19727 7.09066C4.19727 8.65359 5.4797 9.92059 7.06167 9.92059Z" fill="#CE911D"/>
<path id="Vector_9" d="M7.06167 9.62566C8.64363 9.62566 9.92606 8.35866 9.92606 6.79574C9.92606 5.23282 8.64363 3.96582 7.06167 3.96582C5.4797 3.96582 4.19727 5.23282 4.19727 6.79574C4.19727 8.35866 5.4797 9.62566 7.06167 9.62566Z" fill="url(#paint4_linear_8576_257699)"/>
<path id="Vector_10" opacity="0.6" d="M7.06133 9.2256C5.54737 9.2256 4.30807 8.06523 4.20432 6.5957C4.19962 6.66172 4.19727 6.72839 4.19727 6.79573C4.19727 8.35847 5.47955 9.62565 7.06167 9.62565C8.64378 9.62565 9.92606 8.35881 9.92606 6.79573C9.92606 6.72839 9.92338 6.66172 9.91901 6.5957C9.81526 8.06523 8.57562 9.2256 7.062 9.2256H7.06133Z" fill="#FAB62B"/>
<path id="Vector_11" d="M5.5752 6.19758L6.57141 6.1236L7.07774 5.18848L7.55116 6.09076L8.53898 6.19758L7.82515 6.98508L7.99941 7.9776L7.05692 7.50987L6.16446 7.9776L6.30582 6.9194L5.5752 6.19758Z" fill="url(#paint5_linear_8576_257699)"/>
<g id="Group_3">
<path id="Vector_12" d="M6.57141 6.28714L7.07774 5.35202L7.55116 6.2543L8.404 6.34652L8.53898 6.19758L7.55116 6.09076L7.07774 5.18848L6.57141 6.1236L5.5752 6.19758L5.72898 6.3495L6.57141 6.28714Z" fill="#FDB014"/>
<path id="Vector_13" d="M6.28594 7.06348L6.16406 7.97737L6.18757 7.9651L6.30542 7.08272L6.28594 7.06348Z" fill="#FDB014"/>
<path id="Vector_14" d="M7.8252 7.14861L7.96789 7.96232L7.99946 7.97791L7.84903 7.12207L7.8252 7.14861Z" fill="#FDB014"/>
</g>
<path id="Vector_15" opacity="0.7" d="M7.07822 5.3726L7.55132 6.27489L8.53947 6.38137L7.8253 7.16888L7.99956 8.16139L7.05707 7.69399L6.16461 8.16139L6.30563 7.1032L5.57501 6.38137L6.57122 6.30739L7.07755 5.37227M7.07822 4.76953C6.94963 4.76953 6.83144 5.09794 6.77067 5.20973L6.35465 5.978L5.54949 6.0377C5.41351 6.04766 5.07103 6.09078 5.02335 6.21717C4.97601 6.34355 5.23253 6.52965 5.3289 6.62485L5.93797 7.2266L5.81945 8.11628C5.80232 8.24399 5.71335 8.58002 5.82045 8.65333C5.92018 8.69447 6.27709 8.49245 6.32846 8.46558L7.06211 8.08144L7.84377 8.46923C7.89312 8.49378 8.27522 8.66561 8.33667 8.62082C8.44243 8.5432 8.36655 8.23072 8.34405 8.10267L8.19867 7.2747L8.80002 6.61158C8.88732 6.51538 9.14754 6.30972 9.10086 6.18897C9.05419 6.06822 8.70836 6.0533 8.57842 6.03936L7.77628 5.95278L7.38914 5.21437C7.32971 5.10092 7.21119 4.77086 7.08192 4.76986C7.08125 4.76986 7.08024 4.76986 7.07957 4.76986L7.07822 4.76953Z" fill="#BEAA5F"/>
<path id="Vector_16" d="M7.07822 5.18868L7.55132 6.09096L8.53947 6.19744L7.8253 6.98495L7.99956 7.97746L7.05707 7.51007L6.16461 7.97746L6.30563 6.91927L5.57501 6.19744L6.57122 6.12347L7.07755 5.18834M7.07822 4.58594C6.94963 4.58594 6.83144 4.91434 6.77067 5.02613L6.35465 5.7944L5.54949 5.85411C5.41351 5.86406 5.07103 5.90719 5.02335 6.03357C4.97601 6.15996 5.23253 6.34605 5.3289 6.44126L5.93797 7.043L5.81945 7.93268C5.80232 8.06039 5.71335 8.39643 5.82045 8.46974C5.92018 8.51087 6.27709 8.30885 6.32846 8.28199L7.06211 7.89785L7.84377 8.28563C7.89312 8.31018 8.27522 8.48201 8.33667 8.43723C8.44243 8.35961 8.36655 8.04713 8.34405 7.91908L8.19867 7.0911L8.80002 6.42799C8.88732 6.33179 9.14754 6.12612 9.10086 6.00538C9.05419 5.88463 8.70836 5.8697 8.57842 5.85577L7.77628 5.76919L7.38914 5.03078C7.32971 4.91733 7.21119 4.58726 7.08192 4.58627C7.08125 4.58627 7.08024 4.58627 7.07957 4.58627L7.07822 4.58594Z" fill="white"/>
</g>
</g>
<defs>
<linearGradient id="paint0_linear_8576_257699" x1="7.05511" y1="0.696621" x2="7.05511" y2="13.0742" gradientUnits="userSpaceOnUse">
<stop stop-color="#F8C517"/>
<stop offset="1" stop-color="#FAAD11"/>
</linearGradient>
<linearGradient id="paint1_linear_8576_257699" x1="7.05552" y1="13.6054" x2="7.05552" y2="0.166347" gradientUnits="userSpaceOnUse">
<stop stop-color="#F7E624"/>
<stop offset="1" stop-color="#F6F387"/>
</linearGradient>
<linearGradient id="paint2_linear_8576_257699" x1="7.06135" y1="2.12012" x2="7.06135" y2="11.471" gradientUnits="userSpaceOnUse">
<stop stop-color="#FFF371"/>
<stop offset="1" stop-color="#FFC535"/>
</linearGradient>
<linearGradient id="paint3_linear_8576_257699" x1="7.06097" y1="2.79688" x2="7.06097" y2="10.7944" gradientUnits="userSpaceOnUse">
<stop stop-color="#FDD305"/>
<stop offset="1" stop-color="#F2A401"/>
</linearGradient>
<linearGradient id="paint4_linear_8576_257699" x1="7.06167" y1="3.96582" x2="7.06167" y2="9.62566" gradientUnits="userSpaceOnUse">
<stop stop-color="#FDF290"/>
<stop offset="1" stop-color="#FFCE34"/>
</linearGradient>
<linearGradient id="paint5_linear_8576_257699" x1="7.05692" y1="5.18848" x2="7.05692" y2="7.9776" gradientUnits="userSpaceOnUse">
<stop stop-color="#FDE156"/>
<stop offset="1" stop-color="#F4A400"/>
</linearGradient>
<clipPath id="clip0_8576_257699">
<rect width="14" height="14" fill="white"/>
</clipPath>
</defs>
</svg>
