<svg width="14" height="14" viewBox="0 0 14 14" fill="none" xmlns="http://www.w3.org/2000/svg">
<g id="&#230;&#142;&#146;&#229;&#144;&#141;&#229;&#155;&#190;&#230;&#160;&#135;" clip-path="url(#clip0_8579_53995)">
<path id="Vector" opacity="0.4" d="M6.99281 13.859C10.7815 13.859 13.8528 10.9155 13.8528 7.28449C13.8528 3.65348 10.7815 0.709961 6.99281 0.709961C3.20414 0.709961 0.132812 3.65348 0.132812 7.28449C0.132812 10.9155 3.20414 13.859 6.99281 13.859Z" fill="#575757"/>
<g id="Group">
<path id="Vector_2" d="M6.99281 13.2877C10.7815 13.2877 13.8528 10.3442 13.8528 6.7132C13.8528 3.08219 10.7815 0.138672 6.99281 0.138672C3.20414 0.138672 0.132812 3.08219 0.132812 6.7132C0.132812 10.3442 3.20414 13.2877 6.99281 13.2877Z" fill="url(#paint0_linear_8579_53995)"/>
<path id="Vector_3" d="M6.99308 12.3357C10.2334 12.3357 12.8602 9.81826 12.8602 6.71279C12.8602 3.60732 10.2334 1.08984 6.99308 1.08984C3.75277 1.08984 1.12598 3.60732 1.12598 6.71279C1.12598 9.81826 3.75277 12.3357 6.99308 12.3357Z" fill="url(#paint1_linear_8579_53995)"/>
<path id="Vector_4" d="M6.99247 1.36667C10.1845 1.36667 12.7811 3.80969 12.8577 6.85121C12.8588 6.8053 12.8596 6.75905 12.8596 6.71279C12.8596 3.60737 10.2327 1.08984 6.99247 1.08984C3.75221 1.08984 1.125 3.60737 1.125 6.71279C1.125 6.75905 1.12574 6.8053 1.12684 6.85121C1.20347 3.80969 3.8001 1.36667 6.9921 1.36667H6.99247Z" fill="#9BAFC1"/>
<path id="Vector_5" opacity="0.8" d="M6.99293 11.1081C9.28607 11.1081 11.145 9.32645 11.145 7.12873C11.145 4.93102 9.28607 3.14941 6.99293 3.14941C4.69978 3.14941 2.84082 4.93102 2.84082 7.12873C2.84082 9.32645 4.69978 11.1081 6.99293 11.1081Z" fill="#7390AD"/>
<path id="Vector_6" d="M6.99293 10.692C9.28607 10.692 11.145 8.91043 11.145 6.71272C11.145 4.515 9.28607 2.7334 6.99293 2.7334C4.69978 2.7334 2.84082 4.515 2.84082 6.71272C2.84082 8.91043 4.69978 10.692 6.99293 10.692Z" fill="url(#paint2_linear_8579_53995)"/>
<g id="Group_2">
<path id="Vector_7" d="M8.99582 6.93839L9.57498 5.97657C9.61587 5.91195 9.63945 5.83604 9.63945 5.75483C9.63945 5.51826 9.4394 5.32653 9.19293 5.32618H8.02466L7.37993 4.25632C7.29998 4.12391 7.15261 4.04199 6.99272 4.04199C6.83282 4.04199 6.68545 4.12356 6.60551 4.25632L5.96077 5.32618H4.79287C4.63298 5.32618 4.48561 5.40774 4.40566 5.5405C4.32572 5.67291 4.32572 5.83639 4.40566 5.96915L4.98961 6.93839L4.40566 7.90762C4.32572 8.04002 4.32572 8.20351 4.40566 8.33627C4.48561 8.46868 4.63298 8.55059 4.79287 8.55059H5.96077L6.60551 9.62045C6.68545 9.75286 6.83282 9.83478 6.99272 9.83478C7.15261 9.83478 7.29998 9.75322 7.37993 9.62045L8.02466 8.55059H9.19256C9.35245 8.55059 9.49982 8.46903 9.57977 8.33627C9.65972 8.20386 9.65972 8.04038 9.57977 7.90762L8.99582 6.93839Z" fill="#B9C5CF"/>
<g id="Group_3">
<path id="Vector_8" d="M6.99294 9.41728C6.90894 9.41728 6.83157 9.37455 6.78957 9.30464L6.08367 8.13274H4.79346C4.70946 8.13274 4.63209 8.09001 4.59009 8.0201C4.54809 7.95054 4.54809 7.86474 4.59009 7.79518L5.2352 6.72426L4.59009 5.65334C4.54809 5.58378 4.54809 5.49798 4.59009 5.42843C4.63209 5.35887 4.70946 5.31579 4.79346 5.31579H6.08367L6.78957 4.14389C6.83157 4.07433 6.90894 4.03125 6.99294 4.03125C7.07694 4.03125 7.1543 4.07397 7.1963 4.14389L7.9022 5.31579H9.19241C9.27641 5.31579 9.35378 5.35851 9.39578 5.42843C9.43778 5.49798 9.43778 5.58378 9.39578 5.65334L8.75067 6.72426L9.39578 7.79518C9.43778 7.86474 9.43778 7.95054 9.39578 8.0201C9.35378 8.08966 9.27641 8.13274 9.19241 8.13274H7.9022L7.1963 9.30464C7.1543 9.3742 7.07694 9.41728 6.99294 9.41728Z" fill="url(#paint3_linear_8579_53995)"/>
<path id="Vector_9" d="M6.99306 4.25648L7.76675 5.54066H9.19253L8.47964 6.72422L9.19253 7.90778H7.76675L6.99306 9.19196L6.21938 7.90778H4.79359L5.50648 6.72422L4.79359 5.54066H6.21938L6.99306 4.25648ZM6.99306 3.80664C6.82543 3.80664 6.67032 3.89244 6.58669 4.03156L5.94859 5.09083H4.79359C4.62596 5.09083 4.47085 5.17663 4.38722 5.31575C4.30322 5.45486 4.30322 5.62646 4.38722 5.76558L4.96453 6.72422L4.38722 7.68286C4.30322 7.82198 4.30322 7.99358 4.38722 8.13269C4.47122 8.27181 4.62596 8.35761 4.79359 8.35761H5.94859L6.58669 9.41688C6.67069 9.556 6.82543 9.6418 6.99306 9.6418C7.16069 9.6418 7.3158 9.556 7.39943 9.41688L8.03753 8.35761H9.19253C9.36017 8.35761 9.51527 8.27181 9.5989 8.13269C9.6829 7.99358 9.6829 7.82198 9.5989 7.68286L9.02159 6.72422L9.59411 5.7737C9.63722 5.70591 9.6619 5.62611 9.6619 5.54102C9.6619 5.29279 9.4519 5.09153 9.1929 5.09118H8.03753L7.39943 4.03191C7.31543 3.89279 7.16069 3.80699 6.99306 3.80699V3.80664Z" fill="white"/>
</g>
<g id="Group_4">
<path id="Vector_10" d="M5.50623 6.9885L5.42665 6.85645L4.79297 7.90795H4.95213L5.50623 6.9885Z" fill="#7D91A3"/>
<path id="Vector_11" d="M6.21913 5.80478L6.99281 4.52059L7.76613 5.80478H9.03313L9.19228 5.54102H7.76613L6.99281 4.25684L6.21913 5.54102H4.79297L4.95213 5.80478H6.21913Z" fill="#7D91A3"/>
<path id="Vector_12" d="M8.47949 6.9885L9.03323 7.90795H9.19239L8.5587 6.85645L8.47949 6.9885Z" fill="#7D91A3"/>
</g>
</g>
</g>
</g>
<defs>
<linearGradient id="paint0_linear_8579_53995" x1="6.99281" y1="0.138672" x2="6.99281" y2="13.2881" gradientUnits="userSpaceOnUse">
<stop stop-color="#ECEFF5"/>
<stop offset="1" stop-color="#CCDCE9"/>
</linearGradient>
<linearGradient id="paint1_linear_8579_53995" x1="6.99308" y1="1.08984" x2="6.99308" y2="12.3361" gradientUnits="userSpaceOnUse">
<stop stop-color="#A7C4DA"/>
<stop offset="1" stop-color="#82A3C6"/>
</linearGradient>
<linearGradient id="paint2_linear_8579_53995" x1="6.99293" y1="2.7334" x2="6.99293" y2="10.6924" gradientUnits="userSpaceOnUse">
<stop stop-color="#EBF1F6"/>
<stop offset="1" stop-color="#C6D8E6"/>
</linearGradient>
<linearGradient id="paint3_linear_8579_53995" x1="6.99294" y1="4.03196" x2="6.99294" y2="9.41728" gradientUnits="userSpaceOnUse">
<stop stop-color="#9CB6CF"/>
<stop offset="1" stop-color="#8098AB"/>
</linearGradient>
<clipPath id="clip0_8579_53995">
<rect width="14" height="14" fill="white"/>
</clipPath>
</defs>
</svg>
