<svg width="14" height="14" viewBox="0 0 14 14" fill="none" xmlns="http://www.w3.org/2000/svg">
<g id="&#230;&#142;&#146;&#229;&#144;&#141;&#229;&#155;&#190;&#230;&#160;&#135;" clip-path="url(#clip0_8579_54018)">
<path id="Vector" opacity="0.4" d="M6.99972 0.902344C6.78192 0.902344 6.56411 0.968923 6.37916 1.10208L0.660885 5.21904C0.290987 5.48536 0.13594 5.95764 0.277328 6.38857L2.46164 13.0502C2.60303 13.4811 3.00837 13.7731 3.46576 13.7731H10.5341C10.9914 13.7731 11.3968 13.4811 11.5382 13.0502L13.7225 6.38857C13.8639 5.95764 13.7088 5.48536 13.3389 5.21904L7.62028 1.10208C7.43533 0.968923 7.21752 0.902344 6.99972 0.902344Z" fill="#4B5753"/>
<g id="Group">
<g id="Group_2">
<path id="Vector_2" d="M3.46557 12.0497L1.28125 5.38844L6.99953 1.27148L12.7178 5.38844L10.5339 12.0497H3.46557Z" fill="url(#paint0_linear_8579_54018)"/>
<path id="Vector_3" d="M6.99972 1.27184L12.718 5.38879L10.5337 12.0504H3.46576L1.28144 5.38879L6.99972 1.27184ZM6.99972 0.225586C6.78192 0.225586 6.56411 0.292166 6.37916 0.425325L0.660885 4.54228C0.290987 4.8086 0.13594 5.28088 0.277328 5.71182L2.46164 12.3734C2.60303 12.8044 3.00837 13.0963 3.46576 13.0963H10.5341C10.9914 13.0963 11.3968 12.8044 11.5382 12.3734L13.7225 5.71182C13.8639 5.28088 13.7088 4.8086 13.3389 4.54228L7.62028 0.425325C7.43533 0.292166 7.21752 0.225586 6.99972 0.225586Z" fill="url(#paint1_linear_8579_54018)"/>
</g>
<path id="Vector_4" d="M6.99953 1.65487L12.6163 5.69866L12.7178 5.38844L6.99953 1.27148L1.28125 5.38844L1.38314 5.69866L6.99953 1.65487Z" fill="#C89750"/>
<path id="Vector_5" opacity="0.8" d="M4.73748 10.5917L3.33984 6.32837L6.99932 3.69336L10.6592 6.32837L9.26116 10.5917H4.73748Z" fill="#B28E64"/>
<path id="Vector_6" d="M4.73748 10.0819L3.33984 5.81861L6.99932 3.18359L10.6592 5.81861L9.26116 10.0819H4.73748Z" fill="url(#paint2_linear_8579_54018)"/>
<g id="Group_3" opacity="0.7">
<path id="Vector_7" d="M3.7895 4.90205C3.72895 4.90205 3.66915 4.87388 3.6315 4.8212C3.56948 4.73487 3.59015 4.61525 3.67727 4.55379L6.59806 2.49641C6.68518 2.43495 6.8059 2.45544 6.86792 2.54177C6.92994 2.6281 6.90926 2.74773 6.82214 2.80918L3.90135 4.86657C3.86739 4.89034 3.82826 4.90205 3.7895 4.90205Z" fill="#F4EAD0"/>
</g>
<g id="Group_4" opacity="0.7">
<path id="Vector_8" d="M2.22792 5.96434C2.16775 5.96434 2.10868 5.93654 2.07066 5.88459C2.00827 5.79862 2.02784 5.67863 2.11459 5.61681L2.7968 5.1299C2.88355 5.06808 3.00463 5.08746 3.06702 5.17343C3.12941 5.2594 3.10984 5.37939 3.02309 5.44121L2.34088 5.92812C2.30655 5.95263 2.26705 5.96434 2.22792 5.96434Z" fill="#F4EAD0"/>
</g>
<g id="Group_5">
<path id="Vector_9" d="M8.30011 8.89966H5.69716C5.45093 8.89929 5.23645 8.73321 5.17665 8.49689L4.6266 6.30818C4.60408 6.21416 4.64137 6.11612 4.72074 6.06015C4.80011 6.00418 4.90605 6.00162 4.98801 6.05393L5.87436 6.629L6.43585 5.94126C6.30295 5.76164 6.26641 5.52934 6.33765 5.3179C6.42478 5.0567 6.65882 4.87379 6.96486 4.82989C6.98848 4.82623 7.01248 4.82623 7.0361 4.82989C7.34066 4.87416 7.57397 5.05707 7.66331 5.3179C7.73455 5.52971 7.69801 5.76237 7.56474 5.94236L8.1266 6.6301L9.01295 6.05503C9.09491 6.00308 9.20085 6.00528 9.28022 6.06125C9.35959 6.11722 9.39688 6.21526 9.37436 6.30928L8.82099 8.49689C8.76082 8.73358 8.54633 8.89929 8.30047 8.89966H8.30011Z" fill="#C89750"/>
<path id="Vector_10" d="M8.30011 8.68189H5.69716C5.45093 8.68152 5.23645 8.51544 5.17665 8.27912L4.6266 6.0904C4.60408 5.99639 4.64137 5.89835 4.72074 5.84238C4.80011 5.78641 4.90605 5.78385 4.98801 5.83616L5.87436 6.41123L6.43585 5.72349C6.30295 5.54387 6.26641 5.31157 6.33765 5.10012C6.42478 4.83893 6.65882 4.65602 6.96486 4.61212C6.98848 4.60846 7.01248 4.60846 7.0361 4.61212C7.34066 4.65638 7.57397 4.83929 7.66331 5.10012C7.73455 5.31194 7.69801 5.5446 7.56474 5.72458L8.1266 6.41233L9.01295 5.83726C9.09491 5.78531 9.20085 5.7875 9.28022 5.84347C9.35959 5.89945 9.39688 5.99749 9.37436 6.0915L8.82099 8.27912C8.76082 8.5158 8.54633 8.68152 8.30047 8.68189H8.30011Z" fill="white"/>
<path id="Vector_11" d="M5.04785 6.30022L5.52296 8.19481C5.544 8.27273 5.61525 8.32724 5.69683 8.32687H8.29978C8.3821 8.32687 8.45372 8.27126 8.47365 8.19225L8.94876 6.29949L8.22853 6.7681C8.12627 6.83395 7.99042 6.8131 7.91327 6.71908L7.22072 5.87001C7.14505 5.77599 7.15243 5.64064 7.23771 5.5554C7.32852 5.46578 7.36027 5.33298 7.31966 5.21263C7.27647 5.08423 7.16018 4.99497 6.99849 4.9668C6.8368 4.99643 6.72051 5.08532 6.67732 5.21263C6.63745 5.33262 6.6692 5.46468 6.75927 5.55394L6.76149 5.55614C6.84566 5.6421 6.85193 5.77673 6.77626 5.87001L6.08371 6.71908C6.00656 6.81273 5.87071 6.83395 5.76845 6.7681L5.04822 6.30058L5.04785 6.30022Z" fill="url(#paint3_linear_8579_54018)"/>
<g id="Group_6">
<path id="Vector_12" d="M7.17602 5.7832C7.15719 5.85381 7.17122 5.93136 7.21995 5.99209L7.91249 6.84116C7.98964 6.93481 8.12549 6.95603 8.22775 6.88981L8.91144 6.44497L8.94798 6.29901L8.22775 6.76763C8.12549 6.83348 7.98964 6.81263 7.91249 6.71898L7.21995 5.8699C7.19854 5.84356 7.18414 5.81393 7.17602 5.7832Z" fill="#B28E64"/>
<path id="Vector_13" d="M5.76808 6.88957C5.87034 6.95542 6.00619 6.93456 6.08334 6.84091L6.77589 5.99184C6.82535 5.93112 6.83975 5.8532 6.82055 5.78223C6.81206 5.81332 6.7973 5.84332 6.77589 5.87002L6.08334 6.7191C6.00619 6.81275 5.87034 6.83396 5.76808 6.76775L5.04785 6.30023L5.0844 6.44583L5.76808 6.88957Z" fill="#B28E64"/>
<path id="Vector_14" d="M6.67704 5.33481C6.72023 5.20751 6.83652 5.11861 6.99821 5.08898C7.1599 5.11715 7.27618 5.20604 7.31938 5.33481C7.32418 5.34945 7.32824 5.36444 7.33082 5.37908C7.34116 5.32457 7.33783 5.26714 7.31938 5.21263C7.27618 5.08423 7.1599 4.99497 6.99821 4.9668C6.83652 4.99643 6.72023 5.08532 6.67704 5.21263C6.65895 5.26714 6.65563 5.32384 6.66596 5.37798C6.66855 5.36335 6.67224 5.34908 6.67704 5.33445V5.33481Z" fill="#B28E64"/>
</g>
</g>
<path id="Vector_15" d="M3.14062 7.23438H3.06605C3.06605 7.50216 2.84603 7.71982 2.57617 7.71982V7.79372C2.8464 7.79372 3.06605 8.01175 3.06605 8.27916H3.14062C3.14062 8.01138 3.36027 7.79372 3.63049 7.79372V7.71982C3.36027 7.71982 3.14062 7.50179 3.14062 7.23438Z" fill="#FFFFFA"/>
<path id="Vector_16" d="M11.0712 5.61523H11.0214C11.0214 5.79412 10.8745 5.93935 10.6943 5.93935V5.98874C10.8749 5.98874 11.0214 6.13434 11.0214 6.31286H11.0712C11.0712 6.13434 11.2178 5.98874 11.3983 5.98874V5.93935C11.2178 5.93935 11.0712 5.79376 11.0712 5.61523Z" fill="#FFFFFA"/>
<path id="Vector_17" d="M4.54257 10.5078H4.51304C4.51304 10.6146 4.42518 10.7017 4.31738 10.7017V10.731C4.42518 10.731 4.51304 10.818 4.51304 10.9248H4.54257C4.54257 10.818 4.63043 10.731 4.73822 10.731V10.7017C4.63043 10.7017 4.54257 10.6146 4.54257 10.5078Z" fill="#FFFFFA"/>
</g>
</g>
<defs>
<linearGradient id="paint0_linear_8579_54018" x1="6.99953" y1="1.27148" x2="6.99953" y2="12.0497" gradientUnits="userSpaceOnUse">
<stop stop-color="#D3A452"/>
<stop offset="1" stop-color="#C89750"/>
</linearGradient>
<linearGradient id="paint1_linear_8579_54018" x1="6.99972" y1="0.225586" x2="6.99972" y2="13.0963" gradientUnits="userSpaceOnUse">
<stop stop-color="#EFD8B2"/>
<stop offset="1" stop-color="#EFD8B2"/>
</linearGradient>
<linearGradient id="paint2_linear_8579_54018" x1="6.99932" y1="3.18359" x2="6.99932" y2="10.0819" gradientUnits="userSpaceOnUse">
<stop stop-color="#D3A452"/>
<stop offset="1" stop-color="#EFD8B2"/>
</linearGradient>
<linearGradient id="paint3_linear_8579_54018" x1="6.99812" y1="4.9668" x2="6.99812" y2="8.3265" gradientUnits="userSpaceOnUse">
<stop stop-color="#D0AE87"/>
<stop offset="1" stop-color="#CD993A"/>
</linearGradient>
<clipPath id="clip0_8579_54018">
<rect width="14" height="14" fill="white"/>
</clipPath>
</defs>
</svg>
