<svg xmlns="http://www.w3.org/2000/svg" xmlns:xlink="http://www.w3.org/1999/xlink" fill="none" version="1.1" width="44"
    height="44" viewBox="0 0 44 44">
    <defs>
        <filter id="master_svg0_1491_48796" filterUnits="objectBoundingBox" color-interpolation-filters="sRGB" x="-4"
            y="-2" width="46" height="46">
            <feFlood flood-opacity="0" result="BackgroundImageFix" />
            <feColorMatrix in="SourceAlpha" type="matrix" values="0 0 0 0 0 0 0 0 0 0 0 0 0 0 0 0 0 0 127 0" />
            <feOffset dy="2" dx="0" />
            <feGaussianBlur stdDeviation="1" />
            <feColorMatrix type="matrix" values="0 0 0 0 0 0 0 0 0 0 0 0 0 0 0 0 0 0 0.03999999910593033 0" />
            <feBlend mode="normal" in2="BackgroundImageFix" result="effect1_dropShadow" />
            <feBlend mode="normal" in="SourceGraphic" in2="effect1_dropShadow" result="shape" />
        </filter>
        <mask id="master_svg1_1491_48799">
            <g>
                <rect x="3" y="1" width="38" height="38" rx="19" fill="#FFFFFF" fill-opacity="1" />
            </g>
        </mask>
        <clipPath id="master_svg2_1491_48801">
            <rect x="-13.285715103149414" y="-0.3571430444717407" width="60.39286422729492" height="39.357147216796875"
                rx="0" />
        </clipPath>
    </defs>
    <g filter="url(#master_svg0_1491_48796)">
        <g mask="url(#master_svg1_1491_48799)">
            <g>
                <g clip-path="url(#master_svg2_1491_48801)">
                    <g>
                        <path
                            d="M-13.039404540649414,38.75933976802826L46.27446145935058,38.75933976802826L46.27446145935058,0.07587976802825927L-13.039404540649414,0.07587976802825927L-13.039404540649414,38.75933976802826ZM46.372561459350585,38.90373976802826L46.372561459350585,38.75933976802826L46.372561459350585,38.90373976802826ZM-13.284738540649414,38.99993976802826L-13.284738540649414,-0.16476023197174072L46.51966145935059,-0.16476023197174072L46.51966145935059,38.99993976802826L-13.284738540649414,38.99993976802826Z"
                            fill="#353636" fill-opacity="1" />
                    </g>
                    <g>
                        <path
                            d="M-13.138254165649414,25.91287648677826L46.42084583435059,25.91287648677826L46.42084583435059,32.40830648677826L-13.138254165649414,32.40830648677826L-13.138254165649414,25.91287648677826Z"
                            fill="#FFFFFF" fill-opacity="1" />
                    </g>
                    <g>
                        <path
                            d="M-13.138254165649414,32.40857531490326L46.42084583435059,32.40857531490326L46.42084583435059,38.90387531490326L-13.138254165649414,38.90387531490326L-13.138254165649414,32.40857531490326ZM-13.138254165649414,-0.06832468509674072L46.42084583435059,-0.06832468509674072L46.42084583435059,6.42706531490326L-13.138254165649414,6.42706531490326L-13.138254165649414,-0.06832468509674072Z"
                            fill="#D5352C" fill-opacity="1" />
                    </g>
                    <g>
                        <path
                            d="M-13.138254165649414,6.427036643028259L46.42084583435059,6.427036643028259L46.42084583435059,12.922466643028258L-13.138254165649414,12.922466643028258L-13.138254165649414,6.427036643028259Z"
                            fill="#FFFFFF" fill-opacity="1" />
                    </g>
                    <g>
                        <path
                            d="M-13.138254165649414,12.92227590084076L46.42084583435059,12.92227590084076L46.42084583435059,25.91297590084076L-13.138254165649414,25.91297590084076L-13.138254165649414,12.92227590084076Z"
                            fill="#00458F" fill-opacity="1" />
                    </g>
                </g>
            </g>
        </g>
    </g>
</svg>