<svg xmlns="http://www.w3.org/2000/svg" xmlns:xlink="http://www.w3.org/1999/xlink" fill="currentColor" version="1.1"
    width="20" height="20" viewBox="0 0 20 20">
    <g>
        <g></g>
        <g>
            <g>
                <ellipse cx="4.583333253860474" cy="15.416666626930237" rx="1.25" ry="1.25"
                    fill-opacity="0.10000000149011612" />
            </g>
            <g>
                <ellipse cx="15.416666030883789" cy="15.416666626930237" rx="1.25" ry="1.25"
                    fill-opacity="0.10000000149011612" />
            </g>
            <g>
                <path
                    d="M13.3333,1.6666667759422369C13.7936,1.6666667759422369,14.1667,2.0397626269302367,14.1667,2.499999626930237L14.1667,5.833336626930237L17.0833,5.833336626930237L20,8.749996626930237L20,13.333366626930237C20,13.793566626930236,19.6269,14.166666626930237,19.1667,14.166666626930237L18.0525,14.166666626930237C18.9692,16.101766626930235,17.5579,18.33206662693024,15.4167,18.33206662693024C13.2754,18.33206662693024,11.8641,16.101766626930235,12.7808,14.166666626930237L7.21917,14.166666626930237C8.13591,16.101766626930235,6.72457,18.33206662693024,4.58333,18.33206662693024C2.4421,18.33206662693024,1.03076,16.101766626930235,1.9475,14.166666626930237L0.833333,14.166666626930237C0.373096,14.166666626930237,6.05096e-15,13.793566626930236,6.05096e-15,13.333366626930237L6.05096e-15,2.499999626930237C-5.48646e-8,2.0397626269302367,0.373096,1.6666667759422369,0.833333,1.6666666269302368L13.3333,1.6666667759422369ZM4.58333,14.166666626930237C3.89298,14.166666626930237,3.33333,14.726266626930236,3.33333,15.416666626930237C3.33333,16.107066626930237,3.89298,16.666666626930237,4.58333,16.666666626930237C5.27369,16.666666626930237,5.83333,16.107066626930237,5.83333,15.416666626930237C5.83333,14.726266626930236,5.27369,14.166666626930237,4.58333,14.166666626930237ZM15.4167,14.166666626930237C14.7263,14.166666626930237,14.1667,14.726266626930236,14.1667,15.416666626930237C14.1667,16.107066626930237,14.7263,16.666666626930237,15.4167,16.666666626930237C16.107,16.666666626930237,16.6667,16.107066626930237,16.6667,15.416666626930237C16.6667,14.726266626930236,16.107,14.166666626930237,15.4167,14.166666626930237ZM12.6668,3.166706626930237L1.49984,3.166706626930237L1.49984,12.666666626930237L12.6668,12.666666626930237L12.6668,3.166706626930237ZM16.3924,7.333376626930237L14.1667,7.333376626930237L14.1667,12.499966626930236L18.5002,12.499966626930236L18.5002,9.440816626930236L16.3924,7.333376626930237Z"
                    fill-opacity="1" />
            </g>
        </g>
    </g>
</svg>