<svg xmlns="http://www.w3.org/2000/svg" xmlns:xlink="http://www.w3.org/1999/xlink" fill="currentColor" version="1.1"
    width="20" height="20" viewBox="0 0 20 20">
    <g>
        <g>
            <g>
                <path
                    d="M6.297496626930236,1.8576256269302367C8.614406626930236,1.6180383269302367,10.947956626930237,1.6038673269302368,13.267466626930236,1.815298626930237L13.702366626930237,1.8576256269302367L15.573666626930237,2.051119626930237C16.894166626930236,2.189291626930237,17.948366626930238,3.2503366269302365,18.117466626930238,4.6115166269302375L18.128866626930236,4.717326626930237L18.33056662693024,7.009776626930237C18.333566626930235,7.045306626930237,18.334266626930237,7.080446626930237,18.33206662693024,7.115216626930237L18.330266626930236,7.128826626930237L18.333166626930236,7.260336626930237C18.334266626930237,8.242936626930238,17.936466626930237,9.180896626930238,17.236666626930237,9.845676626930237L17.236666626930237,15.385566626930236C17.236666626930237,16.977066626930238,16.014866626930235,18.281266626930236,14.476466626930236,18.331866626930235L14.385866626930238,18.333366626930236L5.614026626930237,18.333366626930236C4.074846626930237,18.333366626930236,2.8135866269302365,17.06996662693024,2.7646466269302366,15.479266626930237L2.7631866269302368,15.385566626930236L2.7631866269302368,9.845676626930237C2.063392626930237,9.180896626930238,1.6655883669302367,8.242936626930238,1.6667064282302368,7.260336626930237L1.669264886930237,7.128826626930237L1.6678029269302368,7.115216626930237C1.6669037679302368,7.097726626930237,1.6665380729302368,7.080206626930237,1.6667064608302369,7.062686626930237L1.669264886930237,7.009776626930237L1.8710166269302368,4.717326626930237C1.9926686269302367,3.3508366269302368,3.0091066269302367,2.251293626930237,4.323836626930237,2.0639686269302366L4.426176626930237,2.051497626930237L6.297496626930236,1.8576256269302367ZM12.425666626930237,9.632526626930236L12.405566626930236,9.657096626930237C11.819466626930236,10.340206626930236,10.987216626930238,10.743806626930237,10.104456626930236,10.773086626930237L9.999926626930236,10.774976626930236C9.080316626930237,10.775266626930236,8.204616626930237,10.368336626930237,7.594256626930237,9.657096626930237L7.573426626930237,9.632526626930236L7.512026626930237,9.701316626930236C6.897736626930237,10.359826626930237,6.0591066269302365,10.744376626930237,5.174696626930237,10.773086626930237L5.065786626930237,10.774976626930236C4.731476626930236,10.775286626930237,4.398956626930237,10.724606626930237,4.078956626930237,10.624566626930237Q4.079006626930237,14.539766626930238,4.078956626930237,15.385566626930236C4.078906626930237,16.23136662693024,4.720296626930237,16.928666626930237,5.537266626930236,16.970966626930235L5.614026626930237,16.972866626930237L14.385866626930238,16.972866626930237C15.203866626930237,16.972866626930237,15.878166626930236,16.309666626930237,15.919066626930237,15.464966626930236L15.920866626930238,15.385566626930236L15.920866626930238,10.624566626930237C15.600866626930237,10.724606626930237,15.268366626930236,10.775286626930237,14.934066626930237,10.774976626930236C14.011466626930236,10.775516626930237,13.128366626930237,10.387916626930236,12.487866626930236,9.701316626930236L12.425666626930237,9.632526626930236ZM13.151966626930237,3.1705166269302367C10.914566626930236,2.966566626930237,8.663616626930237,2.9802366269302367,6.428706626930237,3.2113266269302367L4.570546626930237,3.4033066269302368L4.494886626930237,3.4127566269302365C3.789726626930237,3.515986626930237,3.245836626930237,4.107156626930237,3.181306626930237,4.840526626930236L2.9872266269302368,7.043796626930237L2.988326626930237,7.061556626930237L2.9868666269302366,7.116356626930237C2.9174666269302367,8.168346626930237,3.594746626930237,9.117656626930238,4.587306626930237,9.359606626930237C5.579866626930237,9.601556626930236,6.5959166269302365,9.065026626930237,6.9882766269302365,8.091756626930238C7.219266626930237,7.519966626930237,8.008726626930237,7.539246626930237,8.213406626930237,8.121236626930237C8.486866626930237,8.897716626930237,9.200736626930237,9.414486626930238,9.999926626930236,9.414486626930238C10.799116626930237,9.414486626930238,11.513006626930236,8.897716626930237,11.786466626930237,8.121236626930237C11.991166626930237,7.539246626930237,12.780566626930236,7.519586626930237,13.011566626930238,8.091006626930238C13.405066626930237,9.062666626930238,14.420266626930237,9.597756626930238,15.411866626930237,9.356146626930236C16.40346662693024,9.114546626930236,17.080866626930238,8.167066626930236,17.013366626930235,7.1159766269302365L17.011866626930235,7.061556626930237L17.012666626930237,7.043796626930237L16.820366626930237,4.854136626930236L16.811966626930236,4.775526626930237C16.718366626930237,4.045556626930237,16.151466626930237,3.478026626930237,15.442866626930236,3.404816626930237L13.575166626930237,3.212086626930237L13.151966626930237,3.1705166269302367Z"
                    fill-opacity="1" />
            </g>
        </g>
        <g></g>
    </g>
</svg>