<svg xmlns="http://www.w3.org/2000/svg" xmlns:xlink="http://www.w3.org/1999/xlink" fill="none" version="1.1" width="14" height="14" viewBox="0 0 14 14"><defs><clipPath id="master_svg0_1569_48978"><rect x="0" y="0" width="14" height="14" rx="0"/></clipPath></defs><g clip-path="url(#master_svg0_1569_48978)"><g><path d="M7,0C3.13384,0,0,3.13384,0,7C0,10.8662,3.13384,14,7,14C10.8662,14,14,10.8662,14,7C14,3.13384,10.8662,0,7,0ZM7.53847,12.8956L7.53847,11.3077C7.53847,11.0099,7.29777,10.7692,7,10.7692C6.70277,10.7692,6.46153,11.0099,6.46153,11.3077L6.46153,12.8956C3.62061,12.6393,1.35908,10.3788,1.10277,7.53847L2.69231,7.53847C2.98953,7.53847,3.23077,7.29777,3.23077,7C3.23077,6.70223,2.98953,6.46153,2.69231,6.46153L1.10277,6.46153C1.35853,3.62061,3.62061,1.36069,6.46153,1.10384L6.46153,2.69231C6.46153,2.99008,6.70277,3.23077,7,3.23077C7.29777,3.23077,7.53847,2.99008,7.53847,2.69231L7.53847,1.10384C10.3788,1.36069,12.6415,3.62061,12.8972,6.46153L11.3077,6.46153C11.0099,6.46153,10.7692,6.70223,10.7692,7C10.7692,7.29777,11.0099,7.53847,11.3077,7.53847L12.8972,7.53847C12.6415,10.3788,10.3788,12.6393,7.53847,12.8956ZM7,5.92308C6.40555,5.92308,5.92307,6.40553,5.92307,7C5.92307,7.59447,6.40555,8.07693,7,8.07693C7.59445,8.07693,8.07693,7.59445,8.07693,7C8.07693,6.40555,7.59445,5.92307,7,5.92308L7,5.92308Z" fill="#F28532" fill-opacity="1"/></g></g></svg>