<svg xmlns="http://www.w3.org/2000/svg" xmlns:xlink="http://www.w3.org/1999/xlink" fill="none" version="1.1" width="32"
    height="32" viewBox="0 0 32 32">
    <defs>
        <clipPath id="master_svg0_210_06404/210_04823/210_04475">
            <rect x="6" y="6" width="20" height="20" rx="0" />
        </clipPath>
    </defs>
    <g>
        <g style="opacity:0.10000000149011612;">
            <rect x="0" y="0" width="32" height="32" rx="16" fill="#8D98AF" fill-opacity="1" />
        </g>
        <g>
            <g clip-path="url(#master_svg0_210_06404/210_04823/210_04475)">
                <g>
                    <path
                        d="M10.5690721875,10.497093505859375L11.775322187499999,11.703343505859376C10.2606821875,12.604773505859376,9.3328921875,14.237423505859375,9.3336621875,16.000013505859375C9.3336621875,18.718763505859375,11.5040721875,20.930843505859375,14.2065721875,20.998343505859374L14.3336621875,21.000043505859374L16.217822187499998,21.000043505859374L14.9378221875,19.720043505859373L16.116162187500002,18.541673505859375L16.611572187500002,19.037093505859374L16.6103221875,19.038763505859375L19.8669921875,22.295043505859375C19.2440921875,22.512943505859376,18.5794921875,22.640843505859372,17.8877921875,22.662943505859374L17.884092187500002,22.666243505859377L17.8807921875,22.663343505859373L17.774092187500003,22.665843505859375L17.6669921875,22.666643505859376L14.3336621875,22.666643505859376C10.6515721875,22.666643505859376,7.6669921875,19.682043505859376,7.6669921875,16.000013505859375C7.6669921875,13.715013505859375,8.8169921875,11.698343505859375,10.5690721875,10.497093505859375ZM17.6669921875,9.333343505859375C21.3490921875,9.333343505859375,24.3336921875,12.317923505859374,24.3336921875,16.000013505859375C24.3336921875,18.285013505859375,23.1836921875,20.301643505859374,21.4315921875,21.502943505859378L20.2252921875,20.296643505859375C21.7399921875,19.395243505859376,22.667792187499998,17.762603505859374,22.6669921875,16.000013505859375C22.6669921875,13.238763505859374,20.428192187500002,11.000013505859375,17.6669921875,11.000013505859375L15.7828221875,11.000013505859375L17.0624121875,12.279593505859374L15.8840721875,13.457923505859375L13.5790721875,11.152513505859375L13.5803221875,11.151673505859375L12.1336621875,9.705009505859374C12.7708721875,9.482591505859375,13.4382521875,9.358529705859375,14.1128221875,9.337092935859374L14.1157421875,9.333343505859375L14.119912187499999,9.336676895859375L14.2261621875,9.334176778859375L14.3336621875,9.333343505859375L17.6669921875,9.333343505859375Z"
                        fill="#737E95" fill-opacity="1" />
                </g>
            </g>
        </g>
    </g>
</svg>