<svg xmlns="http://www.w3.org/2000/svg" xmlns:xlink="http://www.w3.org/1999/xlink" fill="none" version="1.1" width="16"
     height="16" viewBox="0 0 16 16">
    <defs>
        <clipPath id="master_svg0_1_29341/1_28605">
            <rect x="0" y="0" width="16" height="16" rx="0"/>
        </clipPath>
    </defs>
    <g>
        <g clip-path="url(#master_svg0_1_29341/1_28605)">
            <g>
                <rect x="0" y="0" width="16" height="16" rx="0" fill="#FFFFFF" fill-opacity="0.009999999776482582"/>
            </g>
            <g>
                <path d="M2.35,14.6666740234375L2.35,3.3333740234375Q2.35,3.2693546234375,2.36249,3.2065650234375Q2.3749789999999997,3.1437760234375,2.399478,3.0846300234375Q2.423978,3.0254840234375,2.459545,2.9722530234375Q2.4951119999999998,2.9190230234375,2.540381,2.8737550234375Q2.585649,2.8284860234374998,2.638879,2.7929190234375Q2.69211,2.7573520234375,2.751256,2.7328520234375Q2.810402,2.7083530234374997,2.873191,2.6958640234375Q2.9359806,2.6833740234375,3,2.6833740234375L13,2.6833740234375Q13.064,2.6833740234375,13.1268,2.6958640234375Q13.1896,2.7083530234374997,13.2487,2.7328520234375Q13.3079,2.7573520234375,13.3611,2.7929190234375Q13.4143,2.8284860234374998,13.4596,2.8737550234375Q13.5049,2.9190230234375,13.5405,2.9722530234375Q13.576,3.0254840234375,13.6005,3.0846300234375Q13.625,3.1437760234375,13.6375,3.2065650234375Q13.65,3.2693546234375,13.65,3.3333740234375L13.65,14.6666740234375Q13.65,14.7307740234375,13.6375,14.7934740234375Q13.625,14.8562740234375,13.6005,14.9154740234375Q13.576,14.9745740234375,13.5405,15.0278740234375Q13.5049,15.0810740234375,13.4596,15.1263740234375Q13.4143,15.1715740234375,13.3611,15.2071740234375Q13.3079,15.2427740234375,13.2487,15.2672740234375Q13.1896,15.2917740234375,13.1268,15.3041740234375Q13.064,15.3166740234375,13,15.3166740234375L3,15.3166740234375Q2.9359806,15.3166740234375,2.873191,15.3041740234375Q2.810402,15.2917740234375,2.751256,15.2672740234375Q2.69211,15.2427740234375,2.638879,15.2071740234375Q2.585649,15.1715740234375,2.540381,15.1263740234375Q2.4951119999999998,15.0810740234375,2.459545,15.0278740234375Q2.423978,14.9745740234375,2.399478,14.9154740234375Q2.3749789999999997,14.8562740234375,2.36249,14.7934740234375Q2.35,14.7307740234375,2.35,14.6666740234375ZM12.35,3.9833740234375L3.65,3.9833740234375L3.65,14.0166740234375L12.35,14.0166740234375L12.35,3.9833740234375Z"
                      fill-rule="evenodd" fill="#898989" fill-opacity="1"/>
            </g>
            <g>
                <path d="M6.016015625,6.6666259765625L6.016015625,10.9999559765625Q6.016015625,11.0639759765625,6.028505625,11.126765976562499Q6.040994625,11.189555976562499,6.065493625,11.248705976562501Q6.089993625,11.3078459765625,6.125560625,11.3610759765625Q6.161127625,11.414305976562499,6.206396625,11.459575976562501Q6.251664625,11.5048459765625,6.304894625,11.5404159765625Q6.358125625,11.5759859765625,6.417271625,11.6004759765625Q6.476417625,11.6249759765625,6.539206625,11.637465976562499Q6.601996225,11.649955976562499,6.666015625,11.649955976562499Q6.730035025,11.649955976562499,6.792824625,11.637465976562499Q6.855613625,11.6249759765625,6.914759625,11.6004759765625Q6.973905625,11.5759859765625,7.027136625,11.5404159765625Q7.080366625,11.5048459765625,7.125634625,11.459575976562501Q7.170903625,11.414305976562499,7.206470625,11.3610759765625Q7.242037625,11.3078459765625,7.266537625,11.248705976562501Q7.291036625,11.189555976562499,7.303525625,11.126765976562499Q7.316015625,11.0639759765625,7.316015625,10.9999559765625L7.316015625,6.6666259765625Q7.316015625,6.6026065765625,7.303525625,6.5398169765625Q7.291036625,6.4770279765625,7.266537625,6.4178819765625Q7.242037625,6.3587359765625,7.206470625,6.3055049765625Q7.170903625,6.2522749765625,7.125634625,6.2070069765625Q7.080366625,6.1617379765625,7.027136625,6.1261709765625Q6.973905625,6.0906039765625,6.914759625,6.0661039765625Q6.855613625,6.0416049765625,6.792824625,6.0291159765625Q6.730035025,6.0166259765625,6.666015625,6.0166259765625Q6.601996225,6.0166259765625,6.539206625,6.0291159765625Q6.476417625,6.0416049765625,6.417271625,6.0661039765625Q6.358125625,6.0906039765625,6.304894625,6.1261709765625Q6.251664625,6.1617379765625,6.206396625,6.2070069765625Q6.161127625,6.2522749765625,6.125560625,6.3055049765625Q6.089993625,6.3587359765625,6.065493625,6.4178819765625Q6.040994625,6.4770279765625,6.028505625,6.5398169765625Q6.016015625,6.6026065765625,6.016015625,6.6666259765625Z"
                      fill-rule="evenodd" fill="#898989" fill-opacity="1"/>
            </g>
            <g>
                <path d="M8.683984375,6.6666259765625L8.683984375,10.9999559765625Q8.683984375,11.0639759765625,8.696474375,11.126765976562499Q8.708963375,11.189555976562499,8.733462375,11.248705976562501Q8.757962375,11.3078459765625,8.793529375,11.3610759765625Q8.829096375,11.414305976562499,8.874365375,11.459575976562501Q8.919633375,11.5048459765625,8.972863375,11.5404159765625Q9.026094375,11.5759859765625,9.085240375,11.6004759765625Q9.144386375,11.6249759765625,9.207175375,11.637465976562499Q9.269964975,11.649955976562499,9.333984375,11.649955976562499Q9.398003775,11.649955976562499,9.460793375,11.637465976562499Q9.523582375,11.6249759765625,9.582728375,11.6004759765625Q9.641874375,11.5759859765625,9.695105375,11.5404159765625Q9.748335375,11.5048459765625,9.793603375,11.459575976562501Q9.838872375,11.414305976562499,9.874439375,11.3610759765625Q9.910006375,11.3078459765625,9.934506375,11.248705976562501Q9.959005375,11.189555976562499,9.971494375,11.126765976562499Q9.983984375,11.0639759765625,9.983984375,10.9999559765625L9.983984375,6.6666259765625Q9.983984375,6.6026065765625,9.971494375,6.5398169765625Q9.959005375,6.4770279765625,9.934506375,6.4178819765625Q9.910006375,6.3587359765625,9.874439375,6.3055049765625Q9.838872375,6.2522749765625,9.793603375,6.2070069765625Q9.748335375,6.1617379765625,9.695105375,6.1261709765625Q9.641874375,6.0906039765625,9.582728375,6.0661039765625Q9.523582375,6.0416049765625,9.460793375,6.0291159765625Q9.398003775,6.0166259765625,9.333984375,6.0166259765625Q9.269964975,6.0166259765625,9.207175375,6.0291159765625Q9.144386375,6.0416049765625,9.085240375,6.0661039765625Q9.026094375,6.0906039765625,8.972863375,6.1261709765625Q8.919633375,6.1617379765625,8.874365375,6.2070069765625Q8.829096375,6.2522749765625,8.793529375,6.3055049765625Q8.757962375,6.3587359765625,8.733462375,6.4178819765625Q8.708963375,6.4770279765625,8.696474375,6.5398169765625Q8.683984375,6.6026065765625,8.683984375,6.6666259765625Z"
                      fill-rule="evenodd" fill="#898989" fill-opacity="1"/>
            </g>
            <g>
                <path d="M1.333984375,3.9833740234375L14.667284375,3.9833740234375Q14.731384375,3.9833740234375,14.794084375,3.9708840234375Q14.856884375,3.9583950234375003,14.916084375,3.9338960234375Q14.975184375,3.9093960234375,15.028484375,3.8738290234375Q15.081684375,3.8382620234375002,15.126984375,3.7929930234375Q15.172184375,3.7477250234375,15.207784375,3.6944950234375Q15.243384375,3.6412640234375,15.267884375,3.5821180234375Q15.292384375,3.5229720234375,15.304784375,3.4601830234375Q15.317284375,3.3973934234375,15.317284375,3.3333740234375Q15.317284375,3.2693546234375,15.304784375,3.2065650234375Q15.292384375,3.1437760234375,15.267884375,3.0846300234375Q15.243384375,3.0254840234375,15.207784375,2.9722530234375Q15.172184375,2.9190230234375,15.126984375,2.8737550234375Q15.081684375,2.8284860234374998,15.028484375,2.7929190234375Q14.975184375,2.7573520234375,14.916084375,2.7328520234375Q14.856884375,2.7083530234374997,14.794084375,2.6958640234375Q14.731384375,2.6833740234375,14.667284375,2.6833740234375L1.333984375,2.6833740234375Q1.269964975,2.6833740234375,1.207175375,2.6958640234375Q1.144386375,2.7083530234374997,1.085240375,2.7328520234375Q1.026094375,2.7573520234375,0.972863375,2.7929190234375Q0.919633375,2.8284860234374998,0.874365375,2.8737550234375Q0.829096375,2.9190230234375,0.793529375,2.9722530234375Q0.757962375,3.0254840234375,0.733462375,3.0846300234375Q0.708963375,3.1437760234375,0.696474375,3.2065650234375Q0.683984375,3.2693546234375,0.683984375,3.3333740234375Q0.683984375,3.3973934234375,0.696474375,3.4601830234375Q0.708963375,3.5229720234375,0.733462375,3.5821180234375Q0.757962375,3.6412640234375,0.793529375,3.6944950234375Q0.829096375,3.7477250234375,0.874365375,3.7929930234375Q0.919633375,3.8382620234375002,0.972863375,3.8738290234375Q1.026094375,3.9093960234375,1.085240375,3.9338960234375Q1.144386375,3.9583950234375003,1.207175375,3.9708840234375Q1.269964975,3.9833740234375,1.333984375,3.9833740234375Z"
                      fill-rule="evenodd" fill="#898989" fill-opacity="1"/>
            </g>
            <g>
                <path d="M5.333984375,3.9833740234375L10.667314375,3.9833740234375Q10.830844375,3.9833740234375,10.974904375000001,3.9059940234375Q11.031294375,3.8757040234375,11.080704375,3.8349840234375Q11.130104375,3.7942740234375,11.170614375,3.7446940234375Q11.211134375,3.6951240234375,11.241194375,3.6386040234375Q11.271254375,3.5820840234375,11.289714374999999,3.5207840234375Q11.308174375,3.4594840234375,11.314314375,3.3957540234375Q11.320464375,3.3320340234375,11.314054375000001,3.2683340234375002Q11.307654375,3.2046340234375,11.288944375,3.1434140234375Q11.270234375000001,3.0821940234375003,11.239934375,3.0257940234375003L10.165634375,1.0257910234375Q10.123944375,0.9481700234375,10.063084374999999,0.8844490234375Q10.002234375,0.8207290234375,9.926614375,0.7755080234375Q9.850994374999999,0.7302880234375,9.766064375,0.7068310234375Q9.681124375,0.6833740234375,9.593014375,0.6833740234375L6.430314375,0.6833740234375Q6.342914375,0.6833740234375,6.258609375,0.7064640234375Q6.174307375,0.7295540234375,6.099099375,0.7740940234375Q6.023891375,0.8186330234375,5.963121375,0.8814580234375Q5.902351375,0.9442830234374999,5.860336375,1.0209290234375001L4.764003375,3.0209340234375Q4.683984375,3.1669040234375,4.683984375,3.3333740234375Q4.683984375,3.3973940234375,4.696474375,3.4601840234375Q4.708963375,3.5229740234375,4.733462375,3.5821140234375Q4.757962375,3.6412640234375,4.793529375,3.6944940234375Q4.829096375,3.7477240234375,4.874365375,3.7929940234375Q4.919633375,3.8382640234375,4.972863375,3.8738340234375Q5.026094375,3.9093940234375,5.085240375,3.9338940234375Q5.144386375,3.9583940234375,5.207175375,3.9708840234375Q5.269964975,3.9833740234375,5.333984375,3.9833740234375ZM9.580334375,2.6833740234375L6.431544375,2.6833740234375L6.815264375,1.9833740234375L9.204324375,1.9833740234375L9.580334375,2.6833740234375Z"
                      fill-rule="evenodd" fill="#898989" fill-opacity="1"/>
            </g>
        </g>
    </g>
</svg>