<svg xmlns="http://www.w3.org/2000/svg" xmlns:xlink="http://www.w3.org/1999/xlink" fill="none" version="1.1" width="16"
     height="16" viewBox="0 0 16 16">
    <defs>
        <clipPath id="master_svg0_1730_70877">
            <rect x="0" y="0" width="16" height="16" rx="0"/>
        </clipPath>
    </defs>
    <g>
        <g clip-path="url(#master_svg0_1730_70877)">
            <g>
                <path d="M12.388621875,7.53428234375L6.340231875,7.53428234375C6.162111875,7.53428234375,6.008981875,7.68740234375,6.008981875,7.86553234375C6.008981875,8.04365234375,6.162111875,8.19678234375,6.340231875,8.19678234375L12.388621875,8.19678234375C12.566821875,8.19678234375,12.719921875,8.04365234375,12.719921875,7.86553234375C12.719921875,7.66240234375,12.566821875,7.53428234375,12.388621875,7.53428234375ZM12.388621875,10.31709234375L6.340231875,10.31709234375C6.162111875,10.31709234375,6.008981875,10.47021234375,6.008981875,10.64834234375C6.008981875,10.82646234375,6.162111875,10.97959234375,6.340231875,10.97959234375L12.388621875,10.97959234375C12.566821875,10.97959234375,12.719921875,10.82646234375,12.719921875,10.64834234375C12.719921875,10.47021234375,12.566821875,10.31709234375,12.388621875,10.31709234375ZM14.124621875,3.88584234375L9.785541875,3.88584234375L9.708981875,3.68115234375C9.198041875,2.25146434375,8.202731875,1.89521484375,7.463671875,1.86865234375L1.849609875,1.86865234375C1.365233875,1.86865234375,0.982421875,2.25146434375,0.982421875,2.71084034375L0.982421875,13.35305234375C0.982421875,13.81245234375,1.365233875,14.19525234375,1.849609875,14.19525234375L14.124621875,14.19525234375C14.609021875,14.19525234375,14.991821875,13.81245234375,14.991821875,13.35305234375L14.991821875,4.72802234375C14.991821875,4.26865234375,14.609021875,3.88584234375,14.124621875,3.88584234375ZM1.849609875,3.09521234375C1.849609875,2.43115234375,2.079301875,2.53427734375,3.049611875,2.53427734375L6.519921875,2.53427734375C7.999611875,2.53427734375,8.382421875,2.86552734375,8.663671875,3.3514623437499997L8.868361875,3.86240234375L1.849609875,3.86240234375L1.849609875,3.09521234375ZM14.174621875,12.43425234375C14.174621875,13.40455234375,13.843321875,13.42955234375,13.026121875,13.42955234375L2.998041875,13.42955234375C2.0027318750000003,13.42955234375,1.849608875,13.35305234375,1.849608875,12.28115234375L1.849608875,4.67646234375L13.230821875,4.67646234375C14.302721875,4.67646234375,14.174621875,5.08428234375,14.174621875,5.82490234375L14.174621875,12.43425234375ZM3.252731875,7.27959234375L4.324611875,7.27959234375L4.324611875,8.35146234375L3.252731875,8.35146234375L3.252731875,7.27959234375ZM3.252731875,10.11240234375L4.324611875,10.11240234375L4.324611875,11.18428234375L3.252731875,11.18428234375L3.252731875,10.11240234375Z"
                      fill="#BFBFBF" fill-opacity="1"/>
                <path d="M15.241821875,13.35305234375L15.241821875,4.72802234375Q15.241821875,4.27654234375,14.914821875,3.95611234375Q14.588021875,3.6358423437500003,14.124621875,3.6358423437500003L9.958951875,3.6358423437500003L9.943141875,3.59356234375Q9.260391875,1.68306634375,7.472651875,1.61881334375L7.468161875,1.61865234375L1.849609875,1.61865234375Q1.386203875,1.61865234375,1.059392875,1.93892724375Q0.732421875,2.25935934375,0.732421875,2.71084034375L0.732421875,13.35305234375Q0.732421875,13.80455234375,1.059392775,14.12495234375Q1.386203875,14.44525234375,1.849609875,14.44525234375L14.124621875,14.44525234375Q14.588021875,14.44525234375,14.914821875,14.12495234375Q15.241821875,13.80455234375,15.241821875,13.35305234375ZM14.564821875,4.313222343750001Q14.741821875,4.48661234375,14.741821875,4.72802234375L14.741821875,13.35305234375Q14.741821875,13.59445234375,14.564821875,13.76785234375Q14.383821875,13.94525234375,14.124621875,13.94525234375L1.849609875,13.94525234375Q1.590358875,13.94525234375,1.409356875,13.76785234375Q1.232421875,13.59445234375,1.232421875,13.35305234375L1.232421875,2.71084034375Q1.232421875,2.46943034375,1.409356875,2.29603334375Q1.590358875,2.11865234375,1.849609875,2.11865234375L7.459081875,2.11865234375Q8.904511875,2.17298834375,9.474831875,3.76874234375L9.612141875,4.135842343749999L14.124621875,4.135842343749999Q14.383821875,4.135842343749999,14.564821875,4.313222343750001ZM1.599609875,3.09521234375L1.599609875,3.86240234375L1.599608875,4.11240234375L9.237831875,4.11240234375L8.889051875,3.24180234375L8.880041875,3.22623234375Q8.598151875,2.73918534375,8.144661875,2.53305334375Q7.597351875,2.28427734375,6.519921875,2.28427734375L3.049611875,2.28427734375Q2.924991875,2.28427734375,2.7104918749999998,2.28097634375Q2.088821875,2.27140734375,1.902258875,2.37305934375Q1.599609875,2.53796034375,1.599609875,3.09521234375ZM2.099611875,3.61240234375L8.498891875,3.61240234375L8.438531874999999,3.46172234375Q8.238911875,3.12512234375,7.937761875,2.98823234375Q7.489051875,2.78427734375,6.519921875,2.78427734375L3.049611875,2.78427734375Q2.921141875,2.78427734375,2.702791875,2.78091634375Q2.212591875,2.77337134375,2.141481875,2.8121173437499998Q2.099611875,2.8349323437500002,2.099611875,3.09521234375L2.099611875,3.61240234375ZM14.424621875,12.43425234375L14.424621875,5.82490234375Q14.424621875,5.7522523437499995,14.427121875,5.61499234375Q14.438521875,4.99391234375,14.270021875,4.7675023437499995Q14.016221875,4.42646234375,13.230821875,4.42646234375L1.599608875,4.42646234375L1.599609875,12.28115234375Q1.599609875,13.17615234375,1.879244875,13.43935234375Q2.134471875,13.67955234375,2.998041875,13.67955234375L13.026121875,13.67955234375Q13.790621875,13.67955234375,14.048721875,13.50165234375Q14.424621875,13.24245234375,14.424621875,12.43425234375ZM13.927221875,5.60583234375Q13.924621875,5.74766234375,13.924621875,5.82490234375L13.924621875,12.43425234375Q13.924621875,12.97985234375,13.764921875,13.08995234375Q13.635021875,13.17955234375,13.026121875,13.17955234375L2.998041875,13.17955234375Q2.332761875,13.17955234375,2.221931875,13.07525234375Q2.099611875,12.96015234375,2.099611875,12.28115234375L2.099611875,4.92646234375L13.230821875,4.92646234375Q13.765021875,4.92646234375,13.868921875,5.066022343749999Q13.935421875,5.15546234375,13.927221875,5.60583234375ZM3.002731875,7.02959234375L3.002731875,8.60146234375L4.574611875,8.60146234375L4.574611875,7.02959234375L3.002731875,7.02959234375ZM3.502731875,8.10146234375L4.074611875,8.10146234375L4.074611875,7.52959234375L3.502731875,7.52959234375L3.502731875,8.10146234375ZM12.797821875,8.27472234375Q12.969921875,8.102672343750001,12.969921875,7.86553234375Q12.969921875,7.61000234375,12.793121875,7.44233234375Q12.626421875,7.28428234375,12.388621875,7.28428234375L6.340231875,7.28428234375Q6.103091875,7.28428234375,5.931031875,7.45633234375Q5.758981875,7.62838234375,5.758981875,7.86553234375Q5.758981875,8.102672343750001,5.931031875,8.27472234375Q6.103081875,8.44678234375,6.340231875,8.44678234375L12.388621875,8.44678234375Q12.625821875,8.44678234375,12.797821875,8.27472234375ZM12.388621875,7.78428234375Q12.469921875,7.78428234375,12.469921875,7.86553234375Q12.469921875,7.94678234375,12.388621875,7.94678234375L6.340231875,7.94678234375Q6.258981875,7.94678234375,6.258981875,7.86553234375Q6.258981875,7.78428234375,6.340231875,7.78428234375L12.388621875,7.78428234375ZM3.002731875,9.86240234375L3.002731875,11.43428234375L4.574611875,11.43428234375L4.574611875,9.86240234375L3.002731875,9.86240234375ZM12.797821875,11.05754234375Q12.969921875,10.88549234375,12.969921875,10.64834234375Q12.969921875,10.41119234375,12.797821875,10.23914234375Q12.625821875,10.06709234375,12.388621875,10.06709234375L6.340231875,10.06709234375Q6.103091875,10.06709234375,5.931031875,10.23914234375Q5.758981875,10.41119234375,5.758981875,10.64834234375Q5.758981875,10.88549234375,5.931031875,11.05754234375Q6.103081875,11.22959234375,6.340231875,11.22959234375L12.388621875,11.22959234375Q12.625821875,11.22959234375,12.797821875,11.05754234375ZM3.502731875,10.93428234375L3.502731875,10.36240234375L4.074611875,10.36240234375L4.074611875,10.93428234375L3.502731875,10.93428234375ZM12.388621875,10.56709234375Q12.469921875,10.56709234375,12.469921875,10.64834234375Q12.469921875,10.72959234375,12.388621875,10.72959234375L6.340231875,10.72959234375Q6.258981875,10.72959234375,6.258981875,10.64834234375Q6.258981875,10.56709234375,6.340231875,10.56709234375L12.388621875,10.56709234375Z"
                      fill-rule="evenodd" fill="#BFBFBF" fill-opacity="1"/>
            </g>
        </g>
    </g>
</svg>
