<svg xmlns="http://www.w3.org/2000/svg" xmlns:xlink="http://www.w3.org/1999/xlink" fill="none" version="1.1" width="44"
    height="44" viewBox="0 0 44 44">
    <g>
        <g>
            <rect x="0" y="0" width="44" height="44" rx="0" fill="#F8F9FB" fill-opacity="1" />
        </g>
        <g>
            <g></g>
            <g>
                <g>
                    <g>
                        <g>
                            <g>
                                <rect x="9" y="9.899993896484375" width="7" height="4" rx="0.20000000298023224"
                                    fill="#808080" fill-opacity="1" />
                            </g>
                            <g>
                                <path
                                    d="M9,12.899993896484375L9,20.899993896484375L12,18.899993896484375L12,12.899993896484375L9,12.899993896484375Z"
                                    fill="#808080" fill-opacity="1" />
                            </g>
                        </g>
                        <g transform="matrix(1,0,0,-1,0,67.79998779296875)">
                            <g>
                                <g>
                                    <rect x="9" y="33.899993896484375" width="7" height="4" rx="0.20000000298023224"
                                        fill="#A7A7A7" fill-opacity="1" />
                                </g>
                                <g>
                                    <path
                                        d="M9,36.899993896484375L9,46.899993896484375L12,49.399993896484375L12,36.899993896484375L9,36.899993896484375Z"
                                        fill="#A7A7A7" fill-opacity="1" />
                                </g>
                            </g>
                        </g>
                    </g>
                    <g transform="matrix(-1,0,0,-1,70,67.79998779296875)">
                        <g>
                            <g>
                                <rect x="35" y="33.899993896484375" width="7" height="4" rx="0.20000000298023224"
                                    fill="#808080" fill-opacity="1" />
                            </g>
                            <g>
                                <path
                                    d="M35,36.899993896484375L35,44.899993896484375L38,42.899993896484375L38,36.899993896484375L35,36.899993896484375Z"
                                    fill="#808080" fill-opacity="1" />
                            </g>
                        </g>
                        <g transform="matrix(1,0,0,-1,0,115.79998779296875)">
                            <g>
                                <g>
                                    <rect x="35" y="57.899993896484375" width="7" height="4" rx="0.20000000298023224"
                                        fill="#A7A7A7" fill-opacity="1" />
                                </g>
                                <g>
                                    <path
                                        d="M35,60.899993896484375L35,70.89999389648438L38,73.39999389648438L38,60.899993896484375L35,60.899993896484375Z"
                                        fill="#A7A7A7" fill-opacity="1" />
                                </g>
                            </g>
                        </g>
                    </g>
                    <g>
                        <g>
                            <path
                                d="M17.5,12.247626896484375L17.5,16.487163896484375C17.5,16.557163896484376,17.5366057,16.622083896484376,17.5965134,16.658303896484377L21.49632,19.016413896484373C21.62961,19.097003896484374,21.7998,19.001033896484376,21.7998,18.845263896484376L21.7998,14.515053896484375C21.7998,14.443823896484375,21.76191,14.377963896484374,21.70033,14.342153896484374L17.800528,12.074726896484375C17.667195,11.997204796484375,17.5,12.093395896484376,17.5,12.247626896484375Z"
                                fill="#808080" fill-opacity="1" />
                        </g>
                        <g transform="matrix(-1,0,0,1,53,0)">
                            <path
                                d="M26.5,12.247626896484375L26.5,16.487163896484375C26.5,16.557163896484376,26.5366057,16.622083896484376,26.5965134,16.658303896484377L30.49632,19.016413896484373C30.62961,19.097003896484374,30.7998,19.001033896484376,30.7998,18.845263896484376L30.7998,14.515053896484375C30.7998,14.443823896484375,30.76191,14.377963896484374,30.70033,14.342153896484374L26.800528,12.074726896484375C26.667195,11.997204796484375,26.5,12.093395896484376,26.5,12.247626896484375Z"
                                fill="#8C8C8C" fill-opacity="1" />
                        </g>
                        <g
                            transform="matrix(0.7071067690849304,0.7071067690849304,-0.7071067690849304,0.7071067690849304,11.322683470980337,-13.5353874142329)">
                            <path
                                d="M22.10931,12.910793896484375C22.0623075,13.062563896484374,22.20252,13.205903896484376,22.355296,13.162263896484376L26.84311,11.880223896484374C26.90955,11.861243896484375,26.96149,11.809303896484375,26.98048,11.742863896484375L28.26807,7.236620896484375C28.31059,7.087801896484375,28.17522,6.949155796484375,28.02543,6.988111496484375L23.69371,8.114643896484376C23.6267,8.132063896484375,23.57348,8.182903896484374,23.553,8.249043896484375L22.10931,12.910793896484375Z"
                                fill="#A7A7A7" fill-opacity="1" />
                        </g>
                    </g>
                    <g>
                        <g>
                            <path
                                d="M17.5,22.747626896484373L17.5,26.987163896484375C17.5,27.057163896484376,17.5366057,27.122083896484376,17.5965134,27.158303896484377L21.49632,29.516413896484373C21.62961,29.597003896484374,21.7998,29.501033896484376,21.7998,29.345263896484376L21.7998,25.015053896484375C21.7998,24.943823896484375,21.76191,24.877963896484374,21.70033,24.842153896484376L17.800528,22.574726896484375C17.667195,22.497204796484375,17.5,22.593395896484374,17.5,22.747626896484373Z"
                                fill="#A7A7A7" fill-opacity="1" />
                        </g>
                        <g transform="matrix(-1,0,0,1,53,0)">
                            <path
                                d="M26.5,22.747626896484373L26.5,26.987163896484375C26.5,27.057163896484376,26.5366057,27.122083896484376,26.5965134,27.158303896484377L30.49632,29.516413896484373C30.62961,29.597003896484374,30.7998,29.501033896484376,30.7998,29.345263896484376L30.7998,25.015053896484375C30.7998,24.943823896484375,30.76191,24.877963896484374,30.70033,24.842153896484376L26.800528,22.574726896484375C26.667195,22.497204796484375,26.5,22.593395896484374,26.5,22.747626896484373Z"
                                fill="#808080" fill-opacity="1" />
                        </g>
                        <g
                            transform="matrix(0.7071067690849304,0.7071067690849304,-0.7071067690849304,0.7071067690849304,18.747304546372106,-10.46000848962467)">
                            <path
                                d="M22.10931,23.410793896484375C22.0623075,23.562563896484374,22.20252,23.705903896484376,22.355296,23.662263896484376L26.84311,22.380223896484374C26.90955,22.361243896484375,26.96149,22.309303896484373,26.98048,22.242863896484373L28.26807,17.736620896484375C28.31059,17.587801896484375,28.17522,17.449155796484376,28.02543,17.488111496484375L23.69371,18.614643896484374C23.6267,18.632063896484375,23.57348,18.682903896484376,23.553,18.749043896484373L22.10931,23.410793896484375Z"
                                fill="#8C8C8C" fill-opacity="1" />
                        </g>
                    </g>
                    <g>
                        <g>
                            <path
                                d="M17.5,28.247626896484373L17.5,32.487163896484375C17.5,32.557163896484376,17.5366057,32.62208389648438,17.5965134,32.65830389648438L21.49632,35.01641389648437C21.62961,35.097003896484374,21.7998,35.00103389648437,21.7998,34.845263896484376L21.7998,30.515053896484375C21.7998,30.443823896484375,21.76191,30.377963896484374,21.70033,30.342153896484376L17.800528,28.074726896484375C17.667195,27.997204796484375,17.5,28.093395896484374,17.5,28.247626896484373Z"
                                fill="#808080" fill-opacity="1" />
                        </g>
                        <g transform="matrix(-1,0,0,1,53,0)">
                            <path
                                d="M26.5,28.247626896484373L26.5,32.487163896484375C26.5,32.557163896484376,26.5366057,32.62208389648438,26.5965134,32.65830389648438L30.49632,35.01641389648437C30.62961,35.097003896484374,30.7998,35.00103389648437,30.7998,34.845263896484376L30.7998,30.515053896484375C30.7998,30.443823896484375,30.76191,30.377963896484374,30.70033,30.342153896484376L26.800528,28.074726896484375C26.667195,27.997204796484375,26.5,28.093395896484374,26.5,28.247626896484373Z"
                                fill="#8C8C8C" fill-opacity="1" />
                        </g>
                    </g>
                </g>
            </g>
        </g>
    </g>
</svg>