<svg xmlns="http://www.w3.org/2000/svg" xmlns:xlink="http://www.w3.org/1999/xlink" fill="none" version="1.1" width="32"
     height="32" viewBox="0 0 32 32">
    <defs>
        <clipPath id="master_svg0_1861_65939">
            <rect x="0" y="0" width="32" height="32" rx="0"/>
        </clipPath>
    </defs>
    <g>
        <g clip-path="url(#master_svg0_1861_65939)">
            <g>
                <path d="M16.00196875,1.6650390625C8.08551875,1.665038943291,1.66796875,8.0825890625,1.66796875,15.9990390625C1.66796875,23.9155390625,8.08551875,30.3330390625,16.00196875,30.3330390625C23.91846875,30.3330390625,30.33596875,23.9155390625,30.33596875,15.9990390625C30.33596875,8.0825890625,23.91846875,1.665038943291,16.00196875,1.6650390625ZM14.10396875,10.5590390625L14.10396875,11.9990390625L22.00196875,11.9990390625C22.75836875,11.9697390625,23.38756875,12.5750390625,23.38756875,13.3320390625C23.38756875,14.0890390625,22.75836875,14.6943390625,22.00196875,14.6650390625L10.00196875,14.6650390625C9.46371875,14.6640390625,8.97882875,14.3396390625,8.77245875,13.8425390625C8.566088749999999,13.3453390625,8.67868875,12.7729390625,9.05796875,12.3910390625L11.82596875,9.6150390625C12.20696875,9.2334290625,12.78026875,9.1187590625,13.27876875,9.3244590625C13.77726875,9.530159062500001,14.10296875,10.0157690625,14.10396875,10.5550390625L14.10396875,10.5590390625ZM10.63396875,17.3330390625L22.00196875,17.3330390625C22.56126875,17.3339390625,23.06066875,17.6836390625,23.25276875,18.2089390625C23.44476875,18.7342390625,23.28876875,19.3235390625,22.86196875,19.6850390625L19.70396875,22.3510390625C19.30716875,22.6856390625,18.75226875,22.7597390625,18.28156875,22.5409390625C17.81096875,22.3222390625,17.50996875,21.8502390625,17.50996875,21.3310390625L17.50996875,19.9990390625L10.63396875,19.9990390625C9.87753875,20.0283390625,9.248328749999999,19.4230390625,9.248328749999999,18.6660390625C9.248328749999999,17.9090390625,9.87753875,17.3037390625,10.63396875,17.3330390625Z"
                      fill="#B3B3B3" fill-opacity="1"/>
            </g>
        </g>
    </g>
</svg>
