<svg xmlns="http://www.w3.org/2000/svg" xmlns:xlink="http://www.w3.org/1999/xlink" fill="none" version="1.1" width="20" height="20" viewBox="0 0 20 20"><defs><clipPath id="master_svg0_864_56417"><rect x="0" y="0" width="20" height="20" rx="0"/></clipPath></defs><g clip-path="url(#master_svg0_864_56417)"><g><path d="M10,1.25C5.16797,1.25,1.25,5.16797,1.25,10C1.25,14.832,5.16797,18.75,10,18.75C14.832,18.75,18.75,14.832,18.75,10C18.75,5.16797,14.832,1.25,10,1.25ZM10,17.2656C5.98828,17.2656,2.73438,14.0117,2.73438,10C2.73438,5.98828,5.98828,2.73438,10,2.73438C14.0117,2.73438,17.2656,5.98828,17.2656,10C17.2656,14.0117,14.0117,17.2656,10,17.2656Z" fill="#009688" fill-opacity="1"/></g><g><path d="M13.651639687500001,6.89453125C13.651639687500001,6.89453125,12.7356196875,6.89453125,12.7356196875,6.89453125C12.536399687500001,6.89453125,12.3469496875,6.99023415,12.2297596875,7.15429625C12.2297596875,7.15429625,9.1594396875,11.412111249999999,9.1594396875,11.412111249999999C9.1594396875,11.412111249999999,7.7688096875,9.48242125,7.7688096875,9.48242125C7.6516196875,9.32031125,7.4641196875,9.22266125,7.2629496875,9.22266125C7.2629496875,9.22266125,6.3469276875,9.22266125,6.3469276875,9.22266125C6.2199740875,9.22266125,6.1457549875,9.36719125,6.2199739875,9.47070125C6.2199739875,9.47070125,8.6535796875,12.845701250000001,8.6535796875,12.845701250000001C8.7110696875,12.925941250000001,8.7868496875,12.99133125,8.8746596875,13.03643125C8.9624596875,13.081531250000001,9.0597496875,13.10506125,9.1584596875,13.10506125C9.2571696875,13.10506125,9.3544596875,13.081531250000001,9.4422596875,13.03643125C9.5300696875,12.99133125,9.605849687500001,12.925941250000001,9.6633396875,12.845701250000001C9.6633396875,12.845701250000001,13.776639687500001,7.14257825,13.776639687500001,7.14257825C13.852809687499999,7.03906225,13.7785896875,6.89453125,13.651639687500001,6.89453125C13.651639687500001,6.89453125,13.651639687500001,6.89453125,13.651639687500001,6.89453125Z" fill="#009688" fill-opacity="1"/></g></g></svg>