<svg xmlns="http://www.w3.org/2000/svg" xmlns:xlink="http://www.w3.org/1999/xlink" fill="none" version="1.1" width="20" height="20" viewBox="0 0 20 20"><defs><clipPath id="master_svg0_864_56413"><rect x="0" y="0" width="20" height="20" rx="0"/></clipPath></defs><g clip-path="url(#master_svg0_864_56413)"><g><path d="M10,1.25C5.16797,1.25,1.25,5.16797,1.25,10C1.25,14.832,5.16797,18.75,10,18.75C14.832,18.75,18.75,14.832,18.75,10C18.75,5.16797,14.832,1.25,10,1.25ZM10,17.2656C5.98828,17.2656,2.73438,14.0117,2.73438,10C2.73438,5.98828,5.98828,2.73438,10,2.73438C14.0117,2.73438,17.2656,5.98828,17.2656,10C17.2656,14.0117,14.0117,17.2656,10,17.2656Z" fill="#FF4D4F" fill-opacity="1"/></g><g><path d="M13.39453375,6.875C13.39453375,6.7890625,13.32421375,6.71875,13.23828375,6.71875C13.23828375,6.71875,11.94921375,6.72460914,11.94921375,6.72460914C11.94921375,6.72460914,10.00781375,9.03906,10.00781375,9.03906C10.00781375,9.03906,8.06836375,6.72656238,8.06836375,6.72656238C8.06836375,6.72656238,6.77734375,6.72070324,6.77734375,6.72070324C6.69140625,6.72070324,6.62109375,6.7890626,6.62109375,6.876953C6.62109375,6.914063,6.63476555,6.949219,6.65820305,6.978515C6.65820305,6.978515,9.19921375,10.00586,9.19921375,10.00586C9.19921375,10.00586,6.65820305,13.03125,6.65820305,13.03125C6.63460215,13.05988,6.621507094,13.09572,6.62109375,13.13281C6.621093749999997,13.21875,6.69140625,13.28906,6.77734375,13.28906C6.77734375,13.28906,8.06836375,13.2832,8.06836375,13.2832C8.06836375,13.2832,10.00781375,10.96875,10.00781375,10.96875C10.00781375,10.96875,11.947263750000001,13.28125,11.947263750000001,13.28125C11.947263750000001,13.28125,13.23632375,13.28711,13.23632375,13.28711C13.322263750000001,13.28711,13.39257375,13.21875,13.39257375,13.13086C13.39257375,13.09375,13.37890375,13.058589999999999,13.35546375,13.0293C13.35546375,13.0293,10.81836375,10.00391,10.81836375,10.00391C10.81836375,10.00391,13.35937375,6.976563,13.35937375,6.976563C13.38281375,6.949219,13.39453375,6.912109,13.39453375,6.875C13.39453375,6.875,13.39453375,6.875,13.39453375,6.875Z" fill="#FF4D4F" fill-opacity="1"/></g></g></svg>