<svg xmlns="http://www.w3.org/2000/svg" xmlns:xlink="http://www.w3.org/1999/xlink" fill="none" version="1.1" width="20" height="20" viewBox="0 0 20 20"><defs><clipPath id="master_svg0_126_10808"><rect x="0" y="0" width="20" height="20" rx="0"/></clipPath></defs><g><g clip-path="url(#master_svg0_126_10808)"><g><path d="M10,20C4.4898,20,0,15.5102,0,10C0,4.4898,4.4898,0,10,0C15.5102,0,20,4.4898,20,10C20,15.5102,15.5102,20,10,20ZM10,0.408163C4.69388,0.408163,0.408163,4.69388,0.408163,10C0.408163,15.3061,4.69388,19.5918,10,19.5918C15.3061,19.5918,19.5918,15.3061,19.5918,10C19.5918,4.69388,15.3061,0.408163,10,0.408163Z" fill="#F1F1F1" fill-opacity="1"/></g><g><path d="M5.102202500000001,9.91840408203125C5.102202500000001,9.38779408203125,5.183832499999999,8.85717408203125,5.3471025,8.36738408203125L2.4899554999999998,6.24493408203125C1.3470985,8.57146408203125,1.3470985,11.26534408203125,2.4899554999999998,13.59187408203125L5.3471025,11.46942408203125C5.183832499999999,10.97962408203125,5.102202500000001,10.449014082031251,5.102202500000001,9.91840408203125Z" fill="#FBBC05" fill-opacity="1"/></g><g><path d="M10.12239609375,5.0203503906249995C11.26525609375,5.0203503906249995,12.36729609375,5.387700390625,13.22444609375,6.122390390625L15.67344609375,3.714230390625C12.12239609375,0.6121903906249999,6.69382609375,1.020352390625,3.5917860937499997,4.612190390625C3.14280709375,5.101980390625,2.77546009375,5.673410390625,2.48974609375,6.244840390625L5.346886093749999,8.367290390625C6.040766093749999,6.367290390625,7.95913609375,5.0203503906249995,10.12239609375,5.0203503906249995Z" fill="#EA4335" fill-opacity="1"/></g><g><path d="M10.12239609375,14.8163003515625C7.99994609375,14.8163003515625,6.0815860937499995,13.4693603515625,5.346886093749999,11.4693603515625L2.48974609375,13.5918103515625C3.9591360937499998,16.4489503515625,6.89790609375,18.2448703515625,10.081586093750001,18.2040503515625C12.12239609375,18.2448703515625,14.08154609375,17.5101703515625,15.59174609375,16.1224203515625L12.89794609375,14.0816003515625C12.08158609375,14.6122203515625,11.10198609375,14.8571103515625,10.12239609375,14.8163003515625Z" fill="#34A853" fill-opacity="1"/></g><g><path d="M18.20418859375,9.91834208984375C18.20418859375,9.42855208984375,18.12255859375,8.89793808984375,18.00010859375,8.40814208984375L10.12255859375,8.40814208984375L10.12255859375,11.59181208984375L14.65316859375,11.59181208984375C14.44908859375,12.612222089843751,13.83684859375,13.510182089843749,12.93888859375,14.08161208984375L15.632758593750001,16.12243208984375C17.18377859375,14.73467208984375,18.20418859375,12.612222089843751,18.20418859375,9.91834208984375Z" fill="#4285F4" fill-opacity="1"/></g></g></g></svg>