<svg xmlns="http://www.w3.org/2000/svg" width="207" height="136" viewBox="0 0 207 136" fill="none">
  <mask id="mask0_93_54632" style="mask-type:luminance" maskUnits="userSpaceOnUse" x="122" y="4" width="22" height="47">
    <path d="M133.667 50.8832C133.661 50.6546 133.649 50.426 133.649 50.1973C133.649 39.3427 133.643 28.4881 133.661 17.6335C133.661 17.0761 133.524 16.9477 133.018 16.9508C129.752 16.9759 126.482 16.9571 123.213 16.9727C122.784 16.9727 122.641 16.8694 122.641 16.3808C122.659 12.5914 122.656 8.80205 122.641 5.01265C122.641 4.5836 122.721 4.43014 123.16 4.43327C129.909 4.44893 136.657 4.4458 143.406 4.43327C143.767 4.43327 143.886 4.52096 143.886 4.93435C143.877 18.1879 143.877 31.4414 143.877 44.698C143.877 44.7732 143.868 44.8483 143.862 44.9235C143.797 44.9454 143.723 44.9548 143.664 44.9924C141.574 46.2326 139.491 47.4821 137.398 48.716C136.159 49.4489 134.911 50.1566 133.667 50.8769" fill="white"/>
  </mask>
  <g mask="url(#mask0_93_54632)">
    <path d="M143.957 4.36755H122.576V50.9553H143.957V4.36755Z" fill="#F9C235"/>
  </g>
  <mask id="mask1_93_54632" style="mask-type:luminance" maskUnits="userSpaceOnUse" x="63" y="33" width="22" height="47">
    <path d="M73.5876 33.3829C73.5935 33.6303 73.6083 33.8777 73.6083 34.1252C73.6083 44.7825 73.6142 55.4366 73.5965 66.0939C73.5965 66.6357 73.7091 66.7923 74.2366 66.7892C77.5235 66.761 80.8103 66.7892 84.0972 66.761C84.6099 66.7579 84.7137 66.9332 84.7107 67.4374C84.6929 71.2049 84.6929 74.9724 84.7107 78.7399C84.7107 79.2284 84.5744 79.3286 84.1417 79.3286C77.3872 79.313 70.6356 79.3161 63.8811 79.3286C63.4573 79.3286 63.3062 79.2472 63.3062 78.7493C63.321 65.7901 63.318 52.831 63.318 39.8719C63.318 39.6996 63.3328 39.5305 63.3417 39.3614C64.5272 38.6724 65.7128 37.9835 66.8983 37.2913C69.127 35.9917 71.3558 34.6857 73.5876 33.3861" fill="white"/>
  </mask>
  <g mask="url(#mask1_93_54632)">
    <path d="M84.7789 33.3109H63.241V79.3944H84.7789V33.3109Z" fill="#F9C235"/>
  </g>
  <mask id="mask2_93_54632" style="mask-type:luminance" maskUnits="userSpaceOnUse" x="63" y="4" width="22" height="36">
    <path d="M73.5876 33.4801C71.3588 34.7798 69.13 36.0794 66.9012 37.376C65.7157 38.0649 64.5302 38.7508 63.3447 39.4398C63.3358 39.2519 63.321 39.0608 63.321 38.8729C63.321 27.6206 63.3239 16.3651 63.3062 5.11281C63.3062 4.55537 63.4484 4.43323 63.9552 4.43323C70.6682 4.45202 77.3812 4.45202 84.0972 4.43323C84.5981 4.43323 84.7137 4.58355 84.7107 5.09402C84.69 8.83332 84.687 12.5695 84.7107 16.3088C84.7137 16.8537 84.5507 16.9633 84.0765 16.9602C80.7748 16.9414 77.4701 16.9602 74.1685 16.9383C73.7269 16.9383 73.5994 17.0573 73.5994 17.5364C73.6172 22.6224 73.6113 27.7083 73.6083 32.7942C73.6083 33.0229 73.5935 33.2483 73.5876 33.477" fill="white"/>
  </mask>
  <g mask="url(#mask2_93_54632)">
    <path d="M84.7789 4.36743H63.241V39.5118H84.7789V4.36743Z" fill="#3F9682"/>
  </g>
  <mask id="mask3_93_54632" style="mask-type:luminance" maskUnits="userSpaceOnUse" x="122" y="44" width="22" height="36">
    <path d="M133.667 50.6168C134.912 49.8965 136.159 49.1856 137.398 48.4528C139.491 47.2157 141.574 45.9662 143.661 44.726C143.72 44.6884 143.794 44.679 143.859 44.6571C143.865 44.8481 143.877 45.0392 143.877 45.2271C143.877 56.3792 143.874 67.5282 143.889 78.6803C143.889 79.2127 143.753 79.3254 143.278 79.3223C136.601 79.3066 129.923 79.3035 123.243 79.3223C122.748 79.3223 122.638 79.1751 122.641 78.6646C122.662 74.9097 122.662 71.1547 122.641 67.3998C122.641 66.8956 122.736 66.7265 123.243 66.7327C126.53 66.7609 129.814 66.739 133.101 66.7578C133.542 66.7578 133.658 66.6482 133.658 66.1659C133.64 61.2083 133.646 56.2539 133.649 51.2995C133.649 51.0709 133.661 50.8423 133.667 50.6137" fill="white"/>
  </mask>
  <g mask="url(#mask3_93_54632)">
    <path d="M143.957 44.5883H122.576V79.3975H143.957V44.5883Z" fill="#F18532"/>
  </g>
  <mask id="mask4_93_54632" style="mask-type:luminance" maskUnits="userSpaceOnUse" x="91" y="35" width="26" height="16">
    <path d="M116.504 43.2855C114.39 44.557 112.307 45.8097 110.22 47.0655C108.178 48.29 106.133 49.5082 104.1 50.7484C103.798 50.9332 103.578 50.9332 103.279 50.7484C99.3461 48.3589 95.4102 45.9788 91.4654 43.6143C91.0386 43.3575 91.0949 43.2604 91.4654 43.0224C95.4368 40.4763 99.4024 37.9177 103.365 35.3528C103.587 35.2087 103.747 35.1868 103.984 35.334C108.074 37.9271 112.17 40.5108 116.263 43.0944C116.338 43.1414 116.403 43.2041 116.506 43.2823" fill="white"/>
  </mask>
  <g mask="url(#mask4_93_54632)">
    <path d="M116.572 35.1619H91.0979V50.9521H116.572V35.1619Z" fill="#F18532"/>
  </g>
  <mask id="mask5_93_54632" style="mask-type:luminance" maskUnits="userSpaceOnUse" x="91" y="0" width="26" height="17">
    <path d="M116.504 8.73934C114.39 10.0108 112.307 11.2635 110.22 12.5193C108.178 13.7439 106.133 14.9621 104.1 16.2023C103.798 16.387 103.578 16.387 103.279 16.2023C99.3461 13.8127 95.4102 11.4326 91.4654 9.06817C91.0386 8.81136 91.0949 8.71428 91.4654 8.47627C95.4368 5.93017 99.4024 3.37154 103.365 0.806646C103.587 0.662586 103.747 0.640664 103.984 0.787855C108.074 3.38093 112.17 5.96462 116.263 8.5483C116.338 8.59527 116.403 8.65791 116.506 8.7362" fill="white"/>
  </mask>
  <g mask="url(#mask5_93_54632)">
    <path d="M116.572 0.615845H91.0979V16.4061H116.572V0.615845Z" fill="#F9C235"/>
  </g>
  <mask id="mask6_93_54632" style="mask-type:luminance" maskUnits="userSpaceOnUse" x="103" y="43" width="14" height="25">
    <path d="M116.814 43.984V44.5728C116.814 49.3111 116.814 54.0494 116.82 58.7877C116.82 59.1479 116.782 59.4172 116.432 59.627C112.374 62.0479 108.329 64.4906 104.28 66.924C104.191 66.9772 104.111 67.0743 103.978 67.0273C103.877 66.8613 103.931 66.6672 103.931 66.4855C103.928 61.7472 103.934 57.0089 103.919 52.2706C103.919 51.8509 104.046 51.638 104.384 51.4344C108.409 49.0292 112.425 46.6053 116.441 44.1876C116.533 44.1312 116.63 44.0842 116.817 43.984" fill="white"/>
  </mask>
  <g mask="url(#mask6_93_54632)">
    <path d="M116.885 43.9152H103.848V67.1119H116.885V43.9152Z" fill="#3F9682"/>
  </g>
  <mask id="mask7_93_54632" style="mask-type:luminance" maskUnits="userSpaceOnUse" x="103" y="60" width="14" height="24">
    <path d="M103.922 83.5315V82.9145C103.922 78.1793 103.928 73.4441 103.913 68.709C103.913 68.2893 104.034 68.0764 104.375 67.8728C108.305 65.5271 112.226 63.1595 116.15 60.7982C116.337 60.6855 116.527 60.5821 116.708 60.4788C116.871 60.6072 116.805 60.7731 116.805 60.9109C116.808 65.7025 116.805 70.4972 116.811 75.2887C116.811 75.6144 116.767 75.8431 116.459 76.0278C112.389 78.4612 108.329 80.9133 104.266 83.3592C104.177 83.4125 104.082 83.4532 103.922 83.5315Z" fill="white"/>
  </mask>
  <g mask="url(#mask7_93_54632)">
    <path d="M116.885 60.4069H103.848V83.6036H116.885V60.4069Z" fill="#F18532"/>
  </g>
  <mask id="mask8_93_54632" style="mask-type:luminance" maskUnits="userSpaceOnUse" x="90" y="44" width="14" height="23">
    <path d="M90.389 51.7348C90.389 49.3798 90.389 47.0278 90.389 44.6728C90.389 44.0433 90.392 44.0433 90.9225 44.3627C94.8614 46.7272 98.7973 49.0979 102.748 51.4467C103.145 51.6816 103.284 51.9415 103.282 52.4207C103.264 57.1089 103.27 61.7971 103.27 66.4853C103.27 66.9279 103.099 67.0459 102.757 66.8392C98.818 64.4716 94.8821 62.1009 90.9343 59.7521C90.5224 59.5078 90.3683 59.2447 90.3742 58.7374C90.4038 56.4042 90.386 54.068 90.386 51.7348" fill="white"/>
  </mask>
  <g mask="url(#mask8_93_54632)">
    <path d="M103.35 44.084H90.3118V67.1116H103.35V44.084Z" fill="#F9C235"/>
  </g>
  <mask id="mask9_93_54632" style="mask-type:luminance" maskUnits="userSpaceOnUse" x="103" y="9" width="14" height="24">
    <path d="M103.922 32.5405V28.3502C103.922 24.8301 103.928 21.3132 103.913 17.7931C103.913 17.3766 104.037 17.1637 104.378 16.9601C108.341 14.6082 112.294 12.2343 116.251 9.86984C116.811 9.53474 116.814 9.53787 116.814 10.1924C116.814 14.9213 116.814 19.6534 116.82 24.3823C116.82 24.6892 116.767 24.899 116.482 25.0682C112.41 27.489 108.347 29.9286 104.283 32.3588C104.194 32.4121 104.097 32.4528 103.925 32.5405" fill="white"/>
  </mask>
  <g mask="url(#mask9_93_54632)">
    <path d="M116.885 9.58203H103.848V32.6097H116.885V9.58203Z" fill="#F18532"/>
  </g>
  <mask id="mask10_93_54632" style="mask-type:luminance" maskUnits="userSpaceOnUse" x="90" y="60" width="14" height="24">
    <path d="M90.4127 60.4756C92.2236 61.5592 93.9663 62.602 95.7061 63.6418C98.0712 65.0573 100.436 66.4791 102.81 67.8821C103.148 68.0794 103.285 68.2987 103.285 68.7214C103.27 73.4504 103.27 78.1793 103.285 82.9113C103.285 83.4531 103.166 83.45 102.772 83.212C98.7766 80.8068 94.7754 78.4142 90.7714 76.0247C90.5165 75.8712 90.3801 75.7209 90.3801 75.3733C90.392 70.5097 90.389 65.6492 90.389 60.7888C90.389 60.7136 90.4009 60.6384 90.4127 60.4756Z" fill="white"/>
  </mask>
  <g mask="url(#mask10_93_54632)">
    <path d="M103.35 60.4067H90.3118V83.4344H103.35V60.4067Z" fill="#3F9682"/>
  </g>
  <mask id="mask11_93_54632" style="mask-type:luminance" maskUnits="userSpaceOnUse" x="90" y="9" width="14" height="24">
    <path d="M103.273 24.9585C103.273 27.3355 103.264 29.7124 103.279 32.0894C103.279 32.5467 103.231 32.6688 102.796 32.4026C98.8152 29.988 94.8259 27.5891 90.8307 25.2059C90.484 24.9992 90.3743 24.7706 90.3773 24.3603C90.3921 19.6439 90.3862 14.9275 90.3862 10.2111C90.3862 9.54406 90.3891 9.54093 90.9256 9.8635C94.8852 12.2405 98.8389 14.6269 102.804 16.9882C103.172 17.2074 103.288 17.4486 103.282 17.8839C103.261 20.2421 103.273 22.6003 103.273 24.9585Z" fill="white"/>
  </mask>
  <g mask="url(#mask11_93_54632)">
    <path d="M103.35 9.58179H90.312V32.6094H103.35V9.58179Z" fill="#3F9682"/>
  </g>
  <path d="M188.248 97.8812C188.248 97.8812 188.239 97.6275 188.349 97.5304C188.458 97.4333 188.533 97.4427 188.873 97.4427H191.736C191.736 97.4427 192.092 97.3895 192.095 97.7841C192.095 98.1787 192.056 104.439 192.08 104.624C192.101 104.809 192.131 105.072 192.448 105.087C192.762 105.103 193.595 105.144 193.858 105.131C194.122 105.119 194.922 105.222 195.666 104.342C196.407 103.462 200.515 98.0503 200.598 97.9438C200.681 97.8373 200.921 97.4177 201.603 97.4302C202.287 97.4427 205.886 97.4302 205.886 97.4302C205.886 97.4302 199.309 106.183 199.199 106.353C199.09 106.522 198.956 106.757 199.205 107.117C199.454 107.477 206.037 117.101 206.037 117.101H201.938C201.938 117.101 201.256 117.11 200.823 116.462C200.391 115.81 196.493 110.192 196.354 109.992C196.215 109.791 195.806 109.356 195.254 109.312C194.706 109.265 193.512 109.378 192.96 109.362C192.412 109.35 192.089 109.284 192.08 109.826C192.074 110.367 192.11 116.07 192.101 116.377C192.095 116.687 192.083 116.872 191.941 117C191.799 117.129 191.277 117.094 191.07 117.085C190.862 117.079 188.962 117.085 188.799 117.085C188.636 117.085 188.257 117.154 188.245 116.665C188.233 116.174 188.245 97.878 188.245 97.878L188.248 97.8812Z" fill="#F18532"/>
  <path d="M5.38183 96.2933V117.101H1.16138V96.2933H5.38183Z" fill="#F18532"/>
  <path d="M28.5911 117.101H24.3707V102.61C24.3707 102.093 24.1988 101.658 23.8579 101.295C23.5141 100.935 23.0992 100.753 22.6132 100.753H14.8776C14.3886 100.753 13.9737 100.935 13.6328 101.295C13.289 101.658 13.1201 102.096 13.1201 102.61V117.101H8.89966V102.61C8.89966 100.866 9.48353 99.3781 10.6513 98.1442C11.819 96.9103 13.2268 96.2933 14.8776 96.2933H22.6132C24.264 96.2933 25.6718 96.9103 26.8395 98.1442C28.0073 99.3781 28.5911 100.866 28.5911 102.61V117.101Z" fill="#F18532"/>
  <path d="M44.0651 100.753V117.104H39.8446V100.753H32.1091V96.2933H51.8006V100.753H44.0651Z" fill="#F18532"/>
  <path d="M59.5393 104.467H75.0132V108.927H59.5393V112.644H75.0132V117.104H55.3218V96.2963H75.0132V100.756H59.5393V104.473V104.467Z" fill="#F18532"/>
  <path d="M118.86 117.101V96.2933H123.08V112.644H138.554V117.104H118.863L118.86 117.101Z" fill="#F18532"/>
  <path d="M157.543 96.2933H161.764V110.784C161.764 112.528 161.18 114.016 160.012 115.25C158.844 116.484 157.437 117.101 155.786 117.101H148.05C146.399 117.101 144.992 116.484 143.824 115.25C142.656 114.016 142.072 112.528 142.072 110.784V96.2933H146.293V110.784C146.293 111.301 146.465 111.739 146.805 112.099C147.146 112.462 147.561 112.641 148.05 112.641H155.786C156.272 112.641 156.687 112.459 157.031 112.099C157.371 111.739 157.543 111.301 157.543 110.784V96.2933Z" fill="#F18532"/>
  <path d="M178.995 96.2933C180.646 96.2933 182.054 96.9103 183.222 98.1442C184.389 99.3781 184.973 100.866 184.973 102.61V102.983H180.753V102.61C180.753 102.093 180.581 101.658 180.24 101.295C179.896 100.935 179.481 100.753 178.995 100.753H171.26C170.771 100.753 170.356 100.935 170.015 101.295C169.671 101.658 169.502 102.096 169.502 102.61V110.784C169.502 111.301 169.674 111.739 170.015 112.099C170.356 112.462 170.771 112.641 171.26 112.641H178.995C179.481 112.641 179.896 112.459 180.24 112.099C180.581 111.739 180.753 111.301 180.753 110.784V110.411H184.973V110.784C184.973 112.528 184.389 114.016 183.222 115.25C182.054 116.484 180.646 117.101 178.995 117.101H171.26C169.609 117.101 168.201 116.484 167.033 115.25C165.866 114.016 165.282 112.528 165.282 110.784V102.61C165.282 100.866 165.866 99.3781 167.033 98.1442C168.201 96.9103 169.609 96.2933 171.26 96.2933H178.995Z" fill="#F18532"/>
  <path d="M1.62966 135.324C1.49332 135.324 1.38366 135.28 1.29475 135.189C1.20583 135.102 1.16138 134.989 1.16138 134.851V123.539C1.16138 123.392 1.20583 123.279 1.29475 123.195C1.38366 123.11 1.49332 123.07 1.62966 123.07H4.43045C5.32255 123.07 6.14056 123.22 6.88151 123.517C7.62246 123.815 8.2656 124.238 8.81094 124.789C9.35628 125.337 9.77714 125.985 10.0706 126.727C10.3669 127.47 10.5151 128.29 10.5151 129.189C10.5151 130.088 10.3669 130.911 10.0706 131.66C9.77417 132.408 9.35332 133.057 8.81094 133.605C8.2656 134.153 7.62246 134.579 6.88151 134.876C6.14056 135.174 5.32255 135.324 4.43045 135.324H1.62966ZM2.09794 134.475H4.43341C5.4411 134.475 6.33024 134.247 7.10379 133.786C7.87734 133.326 8.48492 132.7 8.92653 131.904C9.36813 131.109 9.58745 130.204 9.58745 129.189C9.58745 128.174 9.36813 127.272 8.92653 126.483C8.48492 125.694 7.87734 125.068 7.10379 124.607C6.33024 124.147 5.4411 123.918 4.43341 123.918H2.09794V134.475Z" fill="#3F9682"/>
  <path d="M4.43022 135.531H1.62943C1.44271 135.531 1.28563 135.468 1.16115 135.34C1.03371 135.214 0.968506 135.045 0.968506 134.851V123.539C0.968506 123.336 1.03667 123.163 1.16708 123.041C1.29156 122.922 1.44864 122.863 1.6324 122.863H4.43319C5.34604 122.863 6.19368 123.016 6.95538 123.323C7.71707 123.63 8.38986 124.072 8.95001 124.638C9.51017 125.205 9.95178 125.879 10.257 126.646C10.5623 127.41 10.7164 128.265 10.7164 129.189C10.7164 130.113 10.5623 130.971 10.257 131.741C9.95178 132.512 9.51314 133.191 8.95001 133.755C8.38986 134.322 7.71707 134.763 6.95538 135.07C6.19665 135.377 5.34604 135.531 4.43319 135.531H4.43022ZM1.62943 123.279C1.54348 123.279 1.47828 123.301 1.42493 123.351C1.39529 123.38 1.35676 123.43 1.35676 123.542V134.854C1.35676 134.936 1.37751 134.992 1.42789 135.042C1.47828 135.095 1.54348 135.117 1.62647 135.117H4.42726C5.29269 135.117 6.09291 134.97 6.81015 134.682C7.52443 134.394 8.15275 133.984 8.67438 133.454C9.19601 132.928 9.60501 132.296 9.88954 131.578C10.1741 130.858 10.3193 130.056 10.3193 129.186C10.3193 128.315 10.1741 127.517 9.88954 126.803C9.60501 126.088 9.19601 125.462 8.67438 124.933C8.14979 124.407 7.52443 123.993 6.81015 123.705C6.09291 123.417 5.29269 123.273 4.42726 123.273H1.62647L1.62943 123.279ZM4.43022 134.685H1.89914V123.715H4.43022C5.46755 123.715 6.39522 123.956 7.19545 124.432C7.99567 124.908 8.63289 125.565 9.08931 126.383C9.54574 127.2 9.77691 128.146 9.77691 129.195C9.77691 130.244 9.54574 131.19 9.08931 132.014C8.63289 132.837 7.99567 133.495 7.19545 133.971C6.39522 134.447 5.46459 134.688 4.43022 134.688V134.685ZM2.29036 134.272H4.43022C5.39938 134.272 6.26481 134.049 7.0028 133.608C7.74078 133.169 8.33058 132.562 8.75144 131.801C9.1723 131.043 9.38569 130.163 9.38569 129.192C9.38569 128.221 9.1723 127.344 8.75144 126.59C8.33058 125.835 7.74078 125.23 7.0028 124.789C6.26185 124.347 5.39642 124.125 4.43022 124.125H2.29036V134.269V134.272Z" fill="#3F9682"/>
  <path d="M12.5273 135.324C12.3287 135.324 12.1923 135.246 12.1153 135.089C12.0382 134.933 12.0353 134.785 12.1064 134.651L16.8218 123.402C16.9048 123.182 17.0559 123.073 17.2723 123.073C17.4886 123.073 17.6309 123.182 17.7228 123.402L22.456 134.651C22.539 134.798 22.533 134.948 22.4412 135.099C22.3463 135.249 22.2129 135.327 22.0351 135.327C21.9314 135.327 21.8454 135.302 21.7773 135.255C21.7091 135.208 21.6498 135.133 21.5994 135.027L17.0233 124.028H17.5213L12.96 135.027C12.9185 135.13 12.8622 135.208 12.7881 135.255C12.714 135.302 12.628 135.327 12.5243 135.327L12.5273 135.324ZM13.6802 132.249L14.0536 131.4H20.5295L20.8881 132.249H13.6802Z" fill="#3F9682"/>
  <path d="M22.0383 135.531C21.896 135.531 21.7745 135.496 21.6737 135.427C21.5789 135.362 21.4959 135.258 21.4307 135.124L20.3222 132.458H14.2464L13.1469 135.111C13.0906 135.252 13.0076 135.362 12.8979 135.43C12.7942 135.496 12.6697 135.531 12.5304 135.531C12.1896 135.531 12.0236 135.343 11.9436 135.183C11.8072 134.907 11.8665 134.685 11.9376 134.547L16.6471 123.317C16.7568 123.029 16.982 122.866 17.2784 122.866C17.477 122.866 17.7497 122.944 17.9097 123.317L22.6429 134.566C22.7525 134.757 22.7466 134.995 22.6133 135.211C22.4828 135.421 22.2872 135.534 22.0442 135.534L22.0383 135.531ZM20.7461 132.455L21.7804 134.942C21.8101 135.001 21.8486 135.052 21.8871 135.08C21.9227 135.105 21.9731 135.117 22.0353 135.117C22.145 135.117 22.2191 135.077 22.2754 134.983C22.3376 134.882 22.3228 134.82 22.2872 134.754L17.7526 123.981L17.4859 124.626L20.2185 131.193H20.6512L21.1847 132.452H20.7431L20.7461 132.455ZM16.7924 123.984L12.2844 134.735C12.2488 134.804 12.2281 134.876 12.2844 134.995C12.3141 135.058 12.3674 135.12 12.5245 135.12C12.5926 135.12 12.646 135.108 12.6875 135.08C12.7231 135.058 12.7557 135.011 12.7794 134.948L13.8108 132.458H13.3662L13.9234 131.2H14.3324L17.0561 124.632L16.7864 123.987L16.7924 123.984ZM20.5742 132.042H20.586L20.3963 131.607L20.5771 132.042H20.5742ZM14.4124 132.042H20.1444L19.9636 131.607H14.5902L14.4095 132.042H14.4124ZM14.7651 131.193H19.7947L17.2755 125.14L14.7651 131.193ZM16.8605 123.821H17.6904L17.5481 123.486C17.4711 123.304 17.3673 123.279 17.2755 123.279C17.1362 123.279 17.0591 123.336 17.0057 123.48L16.8605 123.824V123.821Z" fill="#3F9682"/>
  <path d="M22.7375 123.918C22.613 123.918 22.5122 123.878 22.4352 123.799C22.3581 123.721 22.3196 123.618 22.3196 123.493C22.3196 123.367 22.3581 123.264 22.4352 123.186C22.5122 123.107 22.613 123.067 22.7375 123.067H31.5488C31.6733 123.067 31.7741 123.107 31.8512 123.186C31.9282 123.264 31.9667 123.367 31.9667 123.493C31.9667 123.618 31.9282 123.721 31.8512 123.799C31.7741 123.878 31.6733 123.918 31.5488 123.918H22.7375ZM27.1417 135.324C27.0053 135.324 26.8957 135.28 26.8068 135.19C26.7179 135.102 26.6734 134.989 26.6734 134.851V123.07H27.607V134.851C27.607 134.989 27.5625 135.102 27.4736 135.19C27.3847 135.277 27.275 135.324 27.1387 135.324H27.1417Z" fill="#3F9682"/>
  <path d="M27.145 135.531C26.9583 135.531 26.8012 135.468 26.6737 135.34C26.5493 135.214 26.4811 135.045 26.4811 134.854V124.128H22.7378C22.5629 124.128 22.4148 124.069 22.2992 123.953C22.1836 123.837 22.1213 123.677 22.1213 123.499C22.1213 123.32 22.1836 123.16 22.2992 123.045C22.4148 122.929 22.5629 122.869 22.7378 122.869H31.5492C31.724 122.869 31.8722 122.929 31.9878 123.045C32.1034 123.16 32.1657 123.32 32.1657 123.499C32.1657 123.677 32.1034 123.837 31.9878 123.953C31.8722 124.069 31.724 124.128 31.5492 124.128H27.8059V134.854C27.8059 135.045 27.7377 135.214 27.6133 135.343C27.4888 135.468 27.3287 135.534 27.145 135.534V135.531ZM26.8723 124.125V134.851C26.8723 134.933 26.8931 134.989 26.9434 135.039C27.0472 135.142 27.2398 135.142 27.3436 135.039C27.3939 134.989 27.4147 134.933 27.4147 134.851V124.125H26.8723ZM27.8059 123.712H31.5492C31.647 123.712 31.6914 123.677 31.7181 123.652C31.7448 123.627 31.7744 123.583 31.7744 123.495C31.7744 123.408 31.7448 123.364 31.7181 123.339C31.6914 123.314 31.647 123.279 31.5492 123.279H27.8059V123.712ZM26.8723 123.712H27.4147V123.279H26.8723V123.712ZM22.7378 123.279C22.64 123.279 22.5955 123.314 22.5689 123.339C22.5422 123.364 22.5126 123.408 22.5126 123.495C22.5126 123.583 22.5422 123.624 22.5689 123.652C22.5955 123.677 22.64 123.712 22.7378 123.712H26.4811V123.279H22.7378Z" fill="#3F9682"/>
  <path d="M32.3429 135.324C32.1443 135.324 32.008 135.246 31.931 135.089C31.8539 134.933 31.8509 134.785 31.9221 134.651L36.6375 123.402C36.7205 123.182 36.8716 123.073 37.088 123.073C37.3043 123.073 37.4466 123.182 37.5385 123.402L42.2716 134.651C42.3546 134.798 42.3487 134.948 42.2568 135.099C42.162 135.249 42.0286 135.327 41.8508 135.327C41.7471 135.327 41.6611 135.302 41.5929 135.255C41.5248 135.208 41.4655 135.133 41.4151 135.027L36.839 124.028H37.3369L32.7756 135.027C32.7341 135.13 32.6778 135.208 32.6037 135.255C32.5296 135.302 32.4437 135.327 32.34 135.327L32.3429 135.324ZM33.4958 132.249L33.8693 131.4H40.3452L40.7038 132.249H33.4958Z" fill="#3F9682"/>
  <path d="M41.8539 135.531C41.7117 135.531 41.5902 135.496 41.4894 135.427C41.3946 135.362 41.3116 135.258 41.2464 135.124L40.1379 132.458H34.0621L32.9626 135.111C32.9062 135.252 32.8233 135.362 32.7136 135.43C32.6099 135.496 32.4854 135.531 32.3461 135.531C32.0052 135.531 31.8393 135.343 31.7593 135.183C31.6229 134.907 31.6822 134.685 31.7533 134.547L36.4628 123.317C36.5725 123.029 36.7977 122.866 37.0941 122.866C37.2927 122.866 37.5653 122.944 37.7254 123.317L42.4586 134.566C42.5682 134.757 42.5623 134.995 42.4289 135.211C42.2985 135.421 42.1029 135.534 41.8599 135.534L41.8539 135.531ZM40.5617 132.455L41.5961 134.942C41.6257 135.001 41.6643 135.052 41.7028 135.08C41.7384 135.105 41.7887 135.117 41.851 135.117C41.9606 135.117 42.0347 135.077 42.0911 134.983C42.1533 134.882 42.1385 134.82 42.1029 134.754L37.5683 123.981L37.3016 124.626L40.0342 131.193H40.4669L41.0004 132.452H40.5588L40.5617 132.455ZM36.608 123.984L32.1001 134.735C32.0645 134.804 32.0438 134.876 32.1001 134.995C32.1297 135.058 32.1831 135.12 32.3402 135.12C32.4083 135.12 32.4617 135.108 32.5032 135.08C32.5387 135.058 32.5713 135.011 32.595 134.948L33.6264 132.458H33.1819L33.7391 131.2H34.1481L36.8718 124.632L36.6021 123.987L36.608 123.984ZM40.3898 132.042H40.4017L40.212 131.607L40.3928 132.042H40.3898ZM34.2281 132.042H39.9601L39.7793 131.607H34.4059L34.2251 132.042H34.2281ZM34.5808 131.193H39.6104L37.0911 125.14L34.5808 131.193ZM36.6762 123.821H37.5061L37.3638 123.486C37.2867 123.304 37.183 123.279 37.0911 123.279C36.9518 123.279 36.8748 123.336 36.8214 123.48L36.6762 123.824V123.821Z" fill="#3F9682"/>
  <path d="M50.3545 135.324C50.2182 135.324 50.1085 135.28 50.0196 135.189C49.9307 135.102 49.8862 134.989 49.8862 134.851V123.539C49.8862 123.392 49.9307 123.279 50.0196 123.195C50.1085 123.11 50.2182 123.07 50.3545 123.07H53.1553C54.0474 123.07 54.8654 123.22 55.6064 123.517C56.3473 123.815 56.9905 124.238 57.5358 124.789C58.0811 125.337 58.502 125.985 58.7954 126.727C59.0918 127.47 59.24 128.29 59.24 129.189C59.24 130.088 59.0918 130.911 58.7954 131.66C58.499 132.408 58.0782 133.057 57.5358 133.605C56.9905 134.153 56.3473 134.579 55.6064 134.876C54.8654 135.174 54.0474 135.324 53.1553 135.324H50.3545ZM50.8228 134.475H53.1583C54.166 134.475 55.0551 134.247 55.8286 133.786C56.6022 133.326 57.2098 132.7 57.6514 131.904C58.093 131.109 58.3123 130.204 58.3123 129.189C58.3123 128.174 58.093 127.272 57.6514 126.483C57.2098 125.694 56.6022 125.068 55.8286 124.607C55.0551 124.147 54.166 123.918 53.1583 123.918H50.8228V134.475Z" fill="#3F9682"/>
  <path d="M53.1553 135.531H50.3545C50.1678 135.531 50.0107 135.468 49.8863 135.34C49.7588 135.214 49.6936 135.045 49.6936 134.851V123.539C49.6936 123.336 49.7618 123.163 49.8922 123.041C50.0167 122.922 50.1737 122.863 50.3575 122.863H53.1583C54.0711 122.863 54.9188 123.016 55.6805 123.323C56.4422 123.63 57.115 124.072 57.6751 124.638C58.2353 125.205 58.6769 125.879 58.9821 126.646C59.2874 127.41 59.4415 128.265 59.4415 129.189C59.4415 130.113 59.2874 130.971 58.9821 131.741C58.6769 132.512 58.2382 133.191 57.6751 133.755C57.112 134.322 56.4422 134.763 55.6805 135.07C54.9217 135.377 54.0711 135.531 53.1583 135.531H53.1553ZM50.3545 123.279C50.2686 123.279 50.2034 123.301 50.15 123.351C50.1204 123.38 50.0819 123.43 50.0819 123.542V134.854C50.0819 134.936 50.1026 134.992 50.153 135.042C50.2034 135.095 50.2686 135.117 50.3516 135.117H53.1524C54.0178 135.117 54.818 134.97 55.5353 134.682C56.2495 134.394 56.8779 133.984 57.3995 133.454C57.9211 132.928 58.3301 132.296 58.6146 131.578C58.8992 130.858 59.0444 130.056 59.0444 129.186C59.0444 128.315 58.8992 127.517 58.6146 126.803C58.3301 126.088 57.9211 125.462 57.3995 124.933C56.8749 124.407 56.2495 123.993 55.5353 123.705C54.818 123.417 54.0178 123.273 53.1524 123.273H50.3516L50.3545 123.279ZM53.1553 134.685H50.6242V123.715H53.1553C54.1927 123.715 55.1233 123.956 55.9205 124.432C56.7208 124.908 57.358 125.565 57.8144 126.383C58.2708 127.2 58.502 128.146 58.502 129.195C58.502 130.244 58.2708 131.19 57.8144 132.014C57.358 132.837 56.7208 133.495 55.9205 133.971C55.1203 134.447 54.1897 134.688 53.1553 134.688V134.685ZM51.0155 134.272H53.1553C54.1245 134.272 54.9899 134.049 55.7279 133.608C56.4659 133.169 57.0557 132.562 57.4765 131.801C57.8974 131.043 58.1108 130.163 58.1108 129.192C58.1108 128.221 57.8974 127.344 57.4765 126.59C57.0557 125.835 56.4659 125.23 55.7279 124.789C54.9869 124.347 54.1215 124.125 53.1553 124.125H51.0155V134.269V134.272Z" fill="#3F9682"/>
  <path d="M62.823 135.324C62.6867 135.324 62.577 135.28 62.4881 135.19C62.3992 135.102 62.3547 134.989 62.3547 134.851V123.539C62.3547 123.392 62.3992 123.28 62.4881 123.195C62.577 123.11 62.6867 123.07 62.823 123.07H65.7957C66.5544 123.07 67.2243 123.229 67.8111 123.549C68.3979 123.868 68.8573 124.304 69.1893 124.858C69.5212 125.412 69.6872 126.057 69.6872 126.787C69.6872 127.517 69.5212 128.131 69.1893 128.685C68.8573 129.239 68.3979 129.675 67.8111 129.988C67.2243 130.301 66.5515 130.457 65.7957 130.457H63.2883V134.851C63.2883 134.989 63.2468 135.102 63.1639 135.19C63.0809 135.277 62.9653 135.324 62.8201 135.324H62.823ZM63.2913 129.521H65.7987C66.3796 129.521 66.8893 129.402 67.331 129.167C67.7726 128.932 68.1193 128.61 68.3742 128.203C68.6291 127.795 68.7565 127.326 68.7565 126.79C68.7565 126.255 68.6291 125.766 68.3742 125.346C68.1193 124.927 67.7726 124.601 67.331 124.366C66.8893 124.131 66.3796 124.012 65.7987 124.012H63.2913V129.518V129.521ZM69.3612 135.324C69.2456 135.324 69.1626 135.299 69.1033 135.252C69.044 135.205 68.9907 135.146 68.9403 135.071L65.8431 130.082L66.8093 129.862L69.7524 134.601C69.8857 134.811 69.9154 134.983 69.8383 135.117C69.7613 135.252 69.6012 135.321 69.3641 135.321L69.3612 135.324Z" fill="#3F9682"/>
  <path d="M69.3611 135.531C69.2011 135.531 69.0766 135.493 68.9847 135.415C68.9136 135.355 68.8484 135.283 68.7862 135.196L65.9706 130.664C65.9142 130.664 65.855 130.664 65.7987 130.664H63.4869V134.851C63.4869 135.039 63.4247 135.208 63.3061 135.333C63.1846 135.462 63.0245 135.527 62.826 135.527C62.6392 135.527 62.4822 135.465 62.3577 135.336C62.2302 135.211 62.165 135.042 62.165 134.848V123.536C62.165 123.333 62.2332 123.16 62.3636 123.038C62.4881 122.919 62.6452 122.86 62.8289 122.86H65.8016C66.587 122.86 67.2954 123.029 67.9059 123.361C68.5194 123.696 69.0085 124.159 69.3582 124.745C69.7079 125.331 69.8857 126.016 69.8857 126.787C69.8857 127.557 69.7079 128.209 69.3582 128.794C69.0085 129.377 68.5194 129.84 67.903 130.169C67.737 130.26 67.5621 130.335 67.3813 130.401L69.9154 134.485C70.1377 134.832 70.0873 135.08 70.0043 135.224C69.8887 135.424 69.6723 135.527 69.3611 135.527V135.531ZM66.4151 130.633L69.1033 134.961C69.1389 135.008 69.1803 135.055 69.2248 135.092C69.2307 135.095 69.2633 135.12 69.3611 135.12C69.4738 135.12 69.619 135.102 69.6694 135.017C69.7138 134.939 69.6397 134.798 69.5894 134.723L66.9871 130.529C66.8034 130.576 66.6137 130.611 66.4181 130.636L66.4151 130.633ZM62.823 123.279C62.7371 123.279 62.6718 123.301 62.6185 123.351C62.5889 123.379 62.5503 123.43 62.5503 123.542V134.854C62.5503 134.936 62.5711 134.992 62.6215 135.042C62.7282 135.152 62.9386 135.139 63.0245 135.045C63.072 134.995 63.0927 134.936 63.0927 134.854V130.254H65.7127L65.5201 129.947L66.8953 129.634L67.1531 130.05C67.3517 129.984 67.5414 129.903 67.7222 129.809C68.2734 129.515 68.7121 129.101 69.0233 128.581C69.3345 128.065 69.4916 127.463 69.4916 126.793C69.4916 126.123 69.3345 125.493 69.0233 124.974C68.7121 124.454 68.2734 124.037 67.7222 123.737C67.1679 123.436 66.5189 123.282 65.7957 123.282H62.823V123.279ZM66.1632 130.222L66.1751 130.238C66.3766 130.222 66.5692 130.194 66.756 130.153L66.7174 130.094L66.1632 130.219V130.222ZM65.7957 129.724H63.0927V123.805H65.7957C66.4033 123.805 66.9516 123.931 67.4169 124.181C67.8881 124.432 68.2645 124.786 68.5372 125.233C68.8099 125.684 68.9492 126.207 68.9492 126.79C68.9492 127.372 68.8099 127.874 68.5342 128.315C68.2616 128.75 67.8852 129.101 67.4169 129.352C66.9486 129.602 66.4033 129.728 65.7957 129.728V129.724ZM63.4839 129.311H65.7957C66.344 129.311 66.8301 129.198 67.242 128.979C67.651 128.763 67.9771 128.462 68.2112 128.086C68.4424 127.714 68.5609 127.279 68.5609 126.79C68.5609 126.301 68.4424 125.841 68.2112 125.459C67.9771 125.074 67.651 124.77 67.245 124.551C66.833 124.332 66.347 124.219 65.7987 124.219H63.4869V129.311H63.4839Z" fill="#3F9682"/>
  <path d="M72.909 135.324C72.7726 135.324 72.663 135.28 72.574 135.189C72.4851 135.102 72.4407 134.989 72.4407 134.851V123.539C72.4407 123.405 72.4851 123.292 72.574 123.201C72.663 123.11 72.7726 123.066 72.909 123.066C73.0453 123.066 73.1549 123.11 73.2439 123.201C73.3328 123.292 73.3772 123.402 73.3772 123.539V134.851C73.3772 134.989 73.3328 135.102 73.2439 135.189C73.1549 135.277 73.0453 135.324 72.909 135.324Z" fill="#3F9682"/>
  <path d="M72.9087 135.531C72.722 135.531 72.5649 135.468 72.4404 135.34C72.313 135.214 72.2478 135.045 72.2478 134.851V123.539C72.2478 123.348 72.313 123.179 72.4404 123.054C72.5649 122.929 72.725 122.863 72.9117 122.863C73.0984 122.863 73.2555 122.925 73.38 123.054C73.5074 123.182 73.5726 123.351 73.5726 123.539V134.851C73.5726 135.042 73.5045 135.211 73.38 135.34C73.2555 135.465 73.0954 135.531 72.9117 135.531H72.9087ZM72.9087 123.279C72.8228 123.279 72.7605 123.304 72.7102 123.354C72.6598 123.405 72.639 123.461 72.639 123.542V134.854C72.639 134.936 72.6598 134.992 72.7102 135.042C72.8139 135.145 73.0065 135.145 73.1103 135.042C73.1607 134.992 73.1814 134.933 73.1814 134.854V123.542C73.1814 123.464 73.1577 123.405 73.1103 123.354C73.0599 123.304 72.9947 123.279 72.9117 123.279H72.9087Z" fill="#3F9682"/>
  <path d="M81.0354 135.324C80.8368 135.324 80.6975 135.224 80.6146 135.027L75.9436 123.84C75.8399 123.599 75.8369 123.411 75.9347 123.276C76.0325 123.142 76.1718 123.073 76.3467 123.073C76.5453 123.073 76.6935 123.182 76.7972 123.402L81.2814 134.209H80.8309L85.2529 123.464C85.3063 123.317 85.3715 123.217 85.4544 123.157C85.5374 123.098 85.6412 123.07 85.7656 123.07C85.9524 123.07 86.0768 123.148 86.1391 123.304C86.2013 123.461 86.1895 123.64 86.1065 123.837L81.4533 135.023C81.4 135.139 81.3377 135.218 81.2577 135.258C81.1806 135.299 81.1036 135.321 81.0324 135.321L81.0354 135.324Z" fill="#3F9682"/>
  <path d="M81.0355 135.531C80.7628 135.531 80.5494 135.38 80.4368 135.111L75.7659 123.924C75.6325 123.611 75.6355 123.351 75.7807 123.151C75.9141 122.963 76.1126 122.866 76.3497 122.866C76.5394 122.866 76.8032 122.944 76.9751 123.311L81.0563 133.147L85.0752 123.383C85.1374 123.204 85.2322 123.07 85.3508 122.985C85.4664 122.907 85.6057 122.866 85.7687 122.866C86.0325 122.866 86.231 122.994 86.3229 123.226C86.4059 123.436 86.3941 123.671 86.2903 123.921L81.6372 135.108C81.5631 135.271 81.4682 135.384 81.3526 135.443C81.2489 135.499 81.1422 135.528 81.0385 135.528L81.0355 135.531ZM80.5761 134.416L80.7954 134.942C80.8458 135.067 80.917 135.117 81.0355 135.117C81.077 135.117 81.1244 135.105 81.1718 135.077C81.2104 135.058 81.2459 135.008 81.2785 134.936L81.4949 134.416H80.5732H80.5761ZM76.3527 123.276C76.2371 123.276 76.1571 123.314 76.0949 123.398C76.0445 123.467 76.0534 123.586 76.1245 123.752L80.5554 134.366L80.8458 133.661L76.6224 123.483C76.5365 123.301 76.4327 123.276 76.3497 123.276H76.3527ZM81.2756 133.661L81.5453 134.309L85.9376 123.755C85.9999 123.608 86.0088 123.489 85.9673 123.386C85.9465 123.333 85.911 123.276 85.7746 123.276C85.6887 123.276 85.6205 123.295 85.5701 123.329C85.5227 123.361 85.4812 123.433 85.4427 123.536L81.2756 133.661Z" fill="#3F9682"/>
  <path d="M89.1297 135.324C88.9933 135.324 88.8837 135.28 88.7947 135.189C88.7058 135.102 88.6614 134.989 88.6614 134.851V123.539C88.6614 123.405 88.7058 123.292 88.7947 123.201C88.8837 123.11 88.9933 123.066 89.1297 123.066H96.6162C96.7407 123.066 96.8504 123.11 96.9422 123.201C97.0341 123.292 97.0815 123.402 97.0815 123.539C97.0815 123.665 97.0341 123.774 96.9422 123.868C96.8504 123.962 96.7407 124.009 96.6162 124.009H89.595V128.716H94.7461C94.8794 128.716 94.9921 128.76 95.081 128.851C95.1699 128.938 95.2143 129.051 95.2143 129.189C95.2143 129.327 95.1699 129.439 95.081 129.533C94.9921 129.627 94.8794 129.674 94.7461 129.674H89.595V134.381H96.6162C96.7407 134.381 96.8504 134.428 96.9422 134.522C97.0341 134.616 97.0815 134.726 97.0815 134.851C97.0815 134.989 97.0341 135.102 96.9422 135.189C96.8474 135.277 96.7407 135.324 96.6162 135.324H89.1297Z" fill="#3F9682"/>
  <path d="M96.6162 135.531H89.1297C88.943 135.531 88.7859 135.468 88.6614 135.34C88.534 135.214 88.4688 135.045 88.4688 134.851V123.539C88.4688 123.348 88.5369 123.179 88.6614 123.054C88.7859 122.929 88.9459 122.863 89.1297 122.863H96.6162C96.7911 122.863 96.9452 122.925 97.0727 123.051C97.206 123.179 97.2772 123.348 97.2772 123.542C97.2772 123.724 97.209 123.89 97.0756 124.022C96.9452 124.153 96.7911 124.219 96.6133 124.219H89.7876V128.512H94.7431C94.9298 128.512 95.0869 128.575 95.2114 128.703C95.3388 128.832 95.404 129.001 95.404 129.192C95.404 129.383 95.3418 129.549 95.2143 129.684C95.0899 129.815 94.9269 129.887 94.7401 129.887H89.7847V134.181H96.6103C96.7852 134.181 96.9422 134.247 97.0727 134.378C97.2031 134.51 97.2742 134.676 97.2742 134.857C97.2742 135.052 97.2031 135.221 97.0697 135.349C96.9393 135.471 96.7852 135.534 96.6133 135.534L96.6162 135.531ZM89.1297 123.279C89.0437 123.279 88.9815 123.304 88.9311 123.354C88.8807 123.405 88.86 123.461 88.86 123.542V134.854C88.86 134.936 88.8807 134.992 88.9311 135.042C88.9815 135.095 89.0467 135.117 89.1297 135.117H96.6162C96.6933 135.117 96.7555 135.092 96.8118 135.036C96.8652 134.986 96.8859 134.929 96.8859 134.851C96.8859 134.782 96.8622 134.726 96.8059 134.673C96.7496 134.616 96.6874 134.588 96.6133 134.588H89.3964V129.468H94.7431C94.8261 129.468 94.8883 129.443 94.9387 129.389C94.9891 129.333 95.0158 129.27 95.0158 129.189C95.0158 129.107 94.9921 129.051 94.9446 129.001C94.8943 128.951 94.8291 128.926 94.7461 128.926H89.3994V123.805H96.6162C96.6903 123.805 96.7526 123.777 96.8089 123.721C96.8652 123.665 96.8889 123.611 96.8889 123.542C96.8889 123.464 96.8652 123.408 96.8148 123.358C96.7585 123.304 96.6963 123.276 96.6192 123.276H89.1326L89.1297 123.279Z" fill="#3F9682"/>
  <path d="M100.43 135.324C100.294 135.324 100.184 135.28 100.096 135.19C100.007 135.102 99.9622 134.989 99.9622 134.851V123.539C99.9622 123.405 100.007 123.292 100.096 123.201C100.184 123.11 100.294 123.067 100.43 123.067C100.576 123.067 100.694 123.12 100.789 123.223L108.696 133.592V123.536C108.696 123.402 108.741 123.289 108.83 123.198C108.919 123.107 109.028 123.063 109.165 123.063C109.289 123.063 109.399 123.107 109.491 123.198C109.586 123.286 109.63 123.399 109.63 123.536V134.848C109.63 134.986 109.583 135.099 109.491 135.186C109.396 135.274 109.289 135.321 109.165 135.321C109.091 135.321 109.028 135.309 108.969 135.28C108.913 135.255 108.862 135.221 108.821 135.177L100.899 124.792V134.848C100.899 134.986 100.854 135.099 100.765 135.186C100.676 135.274 100.567 135.321 100.43 135.321V135.324Z" fill="#3F9682"/>
  <path d="M109.165 135.531C109.064 135.531 108.972 135.512 108.892 135.474C108.815 135.44 108.747 135.393 108.688 135.333L101.095 125.384V134.854C101.095 135.045 101.026 135.214 100.902 135.343C100.777 135.468 100.62 135.534 100.434 135.534C100.247 135.534 100.09 135.471 99.9654 135.343C99.8379 135.218 99.7727 135.048 99.7727 134.854V123.542C99.7727 123.351 99.8409 123.182 99.9654 123.057C100.09 122.932 100.25 122.866 100.434 122.866C100.635 122.866 100.804 122.941 100.935 123.088L108.504 133.013V123.542C108.504 123.351 108.572 123.182 108.697 123.057C108.821 122.932 108.981 122.866 109.168 122.866C109.343 122.866 109.497 122.929 109.624 123.051C109.758 123.179 109.829 123.348 109.829 123.542V134.854C109.829 135.048 109.758 135.218 109.624 135.346C109.494 135.468 109.34 135.531 109.168 135.531H109.165ZM100.703 124.213L108.975 135.055C108.975 135.055 109.014 135.08 109.046 135.095C109.135 135.136 109.269 135.127 109.361 135.039C109.414 134.989 109.435 134.933 109.435 134.854V123.542C109.435 123.464 109.411 123.408 109.361 123.358C109.239 123.242 109.061 123.254 108.963 123.355C108.913 123.405 108.892 123.461 108.892 123.542V134.184L100.635 123.358C100.546 123.261 100.336 123.245 100.229 123.355C100.179 123.405 100.158 123.461 100.158 123.542V134.854C100.158 134.936 100.179 134.992 100.229 135.042C100.333 135.146 100.526 135.146 100.629 135.042C100.68 134.992 100.7 134.936 100.7 134.854V124.213H100.703Z" fill="#3F9682"/>
  <path d="M119.017 135.324C118.893 135.324 118.783 135.28 118.691 135.189C118.596 135.102 118.552 134.989 118.552 134.851V123.539C118.552 123.405 118.599 123.292 118.691 123.201C118.786 123.114 118.893 123.067 119.017 123.067C119.153 123.067 119.263 123.11 119.352 123.201C119.441 123.292 119.485 123.402 119.485 123.539V134.472H125.884C126.029 134.472 126.145 134.513 126.228 134.591C126.311 134.67 126.352 134.773 126.352 134.898C126.352 135.023 126.311 135.127 126.228 135.205C126.145 135.283 126.029 135.324 125.884 135.324H119.02H119.017Z" fill="#3F9682"/>
  <path d="M125.884 135.531H119.02C118.845 135.531 118.691 135.468 118.564 135.343C118.43 135.217 118.359 135.045 118.359 134.851V123.539C118.359 123.345 118.43 123.176 118.564 123.048C118.694 122.922 118.848 122.86 119.02 122.86C119.207 122.86 119.364 122.922 119.488 123.051C119.616 123.179 119.681 123.348 119.681 123.536V134.262H125.884C126.08 134.262 126.237 134.319 126.358 134.431C126.483 134.55 126.548 134.707 126.548 134.892C126.548 135.077 126.483 135.233 126.358 135.352C126.24 135.465 126.08 135.521 125.884 135.521V135.531ZM119.02 123.279C118.943 123.279 118.881 123.304 118.824 123.361C118.771 123.411 118.75 123.467 118.75 123.545V134.857C118.75 134.936 118.774 134.992 118.824 135.042C118.881 135.098 118.943 135.123 119.02 135.123H125.884C125.982 135.123 126.05 135.102 126.098 135.058C126.139 135.02 126.157 134.973 126.157 134.904C126.157 134.835 126.139 134.792 126.098 134.754C126.05 134.71 125.982 134.688 125.884 134.688H119.29V123.549C119.29 123.47 119.266 123.411 119.219 123.361C119.168 123.311 119.103 123.286 119.02 123.286V123.279Z" fill="#3F9682"/>
  <path d="M133.447 135.481C132.555 135.481 131.731 135.324 130.973 135.011C130.214 134.698 129.553 134.256 128.987 133.686C128.421 133.116 127.982 132.449 127.671 131.685C127.36 130.921 127.203 130.091 127.203 129.189C127.203 128.287 127.36 127.46 127.671 126.702C127.982 125.945 128.421 125.281 128.987 124.711C129.553 124.141 130.214 123.699 130.973 123.386C131.731 123.073 132.555 122.916 133.447 122.916C134.339 122.916 135.163 123.073 135.916 123.386C136.669 123.699 137.327 124.141 137.893 124.711C138.459 125.281 138.898 125.945 139.209 126.702C139.52 127.46 139.677 128.29 139.677 129.189C139.677 130.088 139.52 130.921 139.209 131.685C138.898 132.449 138.459 133.116 137.893 133.686C137.327 134.256 136.669 134.698 135.916 135.011C135.163 135.324 134.342 135.481 133.447 135.481ZM133.447 134.538C134.194 134.538 134.891 134.403 135.534 134.137C136.177 133.871 136.74 133.495 137.223 133.007C137.706 132.521 138.08 131.954 138.344 131.303C138.607 130.655 138.741 129.95 138.741 129.186C138.741 128.422 138.607 127.733 138.344 127.084C138.08 126.436 137.706 125.869 137.223 125.381C136.74 124.895 136.177 124.516 135.534 124.25C134.891 123.984 134.194 123.849 133.447 123.849C132.7 123.849 131.989 123.984 131.346 124.25C130.703 124.516 130.14 124.892 129.657 125.381C129.174 125.866 128.8 126.433 128.536 127.084C128.273 127.733 128.139 128.434 128.139 129.186C128.139 129.937 128.273 130.655 128.536 131.303C128.8 131.951 129.174 132.518 129.657 133.007C130.14 133.495 130.703 133.868 131.346 134.137C131.989 134.403 132.689 134.538 133.447 134.538Z" fill="#3F9682"/>
  <path d="M133.447 135.687C132.535 135.687 131.678 135.525 130.901 135.202C130.122 134.879 129.434 134.419 128.853 133.833C128.273 133.248 127.813 132.553 127.493 131.767C127.173 130.98 127.01 130.113 127.01 129.189C127.01 128.265 127.173 127.401 127.493 126.621C127.813 125.841 128.273 125.149 128.853 124.56C129.434 123.975 130.125 123.514 130.901 123.192C131.678 122.869 132.535 122.706 133.447 122.706C134.36 122.706 135.214 122.869 135.987 123.192C136.758 123.514 137.446 123.975 138.026 124.56C138.61 125.149 139.067 125.841 139.387 126.621C139.707 127.401 139.87 128.265 139.87 129.189C139.87 130.113 139.707 130.98 139.387 131.767C139.067 132.553 138.61 133.248 138.026 133.833C137.446 134.419 136.758 134.879 135.987 135.202C135.214 135.525 134.36 135.687 133.447 135.687ZM133.447 123.123C132.585 123.123 131.776 123.276 131.044 123.58C130.315 123.881 129.669 124.313 129.123 124.864C128.581 125.412 128.151 126.061 127.852 126.79C127.552 127.52 127.401 128.328 127.401 129.195C127.401 130.063 127.552 130.874 127.852 131.607C128.151 132.343 128.578 132.991 129.123 133.539C129.669 134.087 130.315 134.519 131.044 134.823C131.776 135.127 132.585 135.28 133.447 135.28C134.31 135.28 135.116 135.127 135.842 134.823C136.568 134.519 137.211 134.087 137.757 133.539C138.302 132.991 138.729 132.34 139.028 131.607C139.328 130.874 139.479 130.06 139.479 129.195C139.479 128.331 139.328 127.52 139.028 126.79C138.729 126.061 138.302 125.415 137.757 124.864C137.211 124.316 136.568 123.884 135.842 123.58C135.116 123.276 134.31 123.123 133.447 123.123ZM133.447 134.748C132.668 134.748 131.939 134.607 131.275 134.335C130.611 134.059 130.021 133.664 129.523 133.163C129.022 132.659 128.631 132.064 128.359 131.394C128.086 130.724 127.947 129.981 127.947 129.195C127.947 128.409 128.086 127.683 128.359 127.013C128.634 126.342 129.025 125.747 129.523 125.243C130.021 124.739 130.611 124.347 131.275 124.072C131.939 123.796 132.668 123.658 133.447 123.658C134.227 123.658 134.941 123.799 135.605 124.072C136.269 124.347 136.859 124.742 137.357 125.243C137.855 125.747 138.249 126.342 138.521 127.013C138.794 127.683 138.933 128.419 138.933 129.195C138.933 129.972 138.794 130.724 138.521 131.394C138.249 132.064 137.855 132.659 137.357 133.163C136.859 133.668 136.269 134.059 135.605 134.335C134.941 134.61 134.215 134.748 133.447 134.748ZM133.447 124.066C132.718 124.066 132.034 124.194 131.417 124.451C130.801 124.708 130.252 125.071 129.793 125.538C129.331 126.001 128.969 126.552 128.717 127.172C128.465 127.792 128.338 128.472 128.338 129.192C128.338 129.913 128.465 130.608 128.717 131.228C128.969 131.848 129.334 132.399 129.793 132.863C130.255 133.329 130.801 133.693 131.417 133.949C132.034 134.206 132.718 134.335 133.447 134.335C134.176 134.335 134.843 134.206 135.463 133.949C136.079 133.693 136.625 133.329 137.087 132.863C137.549 132.399 137.911 131.848 138.163 131.228C138.415 130.608 138.545 129.925 138.545 129.192C138.545 128.459 138.418 127.792 138.163 127.172C137.911 126.552 137.546 126.004 137.087 125.538C136.625 125.071 136.079 124.708 135.463 124.451C134.846 124.194 134.168 124.066 133.447 124.066Z" fill="#3F9682"/>
  <path d="M147.94 135.481C147.111 135.481 146.328 135.315 145.599 134.986C144.867 134.657 144.221 134.2 143.661 133.62C143.101 133.041 142.659 132.371 142.339 131.613C142.016 130.855 141.856 130.047 141.856 129.189C141.856 128.331 142.013 127.539 142.324 126.781C142.635 126.023 143.068 125.353 143.625 124.773C144.179 124.194 144.825 123.737 145.563 123.408C146.301 123.079 147.093 122.913 147.946 122.913C148.664 122.913 149.342 123.029 149.985 123.257C150.629 123.486 151.23 123.837 151.79 124.31C151.885 124.382 151.93 124.485 151.93 124.617C151.93 124.748 151.888 124.864 151.805 124.961C151.722 125.061 151.607 125.111 151.461 125.111C151.42 125.111 151.378 125.102 151.337 125.086C151.295 125.071 151.254 125.049 151.212 125.024C151.171 124.999 151.124 124.964 151.073 124.92C150.658 124.545 150.187 124.272 149.656 124.106C149.126 123.94 148.557 123.856 147.943 123.856C147.247 123.856 146.589 124 145.966 124.288C145.344 124.576 144.793 124.967 144.316 125.465C143.838 125.963 143.465 126.53 143.195 127.169C142.926 127.808 142.789 128.481 142.789 129.192C142.789 129.903 142.926 130.614 143.195 131.262C143.465 131.91 143.836 132.48 144.31 132.972C144.781 133.464 145.329 133.849 145.952 134.125C146.574 134.4 147.238 134.541 147.943 134.541C148.557 134.541 149.129 134.447 149.662 134.259C150.196 134.071 150.697 133.783 151.165 133.398C151.248 133.326 151.346 133.298 151.461 133.32C151.577 133.342 151.675 133.392 151.758 133.476C151.841 133.561 151.882 133.67 151.882 133.805C151.882 133.868 151.876 133.924 151.867 133.977C151.856 134.031 151.826 134.081 151.773 134.134C151.263 134.648 150.676 134.998 150.006 135.193C149.336 135.387 148.649 135.484 147.943 135.484L147.94 135.481ZM151.879 133.802L150.946 133.598V130.21H148.332C148.195 130.21 148.086 130.169 147.997 130.085C147.908 130 147.863 129.897 147.863 129.771C147.863 129.656 147.908 129.559 147.997 129.48C148.086 129.402 148.195 129.361 148.332 129.361H151.414C151.559 129.361 151.675 129.402 151.758 129.486C151.841 129.571 151.882 129.681 151.882 129.815V133.799L151.879 133.802Z" fill="#3F9682"/>
  <path d="M147.94 135.687C147.087 135.687 146.275 135.515 145.522 135.177C144.772 134.839 144.099 134.366 143.524 133.771C142.949 133.176 142.49 132.477 142.161 131.701C141.829 130.921 141.66 130.075 141.66 129.192C141.66 128.309 141.823 127.482 142.143 126.702C142.463 125.923 142.914 125.227 143.486 124.629C144.055 124.034 144.728 123.558 145.486 123.22C146.245 122.882 147.072 122.709 147.943 122.709C148.678 122.709 149.384 122.828 150.045 123.066C150.706 123.304 151.334 123.668 151.909 124.15C152.048 124.256 152.122 124.422 152.122 124.617C152.122 124.798 152.063 124.961 151.947 125.099C151.829 125.243 151.66 125.318 151.458 125.318C151.393 125.318 151.331 125.306 151.269 125.281C151.215 125.259 151.159 125.234 151.109 125.199C151.064 125.171 151.011 125.133 150.952 125.083C150.552 124.72 150.098 124.46 149.597 124.303C149.087 124.144 148.53 124.062 147.94 124.062C147.277 124.062 146.636 124.203 146.041 124.476C145.442 124.751 144.906 125.133 144.449 125.609C143.99 126.085 143.628 126.637 143.37 127.247C143.112 127.855 142.982 128.509 142.982 129.186C142.982 129.862 143.112 130.554 143.37 131.174C143.628 131.795 143.99 132.349 144.443 132.822C144.894 133.291 145.427 133.664 146.023 133.93C146.619 134.197 147.265 134.331 147.94 134.331C148.527 134.331 149.087 134.24 149.597 134.059C150 133.918 150.386 133.714 150.747 133.454V130.413H148.329C148.145 130.413 147.988 130.354 147.863 130.235C147.733 130.113 147.665 129.95 147.665 129.768C147.665 129.587 147.736 129.436 147.866 129.32C147.991 129.211 148.145 129.154 148.326 129.154H151.408C151.604 129.154 151.767 129.217 151.885 129.336C152.007 129.458 152.072 129.624 152.072 129.815V134.053L152.045 134.046C152.022 134.128 151.974 134.206 151.903 134.278C151.373 134.814 150.75 135.186 150.054 135.387C149.372 135.584 148.661 135.684 147.94 135.684V135.687ZM147.94 123.123C147.119 123.123 146.343 123.282 145.635 123.602C144.923 123.918 144.292 124.363 143.759 124.923C143.225 125.481 142.801 126.135 142.502 126.868C142.203 127.598 142.051 128.378 142.051 129.195C142.051 130.013 142.208 130.808 142.517 131.535C142.828 132.267 143.258 132.922 143.797 133.479C144.336 134.04 144.968 134.485 145.676 134.801C146.379 135.117 147.143 135.277 147.943 135.277C148.628 135.277 149.307 135.183 149.956 134.995C150.59 134.81 151.156 134.472 151.639 133.987C151.645 133.98 151.651 133.974 151.657 133.968L150.958 133.814C150.569 134.09 150.157 134.306 149.728 134.456C149.176 134.651 148.575 134.748 147.946 134.748C147.217 134.748 146.521 134.604 145.878 134.316C145.234 134.031 144.662 133.627 144.173 133.119C143.684 132.612 143.296 132.014 143.018 131.344C142.739 130.673 142.597 129.947 142.597 129.189C142.597 128.431 142.739 127.742 143.018 127.081C143.296 126.424 143.687 125.829 144.179 125.315C144.671 124.804 145.246 124.394 145.889 124.097C146.533 123.799 147.226 123.649 147.946 123.649C148.575 123.649 149.17 123.737 149.716 123.909C150.27 124.084 150.768 124.372 151.204 124.767C151.239 124.795 151.281 124.826 151.316 124.848C151.346 124.867 151.375 124.883 151.408 124.895C151.429 124.905 151.45 124.908 151.467 124.908C151.583 124.908 151.633 124.861 151.663 124.83C151.713 124.767 151.737 124.701 151.737 124.623C151.737 124.545 151.707 124.507 151.675 124.482C151.129 124.025 150.543 123.683 149.923 123.461C149.304 123.239 148.637 123.126 147.946 123.126L147.94 123.123ZM151.384 133.104C151.42 133.104 151.456 133.107 151.491 133.113C151.559 133.126 151.621 133.147 151.684 133.176V129.818C151.684 129.715 151.648 129.665 151.619 129.64C151.574 129.593 151.506 129.571 151.411 129.571H148.329C148.24 129.571 148.172 129.593 148.121 129.64C148.077 129.681 148.059 129.718 148.059 129.771C148.059 129.837 148.08 129.887 148.127 129.931C148.181 129.981 148.243 130.003 148.332 130.003H151.141V133.163C151.215 133.122 151.298 133.104 151.384 133.104Z" fill="#3F9682"/>
  <path d="M155.507 135.324C155.371 135.324 155.261 135.28 155.172 135.189C155.083 135.102 155.039 134.989 155.039 134.851V123.539C155.039 123.405 155.083 123.292 155.172 123.201C155.261 123.11 155.371 123.066 155.507 123.066C155.643 123.066 155.753 123.11 155.842 123.201C155.931 123.289 155.975 123.402 155.975 123.539V134.851C155.975 134.989 155.931 135.102 155.842 135.189C155.753 135.277 155.643 135.324 155.507 135.324Z" fill="#3F9682"/>
  <path d="M155.507 135.531C155.32 135.531 155.163 135.468 155.039 135.34C154.911 135.211 154.846 135.045 154.846 134.851V123.539C154.846 123.348 154.911 123.179 155.039 123.054C155.166 122.929 155.323 122.863 155.51 122.863C155.697 122.863 155.854 122.925 155.978 123.054C156.106 123.182 156.171 123.348 156.171 123.539V134.851C156.171 135.042 156.103 135.211 155.978 135.34C155.854 135.465 155.697 135.531 155.51 135.531H155.507ZM155.507 123.279C155.421 123.279 155.359 123.304 155.309 123.354C155.258 123.405 155.237 123.461 155.237 123.542V134.854C155.237 134.936 155.258 134.992 155.309 135.042C155.412 135.145 155.605 135.145 155.709 135.042C155.759 134.992 155.78 134.936 155.78 134.854V123.542C155.78 123.464 155.759 123.405 155.709 123.354C155.658 123.301 155.593 123.279 155.51 123.279H155.507Z" fill="#3F9682"/>
  <path d="M163.352 135.481C162.697 135.481 162.099 135.39 161.553 135.205C161.008 135.02 160.54 134.76 160.145 134.419C159.751 134.078 159.44 133.68 159.212 133.22C159.15 133.094 159.147 132.975 159.203 132.859C159.259 132.743 159.357 132.665 159.49 132.624C159.606 132.584 159.719 132.587 159.834 132.64C159.95 132.693 160.036 132.775 160.098 132.891C160.285 133.226 160.531 133.517 160.839 133.768C161.144 134.018 161.509 134.209 161.93 134.341C162.351 134.472 162.825 134.538 163.355 134.538C163.948 134.538 164.458 134.438 164.888 134.24C165.317 134.043 165.649 133.749 165.883 133.364C166.118 132.975 166.233 132.505 166.233 131.951C166.233 131.262 165.987 130.677 165.495 130.201C165.003 129.724 164.253 129.418 163.246 129.283C162.084 129.117 161.174 128.735 160.522 128.146C159.867 127.554 159.541 126.837 159.541 125.988C159.541 125.371 159.695 124.833 160 124.372C160.306 123.912 160.738 123.555 161.292 123.298C161.847 123.041 162.487 122.913 163.216 122.913C163.755 122.913 164.253 123.001 164.71 123.179C165.166 123.358 165.566 123.589 165.907 123.878C166.251 124.166 166.515 124.466 166.701 124.779C166.775 124.895 166.793 125.017 166.755 125.149C166.719 125.281 166.633 125.371 166.497 125.425C166.381 125.465 166.269 125.468 166.153 125.434C166.037 125.396 165.946 125.328 165.872 125.221C165.726 125.002 165.54 124.786 165.311 124.579C165.083 124.369 164.799 124.197 164.455 124.062C164.111 123.928 163.696 123.859 163.21 123.859C162.359 123.859 161.69 124.053 161.201 124.438C160.712 124.826 160.468 125.375 160.468 126.085C160.468 126.461 160.569 126.806 160.774 127.113C160.975 127.42 161.295 127.686 161.731 127.905C162.167 128.124 162.721 128.293 163.397 128.406C164.736 128.635 165.697 129.051 166.283 129.652C166.87 130.254 167.164 131.021 167.164 131.951C167.164 132.496 167.072 132.988 166.891 133.426C166.71 133.865 166.449 134.237 166.112 134.541C165.774 134.845 165.371 135.077 164.905 135.239C164.44 135.402 163.918 135.484 163.349 135.484L163.352 135.481Z" fill="#3F9682"/>
  <path d="M163.352 135.687C162.683 135.687 162.057 135.59 161.494 135.402C160.928 135.211 160.433 134.936 160.021 134.582C159.609 134.225 159.277 133.799 159.037 133.317C158.945 133.132 158.942 132.941 159.028 132.765C159.111 132.599 159.247 132.487 159.434 132.427C159.585 132.371 159.748 132.377 159.908 132.452C160.063 132.521 160.181 132.637 160.264 132.79C160.436 133.097 160.667 133.373 160.955 133.608C161.239 133.843 161.583 134.021 161.98 134.146C162.38 134.272 162.84 134.334 163.349 134.334C163.912 134.334 164.401 134.24 164.805 134.053C165.196 133.871 165.504 133.602 165.714 133.254C165.925 132.903 166.035 132.465 166.035 131.954C166.035 131.318 165.812 130.795 165.359 130.357C164.899 129.912 164.176 129.621 163.216 129.493C162.019 129.32 161.07 128.923 160.389 128.306C159.692 127.676 159.339 126.9 159.339 125.991C159.339 125.334 159.505 124.751 159.834 124.256C160.16 123.768 160.623 123.383 161.209 123.11C161.787 122.844 162.46 122.709 163.21 122.709C163.77 122.709 164.295 122.803 164.772 122.988C165.246 123.173 165.667 123.417 166.026 123.718C166.384 124.018 166.666 124.341 166.864 124.673C166.965 124.833 166.995 125.021 166.941 125.212C166.888 125.406 166.758 125.547 166.565 125.622C166.408 125.678 166.251 125.681 166.097 125.634C165.943 125.584 165.812 125.487 165.714 125.346C165.578 125.14 165.397 124.936 165.184 124.739C164.974 124.548 164.707 124.385 164.387 124.26C164.067 124.134 163.672 124.069 163.21 124.069C162.407 124.069 161.77 124.25 161.319 124.607C160.88 124.955 160.667 125.44 160.667 126.088C160.667 126.424 160.756 126.721 160.937 126.997C161.118 127.275 161.414 127.517 161.817 127.72C162.235 127.93 162.777 128.093 163.429 128.206C164.802 128.44 165.809 128.879 166.423 129.508C167.045 130.147 167.362 130.971 167.362 131.954C167.362 132.524 167.265 133.047 167.072 133.511C166.879 133.977 166.601 134.378 166.242 134.698C165.886 135.017 165.46 135.264 164.971 135.434C164.487 135.603 163.942 135.687 163.352 135.687ZM159.645 132.806C159.615 132.806 159.585 132.812 159.556 132.822C159.437 132.859 159.396 132.916 159.378 132.956C159.357 132.997 159.345 133.044 159.387 133.125C159.6 133.558 159.899 133.94 160.27 134.262C160.643 134.585 161.097 134.835 161.616 135.011C162.14 135.186 162.724 135.277 163.355 135.277C163.904 135.277 164.404 135.199 164.852 135.045C165.294 134.892 165.676 134.669 165.993 134.384C166.307 134.103 166.55 133.755 166.719 133.345C166.888 132.934 166.977 132.465 166.977 131.951C166.977 131.071 166.707 130.366 166.156 129.803C165.602 129.233 164.665 128.832 163.373 128.613C162.685 128.497 162.108 128.321 161.654 128.093C161.189 127.858 160.842 127.57 160.62 127.232C160.394 126.89 160.282 126.505 160.282 126.085C160.282 125.309 160.554 124.698 161.091 124.272C161.61 123.859 162.327 123.649 163.216 123.649C163.726 123.649 164.167 123.721 164.529 123.865C164.891 124.009 165.199 124.197 165.445 124.419C165.685 124.638 165.883 124.867 166.038 125.099C166.082 125.165 166.141 125.208 166.215 125.23C166.289 125.255 166.361 125.252 166.438 125.224C166.532 125.187 166.556 125.133 166.571 125.086C166.592 125.014 166.583 124.955 166.541 124.889C166.364 124.592 166.112 124.307 165.789 124.034C165.463 123.762 165.08 123.536 164.645 123.367C164.212 123.198 163.732 123.113 163.219 123.113C162.522 123.113 161.903 123.235 161.375 123.48C160.857 123.718 160.448 124.056 160.166 124.485C159.885 124.908 159.742 125.412 159.742 125.982C159.742 126.774 160.042 127.426 160.655 127.98C161.278 128.544 162.161 128.91 163.278 129.07C164.319 129.211 165.113 129.537 165.634 130.041C166.168 130.554 166.438 131.196 166.438 131.942C166.438 132.534 166.31 133.047 166.058 133.464C165.803 133.883 165.439 134.206 164.976 134.419C164.523 134.629 163.981 134.735 163.364 134.735C162.819 134.735 162.321 134.666 161.885 134.532C161.444 134.394 161.055 134.19 160.732 133.924C160.409 133.658 160.143 133.342 159.944 132.988C159.902 132.909 159.846 132.856 159.769 132.822C159.731 132.803 159.692 132.794 159.656 132.794L159.645 132.806Z" fill="#3F9682"/>
  <path d="M168.832 123.918C168.707 123.918 168.607 123.878 168.53 123.799C168.453 123.721 168.414 123.618 168.414 123.493C168.414 123.367 168.453 123.264 168.53 123.186C168.607 123.107 168.707 123.067 168.832 123.067H177.643C177.768 123.067 177.869 123.107 177.946 123.186C178.023 123.264 178.061 123.367 178.061 123.493C178.061 123.618 178.023 123.721 177.946 123.799C177.869 123.878 177.768 123.918 177.643 123.918H168.832ZM173.236 135.324C173.1 135.324 172.99 135.28 172.901 135.19C172.812 135.102 172.768 134.989 172.768 134.851V123.07H173.701V134.851C173.701 134.989 173.657 135.102 173.568 135.19C173.479 135.277 173.37 135.324 173.233 135.324H173.236Z" fill="#3F9682"/>
  <path d="M173.236 135.531C173.05 135.531 172.892 135.468 172.765 135.34C172.641 135.214 172.572 135.045 172.572 134.854V124.128H168.829C168.654 124.128 168.506 124.069 168.39 123.953C168.275 123.837 168.213 123.677 168.213 123.499C168.213 123.32 168.275 123.16 168.39 123.045C168.506 122.929 168.654 122.869 168.829 122.869H177.64C177.815 122.869 177.964 122.929 178.079 123.045C178.195 123.16 178.257 123.32 178.257 123.499C178.257 123.677 178.195 123.837 178.079 123.953C177.964 124.069 177.815 124.128 177.64 124.128H173.897V134.854C173.897 135.045 173.829 135.214 173.705 135.343C173.58 135.468 173.423 135.534 173.236 135.534V135.531ZM172.964 124.125V134.851C172.964 134.933 172.984 134.989 173.035 135.039C173.138 135.142 173.331 135.142 173.435 135.039C173.485 134.989 173.506 134.933 173.506 134.851V124.125H172.964ZM173.897 123.712H177.64C177.738 123.712 177.783 123.677 177.809 123.652C177.836 123.627 177.866 123.583 177.866 123.495C177.866 123.408 177.836 123.364 177.809 123.339C177.783 123.314 177.738 123.279 177.64 123.279H173.897V123.712ZM172.964 123.712H173.506V123.279H172.964V123.712ZM168.829 123.279C168.731 123.279 168.687 123.314 168.66 123.339C168.634 123.364 168.604 123.408 168.604 123.495C168.604 123.583 168.634 123.627 168.66 123.652C168.687 123.677 168.731 123.712 168.829 123.712H172.572V123.279H168.829Z" fill="#3F9682"/>
  <path d="M180.942 135.324C180.806 135.324 180.696 135.28 180.607 135.189C180.519 135.102 180.474 134.989 180.474 134.851V123.539C180.474 123.405 180.519 123.292 180.607 123.201C180.696 123.11 180.806 123.066 180.942 123.066C181.079 123.066 181.188 123.11 181.277 123.201C181.366 123.292 181.411 123.402 181.411 123.539V134.851C181.411 134.989 181.366 135.102 181.277 135.189C181.188 135.277 181.079 135.324 180.942 135.324Z" fill="#3F9682"/>
  <path d="M180.942 135.531C180.755 135.531 180.598 135.468 180.474 135.34C180.346 135.214 180.281 135.045 180.281 134.851V123.539C180.281 123.348 180.349 123.179 180.474 123.054C180.598 122.929 180.758 122.863 180.942 122.863C181.126 122.863 181.286 122.925 181.41 123.054C181.538 123.182 181.603 123.351 181.603 123.542V134.854C181.603 135.045 181.535 135.214 181.41 135.343C181.286 135.468 181.126 135.534 180.942 135.534V135.531ZM180.942 123.279C180.856 123.279 180.794 123.304 180.744 123.354C180.693 123.405 180.672 123.461 180.672 123.542V134.854C180.672 134.936 180.693 134.992 180.744 135.042C180.847 135.145 181.04 135.145 181.144 135.042C181.191 134.992 181.215 134.933 181.215 134.854V123.542C181.215 123.464 181.194 123.405 181.144 123.354C181.093 123.304 181.028 123.279 180.945 123.279H180.942Z" fill="#3F9682"/>
  <path d="M190.61 135.481C189.78 135.481 188.998 135.315 188.268 134.986C187.536 134.657 186.89 134.2 186.33 133.62C185.77 133.041 185.328 132.371 185.008 131.613C184.685 130.855 184.525 130.047 184.525 129.189C184.525 128.331 184.682 127.539 184.993 126.781C185.305 126.023 185.737 125.353 186.295 124.773C186.849 124.194 187.495 123.737 188.233 123.408C188.971 123.079 189.762 122.913 190.616 122.913C191.333 122.913 192.012 123.029 192.655 123.257C193.298 123.486 193.9 123.837 194.46 124.31C194.555 124.382 194.599 124.485 194.599 124.617C194.599 124.748 194.558 124.864 194.475 124.961C194.392 125.061 194.276 125.111 194.131 125.111C194.089 125.111 194.048 125.102 194.006 125.086C193.965 125.071 193.923 125.049 193.882 125.024C193.84 124.999 193.793 124.964 193.743 124.92C193.328 124.545 192.856 124.272 192.326 124.106C191.795 123.94 191.226 123.856 190.613 123.856C189.916 123.856 189.258 124 188.636 124.288C188.014 124.576 187.462 124.967 186.985 125.465C186.508 125.963 186.134 126.53 185.865 127.169C185.595 127.808 185.459 128.481 185.459 129.192C185.459 129.903 185.595 130.614 185.865 131.262C186.134 131.91 186.505 132.48 186.979 132.972C187.45 133.464 187.999 133.849 188.621 134.125C189.244 134.4 189.907 134.541 190.613 134.541C191.226 134.541 191.798 134.447 192.332 134.259C192.865 134.071 193.366 133.783 193.834 133.398C193.917 133.326 194.015 133.298 194.131 133.32C194.246 133.342 194.344 133.392 194.427 133.476C194.51 133.561 194.552 133.67 194.552 133.805C194.552 133.868 194.546 133.924 194.537 133.977C194.525 134.031 194.495 134.081 194.442 134.134C193.932 134.648 193.345 134.998 192.676 135.193C192.006 135.387 191.318 135.484 190.613 135.484L190.61 135.481Z" fill="#3F9682"/>
  <path d="M190.61 135.687C189.757 135.687 188.944 135.515 188.192 135.177C187.442 134.839 186.769 134.366 186.194 133.771C185.619 133.176 185.16 132.477 184.831 131.701C184.499 130.921 184.33 130.075 184.33 129.192C184.33 128.309 184.493 127.482 184.813 126.702C185.133 125.923 185.584 125.224 186.156 124.629C186.725 124.034 187.397 123.558 188.156 123.22C188.915 122.882 189.742 122.709 190.613 122.709C191.348 122.709 192.054 122.828 192.714 123.066C193.375 123.304 194.004 123.668 194.579 124.15C194.718 124.256 194.792 124.422 194.792 124.617C194.792 124.798 194.733 124.961 194.617 125.099C194.499 125.243 194.327 125.318 194.128 125.318C194.063 125.318 194.001 125.306 193.938 125.281C193.885 125.259 193.829 125.234 193.778 125.199C193.734 125.171 193.681 125.133 193.621 125.083C193.221 124.72 192.768 124.46 192.267 124.303C191.757 124.144 191.2 124.062 190.61 124.062C189.946 124.062 189.306 124.203 188.71 124.476C188.112 124.751 187.575 125.133 187.119 125.609C186.659 126.085 186.298 126.637 186.04 127.247C185.782 127.855 185.652 128.506 185.652 129.186C185.652 129.865 185.782 130.554 186.04 131.174C186.298 131.795 186.659 132.349 187.11 132.822C187.563 133.291 188.094 133.664 188.69 133.93C189.285 134.197 189.928 134.331 190.607 134.331C191.194 134.331 191.754 134.24 192.264 134.059C192.777 133.88 193.26 133.598 193.707 133.229C193.829 133.119 193.986 133.079 194.158 133.11C194.309 133.138 194.442 133.207 194.555 133.32C194.676 133.442 194.742 133.608 194.742 133.799C194.742 133.874 194.736 133.946 194.721 134.012C194.7 134.106 194.653 134.193 194.573 134.275C194.042 134.81 193.42 135.183 192.72 135.383C192.039 135.581 191.327 135.681 190.607 135.681L190.61 135.687ZM190.61 123.123C189.789 123.123 189.013 123.282 188.304 123.602C187.593 123.918 186.962 124.363 186.428 124.923C185.895 125.481 185.471 126.135 185.169 126.868C184.869 127.598 184.718 128.378 184.718 129.195C184.718 130.013 184.875 130.808 185.183 131.535C185.495 132.267 185.924 132.922 186.464 133.479C187.003 134.04 187.634 134.485 188.343 134.801C189.045 135.117 189.81 135.28 190.61 135.28C191.295 135.28 191.971 135.186 192.62 134.998C193.254 134.814 193.82 134.475 194.303 133.99C194.33 133.962 194.339 133.943 194.339 133.94C194.345 133.902 194.35 133.858 194.35 133.811C194.35 133.708 194.315 133.658 194.285 133.633C194.229 133.576 194.167 133.545 194.093 133.529C194.018 133.517 193.983 133.539 193.956 133.564C193.47 133.968 192.946 134.269 192.391 134.463C191.84 134.657 191.238 134.754 190.61 134.754C189.881 134.754 189.185 134.61 188.541 134.322C187.898 134.037 187.326 133.633 186.837 133.125C186.348 132.618 185.96 132.02 185.681 131.35C185.403 130.68 185.26 129.953 185.26 129.195C185.26 128.437 185.403 127.748 185.681 127.088C185.96 126.43 186.351 125.835 186.843 125.321C187.335 124.811 187.91 124.4 188.553 124.103C189.196 123.805 189.89 123.655 190.61 123.655C191.238 123.655 191.834 123.743 192.38 123.915C192.934 124.09 193.432 124.379 193.867 124.773C193.903 124.801 193.944 124.833 193.98 124.855C194.01 124.873 194.039 124.889 194.069 124.902C194.09 124.911 194.11 124.914 194.128 124.914C194.244 124.914 194.297 124.867 194.324 124.836C194.374 124.773 194.398 124.707 194.398 124.629C194.398 124.551 194.368 124.513 194.336 124.488C193.79 124.031 193.203 123.69 192.584 123.467C191.965 123.245 191.298 123.132 190.607 123.132L190.61 123.123Z" fill="#3F9682"/>
  <path d="M201.351 135.481C200.696 135.481 200.097 135.39 199.552 135.205C199.007 135.023 198.538 134.76 198.144 134.419C197.75 134.078 197.439 133.68 197.211 133.22C197.148 133.094 197.145 132.975 197.202 132.859C197.258 132.743 197.356 132.665 197.489 132.624C197.605 132.584 197.717 132.587 197.833 132.64C197.949 132.693 198.035 132.775 198.097 132.891C198.284 133.226 198.53 133.517 198.838 133.768C199.143 134.018 199.508 134.209 199.928 134.341C200.349 134.472 200.824 134.538 201.354 134.538C201.947 134.538 202.457 134.438 202.886 134.24C203.316 134.043 203.648 133.749 203.882 133.364C204.116 132.978 204.232 132.505 204.232 131.951C204.232 131.262 203.986 130.677 203.494 130.201C203.002 129.724 202.252 129.418 201.244 129.283C200.083 129.117 199.173 128.735 198.521 128.146C197.866 127.554 197.54 126.837 197.54 125.988C197.54 125.371 197.694 124.833 197.999 124.372C198.304 123.912 198.737 123.555 199.291 123.298C199.845 123.041 200.486 122.913 201.215 122.913C201.754 122.913 202.252 123.001 202.708 123.179C203.165 123.358 203.565 123.589 203.906 123.878C204.247 124.166 204.513 124.466 204.7 124.779C204.774 124.895 204.792 125.017 204.754 125.149C204.718 125.281 204.632 125.371 204.496 125.425C204.38 125.465 204.267 125.468 204.152 125.434C204.036 125.396 203.944 125.328 203.87 125.221C203.725 125.002 203.538 124.786 203.31 124.579C203.082 124.369 202.797 124.197 202.454 124.062C202.11 123.928 201.695 123.859 201.209 123.859C200.358 123.859 199.688 124.053 199.199 124.438C198.71 124.826 198.467 125.375 198.467 126.085C198.467 126.461 198.568 126.806 198.773 127.113C198.974 127.42 199.294 127.686 199.73 127.905C200.166 128.124 200.72 128.293 201.396 128.406C202.735 128.635 203.695 129.051 204.282 129.652C204.869 130.254 205.163 131.021 205.163 131.951C205.163 132.496 205.071 132.988 204.89 133.426C204.709 133.865 204.448 134.237 204.11 134.541C203.772 134.845 203.369 135.077 202.904 135.239C202.436 135.402 201.917 135.484 201.348 135.484L201.351 135.481Z" fill="#3F9682"/>
  <path d="M201.351 135.687C200.681 135.687 200.056 135.59 199.493 135.402C198.927 135.211 198.432 134.936 198.02 134.582C197.608 134.225 197.276 133.802 197.036 133.317C196.944 133.129 196.941 132.938 197.03 132.762C197.11 132.596 197.246 132.484 197.436 132.424C197.587 132.368 197.75 132.374 197.91 132.449C198.064 132.518 198.183 132.634 198.266 132.787C198.438 133.094 198.672 133.373 198.956 133.605C199.241 133.84 199.585 134.018 199.982 134.144C200.382 134.269 200.841 134.331 201.351 134.331C201.914 134.331 202.403 134.237 202.806 134.05C203.198 133.868 203.506 133.599 203.716 133.251C203.927 132.9 204.036 132.462 204.036 131.951C204.036 131.316 203.814 130.793 203.361 130.354C202.901 129.909 202.178 129.618 201.218 129.49C200.02 129.318 199.072 128.92 198.39 128.303C197.694 127.673 197.341 126.897 197.341 125.988C197.341 125.331 197.507 124.748 197.836 124.253C198.162 123.765 198.624 123.38 199.211 123.107C199.789 122.841 200.462 122.706 201.212 122.706C201.772 122.706 202.297 122.8 202.774 122.985C203.248 123.17 203.669 123.414 204.027 123.715C204.386 124.015 204.668 124.338 204.866 124.67C204.967 124.83 204.994 125.018 204.943 125.206C204.89 125.4 204.76 125.541 204.567 125.616C204.41 125.672 204.253 125.675 204.099 125.628C203.945 125.578 203.814 125.481 203.719 125.34C203.58 125.134 203.402 124.927 203.189 124.73C202.978 124.538 202.712 124.376 202.391 124.25C202.071 124.125 201.677 124.059 201.215 124.059C200.412 124.059 199.774 124.241 199.324 124.598C198.885 124.946 198.669 125.431 198.669 126.079C198.669 126.414 198.758 126.712 198.939 126.988C199.119 127.266 199.416 127.507 199.819 127.711C200.237 127.921 200.779 128.084 201.431 128.196C202.803 128.431 203.811 128.87 204.425 129.499C205.047 130.138 205.364 130.962 205.364 131.945C205.364 132.515 205.266 133.038 205.074 133.502C204.881 133.968 204.602 134.366 204.244 134.688C203.888 135.008 203.461 135.255 202.972 135.424C202.486 135.594 201.944 135.678 201.354 135.678L201.351 135.687ZM197.643 132.806C197.614 132.806 197.584 132.813 197.555 132.822C197.436 132.86 197.397 132.916 197.377 132.957C197.356 132.997 197.344 133.044 197.383 133.126C197.596 133.558 197.895 133.94 198.266 134.263C198.639 134.585 199.093 134.836 199.611 135.011C200.136 135.186 200.72 135.277 201.351 135.277C201.899 135.277 202.4 135.199 202.848 135.045C203.29 134.892 203.672 134.67 203.989 134.385C204.303 134.103 204.546 133.752 204.715 133.345C204.884 132.935 204.973 132.465 204.973 131.951C204.973 131.071 204.703 130.367 204.152 129.803C203.598 129.233 202.661 128.832 201.369 128.613C200.681 128.497 200.103 128.322 199.65 128.093C199.185 127.858 198.838 127.57 198.616 127.232C198.39 126.89 198.278 126.505 198.278 126.086C198.278 125.309 198.55 124.698 199.087 124.272C199.606 123.859 200.323 123.649 201.212 123.649C201.722 123.649 202.163 123.721 202.525 123.865C202.886 124.009 203.195 124.197 203.441 124.419C203.681 124.639 203.879 124.867 204.033 125.099C204.078 125.165 204.137 125.209 204.211 125.231C204.285 125.256 204.356 125.253 204.434 125.224C204.528 125.187 204.552 125.134 204.567 125.087C204.588 125.015 204.579 124.955 204.537 124.889C204.359 124.592 204.108 124.307 203.784 124.034C203.461 123.762 203.076 123.536 202.64 123.367C202.208 123.198 201.728 123.114 201.215 123.114C200.518 123.114 199.899 123.236 199.371 123.48C198.853 123.718 198.444 124.056 198.162 124.485C197.881 124.908 197.738 125.412 197.738 125.982C197.738 126.775 198.038 127.426 198.651 127.98C199.274 128.544 200.157 128.91 201.274 129.07C202.314 129.211 203.109 129.537 203.63 130.041C204.164 130.555 204.434 131.197 204.434 131.942C204.434 132.534 204.306 133.044 204.054 133.464C203.799 133.884 203.435 134.206 202.972 134.419C202.519 134.629 201.977 134.735 201.36 134.735C200.815 134.735 200.317 134.667 199.881 134.532C199.44 134.394 199.051 134.191 198.728 133.924C198.405 133.658 198.138 133.345 197.94 132.988C197.898 132.91 197.842 132.856 197.765 132.822C197.726 132.803 197.688 132.794 197.652 132.794L197.643 132.806Z" fill="#3F9682"/>
  <path d="M92.3517 117.101H83.3002C83.3002 117.101 77.0792 98.2631 103.448 94.5364C103.448 94.5364 85.3423 98.5575 92.3517 117.101Z" fill="#F18532"/>
  <path d="M111.275 117.101H94.9803C94.9803 117.101 83.7001 95.4665 115.733 93.7002C115.733 93.7002 88.2525 99.2559 111.275 117.101Z" fill="#F18532"/>
</svg>