<svg width="22" height="22" viewBox="0 0 22 22" fill="none" xmlns="http://www.w3.org/2000/svg">
<g id="contacts">
<g id="bg">
<path d="M9.88937 11.3008C9.88937 11.5971 10.0064 11.8812 10.2147 12.0908C10.423 12.3003 10.7055 12.418 11.0001 12.418C11.2947 12.418 11.5772 12.3003 11.7855 12.0908C11.9938 11.8812 12.1109 11.5971 12.1109 11.3008C12.1109 11.1541 12.0821 11.0088 12.0263 10.8733C11.9705 10.7377 11.8887 10.6146 11.7855 10.5108C11.6824 10.4071 11.5599 10.3248 11.4252 10.2686C11.2904 10.2125 11.146 10.1836 11.0001 10.1836C10.8542 10.1836 10.7098 10.2125 10.575 10.2686C10.4403 10.3248 10.3178 10.4071 10.2147 10.5108C10.1116 10.6146 10.0297 10.7377 9.97392 10.8733C9.9181 11.0088 9.88937 11.1541 9.88937 11.3008Z" fill="#EEF6F4"/>
<path d="M16.5 7.5625C16.5 7.65703 16.4227 7.73438 16.3281 7.73438H15.125C15.0305 7.73438 14.9531 7.65703 14.9531 7.5625V6.35938H11.7734V7.5625C11.7734 7.65703 11.6961 7.73438 11.6016 7.73438H10.3984C10.3039 7.73438 10.2266 7.65703 10.2266 7.5625V6.35938H7.04688V7.5625C7.04688 7.65703 6.96953 7.73438 6.875 7.73438H5.67188C5.57734 7.73438 5.5 7.65703 5.5 7.5625V6.35938H2.92188V17.0156H19.0781V6.35938H16.5V7.5625ZM14.2012 15.8125H13.2602C13.1699 15.8125 13.0969 15.7416 13.0904 15.6514C13.0088 14.5664 12.1021 13.707 11.0021 13.707C9.90215 13.707 8.99551 14.5643 8.91387 15.6514C8.90742 15.7416 8.83437 15.8125 8.74414 15.8125H7.80098C7.77766 15.8125 7.75459 15.8078 7.73316 15.7986C7.71172 15.7895 7.69238 15.776 7.6763 15.7592C7.66022 15.7423 7.64775 15.7223 7.63963 15.7004C7.63152 15.6786 7.62794 15.6553 7.6291 15.632C7.68926 14.4869 8.31445 13.4922 9.23184 12.9229C8.84297 12.4932 8.60664 11.926 8.60664 11.3008C8.60664 9.9709 9.67871 8.89453 11 8.89453C12.3213 8.89453 13.3934 9.9709 13.3934 11.3008C13.3934 11.926 13.157 12.4953 12.7682 12.9229C13.6855 13.49 14.3129 14.4869 14.373 15.632C14.3742 15.6553 14.3706 15.6786 14.3625 15.7004C14.3544 15.7223 14.3419 15.7423 14.3258 15.7592C14.3098 15.776 14.2904 15.7895 14.269 15.7986C14.2476 15.8078 14.2245 15.8125 14.2012 15.8125Z" fill="#EEF6F4"/>
</g>
<g id="Vector">
<path d="M12.7682 12.9229C13.1718 12.4792 13.3949 11.9006 13.3934 11.3008C13.3934 9.9709 12.3214 8.89453 11.0001 8.89453C9.67879 8.89453 8.60673 9.9709 8.60673 11.3008C8.60673 11.926 8.84306 12.4932 9.23192 12.9229C8.76599 13.2116 8.37686 13.6088 8.09776 14.0806C7.81867 14.5523 7.6579 15.0846 7.62919 15.632C7.62803 15.6553 7.63161 15.6786 7.63972 15.7004C7.64784 15.7223 7.66031 15.7423 7.67639 15.7592C7.69247 15.776 7.71181 15.7895 7.73324 15.7986C7.75468 15.8078 7.77775 15.8125 7.80107 15.8125H8.74423C8.83446 15.8125 8.90751 15.7416 8.91395 15.6514C8.99559 14.5643 9.90223 13.707 11.0022 13.707C12.1022 13.707 13.0089 14.5664 13.0905 15.6514C13.0969 15.7416 13.17 15.8125 13.2602 15.8125H14.2012C14.2246 15.8125 14.2476 15.8078 14.2691 15.7986C14.2905 15.7895 14.3098 15.776 14.3259 15.7592C14.342 15.7423 14.3545 15.7223 14.3626 15.7004C14.3707 15.6786 14.3743 15.6553 14.3731 15.632C14.313 14.4869 13.6856 13.49 12.7682 12.9229ZM11.0001 12.418C10.3878 12.418 9.88934 11.9174 9.88934 11.3008C9.88934 10.6842 10.3878 10.1836 11.0001 10.1836C11.6124 10.1836 12.1108 10.6842 12.1108 11.3008C12.1108 11.9174 11.6124 12.418 11.0001 12.418Z" fill="#009688"/>
<path d="M19.9375 4.8125H16.5V3.60938C16.5 3.51484 16.4227 3.4375 16.3281 3.4375H15.125C15.0305 3.4375 14.9531 3.51484 14.9531 3.60938V4.8125H11.7734V3.60938C11.7734 3.51484 11.6961 3.4375 11.6016 3.4375H10.3984C10.3039 3.4375 10.2266 3.51484 10.2266 3.60938V4.8125H7.04688V3.60938C7.04688 3.51484 6.96953 3.4375 6.875 3.4375H5.67188C5.57734 3.4375 5.5 3.51484 5.5 3.60938V4.8125H2.0625C1.68223 4.8125 1.375 5.11973 1.375 5.5V17.875C1.375 18.2553 1.68223 18.5625 2.0625 18.5625H19.9375C20.3178 18.5625 20.625 18.2553 20.625 17.875V5.5C20.625 5.11973 20.3178 4.8125 19.9375 4.8125ZM19.0781 17.0156H2.92188V6.35938H5.5V7.5625C5.5 7.65703 5.57734 7.73438 5.67188 7.73438H6.875C6.96953 7.73438 7.04688 7.65703 7.04688 7.5625V6.35938H10.2266V7.5625C10.2266 7.65703 10.3039 7.73438 10.3984 7.73438H11.6016C11.6961 7.73438 11.7734 7.65703 11.7734 7.5625V6.35938H14.9531V7.5625C14.9531 7.65703 15.0305 7.73438 15.125 7.73438H16.3281C16.4227 7.73438 16.5 7.65703 16.5 7.5625V6.35938H19.0781V17.0156Z" fill="#009688"/>
</g>
</g>
</svg>
