<svg xmlns="http://www.w3.org/2000/svg" xmlns:xlink="http://www.w3.org/1999/xlink" fill="currentColor" version="1.1" width="26"
  height="26" viewBox="0 0 26 26">
  <defs>
    <clipPath id="master_svg0_1879_67954">
      <rect x="0" y="0" width="26" height="26" rx="0" />
    </clipPath>
  </defs>
  <g>
    <g clip-path="url(#master_svg0_1879_67954)">
      <g>
        <path
          d="M20.778624999999998,6.867366875L17.247437,3.379774875C17.057595,3.192276875,16.73579467,3.327334875,16.7366285,3.5941588749999998L16.7475274,7.081756875C16.748044,7.247066875,16.882207,7.380816875,17.047526,7.380816875L20.567815,7.380816875C20.835985,7.380816875,20.969425,7.055816875,20.778624999999998,6.867366875"
          fill="currentColor" fill-opacity="1" />
      </g>
      <g>
        <path
          d="M15.8604625,7.23887875L15.8604625,3.44921875C15.8604625,2.89693375,15.4127625,2.44921875,14.8604625,2.44921875L5.3515625,2.44921875C4.7992775,2.44921875,4.3515625,2.89693375,4.3515625,3.44921875L4.3515625,22.55121875C4.3515625,23.10351875,4.7992775,23.55121875,5.3515625,23.55121875L20.6501625,23.55121875C21.2023625,23.55121875,21.6501625,23.10351875,21.6501625,22.55121875L21.6501625,9.23887875C21.6501625,8.68659875,21.2023625,8.23887875,20.6501625,8.23887875L16.8604625,8.23887875C16.3081625,8.23887875,15.8604625,7.79116875,15.8604625,7.23887875M7.8591725,9.88703875C7.8591725,9.77433875,7.9577725,9.675728750000001,8.070472500000001,9.675728750000001L14.2968225,9.675728750000001C14.4095625,9.675728750000001,14.5081625,9.77433875,14.5081625,9.88703875L14.5081625,10.73223875C14.5081625,10.84493875,14.4095625,10.94353875,14.2968225,10.94353875L8.070472500000001,10.94353875C7.9577725,10.94353875,7.8591725,10.84493875,7.8591725,10.73223875L7.8591725,9.88703875ZM17.9311625,17.87421875C17.9311625,17.98691875,17.8325625,18.08551875,17.719862499999998,18.08551875L8.070472500000001,18.08551875C7.9577725,18.08551875,7.8591725,17.98691875,7.8591725,17.87421875L7.8591725,17.02901875C7.8591725,16.916318750000002,7.9577725,16.817718749999997,8.070472500000001,16.817718749999997L17.719862499999998,16.817718749999997C17.8325625,16.817718749999997,17.9311625,16.916318750000002,17.9311625,17.02901875L17.9311625,17.87421875ZM17.9311625,14.28211875C17.9311625,14.39481875,17.8325625,14.49341875,17.719862499999998,14.49341875L8.070472500000001,14.49341875C7.9577725,14.49341875,7.8591725,14.39481875,7.8591725,14.28211875L7.8591725,13.43691875C7.8591725,13.32421875,7.9577725,13.22561875,8.070472500000001,13.22561875L17.719862499999998,13.22561875C17.8325625,13.22561875,17.9311625,13.32421875,17.9311625,13.43691875L17.9311625,14.28211875Z"
          fill="currentColor" fill-opacity="1" />
      </g>
    </g>
  </g>
</svg>