<svg width="12" height="14" viewBox="0 0 12 14" fill="none" xmlns="http://www.w3.org/2000/svg">
<path d="M3.62476 1.87402H3.49976C3.56851 1.87402 3.62476 1.81777 3.62476 1.74902V1.87402H8.37476V1.74902C8.37476 1.81777 8.43101 1.87402 8.49976 1.87402H8.37476V2.99902H9.49976V1.74902C9.49976 1.19746 9.05132 0.749023 8.49976 0.749023H3.49976C2.94819 0.749023 2.49976 1.19746 2.49976 1.74902V2.99902H3.62476V1.87402ZM11.4998 2.99902H0.499756C0.223193 2.99902 -0.000244141 3.22246 -0.000244141 3.49902V3.99902C-0.000244141 4.06777 0.0560059 4.12402 0.124756 4.12402H1.06851L1.45444 12.2959C1.47944 12.8287 1.92007 13.249 2.45288 13.249H9.54663C10.081 13.249 10.5201 12.8303 10.5451 12.2959L10.931 4.12402H11.8748C11.9435 4.12402 11.9998 4.06777 11.9998 3.99902V3.49902C11.9998 3.22246 11.7763 2.99902 11.4998 2.99902ZM9.42632 12.124H2.57319L2.19507 4.12402H9.80445L9.42632 12.124Z" fill="black" fill-opacity="0.85"/>
</svg>
