<svg width="24" height="24" viewBox="0 0 24 24" fill="none" xmlns="http://www.w3.org/2000/svg">
<path d="M12 19.4812C18.6274 19.4812 24 18.2369 24 16.702C24 15.1671 18.6274 13.9228 12 13.9228C5.37258 13.9228 0 15.1671 0 16.702C0 18.2369 5.37258 19.4812 12 19.4812Z" fill="#F5F5F5"/>
<path d="M20.625 9.06611L16.8203 4.49946C16.6376 4.18819 16.371 4 16.0901 4H7.90988C7.629 4 7.36237 4.18819 7.17975 4.49907L3.375 9.06651V12.7347H20.625V9.06611Z" stroke="#D9D9D9"/>
<path d="M15.6049 10.3251C15.6049 9.68784 15.9776 9.16177 16.44 9.16138H20.625V16.3623C20.625 17.2052 20.13 17.8961 19.5187 17.8961H4.48125C3.87 17.8961 3.375 17.2048 3.375 16.3623V9.16138H7.56C8.02238 9.16138 8.39512 9.68665 8.39512 10.3239V10.3326C8.39512 10.9699 8.772 11.4844 9.234 11.4844H14.766C15.228 11.4844 15.6049 10.9651 15.6049 10.3279V10.3251Z" fill="#FAFAFA" stroke="#D9D9D9"/>
</svg>
