<svg width="44" height="44" viewBox="0 0 44 44" fill="none" xmlns="http://www.w3.org/2000/svg">
    <rect width="44" height="44" fill="#F3F3F3" />
    <g id="Version 2.1" clip-path="url(#clip0_0_1)">
        <g id="Frame 2560">
            <rect width="789" height="186" transform="translate(0 -70)" fill="white" />
            <g id="Group">
                <g id="Icon/Stop point">
                    <rect width="44" height="44" rx="8" fill="#FAAD14" fill-opacity="0.06" />
                </g>
                <g id="Icon/Stop point_2">
                    <path id="Union" fill-rule="evenodd" clip-rule="evenodd"
                        d="M16 19.7545C16 16.5767 18.5767 14 21.7545 14C24.9323 14 27.5089 16.5767 27.5089 19.7545C27.5089 22.8115 25.1244 25.3122 22.1141 25.4979V30.544H21.0352V25.4644C18.1968 25.1104 16 22.6887 16 19.7545ZM18.0487 16.7385L24.7704 23.4602C25.0235 23.2547 25.2547 23.0222 25.4602 22.7704L18.7385 16.0487C18.4855 16.2543 18.2543 16.4855 18.0487 16.7385Z"
                        fill="#FAAD14" />
                </g>
            </g>
        </g>
    </g>
    <defs>
        <clipPath id="clip0_0_1">
            <rect width="13671" height="2208" fill="white" transform="translate(-6962 -961)" />
        </clipPath>
    </defs>
</svg>