<svg width="20" height="20" viewBox="0 0 20 20" fill="none" xmlns="http://www.w3.org/2000/svg">
<g id="steps-item-icon">
<path id="bg" d="M10 2.73438C5.98828 2.73438 2.73438 5.98828 2.73438 10C2.73438 14.0117 5.98828 17.2656 10 17.2656C14.0117 17.2656 17.2656 14.0117 17.2656 10C17.2656 5.98828 14.0117 2.73438 10 2.73438ZM10 15.0781C9.56836 15.0781 9.21875 14.7285 9.21875 14.2969C9.21875 13.8652 9.56836 13.5156 10 13.5156C10.4316 13.5156 10.7812 13.8652 10.7812 14.2969C10.7812 14.7285 10.4316 15.0781 10 15.0781ZM11.2285 10.791C11.0516 10.8593 10.8994 10.9793 10.7918 11.1354C10.6841 11.2915 10.626 11.4764 10.625 11.666V12.1094C10.625 12.1953 10.5547 12.2656 10.4688 12.2656H9.53125C9.44531 12.2656 9.375 12.1953 9.375 12.1094V11.6895C9.375 11.2383 9.50586 10.793 9.76367 10.4219C10.0156 10.0586 10.3672 9.78125 10.7812 9.62305C11.4453 9.36719 11.875 8.81055 11.875 8.20312C11.875 7.3418 11.0332 6.64062 10 6.64062C8.9668 6.64062 8.125 7.3418 8.125 8.20312V8.35156C8.125 8.4375 8.05469 8.50781 7.96875 8.50781H7.03125C6.94531 8.50781 6.875 8.4375 6.875 8.35156V8.20312C6.875 7.43555 7.21094 6.71875 7.82031 6.18555C8.40625 5.67188 9.17969 5.39062 10 5.39062C10.8203 5.39062 11.5937 5.67383 12.1797 6.18555C12.7891 6.71875 13.125 7.43555 13.125 8.20312C13.125 9.33203 12.3809 10.3477 11.2285 10.791Z" fill="white"/>
<g id="Vector">
<path d="M10 1.25C5.16797 1.25 1.25 5.16797 1.25 10C1.25 14.832 5.16797 18.75 10 18.75C14.832 18.75 18.75 14.832 18.75 10C18.75 5.16797 14.832 1.25 10 1.25ZM10 17.2656C5.98828 17.2656 2.73438 14.0117 2.73438 10C2.73438 5.98828 5.98828 2.73438 10 2.73438C14.0117 2.73438 17.2656 5.98828 17.2656 10C17.2656 14.0117 14.0117 17.2656 10 17.2656Z" fill="#8C8C8C"/>
<path d="M9.21875 14.2969C9.21875 14.5041 9.30106 14.7028 9.44757 14.8493C9.59409 14.9958 9.7928 15.0781 10 15.0781C10.2072 15.0781 10.4059 14.9958 10.5524 14.8493C10.6989 14.7028 10.7813 14.5041 10.7813 14.2969C10.7813 14.0897 10.6989 13.891 10.5524 13.7444C10.4059 13.5979 10.2072 13.5156 10 13.5156C9.7928 13.5156 9.59409 13.5979 9.44757 13.7444C9.30106 13.891 9.21875 14.0897 9.21875 14.2969ZM12.1797 6.18555C11.5938 5.67383 10.8203 5.39063 10 5.39063C9.17969 5.39063 8.40625 5.67188 7.82031 6.18555C7.21094 6.71875 6.875 7.43555 6.875 8.20313V8.35156C6.875 8.4375 6.94531 8.50781 7.03125 8.50781H7.96875C8.05469 8.50781 8.125 8.4375 8.125 8.35156V8.20313C8.125 7.3418 8.9668 6.64063 10 6.64063C11.0332 6.64063 11.875 7.3418 11.875 8.20313C11.875 8.81055 11.4453 9.36719 10.7813 9.62305C10.3672 9.78125 10.0156 10.0586 9.76367 10.4219C9.50586 10.793 9.375 11.2383 9.375 11.6895V12.1094C9.375 12.1953 9.44531 12.2656 9.53125 12.2656H10.4688C10.5547 12.2656 10.625 12.1953 10.625 12.1094V11.666C10.626 11.4764 10.6841 11.2915 10.7918 11.1354C10.8994 10.9793 11.0516 10.8593 11.2285 10.791C12.3809 10.3477 13.125 9.33203 13.125 8.20313C13.125 7.43555 12.7891 6.71875 12.1797 6.18555Z" fill="#8C8C8C"/>
</g>
</g>
</svg>
