<svg width="14" height="14" viewBox="0 0 14 14" fill="none" xmlns="http://www.w3.org/2000/svg">
<path d="M9.84464 3.15484C9.08527 2.41288 8.07545 2.00439 7 2.00439C5.92455 2.00439 4.91473 2.41288 4.15536 3.1535C3.39866 3.89279 2.98214 4.87314 2.98214 5.91645C2.98214 9.14814 6.11741 11.37 7 11.9312C7.88259 11.37 11.0179 9.14814 11.0179 5.91645C11.0179 4.87314 10.6013 3.89279 9.84464 3.15484ZM7 8.37939C5.69822 8.37939 4.64286 7.32404 4.64286 6.02225C4.64286 4.72047 5.69822 3.66511 7 3.66511C8.30179 3.66511 9.35714 4.72047 9.35714 6.02225C9.35714 7.32404 8.30179 8.37939 7 8.37939Z" fill="#E6E6E6"/>
<path d="M7 3.66504C5.69821 3.66504 4.64286 4.7204 4.64286 6.02218C4.64286 7.32397 5.69821 8.37933 7 8.37933C8.30179 8.37933 9.35714 7.32397 9.35714 6.02218C9.35714 4.7204 8.30179 3.66504 7 3.66504ZM8.06071 7.0829C7.92159 7.22242 7.75626 7.33306 7.57422 7.40845C7.39218 7.48384 7.19703 7.52249 7 7.52218C6.59955 7.52218 6.22321 7.36549 5.93929 7.0829C5.79976 6.94377 5.68913 6.77844 5.61374 6.5964C5.53835 6.41436 5.49969 6.21921 5.5 6.02218C5.5 5.62174 5.6567 5.2454 5.93929 4.96147C6.22321 4.67754 6.59955 4.52218 7 4.52218C7.40045 4.52218 7.77679 4.67754 8.06071 4.96147C8.34464 5.2454 8.5 5.62174 8.5 6.02218C8.5 6.42263 8.34464 6.79897 8.06071 7.0829Z" fill="#333333"/>
<path d="M11.5884 4.01459C11.3363 3.43318 10.9727 2.90676 10.5183 2.46504C10.0624 2.01932 9.52494 1.66556 8.93527 1.42307C8.32188 1.16861 7.67098 1.04004 7 1.04004C6.32902 1.04004 5.67812 1.16861 5.06473 1.42174C4.47143 1.66682 3.93973 2.01772 3.4817 2.4637C3.02757 2.90567 2.66408 3.43203 2.41161 4.01325C2.15045 4.61593 2.01786 5.25611 2.01786 5.91504C2.01786 6.86057 2.2442 7.80209 2.68884 8.71013C3.04643 9.44004 3.54598 10.1512 4.17545 10.8275C5.25089 11.982 6.37857 12.6878 6.69866 12.8766C6.78952 12.9303 6.89314 12.9585 6.99866 12.9583C7.10312 12.9583 7.20625 12.9316 7.29866 12.8766C7.61875 12.6878 8.74643 11.982 9.82188 10.8275C10.4513 10.1525 10.9509 9.44004 11.3085 8.71013C11.7558 7.80343 11.9821 6.86325 11.9821 5.91638C11.9821 5.25745 11.8496 4.61727 11.5884 4.01459ZM7 11.9311C6.11741 11.37 2.98214 9.14808 2.98214 5.91638C2.98214 4.87307 3.39866 3.89272 4.15536 3.15343C4.91473 2.41281 5.92455 2.00432 7 2.00432C8.07545 2.00432 9.08527 2.41281 9.84464 3.15477C10.6013 3.89272 11.0179 4.87307 11.0179 5.91638C11.0179 9.14808 7.88259 11.37 7 11.9311Z" fill="#333333"/>
</svg>
