<svg xmlns="http://www.w3.org/2000/svg" xmlns:xlink="http://www.w3.org/1999/xlink" fill="none" version="1.1" width="16" height="16" viewBox="0 0 16 16"><defs><clipPath id="master_svg0_1393_53210"><rect x="0" y="0" width="16" height="16" rx="0"/></clipPath></defs><g><g clip-path="url(#master_svg0_1393_53210)"><g><path d="M7.52747640625,5.52670125C7.78813640625,5.266701250000001,8.210136406250001,5.266701250000001,8.47080640625,5.52670125L10.36014640625,7.41470125L10.41547640625,7.47736125C10.63049640625,7.75545125,10.59265640625,8.15271125,10.32899640625,8.38520125C10.06533640625,8.61769125,9.66645640625,8.60551125,9.41747640625,8.35736125L8.66680640625,7.60736125L8.66680640625,13.99873125C8.66680640625,14.36693125,8.368326406249999,14.66533125,8.00013640625,14.66533125C7.63194640625,14.66533125,7.33347640625,14.36693125,7.33347640625,13.99873125L7.33347640625,7.60536125L6.58080640625,8.35736125C6.32047640625,8.61762125,5.89847640625,8.61762125,5.63813640625,8.35736125L5.58280640625,8.29470125C5.37693640625,8.02931125,5.40064640625,7.65221125,5.63813640625,7.41470125L7.52747640625,5.52670125ZM8.00013640625,1.33203125C9.91480640625,1.33203125,11.56016640625,2.48536125,12.28016640625,4.13470125C13.87036640625,4.603411250000001,14.87436640625,6.16953125,14.63656640625,7.81023125C14.39876640625,9.45092125,12.99136640625,10.66748125,11.33346640625,10.66536125C10.98074640625,10.66497125,10.68936640625,10.38989125,10.66869640625,10.03777125C10.64801640625,9.68564125,10.90521640625,9.37836125,11.25547640625,9.33670125L11.33346640625,9.33203125C12.32866640625,9.33409125,13.17396640625,8.60413125,13.31686640625,7.61926125C13.45976640625,6.63439125,12.85686640625,5.69427125,11.90216640625,5.41336125L11.30613640625,5.23736125L11.05747640625,4.66803125C10.45885640625,3.2925312499999997,9.01530640625,2.48621125,7.53019640625,2.69779125C6.04507640625,2.90937125,4.88414640625,4.08675125,4.693476406249999,5.57470125L4.57813640625,6.48670125L3.68480640625,6.70270125C3.0326664062499997,6.86599125,2.6037764062499997,7.48883125,2.6838264062499997,8.156321250000001C2.76387640625,8.82381125,3.32788640625,9.32757125,4.00013640625,9.33203125L4.66680640625,9.33203125C5.03474640625,9.33239125,5.33282640625,9.63076125,5.33282640625,9.99870125C5.33282640625,10.36663125,5.03474640625,10.66500125,4.66680640625,10.66536125L4.00013640625,10.66536125C2.64890640625,10.66674125,1.51020940625,9.65723125,1.34964600625,8.31557125C1.18908240625,6.97391125,2.05740840625,5.72421125,3.37080640625,5.40670125C3.66914640625,3.0771212500000003,5.65178640625,1.33203125,8.00013640625,1.33203125Z" fill="#009688" fill-opacity="1"/></g></g></g></svg>