<svg width="19" height="23" viewBox="0 0 19 23" fill="none" xmlns="http://www.w3.org/2000/svg">
<path id="Vector" d="M16.2438 5.9225V2.07H18.7654C18.8944 2.07 19 1.9665 19 1.84V0.23C19 0.1035 18.8944 0 18.7654 0H0.234568C0.105556 0 0 0.1035 0 0.23V1.84C0 1.9665 0.105556 2.07 0.234568 2.07H2.75617V5.9225C2.75617 8.26562 3.99938 10.327 5.87593 11.5C3.99938 12.673 2.75617 14.7344 2.75617 17.0775V20.93H0.234568C0.105556 20.93 0 21.0335 0 21.16V22.77C0 22.8965 0.105556 23 0.234568 23H18.7654C18.8944 23 19 22.8965 19 22.77V21.16C19 21.0335 18.8944 20.93 18.7654 20.93H16.2438V17.0775C16.2438 14.7344 15.0006 12.673 13.1241 11.5C15.0006 10.327 16.2438 8.26562 16.2438 5.9225ZM14.1327 17.0775V20.93H4.86728V17.0775C4.86728 15.8642 5.34815 14.7229 6.22484 13.8661C7.09861 13.0065 8.26265 12.535 9.5 12.535C10.7373 12.535 11.9014 13.0065 12.7752 13.8661C13.6519 14.7229 14.1327 15.8642 14.1327 17.0775ZM14.1327 5.9225C14.1327 7.13575 13.6519 8.27713 12.7752 9.13388C11.9014 9.9935 10.7373 10.465 9.5 10.465C8.26265 10.465 7.09861 9.9935 6.22484 9.13388C5.79283 8.7135 5.45034 8.21312 5.21728 7.66182C4.98422 7.11051 4.86525 6.51928 4.86728 5.9225V2.07H14.1327V5.9225Z" fill="#009688"/>
</svg>
