<svg xmlns="http://www.w3.org/2000/svg" xmlns:xlink="http://www.w3.org/1999/xlink" fill="none" version="1.1" width="16" height="16" viewBox="0 0 16 16"><g><g></g><g><path d="M15.14990234375,2.5C15.42600234375,2.5,15.64990234375,2.723906,15.64990234375,3L15.64990234375,11.75C15.64990234375,12.02609,15.42600234375,12.25,15.14990234375,12.25L13.95300234375,12.25C13.72900234375,13.0348,13.00650234375,13.6094,12.14990234375,13.6094C11.29330234375,13.6094,10.57070234375,13.0348,10.34677234375,12.25L5.70756234375,12.25C5.48881234375,13.0428,4.76240234375,13.625,3.89990234375,13.625C3.03740234375,13.625,2.31115234375,13.0428,2.0922423437499997,12.25L0.52490234375,12.25C0.45583984375,12.25,0.39990234375,12.19406,0.39990234375,12.125L0.39990234375,7.75422C0.39990234375,7.69859,0.41849614375,7.64469,0.45255854375,7.60078L2.85521234375,4.51187C2.90252234375,4.45095,2.97536234375,4.41531,3.05256234375,4.41531L6.39506234375,4.41531L6.39506234375,3C6.39506234375,2.723906,6.61896234375,2.5,6.89506234375,2.5L15.14990234375,2.5ZM3.89990234375,10.875C3.41662234375,10.875,3.02490234375,11.26672,3.02490234375,11.75C3.02490234375,12.23328,3.41662234375,12.625,3.89990234375,12.625C4.383182343750001,12.625,4.77490234375,12.23328,4.77490234375,11.75C4.77490234375,11.26672,4.383182343750001,10.875,3.89990234375,10.875ZM12.14990234375,10.85938C11.66660234375,10.85938,11.27490234375,11.25109,11.27490234375,11.73438C11.27490234375,12.21766,11.66660234375,12.6094,12.14990234375,12.6094C12.63320234375,12.6094,13.02490234375,12.21766,13.02490234375,11.73438C13.02490234375,11.25109,12.63320234375,10.85938,12.14990234375,10.85938ZM14.64990234375,3.5L7.39506234375,3.5L7.39506234375,5.0625L7.39990234375,5.0625L7.39990234375,11.25L10.33802234375,11.25C10.55160234375,10.44922,11.28180234375,9.85938,12.14990234375,9.85938C13.01800234375,9.85938,13.74820234375,10.44922,13.96180234375,11.25L14.64990234375,11.25L14.64990234375,3.5ZM6.39990234375,5.41531L3.41928234375,5.41531L2.79443234375,6.21875L4.14990234375,6.21875C4.21896234375,6.21875,4.27490234375,6.27469,4.27490234375,6.34375L4.27490234375,6.9375C4.27490234375,7.00656,4.21896234375,7.0625,4.14990234375,7.0625L2.13818234375,7.0625L1.39990234375,8.01156L1.39990234375,11.25L2.0922423437499997,11.25C2.3109923437499997,10.45719,3.03740234375,9.875,3.89990234375,9.875C4.76240234375,9.875,5.48865234375,10.45719,5.70756234375,11.25L6.39990234375,11.25L6.39990234375,5.41531Z" fill="#009688" fill-opacity="1"/><path d="M15.14990234375,2.4L6.89506234375,2.4Q6.64656234375,2.4,6.47081234375,2.5757542Q6.29506234375,2.751508,6.29506234375,3L6.29506234375,4.31531L3.05256234375,4.31531Q2.88125234375,4.31531,2.77628234375,4.45048L0.37354774375,7.53948Q0.29990234375,7.63441,0.29990234375,7.75422L0.29990234375,12.125Q0.29990234375,12.35,0.52490234375,12.35L2.01752234375,12.35Q2.2013823437499997,12.9338,2.69360234375,13.3139Q3.22578234375,13.725,3.89990234375,13.725Q4.57405234375,13.725,5.10626234375,13.3139Q5.59854234375,12.9337,5.78229234375,12.35L10.27271234375,12.35Q10.46000234375,12.928,10.95030234375,13.3034Q11.48050234375,13.7094,12.14990234375,13.7094Q12.81930234375,13.7094,13.34940234375,13.3034Q13.83970234375,12.928,14.02710234375,12.35L15.14990234375,12.35Q15.39840234375,12.35,15.57410234375,12.17425Q15.74990234375,11.99849,15.74990234375,11.75L15.74990234375,3Q15.74990234375,2.751508,15.57410234375,2.5757542Q15.39840234375,2.4,15.14990234375,2.4ZM6.49506234375,3Q6.49506234375,2.6,6.89506234375,2.6L15.14990234375,2.6Q15.31550234375,2.6,15.43270234375,2.717176Q15.54990234375,2.834351,15.54990234375,3L15.54990234375,11.75Q15.54990234375,12.15,15.14990234375,12.15L13.87760234375,12.15L13.85690234375,12.22255Q13.69600234375,12.7862,13.22790234375,13.1446Q12.75150234375,13.5094,12.14990234375,13.5094Q11.54830234375,13.5094,11.07190234375,13.1446Q10.60370234375,12.7862,10.44290234375,12.22257L10.42220234375,12.15L5.63141234375,12.15L5.61116234375,12.2234Q5.45411234375,12.7926,4.98401234375,13.1557Q4.50581234375,13.525,3.89990234375,13.525Q3.29402234375,13.525,2.81585234375,13.1557Q2.34581234375,12.7926,2.1886423437499998,12.22338L2.1683723437499998,12.15L0.52490234375,12.15Q0.49990234375,12.15,0.49990234375,12.125L0.49990234375,7.75422Q0.49990234375,7.7029,0.53156934375,7.66208L2.93415234375,4.57327Q2.97916234375,4.5153099999999995,3.05256234375,4.5153099999999995L6.49506234375,4.5153099999999995L6.49506234375,3ZM13.88500234375,11.35L14.74990234375,11.35L14.74990234375,3.4L7.29506234375,3.4L7.29506234375,5.1625L7.29990234375,5.1625L7.29990234375,11.35L10.41480234375,11.35L10.43460234375,11.27577Q10.58790234375,10.70103,11.06000234375,10.33328Q11.53990234375,9.95937,12.14990234375,9.95937Q12.75990234375,9.95937,13.23980234375,10.33328Q13.71180234375,10.70103,13.86520234375,11.27577L13.88500234375,11.35ZM7.49506234375,4.9625L7.49990234375,4.9625L7.49990234375,11.15L10.26263234375,11.15Q10.44280234375,10.56057,10.93710234375,10.17551Q11.47120234375,9.75938,12.14990234375,9.75938Q12.82860234375,9.75938,13.36270234375,10.17551Q13.85700234375,10.56057,14.03720234375,11.15L14.54990234375,11.15L14.54990234375,3.6L7.49506234375,3.6L7.49506234375,4.9625ZM5.63143234375,11.35L6.49990234375,11.35L6.49990234375,5.31531L3.37036234375,5.31531L2.58998234375,6.31875L4.14990234375,6.31875Q4.17490234375,6.31875,4.17490234375,6.34375L4.17490234375,6.9375Q4.17490234375,6.9625,4.14990234375,6.9625L2.08928234375,6.9625L1.29990234375,7.97725L1.29990234375,11.35L2.16839234375,11.35L2.1886423437499998,11.2766Q2.34568234375,10.70743,2.81579234375,10.344339999999999Q3.29399234375,9.975,3.89990234375,9.975Q4.50578234375,9.975,4.98395234375,10.344339999999999Q5.45399234375,10.7074,5.61116234375,11.27662L5.63143234375,11.35ZM6.29990234375,11.15L5.78228234375,11.15Q5.59842234375,10.56624,5.10620234375,10.18605Q4.57403234375,9.775,3.89990234375,9.775Q3.22575234375,9.775,2.69354234375,10.18605Q2.2012523437500002,10.56627,2.01751234375,11.15L1.49990234375,11.15L1.49990234375,8.04588L2.18708234375,7.1625L4.14990234375,7.1625Q4.37490234375,7.1625,4.37490234375,6.9375L4.37490234375,6.34375Q4.37490234375,6.11875,4.14990234375,6.11875L2.99888234375,6.11875L3.46819234375,5.5153099999999995L6.29990234375,5.5153099999999995L6.29990234375,11.15ZM12.83930234375,12.42382Q13.12490234375,12.13826,13.12490234375,11.73438Q13.12490234375,11.33049,12.83930234375,11.04493Q12.55380234375,10.75938,12.14990234375,10.75937Q11.74600234375,10.75937,11.46050234375,11.04493Q11.17490234375,11.33049,11.17490234375,11.73438Q11.17490234375,12.13826,11.46050234375,12.42382Q11.74600234375,12.7094,12.14990234375,12.7094Q12.55380234375,12.7094,12.83930234375,12.42382ZM4.58934234375,12.43944Q4.87490234375,12.15388,4.87490234375,11.75Q4.87490234375,11.34612,4.58934234375,11.06056Q4.30378234375,10.775,3.89990234375,10.775Q3.49602234375,10.775,3.21046234375,11.06056Q2.92490234375,11.34612,2.92490234375,11.75Q2.92490234375,12.15388,3.21046234375,12.43944Q3.49602234375,12.725,3.89990234375,12.725Q4.30378234375,12.725,4.58934234375,12.43944ZM12.69790234375,11.18636Q12.92490234375,11.41334,12.92490234375,11.73438Q12.92490234375,12.05541,12.69790234375,12.28239Q12.47090234375,12.5094,12.14990234375,12.5094Q11.82890234375,12.5094,11.60190234375,12.28239Q11.37490234375,12.05541,11.37490234375,11.73438Q11.37490234375,11.41334,11.60190234375,11.18636Q11.82890234375,10.95938,12.14990234375,10.95938Q12.47090234375,10.95938,12.69790234375,11.18636ZM4.44792234375,11.20198Q4.67490234375,11.42896,4.67490234375,11.75Q4.67490234375,12.07104,4.44792234375,12.29802Q4.22094234375,12.525,3.89990234375,12.525Q3.57886234375,12.525,3.35188234375,12.29802Q3.12490234375,12.07104,3.12490234375,11.75Q3.12490234375,11.42896,3.35188234375,11.20198Q3.57886234375,10.975,3.89990234375,10.975Q4.22094234375,10.975,4.44792234375,11.20198Z" fill-rule="evenodd" fill="#009688" fill-opacity="1"/></g></g></svg>