<svg width="32" height="32" viewBox="0 0 32 32" fill="none" xmlns="http://www.w3.org/2000/svg">
<g id="Icon/Settled">
<path id="Vector" d="M26 5H5.875C5.39102 5 5 5.39102 5 5.875V26C5 26.484 5.39102 26.875 5.875 26.875H26C26.484 26.875 26.875 26.484 26.875 26V5.875C26.875 5.39102 26.484 5 26 5ZM24.9062 24.9062H6.96875V6.96875H24.9062V24.9062Z" fill="#009688"/>
<path id="Vector_2" d="M24.9375 24.9375H7V7H24.9375V24.9375Z" fill="#EEF6F4"/>
<path id="Vector_3" d="M14.4511 19.3316C14.5316 19.444 14.6377 19.5355 14.7606 19.5987C14.8836 19.6618 15.0198 19.6947 15.158 19.6947C15.2962 19.6947 15.4324 19.6618 15.5553 19.5987C15.6782 19.5355 15.7843 19.444 15.8648 19.3316L21.6234 11.3473C21.7273 11.2023 21.6234 11 21.4457 11H20.1632C19.8816 11 19.6191 11.1367 19.455 11.3637L15.1566 17.3246L13.2097 14.623C13.0457 14.3934 12.7804 14.2594 12.5015 14.2594H11.2191C11.0414 14.2594 10.9375 14.4617 11.0414 14.6066L14.4511 19.3316Z" fill="#009688"/>
</g>
</svg>
