<svg width="32" height="32" viewBox="0 0 32 32" fill="none" xmlns="http://www.w3.org/2000/svg">
<g id="stop">
<path id="Vector" d="M15.5 3C8.5971 3 3 8.5971 3 15.5C3 22.4029 8.5971 28 15.5 28C22.4029 28 28 22.4029 28 15.5C28 8.5971 22.4029 3 15.5 3ZM23.5497 22.0513L8.96261 7.46429C8.41295 7.91071 7.91071 8.41295 7.46429 8.96261L22.0513 23.5497C20.2656 25.0061 17.9833 25.8795 15.5 25.8795C9.76897 25.8795 5.12054 21.231 5.12054 15.5C5.12054 9.76897 9.76897 5.12054 15.5 5.12054C21.231 5.12054 25.8795 9.76897 25.8795 15.5C25.8795 17.9833 25.0061 20.2656 23.5497 22.0513Z" fill="#2F54EB"/>
<path id="bg" d="M15.5 5C9.70242 5 5 9.70242 5 15.5C5 21.2976 9.70242 26 15.5 26C18.0121 26 20.321 25.1165 22.1274 23.6431L7.37097 8.88669C7.82258 8.33065 8.33065 7.82258 8.88669 7.37097L23.6431 22.1274C25.1165 20.321 26 18.0121 26 15.5C26 9.70242 21.2976 5 15.5 5Z" fill="white"/>
</g>
</svg>
