<svg xmlns="http://www.w3.org/2000/svg" xmlns:xlink="http://www.w3.org/1999/xlink" fill="none" version="1.1" width="16" height="16" viewBox="0 0 16 16"><g><g></g><g><path d="M13.3731,8.57424C14.3725,7.05325,15.1411,5.75865,15.1411,4.29701C15.1411,1.92321,13.4474,0,11.3543,0C9.26326,0,7.56754,1.92541,7.56754,4.29701C7.56754,5.60919,8.22576,6.86203,9.08667,8.21597L8.05117,8.60721L6.0444,7.8599C6.29324,7.37195,6.45178,6.89719,6.45178,6.38727C6.45178,5.03992,5.52465,3.94753,4.3848,3.94753C3.24295,3.94753,2.31782,5.03992,2.31782,6.38727C2.31782,6.94994,2.52653,7.49504,2.82955,8.05991L2.81952,8.06211L0,15.5L4.2664,13.6032L8.1475,15.5L11.7898,13.6032L16,15.5L13.3731,8.57424ZM11.3563,2.21115C12.3718,2.21115,13.1945,3.14528,13.1945,4.29921C13.1945,5.45094,12.3718,6.38727,11.3563,6.38727C10.3409,6.38727,9.51812,5.45094,9.51812,4.29921C9.52013,3.14308,10.3389,2.21115,11.3563,2.21115ZM4.38681,5.20257C4.93867,5.20257,5.39019,5.73228,5.39019,6.38727C5.39019,7.04226,4.93867,7.57197,4.38681,7.57197C3.83294,7.57197,3.38342,7.04006,3.38342,6.38727C3.38342,5.73228,3.83294,5.20257,4.38681,5.20257ZM11.7175,12.4778L8.14549,14.3021L4.33664,12.48L1.49705,14.001L3.12455,9.05339L3.38944,8.99624C3.71253,9.50397,4.06572,10.0425,4.38881,10.6381C4.79017,9.88422,5.21159,9.2556,5.57281,8.67974L8.06121,9.62046L9.61646,9.02482C10.1844,9.88422,10.7984,10.792,11.3603,11.7942C11.8861,10.8403,12.432,10.0073,12.9437,9.23802L14.5832,14.0669L11.7175,12.4778Z" fill="#009688" fill-opacity="1"/></g></g></svg>