<svg xmlns="http://www.w3.org/2000/svg" xmlns:xlink="http://www.w3.org/1999/xlink" fill="none" version="1.1" width="20"
    height="20" viewBox="0 0 20 20">
    <defs>
        <clipPath id="master_svg0_1491_48807">
            <rect x="0" y="0" width="20" height="20" rx="0" />
        </clipPath>
    </defs>
    <g clip-path="url(#master_svg0_1491_48807)">
        <g>
            <path
                d="M10,1.25C5.16797,1.25,1.25,5.16797,1.25,10C1.25,14.832,5.16797,18.75,10,18.75C14.832,18.75,18.75,14.832,18.75,10C18.75,5.16797,14.832,1.25,10,1.25ZM13.7793,7.14258C13.7793,7.14258,9.66601,12.8457,9.66601,12.8457C9.60853,12.9259,9.53274,12.9913,9.44493,13.0364C9.35713,13.0815,9.25984,13.1051,9.16113,13.1051C9.06242,13.1051,8.96513,13.0815,8.87733,13.0364C8.78953,12.9913,8.71374,12.9259,8.65625,12.8457C8.65625,12.8457,6.2207,9.4707,6.2207,9.4707C6.14648,9.36719,6.2207,9.222660000000001,6.34766,9.222660000000001C6.34766,9.222660000000001,7.26367,9.222660000000001,7.26367,9.222660000000001C7.46289,9.222660000000001,7.65234,9.31836,7.76953,9.48242C7.76953,9.48242,9.160160000000001,11.4121,9.160160000000001,11.4121C9.160160000000001,11.4121,12.2305,7.1543,12.2305,7.1543C12.3477,6.99219,12.5352,6.89453,12.7363,6.89453C12.7363,6.89453,13.6523,6.89453,13.6523,6.89453C13.7793,6.89453,13.8535,7.03906,13.7793,7.14258C13.7793,7.14258,13.7793,7.14258,13.7793,7.14258Z"
                fill="#009688" fill-opacity="1" />
        </g>
    </g>
</svg>