<svg xmlns="http://www.w3.org/2000/svg" xmlns:xlink="http://www.w3.org/1999/xlink" fill="currentColor" version="1.1"
    width="14" height="14" viewBox="0 0 14 14">
    <defs>
        <clipPath id="master_svg0_210_50117">
            <rect x="0" y="0" width="14" height="14" rx="0" />
        </clipPath>
    </defs>
    <g clip-path="url(#master_svg0_210_50117)">
        <g>
            <path
                d="M4.0244543749999995,4.11741328125C4.0244543749999995,5.70996328125,5.314414375,6.99997328125,6.907014375,6.99997328125C8.499554374999999,6.99997328125,9.789564375,5.70996328125,9.789564375,4.11741328125C9.789564375,2.52487328125,8.499554374999999,1.234863907099,6.907014375,1.234863907099C5.314414375,1.234863907099,4.0244543749999995,2.52487328125,4.0244543749999995,4.11741328125ZM1.742551785,11.29306328125Q1.742551785,11.29536328125,1.742551785,11.29306328125ZM12.071434375,11.32946328125L12.071434375,11.32486328125L12.071434375,11.32946328125ZM12.071434375,11.32266328125L12.071434375,11.31356328125L12.071434375,11.30226328125M9.523334375000001,7.61195328125L9.286734375,7.60967328125C9.204834375,7.60967328125,9.077474375000001,7.64154328125,9.004634375,7.68023328125Q8.815814375,7.78943328125,8.642914375,7.86218328125C8.126454375,8.085153281250001,7.539434375,8.212553281249999,6.913824375,8.212553281249999C6.292694375,8.212553281249999,5.7057143749999994,8.08744328125,5.191594375,7.86676328125Q5.0164043750000005,7.79171328125,4.823014375,7.68023328125C4.7502143750000005,7.63926328125,4.6250543749999995,7.60738328125,4.540914375,7.60967328125L4.306604375,7.61196328125C3.362444375,7.73711328125,2.370498375,8.574323281249999,2.086112375,9.47979328125Q1.783525275,10.09178328125,1.7402652502,11.29306328125C1.737978605,11.44996328125,1.863138375,11.64796328125,2.024652375,11.73206328125Q3.633154375,12.76496328125,6.902434375,12.76496328125Q10.174004375,12.76496328125,11.780234375,11.73206328125C11.939534375,11.64566328125,12.069134375,11.42726328125,12.064634375,11.28846328125Q12.023734375,10.09173328125,11.730194375,9.50475328125C11.470874375,8.59480328125,10.465254375,7.75074328125,9.523334375000001,7.61195328125ZM12.071434375,11.29766328125L12.071434375,11.29086328125L12.071434375,11.29766328125Z"
                fill-opacity="1" />
        </g>
    </g>
</svg>