<svg xmlns="http://www.w3.org/2000/svg" xmlns:xlink="http://www.w3.org/1999/xlink" fill="currentColor" version="1.1"
    width="14" height="14" viewBox="0 0 14 14">
    <defs>
        <clipPath id="master_svg0_210_50116">
            <rect x="0" y="0" width="14" height="14" rx="0" />
        </clipPath>
    </defs>
    <g clip-path="url(#master_svg0_210_50116)">
        <g>
            <path
                d="M11.9455,5.45732L8.52048,2.109024C8.12195,1.717317,7.57902,1.5,6.99856,1.5C6.41809,1.5,5.87517,1.714634,5.47664,2.106341L2.051592,5.45732C1.696451,5.8048,1.49892858,6.26596,1.50000423445,6.74512L1.50000423445,10.54415C1.50000423445,11.6227,2.444346,12.5,3.60528,12.5L10.39472,12.5C11.5557,12.5,12.5,11.6227,12.5,10.54415L12.5,6.74512C12.5,6.2622,12.3036,5.8061,11.9455,5.45732ZM8.298110000000001,10.35366L5.699,10.35366C5.38134,10.35366,5.12143,10.1122,5.12143,9.81707C5.12143,9.52195,5.38134,9.28049,5.699,9.28049L8.298110000000001,9.28049C8.61578,9.28049,8.875689999999999,9.52195,8.875689999999999,9.81707C8.875689999999999,10.1122,8.61578,10.35366,8.298110000000001,10.35366Z"
                fill-opacity="1" />
        </g>
    </g>
</svg>