<svg xmlns="http://www.w3.org/2000/svg" xmlns:xlink="http://www.w3.org/1999/xlink" fill="currentColor" version="1.1"
    width="14" height="14" viewBox="0 0 14 14">
    <defs>
        <clipPath id="master_svg0_938_35796">
            <rect x="0" y="0" width="14" height="14" rx="0" />
        </clipPath>
    </defs>
    <g clip-path="url(#master_svg0_938_35796)">
        <g>
            <path
                d="M7.633181875,0.86760716875L12.155821875,2.3076529687500003C12.444821875,2.39965296875,12.641021875,2.6680829687500003,12.641021875,2.97137296875L12.641021875,9.02222296875C12.039521875,9.94929296875,11.228191875,10.80644296875,10.207161875,11.59394296875C9.186071875,12.38134296875,8.116771875000001,12.97444296875,6.999211875,13.37304296875C5.401751875,12.67874296875,4.271791875,12.07614296875,3.609261875,11.56524296875C2.9468718750000003,11.05434296875,2.196237875,10.20672296875,1.357421875,9.02222296875L1.357421875,2.97130296875C1.357410714,2.66802296875,1.553636875,2.39960296875,1.842615875,2.3075829687500002L6.365241875,0.86753756875C6.777691875,0.73621146875,7.220741875,0.73621146875,7.633181875,0.86753756875L7.633181875,0.86760716875ZM7.536361875,3.57587296875C6.922871875,3.35159296875,6.157541875,3.55658296875,5.740951875,4.06190296875C5.500311875,4.35416296875,5.364691875,4.68201296875,5.332441875000001,5.05813296875C5.304931874999999,5.38751296875,5.395411875,5.73953296875,5.566541875,6.02051296875C5.731271875,6.29006296875,5.978321875,6.52750296875,6.267241875,6.65991296875C6.352911875,6.69850296875,6.438441875,6.72922296875,6.523981875,6.75513296875C6.523981875,6.76328296875,6.522371875,6.77129296875,6.522371875,6.78090296875L6.522371875,9.65501296875C6.522571875,9.91352296875,6.732061875,10.12305296875,6.990571875,10.12328296875C7.249111875,10.12308296875,7.458651875,9.91355296875,7.458841875,9.65501296875L7.458841875,8.54086296875L8.250091874999999,8.54086296875C8.508591875,8.54063296875,8.718121875,8.33117296875,8.718421875,8.072662968749999L8.716821875,8.072662968749999L8.716821875,8.05330296875C8.716591874999999,7.79479296875,8.507061875,7.58529296875,8.248551875,7.58510296875L7.457311875,7.58510296875L7.457311875,6.76314296875C8.154941874999999,6.57738296875,8.645781875,5.90412296875,8.668351874999999,5.19040296875C8.670021875,5.17919296875,8.670021875,5.16783296875,8.670021875,5.15655296875C8.671621875,5.14680296875,8.670021875,5.13872296875,8.670021875,5.12911296875C8.661871875,4.80773296875,8.566581875,4.48002296875,8.379291875,4.21681296875C8.166161875,3.91661296875,7.883581875,3.70341296875,7.536361875,3.57580296875L7.536361875,3.57587296875Z"
                fill-opacity="1" />
        </g>
    </g>
</svg>