<svg xmlns="http://www.w3.org/2000/svg" xmlns:xlink="http://www.w3.org/1999/xlink" fill="currentColor" version="1.1"
    width="14" height="14" viewBox="0 0 14 14">
    <defs>
        <clipPath id="master_svg0_210_50124">
            <rect x="0" y="0" width="14" height="14" rx="0" />
        </clipPath>
    </defs>
    <g clip-path="url(#master_svg0_210_50124)">
        <g>
            <path
                d="M10.9449903125,2.916667C10.8616503125,2.833333,10.7783203125,2.666667,10.6116503125,2.583333C10.5283203125,2.5,10.4449903125,2.333333,10.3616503125,2.25C10.2783203125,2.0833333,10.1116503125,2,9.9449903125,2L4.4449903125,2C4.2783203125,2,4.1116503125,2,4.0283203125,2.0833333C3.9449903125,2.166667,3.8616503125,2.166667,3.7783203125,2.25L3.5283203125,2.5L3.1116503125,2.916667C3.0283203125,3.08333,2.8616533125,3.25,2.7783203125,3.41667L11.3616503125,3.41667C11.1949903125,3.25,11.1116503125,3.08333,10.9449903125,2.916667ZM11.0283203125,8.5L3.0283203125,8.5C2.6949873125,8.5,2.4449873125,8.58333,2.2783203125,8.75C2.1116536125,9,2.0283203125,9.16667,2.0283203125,9.41667L2.0283203125,11C2.0283203125,11.33333,2.1116536125,11.58333,2.3616533125,11.75C2.5283203125,11.91667,2.7783203125,12,3.0283203125,12L10.9449903125,12C11.2783203125,12,11.5283203125,11.91667,11.6949903125,11.75C11.8616503125,11.58333,11.9449903125,11.33333,11.9449903125,11.08333L11.9449903125,9.41667C11.9449903125,9.16667,11.8616503125,8.91667,11.6949903125,8.75C11.6116503125,8.58333,11.3616503125,8.5,11.0283203125,8.5ZM7.8616503125,10.5C7.7783203125,10.58333,7.7783203125,10.58333,7.6949903125,10.58333L6.4449903125,10.58333C6.3616503125,10.58333,6.2783203125,10.58333,6.1949903125,10.5C6.1949903125,10.41667,6.1116503125,10.33333,6.1116503125,10.25C6.1116503125,10.16667,6.1116503125,10.08333,6.1949903125,10.08333C6.2783203125,10,6.2783203125,10,6.4449903125,10L7.6116503125,10C7.6949903125,10,7.7783203125,10,7.7783203125,10.08333C7.8616503125,10.16667,7.8616503125,10.16667,7.8616503125,10.25C7.9449903125,10.33333,7.8616503125,10.41667,7.8616503125,10.5ZM11.7783203125,4.58333C11.6116503125,4.41667,11.3616503125,4.33333,11.0283203125,4.33333L3.0283203125,4.33333C2.6949873125,4.33333,2.4449873125,4.41667,2.2783203125,4.58333C2.1116536125,4.75,2.0283203125,4.91667,2.0283203125,5.16667L2.0283203125,6.83333C2.0283203125,7.08333,2.1116536125,7.33333,2.2783203125,7.5C2.4449873125,7.66667,2.6949873125,7.75,3.0283203125,7.75L11.0283203125,7.75C11.3616503125,7.75,11.6116503125,7.66667,11.7783203125,7.5C11.9449903125,7.33333,12.0283203125,7.08333,12.0283203125,6.83333L12.0283203125,5.16667C12.0283203125,4.91667,11.9449903125,4.75,11.7783203125,4.58333ZM7.6116503125,6.33333L6.4449903125,6.33333C6.3616503125,6.33333,6.2783203125,6.33333,6.2783203125,6.25C6.1949903125,6.16667,6.1949903125,6.16667,6.1116503125,6C6.1116503125,5.91667,6.1116503125,5.83333,6.1949903125,5.83333C6.2783203125,5.75,6.2783203125,5.75,6.4449903125,5.75L7.6116503125,5.75C7.6949903125,5.75,7.7783203125,5.75,7.7783203125,5.83333C7.8616503125,5.83333,7.9449903125,5.91667,7.9449903125,6C7.8616503125,6.25,7.7783203125,6.33333,7.6116503125,6.33333Z"
                fill-opacity="1" />
        </g>
    </g>
</svg>