<svg xmlns="http://www.w3.org/2000/svg" xmlns:xlink="http://www.w3.org/1999/xlink" fill="currentColor" version="1.1"
    width="14" height="14" viewBox="0 0 14 14">
    <g>
        <g>
            <path
                d="M2.97444,12.2113L2.97444,11.9173C2.97444,11.8068,3.06398,11.71725,3.17444,11.71725L9.54459,11.71725C9.65504,11.71725,9.74459,11.8068,9.74459,11.9173L9.74459,12.2113C9.74459,12.3218,9.65504,12.4113,9.54459,12.4113L3.17444,12.4113C3.06398,12.4113,2.97444,12.3218,2.97444,12.2113M7.96124,10.48183L6.46037,7.95792C6.30917,7.70366,6.30917,7.38706,6.46035,7.13279L7.67069,5.09723C7.85093,4.794090000000001,8.17754,4.6083099999999995,8.53022,4.6083099999999995L10.8853,4.6083099999999995C11.238,4.6083099999999995,11.5646,4.794090000000001,11.7448,5.09723L12.8966,7.03423C13.0839,7.34924,13.0838,7.74147,12.8965,8.056470000000001L11.7448,9.99294C11.5646,10.29604,11.238,10.48178,10.8854,10.48178L7.9614,10.48178C7.9614,10.48187,7.96128,10.4819,7.96124,10.48183M8.364329999999999,7.54505C8.348469999999999,8.29073,8.94294,8.906659999999999,9.68872,8.91723C10.4345,8.927800000000001,11.0462,8.32898,11.0515,7.58314C11.0568,6.83731,10.45362,6.22988,9.70776,6.22988C8.9741,6.223,8.37322,6.8111,8.364329999999999,7.54473L8.364329999999999,7.54505ZM7.16633,10.41002L1.875,10.41002C1.322715,10.41002,0.875,9.96231,0.875,9.41002L0.875,2.75C0.875,2.197715,1.322715,1.75,1.875,1.75L10.55508,1.75C11.1074,1.75,11.5551,2.197715,11.5551,2.75L11.5551,3.85642L7.6261,3.85642L5.36472,7.48377L7.16633,10.40907L7.16633,10.41002Z"
                fill-opacity="1" />
        </g>
        <g></g>
    </g>
</svg>