<svg xmlns="http://www.w3.org/2000/svg" xmlns:xlink="http://www.w3.org/1999/xlink" fill="currentColor" version="1.1"
    width="14" height="14" viewBox="0 0 14 14">
    <defs>
        <clipPath id="master_svg0_210_50121">
            <rect x="0" y="0" width="14" height="14" rx="0" />
        </clipPath>
    </defs>
    <g clip-path="url(#master_svg0_210_50121)">
        <g>
            <path
                d="M10.43603,8.77004C9.8091,8.77004,9.21003,8.550370000000001,8.73782,8.16208C8.2598,8.555060000000001,7.65928,8.770050000000001,7.03961,8.77004C6.39102,8.77004,5.77895,8.53867,5.3017900000000004,8.13008C4.8252500000000005,8.53867,4.2131799999999995,8.77004,3.56397,8.77004C3.26273,8.77036,2.96365,8.71958,2.67959,8.619900000000001C2.432655,8.53314,2.173343,8.71528,2.173343,8.975570000000001L2.173343,10.99268C2.173343,11.54895,2.62698,12,3.18645,12L10.6316,12C11.19107,12,11.6447,11.54895,11.6447,10.99268L11.6447,9.0328C11.6447,8.78481,11.40705,8.598980000000001,11.16693,8.6679C10.92938,8.73615,10.6833,8.77054,10.43603,8.77004ZM12.4233,5.44533L12.4214,5.43979C12.3852,5.31227,12.3365,5.1886,12.276,5.07058L11.30556,2.600578C11.16322,2.238139,10.81169,2.0000000916938,10.42056,2.0000000916938L3.5782,2.0000000916938C3.1873,1.999878964,2.83627,2.238012,2.69382,2.599963L1.707944,5.10012C1.66029,5.1967300000000005,1.620682,5.29826,1.5885001,5.40287L1.5872623,5.40656L1.5878812,5.40656C1.5309441,5.59424,1.5,5.793,1.5,5.99852C1.5,7.13199,2.42399,8.050699999999999,3.56397,8.050699999999999C4.29363,8.050699999999999,4.93479,7.67411,5.3017900000000004,7.10553C5.66879,7.67411,6.30995,8.050699999999999,7.03961,8.050699999999999C7.7439,8.050699999999999,8.36525,7.69996,8.73782,7.16461C9.110389999999999,7.69996,9.73174,8.050699999999999,10.43603,8.050699999999999C11.576,8.050699999999999,12.5,7.13199,12.5,5.99852C12.5,5.80715,12.4728,5.62132,12.4233,5.44533ZM10.15258,5.96037L3.84742,5.96037C3.63762,5.96037,3.4674199999999997,5.79115,3.4674199999999997,5.5825499999999995C3.4674199999999997,5.37395,3.63762,5.20473,3.84742,5.20473L10.15258,5.20473C10.36238,5.20473,10.53258,5.37395,10.53258,5.5825499999999995C10.53258,5.79115,10.36238,5.96037,10.15258,5.96037Z"
                fill-opacity="1" />
        </g>
    </g>
</svg>