<svg width="24" height="25" viewBox="0 0 24 25" fill="none" xmlns="http://www.w3.org/2000/svg">
<g id="Img">
<path id="Vector" opacity="0.2" d="M5.75 10.5625V13.4375C5.75 13.6281 5.67427 13.8109 5.53948 13.9457C5.40469 14.0805 5.22187 14.1562 5.03125 14.1562H2.15625C1.96563 14.1562 1.78281 14.0805 1.64802 13.9457C1.51323 13.8109 1.4375 13.6281 1.4375 13.4375V10.5625C1.4375 10.3719 1.51323 10.1891 1.64802 10.0543C1.78281 9.91948 1.96563 9.84375 2.15625 9.84375H5.03125C5.22187 9.84375 5.40469 9.91948 5.53948 10.0543C5.67427 10.1891 5.75 10.3719 5.75 10.5625ZM18.6875 4.09375H14.375C14.1844 4.09375 14.0016 4.16948 13.8668 4.30427C13.732 4.43906 13.6562 4.62188 13.6562 4.8125V9.125C13.6562 9.31562 13.732 9.49844 13.8668 9.63323C14.0016 9.76802 14.1844 9.84375 14.375 9.84375H18.6875C18.8781 9.84375 19.0609 9.76802 19.1957 9.63323C19.3305 9.49844 19.4062 9.31562 19.4062 9.125V4.8125C19.4062 4.62188 19.3305 4.43906 19.1957 4.30427C19.0609 4.16948 18.8781 4.09375 18.6875 4.09375ZM18.6875 14.1562H14.375C14.1844 14.1562 14.0016 14.232 13.8668 14.3668C13.732 14.5016 13.6562 14.6844 13.6562 14.875V19.1875C13.6562 19.3781 13.732 19.5609 13.8668 19.6957C14.0016 19.8305 14.1844 19.9062 14.375 19.9062H18.6875C18.8781 19.9062 19.0609 19.8305 19.1957 19.6957C19.3305 19.5609 19.4062 19.3781 19.4062 19.1875V14.875C19.4062 14.6844 19.3305 14.5016 19.1957 14.3668C19.0609 14.232 18.8781 14.1562 18.6875 14.1562Z" fill="#009688"/>
<path id="Vector_2" d="M14.375 10.5625H18.6875C19.0687 10.5625 19.4344 10.411 19.704 10.1415C19.9735 9.87188 20.125 9.50625 20.125 9.125V4.8125C20.125 4.43125 19.9735 4.06562 19.704 3.79603C19.4344 3.52645 19.0687 3.375 18.6875 3.375H14.375C13.9938 3.375 13.6281 3.52645 13.3585 3.79603C13.089 4.06562 12.9375 4.43125 12.9375 4.8125V6.25H11.5C10.9281 6.25 10.3797 6.47718 9.9753 6.88155C9.57093 7.28593 9.34375 7.83438 9.34375 8.40625V11.2812H6.46875V10.5625C6.46875 10.1813 6.3173 9.81562 6.04772 9.54603C5.77813 9.27645 5.4125 9.125 5.03125 9.125H2.15625C1.775 9.125 1.40937 9.27645 1.13978 9.54603C0.8702 9.81562 0.71875 10.1813 0.71875 10.5625V13.4375C0.71875 13.8187 0.8702 14.1844 1.13978 14.454C1.40937 14.7235 1.775 14.875 2.15625 14.875H5.03125C5.4125 14.875 5.77813 14.7235 6.04772 14.454C6.3173 14.1844 6.46875 13.8187 6.46875 13.4375V12.7188H9.34375V15.5938C9.34375 16.1656 9.57093 16.7141 9.9753 17.1184C10.3797 17.5228 10.9281 17.75 11.5 17.75H12.9375V19.1875C12.9375 19.5687 13.089 19.9344 13.3585 20.204C13.6281 20.4735 13.9938 20.625 14.375 20.625H18.6875C19.0687 20.625 19.4344 20.4735 19.704 20.204C19.9735 19.9344 20.125 19.5687 20.125 19.1875V14.875C20.125 14.4938 19.9735 14.1281 19.704 13.8585C19.4344 13.589 19.0687 13.4375 18.6875 13.4375H14.375C13.9938 13.4375 13.6281 13.589 13.3585 13.8585C13.089 14.1281 12.9375 14.4938 12.9375 14.875V16.3125H11.5C11.3094 16.3125 11.1266 16.2368 10.9918 16.102C10.857 15.9672 10.7812 15.7844 10.7812 15.5938V8.40625C10.7812 8.21563 10.857 8.03281 10.9918 7.89802C11.1266 7.76323 11.3094 7.6875 11.5 7.6875H12.9375V9.125C12.9375 9.50625 13.089 9.87188 13.3585 10.1415C13.6281 10.411 13.9938 10.5625 14.375 10.5625ZM5.03125 13.4375H2.15625V10.5625H5.03125V13.4375ZM14.375 14.875H18.6875V19.1875H14.375V14.875ZM14.375 4.8125H18.6875V9.125H14.375V4.8125Z" fill="#009688"/>
</g>
</svg>
