<svg xmlns="http://www.w3.org/2000/svg" width="20" height="16" viewBox="0 0 20 16" fill="none">
    <g clip-path="url(#clip0_594_853)">
        <path
            d="M21.8842 7.99995C21.8842 10.5507 21.8842 13.1014 21.8842 15.6521C21.8842 15.884 21.8263 15.942 21.5948 15.942C13.8585 15.942 6.12216 15.942 -1.61418 15.942C-1.84569 15.942 -1.90356 15.884 -1.90356 15.6521C-1.90356 13.1014 -1.90356 10.5507 -1.90356 7.99995C-1.63347 7.78738 -1.30549 7.84536 -1.0161 7.84536C5.85206 7.84536 12.7395 7.84536 19.6077 7.84536C20.1479 7.84536 20.6881 7.84536 21.2283 7.84536C21.4405 7.84536 21.672 7.84536 21.8456 7.99995H21.8842Z"
            fill="white" />
        <path
            d="M21.8842 8.00001H-1.88428C-1.88428 5.44929 -1.88428 2.89856 -1.88428 0.347838C-1.88428 0.135278 -1.88428 0.0579834 -1.61418 0.0579834C6.12215 0.0579834 13.8778 0.0579834 21.6141 0.0579834C21.8649 0.0579834 21.8842 0.135278 21.8842 0.347838C21.8842 2.89856 21.8842 5.44929 21.8842 8.00001Z"
            fill="#DE2F39" />
        <path
            d="M3.59474 1.21741C2.28284 1.75847 1.51114 2.686 1.54972 4.13528C1.58831 5.48794 2.36001 6.33818 3.57545 6.84059C2.84233 7.1691 1.6076 6.74398 0.913068 5.91306C0.0834857 4.92755 0.0063152 3.47827 0.720142 2.39615C1.37609 1.42997 2.66869 0.888903 3.59474 1.21741Z"
            fill="white" />
        <path
            d="M3.76849 4.65698C3.84566 5.02413 4.01929 5.21737 4.38585 5.17872C4.03858 5.37196 4.05788 5.62317 4.21222 5.97099C3.88424 5.73911 3.63344 5.58452 3.36334 5.97099C3.4598 5.64249 3.4791 5.39128 3.15112 5.19805C3.51768 5.23669 3.67202 5.02413 3.76849 4.67631V4.65698Z"
            fill="#FDF1F0" />
        <path
            d="M5.67847 3.3237C6.00644 3.26573 6.27654 3.26573 6.29583 2.82129C6.45017 3.13047 6.56593 3.38168 6.95178 3.26573C6.72027 3.47829 6.54663 3.67153 6.75885 4.07733C6.41159 3.82612 6.18007 3.8068 5.94856 4.09665C5.94856 3.78747 6.14149 3.45897 5.67847 3.3237Z"
            fill="#FDF1F1" />
        <path
            d="M5.69769 4.71497C5.81345 5.02414 5.9485 5.21738 6.4501 5.12076C6.10284 5.39129 5.9485 5.60385 6.21859 5.971C5.87132 5.77777 5.62052 5.54588 5.36972 5.971C5.38901 5.66183 5.52406 5.37197 5.06104 5.2367C5.38901 5.12076 5.73628 5.15941 5.71698 4.71497H5.69769Z"
            fill="#FDF1F1" />
        <path
            d="M3.74914 3.30437C3.49834 3.49761 3.32471 3.69084 3.55622 4.03867C3.28612 3.88408 3.05461 3.78746 2.76522 4.05799C2.8038 3.72949 2.84239 3.45896 2.47583 3.32369C2.8231 3.32369 3.05461 3.22707 3.0739 2.76331C3.22824 3.14978 3.38258 3.36234 3.72985 3.32369L3.74914 3.30437Z"
            fill="#FDF1F1" />
        <path
            d="M5.13826 2.95653C4.86816 2.53141 4.59807 2.78261 4.17363 2.95653C4.57877 2.55073 4.36655 2.35749 4.01929 2.12561C4.42443 2.16426 4.65594 2.12561 4.71382 1.73914C4.82958 2.04831 5.0225 2.22223 5.46623 2.10629C5.11897 2.35749 4.90675 2.57005 5.13826 2.97585V2.95653Z"
            fill="#FEF8F9" />
    </g>
    <defs>
        <clipPath id="clip0_594_853">
            <rect width="24" height="16" fill="white" transform="translate(-2)" />
        </clipPath>
    </defs>
</svg>