<svg xmlns="http://www.w3.org/2000/svg" width="24" height="24" viewBox="0 0 24 24" fill="none">
  <path
    d="M21.9882 15.3947C22.0775 14.9266 22.0775 14.4484 21.9882 13.9803L22.8751 13.4855C22.9783 13.4291 23.0229 13.3129 22.9886 13.2033C22.7582 12.4861 22.3629 11.8354 21.8472 11.2975C21.7681 11.2145 21.6409 11.1945 21.5378 11.251L20.6508 11.7457C20.2761 11.4369 19.8464 11.1979 19.3823 11.0385V10.049C19.3823 9.93613 19.2997 9.83652 19.1863 9.81328C18.4196 9.64727 17.6393 9.65391 16.9104 9.81328C16.797 9.83652 16.7145 9.93613 16.7145 10.049V11.0385C16.2504 11.1979 15.8206 11.4369 15.4459 11.7457L14.5589 11.251C14.4592 11.1945 14.3286 11.2145 14.2495 11.2975C13.7338 11.8354 13.3385 12.4861 13.1082 13.2033C13.0738 13.3129 13.1219 13.4291 13.2216 13.4855L14.1086 13.9803C14.0192 14.4484 14.0192 14.9266 14.1086 15.3947L13.2216 15.8895C13.1185 15.9459 13.0738 16.0621 13.1082 16.1717C13.3385 16.8889 13.7338 17.5363 14.2495 18.0775C14.3286 18.1605 14.4558 18.1805 14.5589 18.124L15.4459 17.6293C15.8206 17.9381 16.2504 18.1771 16.7145 18.3365V19.326C16.7145 19.4389 16.797 19.5385 16.9104 19.5617C17.6771 19.7277 18.4575 19.7211 19.1863 19.5617C19.2997 19.5385 19.3823 19.4389 19.3823 19.326V18.3365C19.8464 18.1771 20.2761 17.9381 20.6508 17.6293L21.5378 18.124C21.6375 18.1805 21.7681 18.1605 21.8472 18.0775C22.3629 17.5396 22.7582 16.8889 22.9886 16.1717C23.0229 16.0621 22.9748 15.9459 22.8751 15.8895L21.9882 15.3947ZM18.0518 16.2979C17.1305 16.2979 16.3844 15.574 16.3844 14.6875C16.3844 13.801 17.1339 13.0771 18.0518 13.0771C18.9697 13.0771 19.7192 13.801 19.7192 14.6875C19.7192 15.574 18.9731 16.2979 18.0518 16.2979ZM8.70081 11.5C11.1314 11.5 13.1013 9.59746 13.1013 7.25C13.1013 4.90254 11.1314 3 8.70081 3C6.27024 3 4.30035 4.90254 4.30035 7.25C4.30035 9.59746 6.27024 11.5 8.70081 11.5ZM15.6178 19.0205C15.5387 18.9807 15.4597 18.9342 15.384 18.891L15.1124 19.0438C14.9062 19.1566 14.6724 19.2197 14.4386 19.2197C14.0639 19.2197 13.7029 19.067 13.4451 18.8014C12.8159 18.1439 12.3346 17.3438 12.063 16.4904C11.874 15.9027 12.1284 15.2818 12.6784 14.973L12.95 14.8203C12.9466 14.734 12.9466 14.6477 12.95 14.5613L12.6784 14.4086C12.1284 14.1031 11.874 13.4789 12.063 12.8912C12.094 12.7949 12.1387 12.6986 12.1731 12.6023C12.0424 12.5924 11.9152 12.5625 11.7811 12.5625H11.207C10.4438 12.9012 9.59466 13.0938 8.70081 13.0938C7.80697 13.0938 6.96125 12.9012 6.19461 12.5625H5.62049C3.06959 12.5625 1 14.5613 1 17.025V18.4062C1 19.2861 1.73914 20 2.65017 20H14.7515C15.0987 20 15.4218 19.8937 15.6865 19.7178C15.6453 19.5916 15.6178 19.4621 15.6178 19.326V19.0205Z"
    fill="#009688" />
</svg>