<svg xmlns="http://www.w3.org/2000/svg" width="20" height="16" viewBox="0 0 20 16" fill="none">
    <g clip-path="url(#clip0_594_2459)">
        <path
            d="M-1.88428 10.6087V5.31402C-1.88428 5.31402 -1.8264 5.27537 -1.78781 5.27537C-1.74923 5.27537 -1.71064 5.27537 -1.67206 5.27537C6.10286 5.27537 13.8778 5.27537 21.6527 5.27537C21.7299 5.27537 21.807 5.25605 21.8649 5.31402V10.6087C21.8649 10.6087 21.807 10.6474 21.7685 10.6474C21.7299 10.6474 21.6913 10.6474 21.6527 10.6474C13.8778 10.6474 6.10286 10.6474 -1.67206 10.6474C-1.74923 10.6474 -1.8264 10.6667 -1.88428 10.6087Z"
            fill="#2B2A49" />
        <path
            d="M-1.88428 2.66665C-1.88428 1.81641 -1.88428 0.946848 -1.88428 0.0966063C-1.88428 0.0386353 -1.88428 0.0386353 -1.8264 0.0386353C6.04498 0.0386353 13.9357 0.0386353 21.807 0.0386353C21.8649 0.0386353 21.8649 0.0386353 21.8649 0.0966063C21.8649 0.946848 21.8649 1.81641 21.8649 2.66665C21.8456 2.7053 21.807 2.7053 21.7685 2.7053C21.7299 2.7053 21.6913 2.7053 21.6527 2.7053C13.8778 2.7053 6.10286 2.7053 -1.67206 2.7053C-1.74923 2.7053 -1.8264 2.72463 -1.88428 2.66665Z"
            fill="#9D1F30" />
        <path
            d="M-1.88428 2.66669C-1.88428 2.66669 -1.8264 2.66669 -1.78781 2.66669C6.08357 2.66669 13.9357 2.66669 21.807 2.66669C21.8456 2.66669 21.8649 2.66669 21.9035 2.66669V5.31403C21.9035 5.31403 21.8263 5.31403 21.807 5.31403C13.955 5.31403 6.10286 5.31403 -1.76852 5.31403C-1.80711 5.31403 -1.84569 5.31403 -1.86498 5.31403C-1.86498 4.42514 -1.86498 3.55558 -1.86498 2.66669H-1.88428Z"
            fill="#F4F5F8" />
        <path
            d="M-1.88428 10.6087C-1.88428 10.6087 -1.80711 10.6087 -1.78781 10.6087C6.06428 10.6087 13.9164 10.6087 21.7878 10.6087C21.8263 10.6087 21.8649 10.6087 21.8842 10.6087V13.256C21.8842 13.256 21.8263 13.2947 21.7878 13.2947C21.7492 13.2947 21.7106 13.2947 21.672 13.2947C13.8971 13.2947 6.12215 13.2947 -1.65277 13.2947C-1.72994 13.2947 -1.80711 13.314 -1.86498 13.256C-1.86498 12.3672 -1.86498 11.4976 -1.86498 10.6087H-1.88428Z"
            fill="#F4F5F8" />
        <path
            d="M-1.88428 13.256C-1.88428 13.256 -1.8264 13.256 -1.78781 13.256C6.08357 13.256 13.9357 13.256 21.807 13.256C21.8456 13.256 21.8649 13.256 21.9035 13.256C21.9035 14.1063 21.9035 14.9565 21.9035 15.8067C21.9035 15.884 21.9035 15.884 21.8263 15.884C13.9357 15.884 6.02569 15.884 -1.86498 15.884C-1.86498 14.9951 -1.86498 14.1256 -1.86498 13.2367L-1.88428 13.256Z"
            fill="#9D1F30" />
    </g>
    <defs>
        <clipPath id="clip0_594_2459">
            <rect width="24" height="16" fill="white" transform="translate(-2)" />
        </clipPath>
    </defs>
</svg>