<svg xmlns="http://www.w3.org/2000/svg" width="12" height="12" viewBox="0 0 12 12" fill="none">
  <path d="M1.54286 4.29405V3.37297H3.6V4.29405H2.98286V7.0054H2.16572V4.29405H1.54286Z" fill="white" />
  <path
    d="M8.4 5.03351C8.49143 5.13081 8.57143 5.24108 8.64 5.3773L8.63428 5.38378C8.70286 5.53946 8.73714 5.70811 8.73714 5.88973C8.73714 6.07135 8.70857 6.22703 8.65714 6.37622C8.6 6.53189 8.51429 6.65514 8.41143 6.74595C8.32 6.83676 8.2 6.90811 8.06286 6.95351C7.93143 6.99243 7.78857 7.01838 7.62857 7.01838C7.44 7.01838 7.27429 6.99892 7.12 6.96C6.97714 6.92108 6.86286 6.87568 6.77143 6.82378L6.64 6.73946L6.94286 5.87027L7.11428 5.97405C7.16571 6.00649 7.24 6.03892 7.33143 6.07135C7.40571 6.10378 7.49143 6.11676 7.59429 6.11676C7.85714 6.11676 7.85714 6.01946 7.85714 5.96108C7.85714 5.91568 7.84571 5.88324 7.82286 5.85081C7.78144 5.79792 7.72126 5.75035 7.66781 5.70811L7.65143 5.69514C7.58857 5.64973 7.52 5.60432 7.45143 5.55892L7.38857 5.51351C7.26286 5.42919 7.17143 5.35784 7.09143 5.27351C7 5.1827 6.92 5.07243 6.85143 4.93622C6.78286 4.78054 6.74857 4.61189 6.74857 4.4173C6.74857 4.24216 6.77714 4.08649 6.83429 3.95027C6.89143 3.81405 6.97143 3.70378 7.06857 3.61946C7.16 3.53514 7.26857 3.47676 7.4 3.43784C7.66857 3.36649 7.97714 3.37946 8.22857 3.43784C8.37143 3.47027 8.48571 3.51568 8.58857 3.57405L8.72571 3.65189L8.42857 4.53405L8.25143 4.40432C8.22857 4.38487 8.17714 4.35892 8.08 4.32649C7.92 4.27459 7.69714 4.28757 7.64571 4.32649C7.63429 4.39135 7.63429 4.42378 7.66857 4.4627C7.71429 4.5146 7.78857 4.57297 7.84 4.61189C7.90857 4.6573 7.97714 4.7027 8.05143 4.75459L8.10286 4.78703C8.21143 4.85838 8.31429 4.9427 8.4 5.03351Z"
    fill="white" />
  <path
    d="M5.16 4.75459L5.69714 3.37297H6.45714V7.0054H5.61143V5.69513L5.32571 6.40865H4.94286L4.64571 5.69513V7.0054H3.82857V3.37297H4.58857L5.16 4.75459Z"
    fill="white" />
  <path fill-rule="evenodd" clip-rule="evenodd"
    d="M1.12817 10.7027H0.571429C0.257143 10.7027 0 10.4108 0 10.0541V0.648649C0 0.291892 0.257143 0 0.571429 0H9.14286C9.43429 0 9.67429 0.246486 9.70857 0.570811L9.97143 3.00973L11.8286 5.04649C11.9371 5.16973 12 5.33838 12 5.51351V10.0541C12 10.4108 11.7429 10.7027 11.4286 10.7027H9.87183C9.58581 11.4587 8.85305 12 8 12C7.14696 12 6.41419 11.4587 6.12817 10.7027H4.87183C4.58581 11.4587 3.85304 12 3 12C2.14696 12 1.41419 11.4587 1.12817 10.7027ZM1.14286 9.25963C1.43868 8.52334 2.16119 8 3 8C3.89318 8 4.6545 8.59338 4.90921 9.40541H6.09079C6.3455 8.59338 7.10682 8 8 8C8.89318 8 9.6545 8.59338 9.90921 9.40541H10.8571V5.78595L9.02857 3.78162C8.93143 3.67784 8.87429 3.54162 8.85714 3.39243L8.63429 1.29081H1.14286V9.25963ZM8 9.33333C7.63333 9.33333 7.33333 9.63333 7.33333 10C7.33333 10.3667 7.63333 10.6667 8 10.6667C8.36667 10.6667 8.66667 10.3667 8.66667 10C8.66667 9.63333 8.36667 9.33333 8 9.33333ZM2.33333 10C2.33333 9.63333 2.63333 9.33333 3 9.33333C3.36667 9.33333 3.66667 9.63333 3.66667 10C3.66667 10.3667 3.36667 10.6667 3 10.6667C2.63333 10.6667 2.33333 10.3667 2.33333 10Z"
    fill="white" />
</svg>