<svg xmlns="http://www.w3.org/2000/svg" width="14" height="14" viewBox="0 0 14 14" fill="none">
  <g clip-path="url(#clip0_598_2770)">
    <path
      d="M9.97165 10.6958C9.6059 10.0382 9.04226 9.56669 8.38448 9.34318C8.70985 9.14175 8.96264 8.83483 9.10403 8.46954C9.24542 8.10425 9.2676 7.7008 9.16716 7.32113C9.06671 6.94147 8.8492 6.60659 8.54802 6.36793C8.24684 6.12926 7.87866 6 7.5 6C7.12134 6 6.75316 6.12926 6.45198 6.36793C6.1508 6.60659 5.93329 6.94147 5.83284 7.32113C5.7324 7.7008 5.75458 8.10425 5.89597 8.46954C6.03736 8.83483 6.29015 9.14175 6.61552 9.34318C5.95774 9.56644 5.3941 10.0379 5.02835 10.6958C5.01493 10.7185 5.00604 10.7438 5.00218 10.7702C4.99833 10.7966 4.99959 10.8235 5.0059 10.8493C5.01221 10.8752 5.02343 10.8995 5.03891 10.9208C5.05439 10.942 5.07381 10.9599 5.09603 10.9732C5.11824 10.9866 5.1428 10.9951 5.16826 10.9985C5.19372 11.0018 5.21956 10.9997 5.24425 10.9925C5.26894 10.9853 5.29199 10.973 5.31204 10.9563C5.33208 10.9397 5.34872 10.919 5.36096 10.8955C5.81341 10.0824 6.61312 9.59691 7.5 9.59691C8.38688 9.59691 9.18659 10.0824 9.63904 10.8955C9.65128 10.919 9.66792 10.9397 9.68796 10.9563C9.70801 10.973 9.73106 10.9853 9.75575 10.9925C9.78044 10.9997 9.80628 11.0018 9.83174 10.9985C9.85719 10.9951 9.88176 10.9866 9.90397 10.9732C9.92619 10.9599 9.94561 10.942 9.96109 10.9208C9.97657 10.8995 9.98779 10.8752 9.9941 10.8493C10.0004 10.8235 10.0017 10.7966 9.99782 10.7702C9.99396 10.7438 9.98507 10.7185 9.97165 10.6958ZM6.15514 7.79879C6.15514 7.52219 6.23402 7.2518 6.38179 7.02181C6.52957 6.79182 6.73961 6.61257 6.98535 6.50672C7.23109 6.40087 7.50149 6.37317 7.76237 6.42713C8.02324 6.4811 8.26288 6.61429 8.45096 6.80988C8.63904 7.00547 8.76712 7.25467 8.81901 7.52595C8.87091 7.79724 8.84427 8.07844 8.74248 8.33399C8.6407 8.58954 8.46832 8.80796 8.24716 8.96163C8.026 9.11531 7.76599 9.19733 7.5 9.19733C7.14344 9.19693 6.80159 9.04946 6.54946 8.78727C6.29734 8.52508 6.15553 8.16959 6.15514 7.79879Z"
      fill="white" stroke="white" stroke-width="0.4" />
    <path fill-rule="evenodd" clip-rule="evenodd"
      d="M5.09774 2H4.49977V3.93601C4.49977 4.04306 4.48081 4.1385 4.44288 4.22232C4.40495 4.30614 4.35209 4.37179 4.28431 4.41925C4.21733 4.46672 4.13905 4.49045 4.04948 4.49045C3.9599 4.49045 3.88122 4.46672 3.81343 4.41925C3.74565 4.37179 3.69279 4.30614 3.65486 4.22232C3.61774 4.1385 3.59918 4.04306 3.59918 3.93601V2H3V4.00115C3 4.23242 3.04358 4.4339 3.13073 4.60558C3.21788 4.77626 3.34014 4.90856 3.4975 5.00248C3.65486 5.09539 3.83885 5.14185 4.04948 5.14185C4.25768 5.14185 4.44046 5.09539 4.59782 5.00248C4.75518 4.90856 4.87784 4.77626 4.9658 4.60558C5.05376 4.4339 5.09774 4.23242 5.09774 4.00115V2ZM6.00952 5.10246H5.36555L6.20199 2H6.99969L7.83612 5.10246H7.19215L7.02873 4.45107H6.17261L6.00952 5.10246ZM6.60992 2.78167L6.88583 3.88147H6.31521L6.59055 2.78167H6.60992ZM8.10303 2H8.84504L9.47449 3.92086H9.50354L10.133 2H10.875V5.10246H10.2916V3.19675H10.271L9.67543 5.08277H9.3026L8.70705 3.18615H8.68647V5.10246H8.10303V2Z"
      fill="white" />
    <path
      d="M2.375 0.872222H11.625C11.915 0.872222 12.1625 1.12136 12.1625 1.44444V11.5556C12.1625 11.8786 11.915 12.1278 11.625 12.1278H2.375C2.08503 12.1278 1.8375 11.8786 1.8375 11.5556V1.44444C1.8375 1.12136 2.08503 0.872222 2.375 0.872222ZM2.375 -0.15C1.52589 -0.15 0.85 0.570907 0.85 1.44444V11.5556C0.85 12.4291 1.52589 13.15 2.375 13.15H11.625C12.4741 13.15 13.15 12.4291 13.15 11.5556V1.44444C13.15 0.570907 12.4741 -0.15 11.625 -0.15H2.375Z"
      fill="white" stroke="white" stroke-width="0.3" />
  </g>
  <defs>
    <clipPath id="clip0_598_2770">
      <rect width="14" height="14" fill="white" />
    </clipPath>
  </defs>
</svg>