<svg xmlns="http://www.w3.org/2000/svg" width="24" height="24" viewBox="0 0 24 24" fill="none">
  <path opacity="0.2"
    d="M4.96161 4.06201C4.7627 4.06201 4.57193 4.14103 4.43128 4.28168C4.29063 4.42233 4.21161 4.6131 4.21161 4.81201V19.812C4.21161 20.0109 4.29063 20.2017 4.43128 20.3423C4.57193 20.483 4.7627 20.562 4.96161 20.562H17.7116V4.06201H4.96161ZM10.9616 13.812C10.5166 13.812 10.0816 13.6801 9.71158 13.4328C9.34157 13.1856 9.05318 12.8342 8.88288 12.423C8.71258 12.0119 8.66803 11.5595 8.75484 11.1231C8.84166 10.6866 9.05595 10.2857 9.37062 9.97102C9.68529 9.65635 10.0862 9.44206 10.5227 9.35524C10.9591 9.26843 11.4115 9.31299 11.8226 9.48328C12.2338 9.65358 12.5852 9.94197 12.8324 10.312C13.0796 10.682 13.2116 11.117 13.2116 11.562C13.2116 12.1587 12.9746 12.731 12.5526 13.153C12.1306 13.575 11.5583 13.812 10.9616 13.812Z"
    fill="#009688" />
  <path
    d="M19.9616 3.31201H4.96161C4.56378 3.31201 4.18225 3.47005 3.90095 3.75135C3.61964 4.03266 3.46161 4.41419 3.46161 4.81201V19.812C3.46161 20.2098 3.61964 20.5914 3.90095 20.8727C4.18225 21.154 4.56378 21.312 4.96161 21.312H19.9616C20.3594 21.312 20.741 21.154 21.0223 20.8727C21.3036 20.5914 21.4616 20.2098 21.4616 19.812V4.81201C21.4616 4.41419 21.3036 4.03266 21.0223 3.75135C20.741 3.47005 20.3594 3.31201 19.9616 3.31201ZM18.4616 10.062H19.9616V14.562H18.4616V10.062ZM19.9616 8.56201H18.4616V4.81201H19.9616V8.56201ZM4.96161 4.81201H16.9616V19.812H4.96161V4.81201ZM19.9616 19.812H18.4616V16.062H19.9616V19.812ZM14.6882 15.8745C14.4455 14.9683 13.87 14.187 13.0766 13.6864C13.498 13.2675 13.7854 12.733 13.9027 12.1506C14.0199 11.5682 13.9615 10.9641 13.735 10.4148C13.5084 9.86562 13.1239 9.39603 12.6302 9.0656C12.1364 8.73516 11.5557 8.55876 10.9616 8.55876C10.3675 8.55876 9.78678 8.73516 9.29304 9.0656C8.79931 9.39603 8.4148 9.86562 8.18827 10.4148C7.96173 10.9641 7.90336 11.5682 8.02057 12.1506C8.13777 12.733 8.42527 13.2675 8.84661 13.6864C8.05372 14.1875 7.47842 14.9687 7.23505 15.8745C7.18532 16.0672 7.21417 16.2718 7.31527 16.4432C7.41636 16.6146 7.58141 16.7388 7.77411 16.7886C7.96681 16.8383 8.17136 16.8094 8.34278 16.7084C8.5142 16.6073 8.63844 16.4422 8.68817 16.2495C8.93567 15.2886 9.91255 14.562 10.9616 14.562C12.0107 14.562 12.9885 15.2867 13.235 16.2495C13.2848 16.4422 13.409 16.6073 13.5804 16.7084C13.7519 16.8094 13.9564 16.8383 14.1491 16.7886C14.3418 16.7388 14.5069 16.6146 14.6079 16.4432C14.709 16.2718 14.7379 16.0672 14.6882 15.8745ZM9.46161 11.562C9.46161 11.2653 9.54958 10.9753 9.7144 10.7287C9.87923 10.482 10.1135 10.2897 10.3876 10.1762C10.6617 10.0627 10.9633 10.033 11.2542 10.0908C11.5452 10.1487 11.8125 10.2916 12.0223 10.5014C12.232 10.7111 12.3749 10.9784 12.4328 11.2694C12.4907 11.5603 12.461 11.8619 12.3474 12.136C12.2339 12.4101 12.0416 12.6444 11.795 12.8092C11.5483 12.974 11.2583 13.062 10.9616 13.062C10.5638 13.062 10.1823 12.904 9.90095 12.6227C9.61964 12.3414 9.46161 11.9598 9.46161 11.562Z"
    fill="#009688" />
</svg>