<svg xmlns="http://www.w3.org/2000/svg" width="20" height="16" viewBox="0 0 20 16" fill="none">
    <g clip-path="url(#clip0_594_2291)">
        <path
            d="M22.3279 16H-1.88428C-1.88428 16 -1.84569 15.9227 -1.8264 15.9034C-1.45984 15.6328 -1.09328 15.343 -0.746014 15.0725C-0.0128947 14.5121 0.739517 13.9517 1.47264 13.372C2.24434 12.7729 3.03534 12.1932 3.80704 11.5942C4.73309 10.8792 5.65913 10.1836 6.60447 9.46859C7.24113 8.9855 7.87778 8.50241 8.49514 8.01932C8.53373 7.99999 8.55302 7.98067 8.59161 7.96134C8.63019 7.96134 8.66878 7.96134 8.72666 7.96134C13.2025 7.96134 17.6784 7.96134 22.1736 7.96134C22.2315 7.96134 22.2701 7.94202 22.3279 7.99999C22.3279 8.03864 22.3279 8.05796 22.3279 8.09661C22.3279 10.7053 22.3279 13.314 22.3279 15.9034C22.3279 15.942 22.3279 15.9613 22.3279 16Z"
            fill="#C21A28" />
        <path
            d="M8.59161 7.99997C8.3601 7.80673 8.10929 7.63282 7.87778 7.43958C4.63662 4.98548 1.39547 2.53137 -1.8264 0.0772649C-1.8264 0.0772649 -1.86498 0.0579413 -1.88428 0.0386176C-1.88428 0.0192939 -1.86498 0.0386176 -1.84569 0.0386176C-1.84569 0.0386176 -1.80711 0.0386176 -1.78781 0.0386176C6.21862 0.0386176 14.2443 0.0386176 22.2508 0.0386176C22.2508 0.0386176 22.2765 0.0772649 22.3279 0.15456C22.3279 2.74393 22.3279 5.3333 22.3279 7.942C22.3279 7.98065 22.3279 7.99997 22.3279 8.03862C17.7749 8.03862 13.2218 8.03862 8.66878 8.03862C8.64949 8.03862 8.6109 8.03862 8.59161 8.03862V7.99997Z"
            fill="#033B95" />
        <path
            d="M0.430955 6.24157C0.546711 6.22225 0.623881 6.24157 0.681759 6.33819C0.816807 6.55075 0.971148 6.76331 1.1062 6.97587C1.12549 7.01452 1.14478 7.01452 1.18337 6.97587C1.27983 6.9179 1.39559 6.85993 1.51134 6.8406C1.56922 6.8406 1.56922 6.80196 1.56922 6.76331C1.51134 6.5121 1.47276 6.24157 1.41488 5.99036C1.41488 5.93239 1.41488 5.89374 1.45346 5.8551C1.47276 5.8551 1.49205 5.81645 1.51134 5.7778C1.53063 5.87442 1.54993 5.97104 1.54993 6.04833C1.58851 6.29954 1.6078 6.53142 1.64639 6.78263C1.64639 6.80196 1.64639 6.82128 1.68497 6.82128C1.72356 6.82128 1.72356 6.82128 1.72356 6.78263C1.72356 6.57007 1.70427 6.33819 1.68497 6.12563C1.68497 5.99036 1.68497 5.83577 1.64639 5.70051C1.64639 5.66186 1.66568 5.64254 1.68497 5.62321C1.80073 5.50727 1.80073 5.50727 1.91649 5.62321C1.95507 5.66186 1.95507 5.68118 1.95507 5.73915C1.93578 6.08698 1.91649 6.43481 1.8779 6.78263C1.8779 6.80196 1.85861 6.8406 1.89719 6.8406C1.93578 6.8406 1.95507 6.8406 1.95507 6.80196C1.97436 6.62804 1.99366 6.47345 2.01295 6.29954C2.03224 6.14495 2.05153 5.99036 2.07083 5.81645C2.16729 5.8551 2.20588 5.91307 2.18658 6.00968C2.1287 6.28022 2.09012 6.53142 2.03224 6.80196C2.03224 6.8406 2.03224 6.85993 2.07083 6.87925C2.18658 6.89857 2.30234 6.95654 2.3988 7.01452C2.43739 7.03384 2.45668 7.01452 2.47597 7.01452C2.63031 6.78263 2.78465 6.57007 2.9197 6.33819C2.95829 6.28022 2.99687 6.26089 3.05475 6.26089C3.07404 6.26089 3.11263 6.26089 3.13192 6.26089C3.13192 6.28022 3.13192 6.29954 3.09333 6.31886C2.90041 6.57007 2.70748 6.80196 2.53385 7.05316C2.53385 7.07249 2.49526 7.09181 2.53385 7.13046C2.57243 7.16911 2.59173 7.13046 2.61102 7.11113C2.84253 6.85993 3.05475 6.60872 3.28626 6.33819C3.32485 6.29954 3.36343 6.28022 3.42131 6.28022C3.55636 6.28022 3.55636 6.28022 3.55636 6.41548C3.55636 6.47345 3.53706 6.53142 3.47919 6.57007C3.22838 6.78263 2.95829 7.01452 2.70748 7.2464C2.70748 7.2464 2.64961 7.26572 2.68819 7.30437C2.72678 7.34302 2.74607 7.30437 2.76536 7.30437C2.99687 7.13046 3.24768 6.93722 3.47919 6.76331C3.49848 6.76331 3.51777 6.72466 3.55636 6.70534C3.55636 6.76331 3.55636 6.82128 3.55636 6.85993C3.55636 6.89857 3.53706 6.89857 3.51777 6.9179C3.28626 7.07249 3.05475 7.22708 2.82324 7.36234C2.78465 7.40099 2.76536 7.42031 2.80395 7.45896C2.86182 7.55558 2.90041 7.67152 2.93899 7.76814C2.93899 7.80679 2.95829 7.80679 2.99687 7.80679C3.26697 7.74882 3.53706 7.69084 3.80716 7.6522C3.86504 7.6522 3.90362 7.6522 3.92292 7.69084C3.92292 7.71017 3.9615 7.72949 4.00009 7.76814C3.92292 7.76814 3.84575 7.78746 3.78787 7.80679C3.51777 7.84543 3.26697 7.88408 2.99687 7.9034C2.97758 7.9034 2.93899 7.9034 2.95829 7.94205C2.95829 7.9807 2.99687 7.9807 3.01616 7.9807C3.36343 7.96138 3.72999 7.94205 4.07726 7.9034C4.11584 7.9034 4.15443 7.9034 4.19301 7.94205C4.2316 7.9807 4.28948 8.01935 4.28948 8.05799C4.28948 8.09664 4.2316 8.13529 4.19301 8.17394C4.15443 8.21258 4.11584 8.21258 4.07726 8.21258C3.72999 8.19326 3.38272 8.17394 3.03546 8.15461C3.01616 8.15461 2.97758 8.15461 2.97758 8.19326C2.97758 8.25123 2.99687 8.23191 3.03546 8.23191C3.36343 8.27055 3.69141 8.3092 4.01938 8.36717C3.98079 8.46379 3.90362 8.50244 3.82645 8.48311C3.55636 8.42514 3.28626 8.3865 3.01616 8.32853C2.97758 8.32853 2.97758 8.32853 2.95829 8.36717C2.93899 8.48311 2.88112 8.59906 2.82324 8.715C2.80395 8.75365 2.82324 8.77297 2.82324 8.79229C3.05475 8.94688 3.26697 9.10147 3.49848 9.23674C3.55636 9.27539 3.59494 9.31403 3.57565 9.39133C3.57565 9.41065 3.57565 9.42998 3.57565 9.46862C3.55636 9.4493 3.53706 9.42998 3.51777 9.42998C3.26697 9.23674 3.03546 9.06282 2.78465 8.86959C2.78465 8.86959 2.74607 8.83094 2.72678 8.86959C2.70748 8.88891 2.68819 8.90824 2.72678 8.94688C2.97758 9.17877 3.24768 9.39133 3.49848 9.62321C3.55636 9.66186 3.57565 9.71983 3.57565 9.7778C3.57565 9.89374 3.57565 9.89374 3.45989 9.89374C3.38272 9.89374 3.34414 9.87442 3.30555 9.81645C3.09333 9.56524 2.86182 9.31403 2.64961 9.06282C2.64961 9.06282 2.63031 9.00485 2.59173 9.02418C2.55314 9.02418 2.55314 9.06282 2.59173 9.10147C2.78465 9.35268 2.97758 9.58456 3.15121 9.83577C3.15121 9.83577 3.1898 9.87442 3.1898 9.89374C3.13192 9.89374 3.09333 9.89374 3.05475 9.89374C3.01616 9.89374 3.01616 9.87442 2.99687 9.8551C2.84253 9.62321 2.68819 9.39133 2.53385 9.15944C2.51456 9.1208 2.49526 9.1208 2.45668 9.15944C2.36022 9.21741 2.24446 9.27539 2.1287 9.29471C2.09012 9.29471 2.07083 9.31403 2.09012 9.35268C2.148 9.62321 2.20587 9.89374 2.26375 10.1643C2.26375 10.2029 2.26375 10.2416 2.22517 10.2609C2.20588 10.2802 2.18658 10.3189 2.148 10.3382C2.148 10.3382 2.148 10.3382 2.1287 10.3382C2.10941 10.1836 2.09012 10.029 2.07083 9.87442C2.05153 9.70051 2.03224 9.54592 2.01295 9.372C2.01295 9.35268 2.01295 9.31403 1.97436 9.31403C1.91649 9.31403 1.93578 9.35268 1.93578 9.372C1.95507 9.71983 1.97436 10.0483 2.01295 10.3962C2.01295 10.4735 1.99366 10.5121 1.93578 10.5507C1.85861 10.628 1.85861 10.628 1.78144 10.5507C1.72356 10.4928 1.70427 10.4541 1.70427 10.3768C1.74285 10.0483 1.74285 9.71983 1.78144 9.39133C1.78144 9.372 1.78144 9.35268 1.78144 9.33336C1.76215 9.31403 1.72356 9.33336 1.72356 9.372C1.68497 9.68118 1.64639 9.99036 1.6078 10.2995C1.6078 10.3189 1.6078 10.3382 1.58851 10.3768C1.54993 10.3382 1.51134 10.2995 1.49205 10.2609C1.49205 10.2609 1.49205 10.2222 1.49205 10.2029C1.54993 9.93239 1.6078 9.66186 1.66568 9.39133C1.66568 9.33336 1.66568 9.31403 1.6078 9.29471C1.49205 9.27539 1.39559 9.21741 1.29912 9.15944C1.26054 9.14012 1.24124 9.15944 1.22195 9.15944C1.06761 9.39133 0.91327 9.60389 0.778222 9.83577C0.739637 9.89374 0.701052 9.93239 0.643174 9.91307C0.623881 9.91307 0.585296 9.91307 0.566004 9.91307C0.566004 9.87442 0.604589 9.8551 0.604589 9.83577C0.797515 9.60389 0.971148 9.35268 1.16407 9.1208C1.16407 9.1208 1.20266 9.10147 1.16407 9.06282C1.14478 9.0435 1.12549 9.02418 1.0869 9.06282C0.874685 9.29471 0.681759 9.52659 0.46954 9.75848C0.46954 9.75848 0.46954 9.75848 0.450248 9.7778C0.39237 9.89374 0.276614 9.91307 0.180151 9.89374C0.141566 9.89374 0.141566 9.89374 0.141566 9.8551C0.122274 9.73915 0.160859 9.66186 0.257322 9.60389C0.508126 9.39133 0.739637 9.17877 0.990441 8.96621C0.990441 8.96621 1.02903 8.94688 0.990441 8.90824C0.951856 8.86959 0.951856 8.90824 0.91327 8.90824C0.662467 9.10147 0.430955 9.27539 0.180151 9.46862C0.180151 9.46862 0.141566 9.48795 0.122274 9.50727C0.122274 9.4493 0.122274 9.41065 0.122274 9.35268C0.122274 9.31403 0.141566 9.31403 0.180151 9.29471C0.411663 9.14012 0.643174 8.98553 0.874685 8.83094C0.91327 8.81162 0.932563 8.79229 0.893978 8.73432C0.8361 8.6377 0.778222 8.52176 0.758929 8.42514C0.758929 8.3865 0.758929 8.36717 0.681759 8.3865C0.411663 8.44447 0.122274 8.50244 -0.147823 8.54109C-0.186408 8.54109 -0.302164 8.48311 -0.302164 8.44447C-0.302164 8.42514 -0.302164 8.42514 -0.282871 8.42514C-0.0899451 8.40582 0.102981 8.36717 0.295907 8.34785C0.430955 8.34785 0.546711 8.3092 0.681759 8.28988C0.720344 8.28988 0.720344 8.28988 0.720344 8.25123C0.720344 8.21258 0.701052 8.21258 0.681759 8.21258C0.508126 8.21258 0.334492 8.23191 0.160859 8.25123C-0.0320672 8.25123 -0.224993 8.27055 -0.417919 8.28988C-0.456505 8.28988 -0.475797 8.27055 -0.49509 8.25123C-0.533675 8.21258 -0.591553 8.19326 -0.591553 8.13529C-0.591553 8.09664 -0.533675 8.05799 -0.49509 8.01935C-0.475797 7.9807 -0.437212 7.9807 -0.379334 7.9807C-0.0320672 8.00002 0.334492 8.01935 0.681759 8.03867C0.681759 8.03867 0.720344 8.03867 0.739637 8.01935C0.739637 7.9807 0.739637 7.96138 0.701052 7.96138C0.39237 7.92273 0.0836884 7.88408 -0.244286 7.84543H-0.282871C-0.282871 7.84543 -0.282871 7.82611 -0.263579 7.80679C-0.205701 7.74882 -0.167115 7.72949 -0.0706524 7.74882C0.180151 7.80679 0.450248 7.84543 0.720344 7.9034C0.758929 7.9034 0.778222 7.9034 0.778222 7.86476C0.797515 7.74882 0.855393 7.63287 0.91327 7.53625C0.932563 7.49761 0.91327 7.47828 0.893978 7.45896C0.662467 7.30437 0.450248 7.16911 0.218737 7.01452C0.160859 6.97587 0.141566 6.93722 0.141566 6.87925C0.141566 6.85993 0.141566 6.82128 0.141566 6.80196C0.180151 6.80196 0.180151 6.80196 0.199444 6.8406C0.450248 7.03384 0.681759 7.20775 0.932563 7.40099C0.951856 7.40099 0.971148 7.43964 1.00973 7.40099C1.02903 7.36234 1.00973 7.36234 1.00973 7.34302C0.758929 7.13046 0.508126 6.89857 0.238029 6.68601C0.180151 6.64737 0.160859 6.58939 0.160859 6.5121C0.160859 6.39616 0.160859 6.39616 0.276614 6.39616C0.353785 6.39616 0.411663 6.39616 0.450248 6.47345C0.662467 6.72466 0.893978 6.97587 1.12549 7.22708C1.12549 7.22708 1.14478 7.26572 1.18337 7.2464C1.22195 7.22708 1.22195 7.20775 1.18337 7.18843C1.04832 7.01452 0.91327 6.85993 0.797515 6.68601C0.720344 6.58939 0.662467 6.49278 0.585296 6.39616L0.430955 6.24157Z"
            fill="#F2CA29" />
        <path
            d="M7.20248 8.01931C7.08672 8.07728 6.95167 8.13525 6.83592 8.19322C6.79733 8.19322 6.77804 8.23187 6.77804 8.28984C6.77804 8.46375 6.77804 8.63767 6.77804 8.81158C6.75875 8.77293 6.73946 8.73428 6.72016 8.69564C6.66229 8.59902 6.60441 8.48308 6.54653 8.38646C6.52724 8.34781 6.50794 8.32849 6.45007 8.34781C6.31502 8.40578 6.19926 8.44443 6.04492 8.5024C6.12209 8.34781 6.19926 8.19322 6.27643 8.05796C6.31502 7.99999 6.31502 7.94201 6.27643 7.88404C6.19926 7.74878 6.14138 7.61351 6.04492 7.45892C6.17997 7.51689 6.29573 7.55554 6.41148 7.61351C6.48865 7.65216 6.52724 7.61351 6.56582 7.55554C6.64299 7.42028 6.70087 7.30433 6.77804 7.16907C6.77804 7.32366 6.77804 7.49757 6.77804 7.65216C6.77804 7.74878 6.79733 7.78743 6.8745 7.82607C6.99026 7.86472 7.10602 7.92269 7.22177 7.98066C7.22177 7.98066 7.22177 7.98066 7.22177 7.99998L7.20248 8.01931Z"
            fill="#F2CA29" />
    </g>
    <defs>
        <clipPath id="clip0_594_2291">
            <rect width="24" height="16" fill="white" transform="translate(-2)" />
        </clipPath>
    </defs>
</svg>