<svg xmlns="http://www.w3.org/2000/svg" width="24" height="25" viewBox="0 0 24 25" fill="none">
  <path opacity="0.2"
    d="M10.7813 9.84375C10.7813 10.5545 10.5705 11.2493 10.1756 11.8403C9.78071 12.4313 9.21944 12.8919 8.56277 13.1639C7.9061 13.4359 7.18352 13.5071 6.4864 13.3684C5.78928 13.2298 5.14893 12.8875 4.64634 12.3849C4.14374 11.8823 3.80147 11.242 3.6628 10.5449C3.52414 9.84774 3.59531 9.12515 3.86731 8.46848C4.13931 7.81181 4.59993 7.25054 5.19092 6.85566C5.78191 6.46077 6.47673 6.25 7.1875 6.25C8.14062 6.25 9.05471 6.62863 9.72867 7.30259C10.4026 7.97654 10.7813 8.89063 10.7813 9.84375Z"
    fill="#009688" />
  <path
    d="M13.6563 7.68754C13.6563 7.49691 13.732 7.31409 13.8668 7.1793C14.0016 7.04451 14.1844 6.96879 14.375 6.96879H22.2813C22.4719 6.96879 22.6547 7.04451 22.7895 7.1793C22.9243 7.31409 23 7.49691 23 7.68754C23 7.87816 22.9243 8.06098 22.7895 8.19577C22.6547 8.33056 22.4719 8.40629 22.2813 8.40629H14.375C14.1844 8.40629 14.0016 8.33056 13.8668 8.19577C13.732 8.06098 13.6563 7.87816 13.6563 7.68754ZM22.2813 11.2813H14.375C14.1844 11.2813 14.0016 11.357 13.8668 11.4918C13.732 11.6266 13.6563 11.8094 13.6563 12C13.6563 12.1907 13.732 12.3735 13.8668 12.5083C14.0016 12.6431 14.1844 12.7188 14.375 12.7188H22.2813C22.4719 12.7188 22.6547 12.6431 22.7895 12.5083C22.9243 12.3735 23 12.1907 23 12C23 11.8094 22.9243 11.6266 22.7895 11.4918C22.6547 11.357 22.4719 11.2813 22.2813 11.2813ZM22.2813 15.5938H16.5313C16.3407 15.5938 16.1578 15.6695 16.023 15.8043C15.8883 15.9391 15.8125 16.1219 15.8125 16.3125C15.8125 16.5032 15.8883 16.686 16.023 16.8208C16.1578 16.9556 16.3407 17.0313 16.5313 17.0313H22.2813C22.4719 17.0313 22.6547 16.9556 22.7895 16.8208C22.9243 16.686 23 16.5032 23 16.3125C23 16.1219 22.9243 15.9391 22.7895 15.8043C22.6547 15.6695 22.4719 15.5938 22.2813 15.5938ZM13.6338 17.5703C13.6573 17.6618 13.6626 17.757 13.6493 17.8504C13.636 17.9439 13.6044 18.0338 13.5563 18.1151C13.5083 18.1964 13.4447 18.2674 13.3692 18.324C13.2937 18.3807 13.2078 18.422 13.1163 18.4454C13.0577 18.4612 12.9973 18.4691 12.9366 18.4688C12.7772 18.4689 12.6223 18.416 12.4963 18.3184C12.3702 18.2208 12.2802 18.0841 12.2403 17.9297C11.6869 15.7789 9.51448 14.1563 7.18663 14.1563C4.85878 14.1563 2.68636 15.778 2.13292 17.9297C2.08527 18.1144 1.9662 18.2726 1.80192 18.3694C1.63765 18.4663 1.44161 18.494 1.25694 18.4463C1.07228 18.3987 0.914105 18.2796 0.817223 18.1153C0.720342 17.951 0.692687 17.755 0.740343 17.5703C1.24257 15.6198 2.70253 14.0404 4.55511 13.2578C3.84178 12.7084 3.31831 11.9495 3.05812 11.0875C2.79793 10.2255 2.81406 9.30372 3.10426 8.45138C3.39446 7.59903 3.94417 6.85889 4.6763 6.33476C5.40842 5.81063 6.28624 5.52881 7.18663 5.52881C8.08703 5.52881 8.96484 5.81063 9.69697 6.33476C10.4291 6.85889 10.9788 7.59903 11.269 8.45138C11.5592 9.30372 11.5753 10.2255 11.3151 11.0875C11.055 11.9495 10.5315 12.7084 9.81816 13.2578C11.6716 14.0404 13.1316 15.6198 13.6338 17.5703ZM7.18753 12.7188C7.75615 12.7188 8.312 12.5502 8.78479 12.2343C9.25759 11.9184 9.62608 11.4693 9.84369 10.944C10.0613 10.4187 10.1182 9.8406 10.0073 9.2829C9.89636 8.72521 9.62254 8.21293 9.22046 7.81085C8.81839 7.40878 8.30611 7.13496 7.74842 7.02403C7.19072 6.91309 6.61265 6.97003 6.08732 7.18763C5.56198 7.40523 5.11296 7.77373 4.79706 8.24652C4.48115 8.71931 4.31253 9.27516 4.31253 9.84379C4.31253 10.6063 4.61543 11.3376 5.1546 11.8767C5.69377 12.4159 6.42503 12.7188 7.18753 12.7188Z"
    fill="#009688" />
</svg>