<svg xmlns="http://www.w3.org/2000/svg" width="24" height="24" viewBox="0 0 24 24" fill="none">
  <path
    d="M14.75 15.8929C14.75 16.2678 14.4423 16.5714 14.0625 16.5714H9.9375C9.55766 16.5714 9.25 16.2678 9.25 15.8929V13.8571H1V19.9643C1 21.05 1.9625 22 3.0625 22H20.9375C22.0375 22 23 21.05 23 19.9643V13.8571H14.75V15.8929ZM20.9375 7.07143H17.5V5.03571C17.5 3.95 16.5375 3 15.4375 3H8.5625C7.4625 3 6.5 3.95 6.5 5.03571V7.07143H3.0625C1.9625 7.07143 1 8.02143 1 9.10714V12.5H23V9.10714C23 8.02143 22.0375 7.07143 20.9375 7.07143ZM14.75 7.07143H9.25V5.71429H14.75V7.07143Z"
    fill="#009688" />
</svg>