<svg xmlns="http://www.w3.org/2000/svg" width="20" height="16" viewBox="0 0 20 16" fill="none">
    <g clip-path="url(#clip0_594_1998)">
        <path
            d="M10.0096 16C6.03203 16 2.07366 16 -1.90392 16C-1.98078 16 -2 16 -2 15.9038C-2 10.6346 -2 5.36539 -2 0.0961539C-2 0 -2 0 -1.90392 0C6.03203 0 13.968 0 21.9039 0C21.9808 0 22 0 22 0.0961539C22 5.36539 22 10.6538 22 15.9231C22 16 22 16.0192 21.9231 16.0192C17.9456 16.0192 13.9872 16.0192 10.0096 16.0192V16Z"
            fill="#DF2727" />
        <path
            d="M-0.232178 3.26926C0.305853 3.26926 0.824668 3.26926 1.3627 3.26926C1.43956 3.26926 1.47799 3.25003 1.49721 3.17311C1.65093 2.69234 1.80465 2.2308 1.95837 1.75003C1.95837 1.71157 1.95837 1.67311 2.01602 1.63464C2.18896 2.13464 2.34268 2.63464 2.49641 3.15387C2.53484 3.25003 2.57327 3.28849 2.66934 3.28849C3.16894 3.28849 3.64933 3.28849 4.14893 3.28849H4.28343C4.28343 3.28849 4.22579 3.34618 4.18736 3.36541C3.78384 3.65387 3.3611 3.96157 2.95757 4.25003C2.89993 4.28849 2.88071 4.32695 2.91914 4.40387C3.09208 4.90387 3.2458 5.40387 3.39953 5.90387C3.39953 5.90387 3.39953 5.92311 3.41874 5.96157C3.2458 5.82695 3.07287 5.71157 2.89993 5.59618C2.63091 5.40387 2.34268 5.19234 2.07367 5.00003C2.01602 4.96157 1.99681 4.96157 1.93916 5.00003C1.53564 5.30772 1.13211 5.59618 0.728591 5.88464C0.69016 5.90387 0.670945 5.92311 0.613299 5.96157C0.651729 5.80772 0.709375 5.69234 0.747806 5.55772C0.882314 5.17311 0.997606 4.78849 1.13211 4.38464C1.15133 4.32695 1.13211 4.28849 1.09368 4.25003C0.69016 3.96157 0.286637 3.67311 -0.116885 3.38464C-0.155316 3.36541 -0.193747 3.32695 -0.212962 3.30772L-0.232178 3.26926Z"
            fill="#EFEA3C" />
        <path
            d="M7.45393 3.96153C7.43472 3.80768 7.39629 3.63461 7.37707 3.48076C7.37707 3.4423 7.37707 3.42307 7.31942 3.42307C7.26178 3.42307 7.20413 3.40384 7.12727 3.38461C7.06962 3.40384 7.01198 3.38461 6.95433 3.34614C6.9159 3.34614 6.87747 3.34614 6.81982 3.30768C6.93512 3.24999 7.03119 3.1923 7.12727 3.15384C7.25537 3.08973 7.30661 2.99358 7.28099 2.86538C7.28099 2.76922 7.26178 2.65384 7.24256 2.55768C7.24256 2.55768 7.24256 2.55768 7.24256 2.53845C7.33864 2.63461 7.45393 2.73076 7.55001 2.84614C7.60765 2.90384 7.64608 2.92307 7.72295 2.88461C7.85745 2.80768 7.99196 2.74999 8.14569 2.67307C8.06882 2.84614 7.99196 2.98076 7.9151 3.11538C7.87667 3.17307 7.89588 3.1923 7.93432 3.24999C8.03039 3.32691 8.10725 3.42307 8.18412 3.49999C8.20333 3.49999 8.22255 3.49999 8.24176 3.51922C8.26098 3.53845 8.28019 3.57691 8.26098 3.59614C8.24176 3.63461 8.20333 3.63461 8.18412 3.59614C8.1649 3.59614 8.14569 3.55768 8.10725 3.55768C8.06882 3.55768 8.01118 3.55768 7.95353 3.53845C7.89588 3.55768 7.83824 3.53845 7.78059 3.49999C7.78059 3.49999 7.74216 3.49999 7.72295 3.49999C7.68452 3.49999 7.68452 3.51922 7.68452 3.53845C7.6653 3.61538 7.64608 3.67307 7.56922 3.71153C7.55001 3.74999 7.51158 3.76922 7.51158 3.82691C7.51158 3.86538 7.51158 3.92307 7.47315 3.96153C7.45393 3.99999 7.43472 4.01922 7.39628 3.96153H7.45393Z"
            fill="#EFEA3C" />
        <path
            d="M5.39798 1.07695C5.57092 1.15387 5.70542 1.21156 5.85915 1.26925C5.91679 1.28849 5.95522 1.26925 5.99365 1.25002C6.08973 1.13464 6.20502 1.01925 6.32032 0.90387C6.32032 1.01925 6.32032 1.13464 6.28189 1.25002C6.26267 1.46156 6.26267 1.46156 6.43561 1.53849C6.53168 1.57695 6.62776 1.61541 6.74305 1.6731C6.74305 1.6731 6.74305 1.6731 6.78149 1.6731C6.76227 1.71156 6.70462 1.71156 6.66619 1.71156C6.5509 1.75002 6.43561 1.76925 6.32032 1.78849C6.26267 1.78849 6.24346 1.82695 6.22424 1.88464C6.22424 2.00002 6.22424 2.11541 6.18581 2.23079C6.18581 2.26925 6.18581 2.30772 6.14738 2.34618C6.07052 2.21156 5.99365 2.07695 5.91679 1.94233C5.87836 1.88464 5.83993 1.86541 5.78229 1.88464C5.64778 1.9231 5.49406 1.96156 5.34033 1.98079C5.34033 1.98079 5.34033 1.98079 5.34033 1.96156C5.43641 1.84618 5.51327 1.75002 5.62856 1.63464C5.68621 1.57695 5.68621 1.51925 5.62856 1.44233C5.5517 1.32695 5.47484 1.19233 5.39798 1.03849V1.07695Z"
            fill="#EFEA3C" />
        <path
            d="M6.80053 7.23076C6.62759 7.28845 6.47387 7.32691 6.33936 7.36537C6.2625 7.36537 6.24328 7.42307 6.24328 7.49999C6.24328 7.65384 6.24328 7.78845 6.22407 7.98076C6.12799 7.84614 6.05113 7.71153 5.97427 7.59614C5.93584 7.51922 5.89741 7.49999 5.80133 7.53845C5.66682 7.59614 5.5131 7.61538 5.35938 7.67307C5.47467 7.53845 5.57074 7.40384 5.66682 7.28845C5.70525 7.24999 5.70525 7.21153 5.66682 7.15384C5.57074 7.01922 5.49388 6.88461 5.39781 6.74999C5.53231 6.78845 5.62839 6.84614 5.74368 6.88461C5.87179 6.93589 5.98067 6.91025 6.07034 6.80768C6.07034 6.80768 6.20485 6.63461 6.28171 6.53845C6.28171 6.67307 6.28171 6.82691 6.28171 6.96153C6.28171 7.05768 6.28171 7.11538 6.39701 7.13461C6.53151 7.17307 6.66602 7.23076 6.81974 7.28845L6.80053 7.23076Z"
            fill="#EFEA3C" />
        <path
            d="M7.41543 5.34613C7.41543 5.2692 7.45386 5.19228 7.45386 5.09613C7.45386 5.05766 7.49229 5.05766 7.51151 5.03843C7.49229 4.98074 7.51151 4.96151 7.54994 4.92305C7.54994 4.90382 7.54994 4.86536 7.58837 4.86536V4.90382C7.68444 4.94228 7.66523 5.03843 7.66523 5.11536C7.66523 5.11536 7.74209 5.19228 7.72288 5.2692C7.72288 5.28843 7.72288 5.30766 7.72288 5.32689C7.83817 5.42305 7.97267 5.40382 8.08797 5.38459C8.1264 5.38459 8.18404 5.38459 8.22248 5.38459C8.24169 5.36536 8.28012 5.34613 8.29934 5.38459C8.29934 5.42305 8.29934 5.44228 8.26091 5.48074C8.22248 5.49997 8.18404 5.5192 8.1264 5.53843C8.04954 5.59613 7.93424 5.65382 7.89581 5.74997C7.85738 5.82689 7.95346 5.94228 7.97268 6.03843C7.99189 6.11536 8.03032 6.19228 8.03032 6.2692C7.91503 6.19228 7.78052 6.11536 7.66523 6.0192C7.58837 5.96151 7.54994 5.96151 7.49229 6.0192C7.377 6.11536 7.26171 6.19228 7.1272 6.30766C7.1272 6.19228 7.18484 6.09613 7.20406 6.0192C7.20406 5.98074 7.22328 5.96151 7.22328 5.92305C7.28092 5.73074 7.30014 5.78843 7.14641 5.69228C7.03112 5.61536 6.93504 5.53843 6.80054 5.46151C6.95426 5.46151 7.10798 5.46151 7.24249 5.44228C7.28092 5.44228 7.33857 5.44228 7.377 5.44228L7.41543 5.34613Z"
            fill="#EFEA3C" />
        <path
            d="M8.14575 3.55768C8.14575 3.55768 8.22261 3.55768 8.28026 3.55768C8.28026 3.51922 8.22261 3.49999 8.22261 3.46152C8.28026 3.44229 8.33791 3.46152 8.35712 3.49999C8.37634 3.53845 8.35712 3.57691 8.31869 3.59614C8.26104 3.6346 8.2034 3.61537 8.16497 3.55768C8.16497 3.55768 8.16497 3.55768 8.14575 3.53845V3.55768Z"
            fill="#DF2727" />
        <path
            d="M8.16497 5.48075C8.16497 5.48075 8.28026 5.38459 8.31869 5.34613C8.29947 5.3269 8.26104 5.34613 8.24183 5.34613C8.24183 5.30767 8.26104 5.26921 8.31869 5.28844C8.37634 5.28844 8.33791 5.34613 8.33791 5.36536C8.33791 5.49998 8.22261 5.48075 8.14575 5.49998L8.16497 5.48075Z"
            fill="#DF2727" />
        <path
            d="M7.51158 5.03845C7.49237 5.13461 7.45394 5.24999 7.41551 5.34614C7.33865 5.24999 7.41551 5.17307 7.41551 5.07691C7.41551 5.03845 7.45394 5.03845 7.49237 5.03845H7.51158Z"
            fill="#DF2727" />
        <path
            d="M7.62695 3.69228C7.62695 3.69228 7.6846 3.5769 7.72303 3.51921C7.72303 3.49998 7.74225 3.46152 7.78068 3.49998C7.78068 3.53844 7.78068 3.55767 7.78068 3.59613C7.78068 3.67305 7.72303 3.73075 7.64617 3.71152L7.62695 3.69228Z"
            fill="#DF2727" />
        <path
            d="M7.45386 3.96152C7.45386 3.96152 7.5115 3.86537 7.56915 3.8269C7.60758 3.86537 7.60758 3.92306 7.56915 3.98075C7.56915 3.99998 7.54993 4.03844 7.5115 4.03844C7.47307 4.03844 7.45386 4.01921 7.45386 3.98075V3.96152Z"
            fill="#DF2727" />
        <path
            d="M7.66524 5.0769C7.66524 5.0769 7.60759 4.94228 7.58838 4.86536C7.70367 4.86536 7.72289 4.92305 7.66524 5.0769Z"
            fill="#DF2727" />
        <path
            d="M8.12657 5.32692C8.03049 5.34615 7.9152 5.32692 7.81912 5.32692C7.76148 5.32692 7.76147 5.28846 7.76147 5.25C7.87677 5.26923 8.01127 5.32692 8.12657 5.30769V5.32692Z"
            fill="#DF2727" />
        <path
            d="M7.72293 5.21152C7.72293 5.21152 7.6845 5.11537 7.66528 5.05768C7.70371 5.05768 7.74214 5.05768 7.76136 5.09614C7.76136 5.1346 7.76136 5.17306 7.72293 5.19229V5.21152Z"
            fill="#DF2727" />
        <path
            d="M6.95435 3.34613C6.95435 3.34613 7.06964 3.34613 7.12728 3.38459C7.05042 3.48075 7.01199 3.38459 6.95435 3.34613Z"
            fill="#DF2727" />
        <path d="M7.81909 3.5C7.81909 3.5 7.93438 3.5 7.99203 3.53846C7.91517 3.63462 7.87674 3.53846 7.81909 3.5Z"
            fill="#DF2727" />
        <path
            d="M7.55009 4.90387C7.55009 4.90387 7.55009 4.98079 7.51166 5.01925C7.43479 4.96156 7.49244 4.9231 7.55009 4.90387Z"
            fill="#DF2727" />
        <path
            d="M7.58858 4.82691C7.58858 4.82691 7.58858 4.86537 7.55015 4.8846C7.51172 4.8846 7.51172 4.84614 7.53093 4.80768C7.55015 4.78845 7.56936 4.80768 7.58858 4.80768V4.82691Z"
            fill="#DF2727" />
        <path
            d="M7.41551 5.34613C7.41551 5.34613 7.33865 5.34613 7.28101 5.34613C7.31944 5.3269 7.35787 5.34613 7.41551 5.34613Z"
            fill="#DF2727" />
    </g>
    <defs>
        <clipPath id="clip0_594_1998">
            <rect width="24" height="16" fill="white" transform="translate(-2)" />
        </clipPath>
    </defs>
</svg>