<svg xmlns="http://www.w3.org/2000/svg" width="24" height="25" viewBox="0 0 24 25" fill="none">
  <path opacity="0.2"
    d="M22 10.5V16.8333C22 17.0101 21.9285 17.1797 21.8013 17.3047C21.674 17.4298 21.5014 17.5 21.3214 17.5H19.2857C19.2857 16.9696 19.0712 16.4609 18.6895 16.0858C18.3077 15.7107 17.7899 15.5 17.25 15.5C16.7101 15.5 16.1923 15.7107 15.8105 16.0858C15.4288 16.4609 15.2143 16.9696 15.2143 17.5H9.78571C9.78571 16.9696 9.57124 16.4609 9.18947 16.0858C8.8077 15.7107 8.28991 15.5 7.75 15.5C7.21009 15.5 6.6923 15.7107 6.31053 16.0858C5.92876 16.4609 5.71429 16.9696 5.71429 17.5H3.67857C3.4986 17.5 3.32601 17.4298 3.19875 17.3047C3.07149 17.1797 3 17.0101 3 16.8333V12.5H16.5714V10.5H22Z"
    fill="#009688" />
  <path
    d="M21.9517 9.58442L20.785 6.66884C20.686 6.42216 20.5152 6.21087 20.2947 6.06235C20.0742 5.91382 19.8142 5.83491 19.5483 5.83582H16.6667V5.1694C16.6667 4.99266 16.5964 4.82315 16.4714 4.69818C16.3464 4.5732 16.1768 4.50299 16 4.50299H3.33333C2.97971 4.50299 2.64057 4.64341 2.39052 4.89337C2.14048 5.14332 2 5.48233 2 5.83582V17.1626C2 17.5161 2.14048 17.8551 2.39052 18.1051C2.64057 18.355 2.97971 18.4955 3.33333 18.4955H4.75C4.89687 19.0689 5.23047 19.5771 5.69821 19.94C6.16595 20.303 6.74122 20.5 7.33333 20.5C7.92545 20.5 8.50072 20.303 8.96846 19.94C9.4362 19.5771 9.7698 19.0689 9.91667 18.4955H14.0833C14.2302 19.0689 14.5638 19.5771 15.0315 19.94C15.4993 20.303 16.0746 20.5 16.6667 20.5C17.2588 20.5 17.8341 20.303 18.3018 19.94C18.7695 19.5771 19.1031 19.0689 19.25 18.4955H20.6667C21.0203 18.4955 21.3594 18.355 21.6095 18.1051C21.8595 17.8551 22 17.5161 22 17.1626V9.83433C22.0002 9.74868 21.9838 9.66381 21.9517 9.58442ZM16.6667 7.16866H19.5483L20.3483 9.16791H16.6667V7.16866ZM3.33333 5.83582H15.3333V11.1672H3.33333V5.83582ZM7.33333 19.1619C7.06962 19.1619 6.81184 19.0837 6.59257 18.9373C6.37331 18.7908 6.20241 18.5827 6.10149 18.3391C6.00058 18.0956 5.97417 17.8276 6.02562 17.569C6.07707 17.3105 6.20405 17.073 6.39052 16.8866C6.57699 16.7002 6.81457 16.5733 7.07321 16.5218C7.33185 16.4704 7.59994 16.4968 7.84358 16.5977C8.08721 16.6986 8.29545 16.8694 8.44196 17.0886C8.58847 17.3078 8.66667 17.5654 8.66667 17.8291C8.66667 18.1825 8.52619 18.5216 8.27614 18.7715C8.02609 19.0215 7.68695 19.1619 7.33333 19.1619ZM14.0833 17.1626H9.91667C9.7698 16.5892 9.4362 16.081 8.96846 15.7181C8.50072 15.3551 7.92545 15.1582 7.33333 15.1582C6.74122 15.1582 6.16595 15.3551 5.69821 15.7181C5.23047 16.081 4.89687 16.5892 4.75 17.1626H3.33333V12.5H15.3333V15.5224C15.0268 15.6995 14.7584 15.9357 14.5439 16.2173C14.3293 16.4988 14.1728 16.8202 14.0833 17.1626ZM16.6667 19.1619C16.403 19.1619 16.1452 19.0837 15.9259 18.9373C15.7066 18.7908 15.5357 18.5827 15.4348 18.3391C15.3339 18.0956 15.3075 17.8276 15.359 17.569C15.4104 17.3105 15.5374 17.073 15.7239 16.8866C15.9103 16.7002 16.1479 16.5733 16.4065 16.5218C16.6652 16.4704 16.9333 16.4968 17.1769 16.5977C17.4205 16.6986 17.6288 16.8694 17.7753 17.0886C17.9218 17.3078 18 17.5654 18 17.8291C18 18.1825 17.8595 18.5216 17.6095 18.7715C17.3594 19.0215 17.0203 19.1619 16.6667 19.1619ZM20.6667 17.1626H19.25C19.1014 16.5906 18.7671 16.0841 18.2997 15.7223C17.8322 15.3605 17.2579 15.1639 16.6667 15.1634V10.5007H20.6667V17.1626Z"
    fill="#009688" />
</svg>