<svg xmlns="http://www.w3.org/2000/svg" width="12" height="12" viewBox="0 0 12 12" fill="none">
  <path
    d="M8.00276 6.83938C7.68831 6.83938 7.43104 6.55959 7.43104 6.21762V4.97409H4.85827V6.21762C4.85827 6.55959 4.601 6.83938 4.28655 6.83938C3.9721 6.83938 3.71482 6.55959 3.71482 6.21762V4.35233C3.71482 4.01036 3.9721 3.73057 4.28655 3.73057H8.00276C8.31721 3.73057 8.57449 4.01036 8.57449 4.35233V6.21762C8.57449 6.55959 8.31721 6.83938 8.00276 6.83938Z"
    fill="white" />
  <path
    d="M2.28555 11.8135H1.42796C1.11351 11.8135 0.856233 11.5337 0.856233 11.1917V4.2715L0.827646 4.29016C0.541783 4.4456 0.198748 4.32124 0.0615338 4.01036C-0.0813976 3.7057 0.0329475 3.33264 0.31881 3.1772L1.16496 2.7171C1.16496 2.7171 1.16496 2.7171 1.17068 2.7171L5.73305 0.0746114C5.89885 -0.0248705 6.10467 -0.0248705 6.27048 0.0746114L10.8328 2.71088C10.8328 2.71088 10.8328 2.71088 10.8386 2.71088L11.6847 3.17098C11.9649 3.32642 12.0792 3.69948 11.942 4.00415C11.8048 4.30881 11.456 4.43316 11.1759 4.28394L11.1473 4.26529V6.2114C11.1473 6.55337 10.89 6.83316 10.5756 6.83316C10.2611 6.83316 10.0038 6.55337 10.0038 6.2114V3.63731L6.00176 1.32435L1.99968 3.63731V10.5699H2.28555C2.6 10.5699 2.85727 10.8497 2.85727 11.1917C2.85727 11.5337 2.6 11.8135 2.28555 11.8135Z"
    fill="white" />
  <path
    d="M11.7934 10.1907C11.7248 10.0352 11.6504 9.91089 11.559 9.80519C11.4732 9.69949 11.376 9.60623 11.2617 9.51918L11.2102 9.48188C11.1359 9.42592 11.0616 9.36996 10.9987 9.314C10.9186 9.24561 10.8615 9.18965 10.8214 9.13991C10.7929 9.09638 10.7757 9.04664 10.7757 8.9969C10.7757 8.95338 10.7871 8.91607 10.7986 8.90364C10.8786 8.83524 11.0787 8.8539 11.2102 8.90364C11.3074 8.93473 11.3531 8.97203 11.376 8.99068L11.5704 9.15234L11.8505 8.18861L11.7362 8.114C11.6333 8.04561 11.5132 7.99587 11.376 7.95856C11.1187 7.89017 10.8043 7.87151 10.5299 7.95856C10.3984 8.0083 10.284 8.0767 10.1925 8.16996C10.0953 8.26322 10.021 8.39379 9.96385 8.5368C9.91239 8.6798 9.88381 8.8539 9.88381 9.05286C9.88381 9.26426 9.91811 9.45079 9.981 9.61245C10.0496 9.76167 10.1239 9.88602 10.2154 9.99172C10.2955 10.085 10.3869 10.172 10.5127 10.2715L10.587 10.3275C10.6556 10.3772 10.7185 10.427 10.7757 10.4767C10.8386 10.5264 10.9015 10.5886 10.9529 10.657C10.9815 10.7005 10.9987 10.7565 10.9987 10.8249C10.9987 10.943 10.9815 11.0363 10.7357 11.0363C10.6328 11.0363 10.5527 11.0238 10.4784 10.9865C10.3869 10.9492 10.3183 10.9119 10.2669 10.8746L10.0782 10.7441L9.78662 11.6891L9.89524 11.77C9.98672 11.8321 10.1011 11.8881 10.2497 11.9316C10.4041 11.9751 10.5756 12 10.7643 12C10.9243 12 11.073 11.9751 11.2045 11.9192C11.3417 11.8632 11.4618 11.7824 11.559 11.6829C11.6619 11.5834 11.7419 11.4466 11.7991 11.2725C11.8505 11.1109 11.8734 10.9368 11.8734 10.7378C11.8734 10.5389 11.8448 10.3586 11.7762 10.1907H11.7934Z"
    fill="white" />
  <path
    d="M8.72325 7.89634L8.02574 9.55023L7.2825 7.89634H6.40204V12H7.33967L7.33396 10.3336L7.78562 11.316H8.20298L8.63177 10.3212V12H9.60371V7.89634H8.72325Z"
    fill="white" />
  <path
    d="M5.34432 7.89634L5.1728 9.31396L4.92124 7.90256H4.29234L4.02935 9.33883L3.84068 7.90256H2.93735L3.62342 12H4.27519L4.58392 10.3834L4.88694 12H5.52155L6.20762 7.89634H5.34432Z"
    fill="white" />
</svg>