<svg xmlns="http://www.w3.org/2000/svg" width="14" height="14" viewBox="0 0 14 14" fill="none">
  <g clip-path="url(#clip0_301_2385)">
    <path
      d="M6.91148 9.47472C7.22806 9.20861 7.45515 8.85158 7.56194 8.45203C7.66872 8.05248 7.65004 7.62976 7.50843 7.24119C7.36681 6.85262 7.10912 6.51701 6.77029 6.27987C6.43146 6.04272 6.0279 5.91553 5.61433 5.91553C5.20076 5.91553 4.79719 6.04272 4.45836 6.27987C4.11954 6.51701 3.86184 6.85262 3.72023 7.24119C3.57861 7.62976 3.55993 8.05248 3.66672 8.45203C3.7735 8.85158 4.00059 9.20861 4.31718 9.47472C3.82282 9.69825 3.3944 10.0454 3.07326 10.4827C3.01394 10.5635 2.98917 10.6646 3.00438 10.7637C3.01959 10.8628 3.07354 10.9518 3.15437 11.0111C3.2352 11.0704 3.33628 11.0952 3.43537 11.08C3.53447 11.0648 3.62346 11.0108 3.68277 10.93C3.90508 10.6264 4.19583 10.3795 4.53143 10.2092C4.86703 10.039 5.23803 9.95031 5.61433 9.95031C5.99063 9.95031 6.36163 10.039 6.69723 10.2092C7.03283 10.3795 7.32357 10.6264 7.54588 10.93C7.60519 11.0109 7.6942 11.0649 7.79333 11.0801C7.89245 11.0953 7.99357 11.0706 8.07444 11.0113C8.15531 10.952 8.2093 10.8629 8.22454 10.7638C8.23978 10.6647 8.21502 10.5636 8.15571 10.4827C7.83437 10.0455 7.40588 9.69833 6.91148 9.47472ZM4.35434 7.93313C4.35434 7.68393 4.42824 7.44033 4.56669 7.23312C4.70514 7.02592 4.90192 6.86443 5.13215 6.76906C5.36238 6.6737 5.61572 6.64874 5.86014 6.69736C6.10455 6.74598 6.32906 6.86598 6.50527 7.04219C6.68148 7.2184 6.80148 7.44291 6.8501 7.68732C6.89871 7.93174 6.87376 8.18508 6.7784 8.41531C6.68303 8.64554 6.52154 8.84232 6.31433 8.98077C6.10713 9.11922 5.86353 9.19311 5.61433 9.19311C5.28016 9.19311 4.95968 9.06037 4.72338 8.82407C4.48709 8.58778 4.35434 8.2673 4.35434 7.93313ZM10.8464 11.0097C10.8064 11.0391 10.761 11.0603 10.7127 11.0722C10.6645 11.084 10.6144 11.0862 10.5653 11.0787C10.5163 11.0712 10.4691 11.0541 10.4267 11.0284C10.3842 11.0026 10.3472 10.9688 10.3178 10.9287C10.095 10.6257 9.80412 10.3792 9.46864 10.2091C9.13317 10.0389 8.76244 9.94987 8.38628 9.9491C8.28603 9.9491 8.18989 9.90928 8.119 9.83839C8.04811 9.7675 8.00829 9.67136 8.00829 9.57111C8.00829 9.47086 8.04811 9.37471 8.119 9.30383C8.18989 9.23294 8.28603 9.19311 8.38628 9.19311C8.56537 9.19279 8.74233 9.1543 8.90537 9.0802C9.06841 9.0061 9.21378 8.8981 9.33179 8.76339C9.4498 8.62868 9.53773 8.47037 9.58973 8.299C9.64173 8.12763 9.65661 7.94714 9.63336 7.76957C9.61011 7.59199 9.54927 7.42142 9.45491 7.26921C9.36054 7.117 9.23481 6.98666 9.0861 6.88687C8.93739 6.78709 8.76912 6.72015 8.5925 6.69052C8.41588 6.66089 8.23497 6.66925 8.06184 6.71505C8.01348 6.72904 7.96282 6.73323 7.91283 6.72737C7.86283 6.72152 7.81451 6.70573 7.77069 6.68095C7.72688 6.65617 7.68845 6.62288 7.65768 6.58305C7.6269 6.54321 7.60439 6.49763 7.59147 6.44898C7.57854 6.40033 7.57547 6.34959 7.58242 6.29973C7.58937 6.24988 7.60621 6.20191 7.63195 6.15865C7.65769 6.1154 7.69181 6.07771 7.73232 6.04782C7.77282 6.01793 7.81888 5.99642 7.8678 5.98457C8.31052 5.86727 8.77998 5.9042 9.1989 6.0893C9.61782 6.27439 9.96123 6.59662 10.1726 7.00292C10.384 7.40922 10.4507 7.87538 10.3618 8.32466C10.2729 8.77393 10.0336 9.17955 9.68344 9.47472C10.1778 9.69825 10.6062 10.0454 10.9274 10.4827C10.9862 10.5634 11.0108 10.6642 10.9956 10.7629C10.9804 10.8617 10.9268 10.9504 10.8464 11.0097Z"
      fill="white" />
    <path
      d="M7.38709 2H8.659C8.91979 2 9.14388 2.03904 9.33127 2.11712C9.52022 2.1952 9.66545 2.31076 9.76695 2.46379C9.86845 2.61683 9.9192 2.805 9.9192 3.02831C9.9192 3.21101 9.88797 3.36795 9.82551 3.49913C9.76461 3.62874 9.67794 3.73727 9.5655 3.82472C9.45463 3.91061 9.32424 3.97932 9.17433 4.03085L8.9518 4.14797H7.84619L7.84151 3.59985H8.66369C8.78705 3.59985 8.88934 3.57799 8.97054 3.53426C9.05174 3.49054 9.11264 3.42964 9.15324 3.35156C9.19541 3.27348 9.21649 3.1829 9.21649 3.07984C9.21649 2.97053 9.19619 2.87605 9.15559 2.79641C9.11499 2.71677 9.0533 2.65587 8.97054 2.6137C8.88777 2.57154 8.78393 2.55046 8.659 2.55046H8.0898V5.41051H7.38709V2ZM9.29379 5.41051L8.51612 3.8903L9.25865 3.88562L10.0457 5.37772V5.41051H9.29379Z"
      fill="white" />
    <path
      d="M6.27446 3.38903V3.93715H4.49424V3.38903H6.27446ZM4.70272 2V5.41051H4V2H4.70272ZM6.77573 2V5.41051H6.07535V2H6.77573Z"
      fill="white" />
    <path
      d="M2.375 0.872222H11.625C11.915 0.872222 12.1625 1.12136 12.1625 1.44444V11.5556C12.1625 11.8786 11.915 12.1278 11.625 12.1278H2.375C2.08503 12.1278 1.8375 11.8786 1.8375 11.5556V1.44444C1.8375 1.12136 2.08503 0.872222 2.375 0.872222ZM2.375 -0.15C1.52589 -0.15 0.85 0.570907 0.85 1.44444V11.5556C0.85 12.4291 1.52589 13.15 2.375 13.15H11.625C12.4741 13.15 13.15 12.4291 13.15 11.5556V1.44444C13.15 0.570907 12.4741 -0.15 11.625 -0.15H2.375Z"
      fill="white" stroke="white" stroke-width="0.3" />
  </g>
  <defs>
    <clipPath id="clip0_301_2385">
      <rect width="14" height="14" fill="white" />
    </clipPath>
  </defs>
</svg>