<svg width="16" height="16" viewBox="0 0 16 16" fill="currentColor" xmlns="http://www.w3.org/2000/svg">
  <path
    d="M2.5 8.00003C2.5 7.86742 2.55268 7.74024 2.64645 7.64647C2.74021 7.55271 2.86739 7.50003 3 7.50003H7.5C7.63261 7.50003 7.75979 7.55271 7.85355 7.64647C7.94732 7.74024 8 7.86742 8 8.00003C8 8.13264 7.94732 8.25981 7.85355 8.35358C7.75979 8.44735 7.63261 8.50003 7.5 8.50003H3C2.86739 8.50003 2.74021 8.44735 2.64645 8.35358C2.55268 8.25981 2.5 8.13264 2.5 8.00003ZM3 4.50003H6.5C6.63261 4.50003 6.75979 4.44735 6.85355 4.35358C6.94732 4.25981 7 4.13264 7 4.00003C7 3.86742 6.94732 3.74024 6.85355 3.64647C6.75979 3.55271 6.63261 3.50003 6.5 3.50003H3C2.86739 3.50003 2.74021 3.55271 2.64645 3.64647C2.55268 3.74024 2.5 3.86742 2.5 4.00003C2.5 4.13264 2.55268 4.25981 2.64645 4.35358C2.74021 4.44735 2.86739 4.50003 3 4.50003ZM11.5 11.5H3C2.86739 11.5 2.74021 11.5527 2.64645 11.6465C2.55268 11.7402 2.5 11.8674 2.5 12C2.5 12.1326 2.55268 12.2598 2.64645 12.3536C2.74021 12.4473 2.86739 12.5 3 12.5H11.5C11.6326 12.5 11.7598 12.4473 11.8536 12.3536C11.9473 12.2598 12 12.1326 12 12C12 11.8674 11.9473 11.7402 11.8536 11.6465C11.7598 11.5527 11.6326 11.5 11.5 11.5ZM14.3538 5.14628L11.8538 2.64628C11.8073 2.59979 11.7522 2.56291 11.6915 2.53775C11.6308 2.51259 11.5657 2.49963 11.5 2.49963C11.4343 2.49963 11.3692 2.51259 11.3085 2.53775C11.2478 2.56291 11.1927 2.59979 11.1462 2.64628L8.64625 5.14628C8.55243 5.2401 8.49972 5.36735 8.49972 5.50003C8.49972 5.63271 8.55243 5.75996 8.64625 5.85378C8.74007 5.9476 8.86732 6.00031 9 6.00031C9.13268 6.00031 9.25993 5.9476 9.35375 5.85378L11 4.2069V9.00003C11 9.13264 11.0527 9.25981 11.1464 9.35358C11.2402 9.44735 11.3674 9.50003 11.5 9.50003C11.6326 9.50003 11.7598 9.44735 11.8536 9.35358C11.9473 9.25981 12 9.13264 12 9.00003V4.2069L13.6462 5.85378C13.6927 5.90023 13.7479 5.93708 13.8086 5.96222C13.8692 5.98737 13.9343 6.00031 14 6.00031C14.0657 6.00031 14.1308 5.98737 14.1914 5.96222C14.2521 5.93708 14.3073 5.90023 14.3538 5.85378C14.4002 5.80732 14.4371 5.75217 14.4622 5.69148C14.4873 5.63078 14.5003 5.56572 14.5003 5.50003C14.5003 5.43433 14.4873 5.36928 14.4622 5.30858C14.4371 5.24788 14.4002 5.19273 14.3538 5.14628Z"
    fill="currentColor" fill-opacity="0.88" />
</svg>