<svg xmlns="http://www.w3.org/2000/svg" xmlns:xlink="http://www.w3.org/1999/xlink" fill="none" version="1.1" width="16"
    height="16" viewBox="0 0 16 16">
    <defs>
        <clipPath id="master_svg0_1782_75453">
            <rect x="0" y="0" width="16" height="16" rx="0" />
        </clipPath>
    </defs>
    <g>
        <g clip-path="url(#master_svg0_1782_75453)">
            <g>
                <path
                    d="M12.8328125,0.6484375L2.8890625,0.6484375C2.3437495,0.6765625,1.90625,1.1171875,1.8828125,1.6640575L1.8828125,14.8359375C1.8828125,14.8468375,1.8828125,14.8562375,1.88437498,14.8672375C1.88437498,14.8718375,1.88437498,14.8765375,1.88593745,14.8828375C1.88593745,14.8875375,1.88593745,14.8937375,1.88749993,14.8984375C1.88749993,14.9047375,1.8890624,14.9109375,1.8890624,14.9172375C1.8890624,14.9218375,1.89062488,14.9250375,1.89062488,14.9296375C1.89218736,14.9359375,1.89218736,14.9437375,1.8937498,14.9500375C1.8937498,14.9531375,1.8953123,14.9562375,1.8953123,14.9609375C1.8968748,14.9672375,1.8984373,14.9750375,1.8999999,14.9812375C1.9015623,14.9843375,1.9015623,14.9875375,1.9015623,14.9906375L1.9062499,15.0093375C1.9078124,15.0125375,1.9078124,15.0171375,1.9093748,15.0203375C1.9109373,15.0265375,1.9124998,15.0328375,1.9156249,15.0375375C1.9171873,15.0421375,1.9187498,15.0453375,1.9203124,15.0500375C1.9218749,15.0546375,1.925,15.0609375,1.9265624,15.0656375L1.93125,15.0796375C1.9328125,15.0843375,1.9359375,15.0890375,1.9375,15.0937375C1.9390625,15.0984375,1.9421875,15.1047375,1.94375,15.1093375C1.9453125,15.1125375,1.946875,15.1172375,1.95,15.1203375C1.953125,15.1265375,1.9562501,15.1312375,1.9578125,15.1375375C1.959375,15.1406375,1.9609375,15.1437375,1.9640626,15.1468375C1.9671875,15.1531375,1.9703126,15.1578375,1.9734375,15.1640375C1.975,15.1671375,1.9765625,15.1703375,1.9796876,15.1734375C1.9828125,15.1796375,1.9875005,15.1843375,1.9906255,15.1906375C1.9921875,15.1937375,1.9953125,15.1968375,1.9968755,15.2000375C2.0000005,15.2062375,2.0046875,15.2109375,2.0093745,15.2171375C2.0124995,15.2203375,2.0140625,15.2234375,2.0171875,15.2265375C2.0203125,15.2312375,2.0249995,15.2359375,2.0281245,15.2406375C2.0312495,15.2453375,2.0359375,15.2484375,2.0390625,15.2531375C2.0421875,15.2562375,2.0453125,15.2609375,2.0484375,15.2640375C2.0562495,15.2718375,2.0624995,15.2796375,2.0703125,15.2875375C2.0781245,15.2953375,2.0859375,15.3015375,2.0937495,15.3093375C2.0968745,15.3125375,2.1015625,15.3156375,2.1046875,15.3187375C2.1093745,15.3218375,2.1124995,15.3265375,2.1171875,15.3296375C2.1218745,15.3343375,2.1265625,15.3375375,2.1312495,15.3406375C2.1343745,15.3437375,2.1374995,15.3453375,2.1406245,15.3484375C2.1468745,15.3531375,2.1515625,15.3562375,2.1578125,15.3609375C2.1609375,15.3625375,2.1640625,15.3656375,2.1671875,15.3671375C2.1734375,15.3703375,2.1781255,15.3750375,2.1843755,15.3781375C2.1875005,15.3796375,2.1906255,15.3812375,2.1937505,15.3843375C2.2000005,15.3875375,2.2046875,15.3906375,2.2109375,15.3937375C2.2140625,15.3953375,2.2171875,15.3968375,2.2203125,15.4000375C2.2265625,15.4031375,2.2312505,15.4062375,2.2375005,15.4078375C2.2406255,15.4093375,2.2453135,15.4109375,2.2484385,15.4140375C2.2531255,15.4171375,2.2593755,15.4187375,2.2640635,15.4203375C2.2687505,15.4218375,2.2734385,15.4250375,2.2781255,15.4265375L2.2921875,15.4312375C2.2968755,15.4328375,2.3031255,15.4359375,2.3078125,15.4375375C2.3125005,15.4390375,2.3156255,15.4406375,2.3203125,15.4421375C2.3265625,15.4437375,2.3328125,15.4468375,2.3375005,15.4484375C2.3406255,15.4500375,2.3453125,15.4500375,2.3484375,15.4515375L2.3671875,15.4562375C2.3703125,15.4578375,2.3734375,15.4578375,2.3781255,15.4593375C2.3843755,15.4609375,2.3921875,15.4625375,2.3984375,15.4640375C2.4015625,15.4640375,2.4046875,15.4656375,2.4093755,15.4656375C2.4156255,15.4671375,2.4234375,15.4687375,2.4296875,15.4687375C2.4343755,15.4687375,2.4375005,15.4703375,2.4421875,15.4703375C2.4484375,15.4718375,2.4546875,15.4718375,2.4609375,15.4718375C2.4656255,15.4718375,2.4718755,15.4734375,2.4765625,15.4734375C2.4812505,15.4734375,2.4859375,15.4750375,2.4921875,15.4750375C2.5031255,15.4750375,2.5125005,15.4765375,2.5234375,15.4765375C2.5343755,15.4765375,2.5453125,15.4765375,2.5546875,15.4750375C2.5593755,15.4750375,2.5640625,15.4750375,2.5703125,15.4734375C2.5750005,15.4734375,2.5812505,15.4734375,2.5859375,15.4718375C2.5921875,15.4718375,2.5984375,15.4703375,2.6046875,15.4703375C2.6093755,15.4703375,2.6125005,15.4687375,2.6171875,15.4687375C2.6234375,15.4672375,2.6312505,15.4672375,2.6375005,15.4656375C2.6406255,15.4656375,2.6437505,15.4640375,2.6484375,15.4640375C2.6546875,15.4625375,2.6625005,15.4609375,2.6687505,15.4593375C2.6718755,15.4578375,2.6750005,15.4578375,2.6796875,15.4562375L2.6984375,15.4515375C2.7015625,15.4500375,2.7062505,15.4500375,2.7093755,15.4484375C2.7156255,15.4468375,2.7218755,15.4453375,2.7265625,15.4421375C2.7312505,15.4406375,2.7343755,15.4390375,2.7390625,15.4375375C2.7437505,15.4359375,2.7500005,15.4328375,2.7546875,15.4312375L2.7687505,15.4265375C2.7734375,15.4250375,2.7781255,15.4218375,2.7828125,15.4203375C2.7875005,15.4187375,2.7937505,15.4156375,2.7984375,15.4140375C2.8015625,15.4125375,2.8062505,15.4109375,2.8093755,15.4078375C2.8156255,15.4046375,2.8203125,15.4015375,2.8265625,15.4000375C2.8296875,15.3984375,2.8328125,15.3968375,2.8359375,15.3937375C2.8421875,15.3906375,2.8468755,15.3875375,2.8531255,15.3843375C2.8562505,15.3828375,2.8593755,15.3812375,2.8625005,15.3781375C2.8687505,15.3750375,2.8750005,15.3703375,2.8796885,15.3671375C2.8828125,15.3656375,2.8859425,15.3625375,2.8890625,15.3609375C2.8953125,15.3578375,2.9000025000000003,15.3531375,2.9062525,15.3484375C2.9093725,15.3453375,2.9125025,15.3437375,2.9156225,15.3406375C2.9203125,15.3375375,2.9250024999999997,15.3328375,2.9312525000000003,15.3296375C2.9359425,15.3265375,2.9390625,15.3234375,2.9437525,15.3187375C2.9468725,15.3156375,2.9515625,15.3125375,2.9546925,15.3093375C2.9625025000000003,15.3031375,2.9703125,15.2953375,2.9765625,15.2875375L7.8515625,10.4124975L12.7266125,15.2875375C12.8531125,15.4140375,13.0203125,15.4765375,13.1875125,15.4750375L13.1953125,15.4750375C13.5484125,15.4750375,13.8359125,15.1890375,13.8359125,14.8343375L13.8359125,1.6765675C13.8156125,1.1249995,13.3797125,0.6796875,12.8328125,0.6484375Z"
                    fill="#009688" fill-opacity="1" />
            </g>
        </g>
    </g>
</svg>