<svg width="24" height="24" viewBox="0 0 24 24" fill="none" xmlns="http://www.w3.org/2000/svg">
<rect width="24" height="24" fill="white" fill-opacity="0.01"/>
<g clip-path="url(#clip0_111_1914)">
<g clip-path="url(#clip1_111_1914)">
<path d="M12.0096 20C8.03203 20 4.07366 20 0.0960769 20C0.0192154 20 0 20 0 19.9038C0 14.6346 0 9.36539 0 4.09615C0 4 0 4 0.0960769 4C8.03203 4 15.968 4 23.9039 4C23.9808 4 24 4 24 4.09615C24 9.36539 24 14.6538 24 19.9231C24 20 24 20.0192 23.9231 20.0192C19.9456 20.0192 15.9872 20.0192 12.0096 20.0192V20Z" fill="#DF2727"/>
<path d="M1.76782 7.26926C2.30585 7.26926 2.82467 7.26926 3.3627 7.26926C3.43956 7.26926 3.47799 7.25003 3.49721 7.17311C3.65093 6.69234 3.80465 6.2308 3.95837 5.75003C3.95837 5.71157 3.95837 5.67311 4.01602 5.63464C4.18896 6.13464 4.34268 6.63464 4.49641 7.15387C4.53484 7.25003 4.57327 7.28849 4.66934 7.28849C5.16894 7.28849 5.64933 7.28849 6.14893 7.28849H6.28343C6.28343 7.28849 6.22579 7.34618 6.18736 7.36541C5.78384 7.65387 5.3611 7.96157 4.95757 8.25003C4.89993 8.28849 4.88071 8.32695 4.91914 8.40387C5.09208 8.90387 5.2458 9.40387 5.39953 9.90387C5.39953 9.90387 5.39953 9.92311 5.41874 9.96157C5.2458 9.82695 5.07287 9.71157 4.89993 9.59618C4.63091 9.40387 4.34268 9.19234 4.07367 9.00003C4.01602 8.96157 3.99681 8.96157 3.93916 9.00003C3.53564 9.30772 3.13211 9.59618 2.72859 9.88464C2.69016 9.90387 2.67094 9.92311 2.6133 9.96157C2.65173 9.80772 2.70938 9.69234 2.74781 9.55772C2.88231 9.17311 2.99761 8.78849 3.13211 8.38464C3.15133 8.32695 3.13211 8.28849 3.09368 8.25003C2.69016 7.96157 2.28664 7.67311 1.88311 7.38464C1.84468 7.36541 1.80625 7.32695 1.78704 7.30772L1.76782 7.26926Z" fill="#EFEA3C"/>
<path d="M9.45393 7.96153C9.43472 7.80768 9.39629 7.63461 9.37707 7.48076C9.37707 7.4423 9.37707 7.42307 9.31942 7.42307C9.26178 7.42307 9.20413 7.40384 9.12727 7.38461C9.06962 7.40384 9.01198 7.38461 8.95433 7.34614C8.9159 7.34614 8.87747 7.34614 8.81982 7.30768C8.93512 7.24999 9.03119 7.1923 9.12727 7.15384C9.25537 7.08973 9.30661 6.99358 9.28099 6.86538C9.28099 6.76922 9.26178 6.65384 9.24256 6.55768C9.24256 6.55768 9.24256 6.55768 9.24256 6.53845C9.33864 6.63461 9.45393 6.73076 9.55001 6.84614C9.60765 6.90384 9.64608 6.92307 9.72295 6.88461C9.85745 6.80768 9.99196 6.74999 10.1457 6.67307C10.0688 6.84614 9.99196 6.98076 9.9151 7.11538C9.87667 7.17307 9.89588 7.1923 9.93432 7.24999C10.0304 7.32691 10.1073 7.42307 10.1841 7.49999C10.2033 7.49999 10.2225 7.49999 10.2418 7.51922C10.261 7.53845 10.2802 7.57691 10.261 7.59614C10.2418 7.63461 10.2033 7.63461 10.1841 7.59614C10.1649 7.59614 10.1457 7.55768 10.1073 7.55768C10.0688 7.55768 10.0112 7.55768 9.95353 7.53845C9.89588 7.55768 9.83824 7.53845 9.78059 7.49999C9.78059 7.49999 9.74216 7.49999 9.72295 7.49999C9.68452 7.49999 9.68452 7.51922 9.68452 7.53845C9.6653 7.61538 9.64608 7.67307 9.56922 7.71153C9.55001 7.74999 9.51158 7.76922 9.51158 7.82691C9.51158 7.86538 9.51158 7.92307 9.47315 7.96153C9.45393 7.99999 9.43472 8.01922 9.39628 7.96153H9.45393Z" fill="#EFEA3C"/>
<path d="M7.39798 5.07695C7.57092 5.15387 7.70542 5.21156 7.85915 5.26925C7.91679 5.28849 7.95522 5.26925 7.99365 5.25002C8.08973 5.13464 8.20502 5.01925 8.32032 4.90387C8.32032 5.01925 8.32032 5.13464 8.28189 5.25002C8.26267 5.46156 8.26267 5.46156 8.43561 5.53849C8.53168 5.57695 8.62776 5.61541 8.74305 5.6731C8.74305 5.6731 8.74305 5.6731 8.78149 5.6731C8.76227 5.71156 8.70462 5.71156 8.66619 5.71156C8.5509 5.75002 8.43561 5.76925 8.32032 5.78849C8.26267 5.78849 8.24346 5.82695 8.22424 5.88464C8.22424 6.00002 8.22424 6.11541 8.18581 6.23079C8.18581 6.26925 8.18581 6.30772 8.14738 6.34618C8.07052 6.21156 7.99365 6.07695 7.91679 5.94233C7.87836 5.88464 7.83993 5.86541 7.78229 5.88464C7.64778 5.9231 7.49406 5.96156 7.34033 5.98079C7.34033 5.98079 7.34033 5.98079 7.34033 5.96156C7.43641 5.84618 7.51327 5.75002 7.62856 5.63464C7.68621 5.57695 7.68621 5.51925 7.62856 5.44233C7.5517 5.32695 7.47484 5.19233 7.39798 5.03849V5.07695Z" fill="#EFEA3C"/>
<path d="M8.80053 11.2308C8.62759 11.2885 8.47387 11.3269 8.33936 11.3654C8.2625 11.3654 8.24328 11.4231 8.24328 11.5C8.24328 11.6538 8.24328 11.7885 8.22407 11.9808C8.12799 11.8461 8.05113 11.7115 7.97427 11.5961C7.93584 11.5192 7.89741 11.5 7.80133 11.5385C7.66682 11.5961 7.5131 11.6154 7.35938 11.6731C7.47467 11.5385 7.57074 11.4038 7.66682 11.2885C7.70525 11.25 7.70525 11.2115 7.66682 11.1538C7.57074 11.0192 7.49388 10.8846 7.39781 10.75C7.53231 10.7885 7.62839 10.8461 7.74368 10.8846C7.87179 10.9359 7.98067 10.9102 8.07034 10.8077C8.07034 10.8077 8.20485 10.6346 8.28171 10.5385C8.28171 10.6731 8.28171 10.8269 8.28171 10.9615C8.28171 11.0577 8.28171 11.1154 8.39701 11.1346C8.53151 11.1731 8.66602 11.2308 8.81974 11.2885L8.80053 11.2308Z" fill="#EFEA3C"/>
<path d="M9.41543 9.34613C9.41543 9.2692 9.45386 9.19228 9.45386 9.09613C9.45386 9.05766 9.49229 9.05766 9.51151 9.03843C9.49229 8.98074 9.51151 8.96151 9.54994 8.92305C9.54994 8.90382 9.54994 8.86536 9.58837 8.86536V8.90382C9.68444 8.94228 9.66523 9.03843 9.66523 9.11536C9.66523 9.11536 9.74209 9.19228 9.72288 9.2692C9.72288 9.28843 9.72288 9.30766 9.72288 9.32689C9.83817 9.42305 9.97267 9.40382 10.088 9.38459C10.1264 9.38459 10.184 9.38459 10.2225 9.38459C10.2417 9.36536 10.2801 9.34613 10.2993 9.38459C10.2993 9.42305 10.2993 9.44228 10.2609 9.48074C10.2225 9.49997 10.184 9.5192 10.1264 9.53843C10.0495 9.59613 9.93424 9.65382 9.89581 9.74997C9.85738 9.82689 9.95346 9.94228 9.97268 10.0384C9.99189 10.1154 10.0303 10.1923 10.0303 10.2692C9.91503 10.1923 9.78052 10.1154 9.66523 10.0192C9.58837 9.96151 9.54994 9.96151 9.49229 10.0192C9.377 10.1154 9.26171 10.1923 9.1272 10.3077C9.1272 10.1923 9.18484 10.0961 9.20406 10.0192C9.20406 9.98074 9.22328 9.96151 9.22328 9.92305C9.28092 9.73074 9.30014 9.78843 9.14641 9.69228C9.03112 9.61536 8.93504 9.53843 8.80054 9.46151C8.95426 9.46151 9.10798 9.46151 9.24249 9.44228C9.28092 9.44228 9.33857 9.44228 9.377 9.44228L9.41543 9.34613Z" fill="#EFEA3C"/>
<path d="M10.1458 7.55768C10.1458 7.55768 10.2226 7.55768 10.2803 7.55768C10.2803 7.51922 10.2226 7.49999 10.2226 7.46152C10.2803 7.44229 10.3379 7.46152 10.3571 7.49999C10.3763 7.53845 10.3571 7.57691 10.3187 7.59614C10.261 7.6346 10.2034 7.61537 10.165 7.55768C10.165 7.55768 10.165 7.55768 10.1458 7.53845V7.55768Z" fill="#DF2727"/>
<path d="M10.165 9.48075C10.165 9.48075 10.2803 9.38459 10.3187 9.34613C10.2995 9.3269 10.261 9.34613 10.2418 9.34613C10.2418 9.30767 10.261 9.26921 10.3187 9.28844C10.3763 9.28844 10.3379 9.34613 10.3379 9.36536C10.3379 9.49998 10.2226 9.48075 10.1458 9.49998L10.165 9.48075Z" fill="#DF2727"/>
<path d="M9.51158 9.03845C9.49237 9.13461 9.45394 9.24999 9.41551 9.34614C9.33865 9.24999 9.41551 9.17307 9.41551 9.07691C9.41551 9.03845 9.45394 9.03845 9.49237 9.03845H9.51158Z" fill="#DF2727"/>
<path d="M9.62695 7.69228C9.62695 7.69228 9.6846 7.5769 9.72303 7.51921C9.72303 7.49998 9.74225 7.46152 9.78068 7.49998C9.78068 7.53844 9.78068 7.55767 9.78068 7.59613C9.78068 7.67305 9.72303 7.73075 9.64617 7.71152L9.62695 7.69228Z" fill="#DF2727"/>
<path d="M9.45386 7.96152C9.45386 7.96152 9.5115 7.86537 9.56915 7.8269C9.60758 7.86537 9.60758 7.92306 9.56915 7.98075C9.56915 7.99998 9.54993 8.03844 9.5115 8.03844C9.47307 8.03844 9.45386 8.01921 9.45386 7.98075V7.96152Z" fill="#DF2727"/>
<path d="M9.66524 9.0769C9.66524 9.0769 9.60759 8.94228 9.58838 8.86536C9.70367 8.86536 9.72289 8.92305 9.66524 9.0769Z" fill="#DF2727"/>
<path d="M10.1266 9.32692C10.0305 9.34615 9.9152 9.32692 9.81912 9.32692C9.76148 9.32692 9.76147 9.28846 9.76147 9.25C9.87677 9.26923 10.0113 9.32692 10.1266 9.30769V9.32692Z" fill="#DF2727"/>
<path d="M9.72293 9.21152C9.72293 9.21152 9.6845 9.11537 9.66528 9.05768C9.70371 9.05768 9.74214 9.05768 9.76136 9.09614C9.76136 9.1346 9.76136 9.17306 9.72293 9.19229V9.21152Z" fill="#DF2727"/>
<path d="M8.95435 7.34613C8.95435 7.34613 9.06964 7.34613 9.12728 7.38459C9.05042 7.48075 9.01199 7.38459 8.95435 7.34613Z" fill="#DF2727"/>
<path d="M9.81909 7.5C9.81909 7.5 9.93438 7.5 9.99203 7.53846C9.91517 7.63462 9.87674 7.53846 9.81909 7.5Z" fill="#DF2727"/>
<path d="M9.55009 8.90387C9.55009 8.90387 9.55009 8.98079 9.51166 9.01925C9.43479 8.96156 9.49244 8.9231 9.55009 8.90387Z" fill="#DF2727"/>
<path d="M9.58858 8.82691C9.58858 8.82691 9.58858 8.86537 9.55015 8.8846C9.51172 8.8846 9.51172 8.84614 9.53093 8.80768C9.55015 8.78845 9.56936 8.80768 9.58858 8.80768V8.82691Z" fill="#DF2727"/>
<path d="M9.41551 9.34613C9.41551 9.34613 9.33865 9.34613 9.28101 9.34613C9.31944 9.3269 9.35787 9.34613 9.41551 9.34613Z" fill="#DF2727"/>
</g>
</g>
<defs>
<clipPath id="clip0_111_1914">
<rect width="20" height="20" fill="white" transform="translate(2 2)"/>
</clipPath>
<clipPath id="clip1_111_1914">
<rect width="24" height="16" fill="white" transform="translate(0 4)"/>
</clipPath>
</defs>
</svg>
