<svg width="24" height="24" viewBox="0 0 24 24" fill="none" xmlns="http://www.w3.org/2000/svg">
<path d="M22.9499 8.95999L18.4199 3.54999C17.7499 2.74999 16.5699 3.31999 16.5699 4.47999V5.86999H10.2399C9.4999 5.86999 8.8999 6.76999 8.8999 7.87999V13.91H16.5599V15.29C16.5599 16.44 17.7299 17.02 18.3999 16.2L22.9499 10.79C23.3699 10.29 23.3699 9.47999 22.9499 8.96999V8.95999Z" fill="#69C0FF"/>
<path d="M14.91 11.47C14.91 10.82 14.38 10.29 13.73 10.29H8.78003V14.05H14.91V11.47Z" fill="white"/>
<path fill-rule="evenodd" clip-rule="evenodd" d="M7.44011 11.35L7.44011 9.97001L7.43011 9.98001C7.43011 8.82001 6.25011 8.25001 5.58011 9.05001L1.05011 14.46C0.630107 14.97 0.630107 15.78 1.05011 16.28L5.60011 21.69C6.27011 22.51 7.44011 21.93 7.44011 20.78L7.44011 19.39H12.7901C13.5301 19.39 14.1301 18.49 14.1301 17.38V12.53C14.1301 11.88 13.6001 11.35 12.9501 11.35H7.44011Z" fill="#1890FF"/>
</svg>
