<svg width="24" height="24" viewBox="0 0 24 24" fill="none" xmlns="http://www.w3.org/2000/svg">
<path d="M11.04 21.13C11.14 20.9 11.25 20.67 11.32 20.44C11.67 19.32 11 18.11 9.89998 17.83C9.80998 17.81 9.70998 17.73 9.64998 17.65C9.40998 17.31 9.11998 17.07 8.73998 16.91C8.66998 16.88 8.58998 16.8 8.56998 16.73C8.34998 16.13 7.95998 15.72 7.36998 15.5C7.29998 15.47 7.22998 15.39 7.19998 15.32C6.70998 14.03 5.18998 13.55 4.12998 14.38C3.83998 14.61 3.58998 14.91 3.37998 15.23C3.13998 15.6 2.84998 15.76 2.41998 15.69C2.26998 15.67 2.10998 15.68 1.94998 15.69C1.61998 15.71 1.25998 15.38 1.26998 14.97C1.28998 12.63 1.26998 10.29 1.26998 7.94001C1.26998 7.47001 1.44998 7.29001 1.89998 7.29001H5.39998C5.67998 7.29001 5.76998 7.43001 5.62998 7.69001C5.41998 8.10001 5.33998 8.53001 5.41998 8.99001C5.52998 9.61001 5.88998 10.04 6.42998 10.28C7.37998 10.7 8.32998 10.69 9.24998 10.19C10.16 9.70001 11.04 9.18001 11.94 8.68001C12.16 8.55001 12.21 8.56001 12.38 8.77001C14.19 11.06 16.01 13.34 17.82 15.63C18.1 15.98 18.35 16.35 18.6 16.73C18.91 17.2 18.83 17.81 18.42 18.21C18.03 18.58 17.43 18.61 17 18.27C16.94 18.23 16.89 18.18 16.81 18.11C16.83 18.69 16.65 19.14 16.14 19.37C15.64 19.59 15.19 19.45 14.78 19.06C14.8 19.63 14.64 20.08 14.13 20.31C13.63 20.54 13.18 20.39 12.77 20C12.8 20.59 12.61 21.03 12.09 21.26C11.72 21.43 11.37 21.38 11.03 21.16L11.04 21.13Z" fill="#722ED1"/>
<path d="M22.74 10.88V14.51C22.74 14.92 22.54 15.12 22.14 15.12C21.83 15.12 21.53 15.14 21.22 15.12C20.83 15.09 20.5 15.21 20.22 15.49C20.04 15.66 20 15.65 19.85 15.45C17.63 12.64 15.4 9.82999 13.18 7.00999C12.92 6.67999 12.66 6.62999 12.29 6.83999C11.3 7.40999 10.3 7.97999 9.31004 8.53999C8.65004 8.91999 7.97004 8.98999 7.26004 8.71999C6.99004 8.61999 6.81004 8.42999 6.78004 8.12999C6.75004 7.83999 6.83004 7.58999 7.08004 7.39999C8.24004 6.49999 9.39004 5.57999 10.55 4.67999C11.71 3.77999 12.96 3.60999 14.31 4.13999C16.15 4.85999 17.99 5.58999 19.83 6.32999C20.41 6.55999 21 6.67999 21.62 6.66999C21.82 6.66999 22.02 6.66999 22.22 6.66999C22.55 6.66999 22.75 6.86999 22.75 7.20999C22.75 8.43999 22.75 9.65999 22.75 10.88H22.74ZM8.01004 20.6C7.64004 20.79 7.29004 20.8 6.94004 20.54C6.60004 20.29 6.47004 19.94 6.49004 19.5C6.08004 19.69 5.70004 19.7 5.34004 19.44C4.98004 19.18 4.85004 18.82 4.91004 18.35C4.83004 18.38 4.78004 18.39 4.73004 18.41C4.11004 18.63 3.44004 18.21 3.33004 17.54C3.29004 17.29 3.35004 17.06 3.49004 16.87C3.78004 16.48 4.07004 16.09 4.39004 15.73C4.65004 15.42 5.01004 15.36 5.38004 15.47C5.96004 15.65 6.19004 16.16 5.95004 16.73C5.93004 16.77 5.95004 16.83 5.95004 16.88C6.00004 16.88 6.05004 16.88 6.10004 16.87C6.61004 16.69 7.09004 16.87 7.32004 17.36C7.43004 17.59 7.44004 17.82 7.37004 18.07C7.32004 18.26 7.37004 18.32 7.54004 18.26C8.07004 18.07 8.70004 18.54 8.74004 19.14C8.74004 19.18 8.75004 19.21 8.76004 19.26C8.86004 19.24 8.96004 19.21 9.05004 19.19C9.43004 19.12 9.74004 19.26 9.97004 19.57C10.21 19.89 10.24 20.25 10.06 20.62C9.88004 21.01 9.65004 21.34 9.20004 21.43C8.73004 21.52 8.23004 21.22 8.07004 20.75C8.05004 20.7 8.04004 20.66 8.01004 20.6Z" fill="#B37FEB"/>
</svg>
