<svg width="24" height="24" viewBox="0 0 24 24" fill="none" xmlns="http://www.w3.org/2000/svg">
<rect width="24" height="24" fill="white" fill-opacity="0.01"/>
<mask id="mask0_111_1723" style="mask-type:luminance" maskUnits="userSpaceOnUse" x="15" y="4" width="5" height="10">
<path d="M17.9704 13.6944C17.9692 13.6502 17.9668 13.6061 17.9668 13.5619C17.9668 11.4655 17.9657 9.36911 17.9692 7.27271C17.9692 7.16504 17.9421 7.14024 17.8415 7.14085C17.193 7.14569 16.5439 7.14206 15.8948 7.14508C15.8095 7.14508 15.7812 7.12512 15.7812 7.03077C15.7848 6.2989 15.7842 5.56704 15.7812 4.83517C15.7812 4.75231 15.7971 4.72267 15.8842 4.72328C17.2242 4.7263 18.5641 4.7257 19.9041 4.72328C19.9759 4.72328 19.9994 4.74021 19.9994 4.82005C19.9977 7.37976 19.9977 9.93948 19.9977 12.4998C19.9977 12.5143 19.9959 12.5288 19.9947 12.5433C19.9818 12.5476 19.9671 12.5494 19.9553 12.5567C19.5404 12.7962 19.1267 13.0375 18.7113 13.2758C18.4653 13.4173 18.2175 13.554 17.9704 13.6932" fill="white"/>
</mask>
<g mask="url(#mask0_111_1723)">
<path d="M20.0136 4.71082H15.7683V13.7085H20.0136V4.71082Z" fill="#F9C235"/>
</g>
<mask id="mask1_111_1723" style="mask-type:luminance" maskUnits="userSpaceOnUse" x="4" y="10" width="5" height="10">
<path d="M6.04142 10.3147C6.04259 10.3625 6.04554 10.4103 6.04554 10.458C6.04554 12.5163 6.04671 14.574 6.04318 16.6323C6.04318 16.737 6.06554 16.7672 6.17029 16.7666C6.82291 16.7612 7.47553 16.7666 8.12815 16.7612C8.22995 16.7606 8.25055 16.7944 8.24996 16.8918C8.24643 17.6194 8.24643 18.3471 8.24996 19.0747C8.24996 19.1691 8.22289 19.1884 8.13697 19.1884C6.79584 19.1854 5.4553 19.186 4.11416 19.1884C4.03001 19.1884 4 19.1727 4 19.0765C4.00294 16.5737 4.00235 14.0708 4.00235 11.5679C4.00235 11.5347 4.0053 11.502 4.00706 11.4693C4.24245 11.3363 4.47784 11.2032 4.71323 11.0695C5.15576 10.8185 5.5983 10.5663 6.04142 10.3153" fill="white"/>
</mask>
<g mask="url(#mask1_111_1723)">
<path d="M8.2635 10.3008H3.98706V19.2011H8.2635V10.3008Z" fill="#F9C235"/>
</g>
<mask id="mask2_111_1723" style="mask-type:luminance" maskUnits="userSpaceOnUse" x="4" y="4" width="5" height="8">
<path d="M6.04142 10.3333C5.59888 10.5844 5.15635 10.8354 4.71382 11.0858C4.47843 11.2188 4.24304 11.3513 4.00765 11.4844C4.00588 11.4481 4.00294 11.4112 4.00294 11.3749C4.00294 9.20168 4.00353 7.02786 4 4.85464C4 4.74698 4.02825 4.72339 4.12888 4.72339C5.46177 4.72702 6.79466 4.72702 8.12815 4.72339C8.2276 4.72339 8.25055 4.75242 8.24996 4.85101C8.24584 5.5732 8.24525 6.29478 8.24996 7.01697C8.25055 7.12221 8.21818 7.14338 8.12403 7.14278C7.46847 7.13915 6.81232 7.14278 6.15676 7.13854C6.06908 7.13854 6.04377 7.16153 6.04377 7.25407C6.0473 8.23634 6.04612 9.21861 6.04554 10.2009C6.04554 10.245 6.04259 10.2886 6.04142 10.3327" fill="white"/>
</mask>
<g mask="url(#mask2_111_1723)">
<path d="M8.2635 4.71082H3.98706V11.4984H8.2635V4.71082Z" fill="#3F9682"/>
</g>
<mask id="mask3_111_1723" style="mask-type:luminance" maskUnits="userSpaceOnUse" x="15" y="12" width="5" height="8">
<path d="M17.9704 13.6431C18.2175 13.504 18.4653 13.3667 18.7113 13.2251C19.1267 12.9862 19.5404 12.7449 19.9547 12.5054C19.9665 12.4981 19.9812 12.4963 19.9941 12.4921C19.9953 12.529 19.9977 12.5659 19.9977 12.6021C19.9977 14.756 19.9971 16.9093 20 19.0631C20 19.1659 19.973 19.1877 19.8788 19.1871C18.553 19.1841 17.2271 19.1835 15.9007 19.1871C15.8024 19.1871 15.7807 19.1587 15.7813 19.0601C15.7854 18.3349 15.7854 17.6097 15.7813 16.8845C15.7813 16.7871 15.8001 16.7544 15.9007 16.7556C16.5533 16.7611 17.2054 16.7568 17.858 16.7605C17.9457 16.7605 17.9686 16.7393 17.9686 16.6462C17.9651 15.6887 17.9663 14.7318 17.9669 13.7749C17.9669 13.7308 17.9692 13.6866 17.9704 13.6425" fill="white"/>
</mask>
<g mask="url(#mask3_111_1723)">
<path d="M20.0136 12.4788H15.7683V19.2016H20.0136V12.4788Z" fill="#F18532"/>
</g>
<mask id="mask4_111_1723" style="mask-type:luminance" maskUnits="userSpaceOnUse" x="9" y="10" width="6" height="4">
<path d="M14.5626 12.2272C14.143 12.4728 13.7293 12.7147 13.315 12.9573C12.9096 13.1938 12.5035 13.429 12.0998 13.6686C12.0398 13.7042 11.9963 13.7042 11.9368 13.6686C11.1559 13.2071 10.3744 12.7474 9.59117 12.2907C9.50643 12.2411 9.51762 12.2224 9.59117 12.1764C10.3797 11.6847 11.1671 11.1905 11.9539 10.6951C11.998 10.6673 12.0298 10.6631 12.0769 10.6915C12.889 11.1923 13.7023 11.6913 14.5149 12.1903C14.5297 12.1994 14.5426 12.2115 14.5632 12.2266" fill="white"/>
</mask>
<g mask="url(#mask4_111_1723)">
<path d="M14.576 10.6582H9.51807V13.7078H14.576V10.6582Z" fill="#F18532"/>
</g>
<mask id="mask5_111_1723" style="mask-type:luminance" maskUnits="userSpaceOnUse" x="9" y="4" width="6" height="4">
<path d="M14.5626 5.55509C14.143 5.80066 13.7293 6.0426 13.315 6.28514C12.9096 6.52163 12.5035 6.75692 12.0998 6.99644C12.0398 7.03212 11.9963 7.03212 11.9368 6.99644C11.1559 6.53494 10.3744 6.07526 9.59117 5.6186C9.50643 5.569 9.51762 5.55025 9.59117 5.50428C10.3797 5.01254 11.1671 4.51838 11.9539 4.02301C11.998 3.99519 12.0298 3.99095 12.0769 4.01938C12.889 4.5202 13.7023 5.01919 14.5149 5.51819C14.5297 5.52727 14.5426 5.53936 14.5632 5.55448" fill="white"/>
</mask>
<g mask="url(#mask5_111_1723)">
<path d="M14.576 3.98608H9.51807V7.03572H14.576V3.98608Z" fill="#F9C235"/>
</g>
<mask id="mask6_111_1723" style="mask-type:luminance" maskUnits="userSpaceOnUse" x="12" y="12" width="3" height="5">
<path d="M14.6244 12.3619V12.4756C14.6244 13.3908 14.6244 14.3059 14.6256 15.221C14.6256 15.2906 14.6179 15.3426 14.5485 15.3831C13.7428 15.8507 12.9396 16.3225 12.1357 16.7924C12.1181 16.8027 12.1022 16.8215 12.0757 16.8124C12.0557 16.7803 12.0663 16.7428 12.0663 16.7078C12.0657 15.7926 12.0669 14.8775 12.0639 13.9624C12.0639 13.8813 12.0892 13.8402 12.1563 13.8009C12.9555 13.3363 13.7528 12.8682 14.5502 12.4013C14.5685 12.3904 14.5879 12.3813 14.625 12.3619" fill="white"/>
</mask>
<g mask="url(#mask6_111_1723)">
<path d="M14.6385 12.3488H12.0498V16.8289H14.6385V12.3488Z" fill="#3F9682"/>
</g>
<mask id="mask7_111_1723" style="mask-type:luminance" maskUnits="userSpaceOnUse" x="12" y="15" width="3" height="5">
<path d="M12.0645 19.9999V19.8807C12.0645 18.9662 12.0657 18.0517 12.0627 17.1371C12.0627 17.0561 12.0869 17.015 12.1545 16.9757C12.9349 16.5226 13.7134 16.0654 14.4926 15.6093C14.5296 15.5875 14.5673 15.5676 14.6032 15.5476C14.6356 15.5724 14.6226 15.6045 14.6226 15.6311C14.6232 16.5565 14.6226 17.4825 14.6238 18.4079C14.6238 18.4708 14.615 18.515 14.5538 18.5507C13.7458 19.0206 12.9396 19.4942 12.1328 19.9666C12.1151 19.9769 12.0963 19.9848 12.0645 19.9999Z" fill="white"/>
</mask>
<g mask="url(#mask7_111_1723)">
<path d="M14.6383 15.5338H12.0496V20.0139H14.6383V15.5338Z" fill="#F18532"/>
</g>
<mask id="mask8_111_1723" style="mask-type:luminance" maskUnits="userSpaceOnUse" x="9" y="12" width="3" height="5">
<path d="M9.37749 13.859C9.37749 13.4042 9.37749 12.9499 9.37749 12.4951C9.37749 12.3735 9.37808 12.3735 9.48341 12.4352C10.2655 12.8918 11.047 13.3497 11.8314 13.8033C11.9103 13.8487 11.9379 13.8989 11.9373 13.9915C11.9338 14.8969 11.935 15.8024 11.935 16.7078C11.935 16.7933 11.9011 16.8161 11.8332 16.7762C11.0511 16.3189 10.2696 15.861 9.48576 15.4074C9.40397 15.3602 9.37337 15.3094 9.37454 15.2114C9.38043 14.7608 9.3769 14.3096 9.3769 13.859" fill="white"/>
</mask>
<g mask="url(#mask8_111_1723)">
<path d="M11.9508 12.3813H9.36206V16.8288H11.9508V12.3813Z" fill="#F9C235"/>
</g>
<mask id="mask9_111_1723" style="mask-type:luminance" maskUnits="userSpaceOnUse" x="12" y="5" width="3" height="6">
<path d="M12.0645 10.1519V9.34266C12.0645 8.66281 12.0657 7.98357 12.0627 7.30372C12.0627 7.22328 12.0875 7.18215 12.1551 7.14283C12.9419 6.68859 13.7269 6.23012 14.5126 5.77346C14.6238 5.70874 14.6244 5.70934 14.6244 5.83576C14.6244 6.74908 14.6244 7.663 14.6255 8.57632C14.6255 8.63559 14.615 8.67612 14.5585 8.70878C13.7499 9.17633 12.9431 9.6475 12.1363 10.1169C12.1186 10.1271 12.0992 10.135 12.0651 10.1519" fill="white"/>
</mask>
<g mask="url(#mask9_111_1723)">
<path d="M14.6383 5.7179H12.0496V10.1653H14.6383V5.7179Z" fill="#F18532"/>
</g>
<mask id="mask10_111_1723" style="mask-type:luminance" maskUnits="userSpaceOnUse" x="9" y="15" width="3" height="5">
<path d="M9.38221 15.5471C9.74176 15.7564 10.0878 15.9578 10.4332 16.1586C10.9028 16.432 11.3724 16.7066 11.8438 16.9776C11.9109 17.0157 11.9379 17.058 11.9379 17.1397C11.935 18.053 11.935 18.9663 11.9379 19.8802C11.9379 19.9849 11.9144 19.9843 11.8361 19.9383C11.0429 19.4738 10.2484 19.0117 9.45341 18.5502C9.4028 18.5205 9.37573 18.4915 9.37573 18.4244C9.37809 17.485 9.3775 16.5463 9.3775 15.6076C9.3775 15.5931 9.37985 15.5786 9.38221 15.5471Z" fill="white"/>
</mask>
<g mask="url(#mask10_111_1723)">
<path d="M11.951 15.5338H9.3623V19.9813H11.951V15.5338Z" fill="#3F9682"/>
</g>
<mask id="mask11_111_1723" style="mask-type:luminance" maskUnits="userSpaceOnUse" x="9" y="5" width="3" height="6">
<path d="M11.9357 8.68758C11.9357 9.14666 11.9339 9.60574 11.9369 10.0648C11.9369 10.1531 11.9275 10.1767 11.841 10.1253C11.0506 9.65896 10.2586 9.19565 9.46529 8.73536C9.39644 8.69544 9.37467 8.65129 9.37526 8.57205C9.3782 7.66115 9.37702 6.75025 9.37702 5.83935C9.37702 5.71052 9.37761 5.70992 9.48412 5.77222C10.2703 6.23129 11.0554 6.69219 11.8427 7.14824C11.9157 7.19058 11.9386 7.23716 11.9375 7.32123C11.9334 7.77668 11.9357 8.23213 11.9357 8.68758Z" fill="white"/>
</mask>
<g mask="url(#mask11_111_1723)">
<path d="M11.951 5.7179H9.3623V10.1653H11.951V5.7179Z" fill="#3F9682"/>
</g>
</svg>
