<svg width="24" height="24" viewBox="0 0 24 24" fill="none" xmlns="http://www.w3.org/2000/svg">
<rect width="24" height="24" fill="white" fill-opacity="0.01"/>
<g clip-path="url(#clip0_432_2215)">
<g clip-path="url(#clip1_432_2215)">
<path d="M24.3279 20H0.115723C0.115723 20 0.154308 19.9227 0.1736 19.9034C0.54016 19.6328 0.906719 19.343 1.25399 19.0725C1.98711 18.5121 2.73952 17.9517 3.47264 17.372C4.24434 16.7729 5.03534 16.1932 5.80704 15.5942C6.73309 14.8792 7.65913 14.1836 8.60447 13.4686C9.24113 12.9855 9.87778 12.5024 10.4951 12.0193C10.5337 12 10.553 11.9807 10.5916 11.9613C10.6302 11.9613 10.6688 11.9613 10.7267 11.9613C15.2025 11.9613 19.6784 11.9613 24.1736 11.9613C24.2315 11.9613 24.2701 11.942 24.3279 12C24.3279 12.0386 24.3279 12.058 24.3279 12.0966C24.3279 14.7053 24.3279 17.314 24.3279 19.9034C24.3279 19.942 24.3279 19.9613 24.3279 20Z" fill="#C21A28"/>
<path d="M10.5916 12C10.3601 11.8067 10.1093 11.6328 9.87778 11.4396C6.63662 8.98548 3.39547 6.53137 0.1736 4.07726C0.1736 4.07726 0.135015 4.05794 0.115723 4.03862C0.115723 4.01929 0.135015 4.03862 0.154308 4.03862C0.154308 4.03862 0.192893 4.03862 0.212186 4.03862C8.21862 4.03862 16.2443 4.03862 24.2508 4.03862C24.2508 4.03862 24.2765 4.07726 24.3279 4.15456C24.3279 6.74393 24.3279 9.3333 24.3279 11.942C24.3279 11.9806 24.3279 12 24.3279 12.0386C19.7749 12.0386 15.2218 12.0386 10.6688 12.0386C10.6495 12.0386 10.6109 12.0386 10.5916 12.0386V12Z" fill="#033B95"/>
<path d="M2.43096 10.2416C2.54671 10.2222 2.62388 10.2416 2.68176 10.3382C2.81681 10.5507 2.97115 10.7633 3.1062 10.9759C3.12549 11.0145 3.14478 11.0145 3.18337 10.9759C3.27983 10.9179 3.39559 10.8599 3.51134 10.8406C3.56922 10.8406 3.56922 10.802 3.56922 10.7633C3.51134 10.5121 3.47276 10.2416 3.41488 9.99036C3.41488 9.93239 3.41488 9.89374 3.45346 9.8551C3.47276 9.8551 3.49205 9.81645 3.51134 9.7778C3.53063 9.87442 3.54993 9.97104 3.54993 10.0483C3.58851 10.2995 3.6078 10.5314 3.64639 10.7826C3.64639 10.802 3.64639 10.8213 3.68497 10.8213C3.72356 10.8213 3.72356 10.8213 3.72356 10.7826C3.72356 10.5701 3.70427 10.3382 3.68497 10.1256C3.68497 9.99036 3.68497 9.83577 3.64639 9.70051C3.64639 9.66186 3.66568 9.64254 3.68497 9.62321C3.80073 9.50727 3.80073 9.50727 3.91649 9.62321C3.95507 9.66186 3.95507 9.68118 3.95507 9.73915C3.93578 10.087 3.91649 10.4348 3.8779 10.7826C3.8779 10.802 3.85861 10.8406 3.89719 10.8406C3.93578 10.8406 3.95507 10.8406 3.95507 10.802C3.97436 10.628 3.99366 10.4735 4.01295 10.2995C4.03224 10.145 4.05153 9.99036 4.07083 9.81645C4.16729 9.8551 4.20588 9.91307 4.18658 10.0097C4.1287 10.2802 4.09012 10.5314 4.03224 10.802C4.03224 10.8406 4.03224 10.8599 4.07083 10.8792C4.18658 10.8986 4.30234 10.9565 4.3988 11.0145C4.43739 11.0338 4.45668 11.0145 4.47597 11.0145C4.63031 10.7826 4.78465 10.5701 4.9197 10.3382C4.95829 10.2802 4.99687 10.2609 5.05475 10.2609C5.07404 10.2609 5.11263 10.2609 5.13192 10.2609C5.13192 10.2802 5.13192 10.2995 5.09333 10.3189C4.90041 10.5701 4.70748 10.802 4.53385 11.0532C4.53385 11.0725 4.49526 11.0918 4.53385 11.1305C4.57243 11.1691 4.59173 11.1305 4.61102 11.1111C4.84253 10.8599 5.05475 10.6087 5.28626 10.3382C5.32485 10.2995 5.36343 10.2802 5.42131 10.2802C5.55636 10.2802 5.55636 10.2802 5.55636 10.4155C5.55636 10.4735 5.53706 10.5314 5.47919 10.5701C5.22838 10.7826 4.95829 11.0145 4.70748 11.2464C4.70748 11.2464 4.64961 11.2657 4.68819 11.3044C4.72678 11.343 4.74607 11.3044 4.76536 11.3044C4.99687 11.1305 5.24768 10.9372 5.47919 10.7633C5.49848 10.7633 5.51777 10.7247 5.55636 10.7053C5.55636 10.7633 5.55636 10.8213 5.55636 10.8599C5.55636 10.8986 5.53706 10.8986 5.51777 10.9179C5.28626 11.0725 5.05475 11.2271 4.82324 11.3623C4.78465 11.401 4.76536 11.4203 4.80395 11.459C4.86182 11.5556 4.90041 11.6715 4.93899 11.7681C4.93899 11.8068 4.95829 11.8068 4.99687 11.8068C5.26697 11.7488 5.53706 11.6908 5.80716 11.6522C5.86504 11.6522 5.90362 11.6522 5.92292 11.6908C5.92292 11.7102 5.9615 11.7295 6.00009 11.7681C5.92292 11.7681 5.84575 11.7875 5.78787 11.8068C5.51777 11.8454 5.26697 11.8841 4.99687 11.9034C4.97758 11.9034 4.93899 11.9034 4.95829 11.9421C4.95829 11.9807 4.99687 11.9807 5.01616 11.9807C5.36343 11.9614 5.72999 11.9421 6.07726 11.9034C6.11584 11.9034 6.15443 11.9034 6.19301 11.9421C6.2316 11.9807 6.28948 12.0193 6.28948 12.058C6.28948 12.0966 6.2316 12.1353 6.19301 12.1739C6.15443 12.2126 6.11584 12.2126 6.07726 12.2126C5.72999 12.1933 5.38272 12.1739 5.03546 12.1546C5.01616 12.1546 4.97758 12.1546 4.97758 12.1933C4.97758 12.2512 4.99687 12.2319 5.03546 12.2319C5.36343 12.2706 5.69141 12.3092 6.01938 12.3672C5.98079 12.4638 5.90362 12.5024 5.82645 12.4831C5.55636 12.4251 5.28626 12.3865 5.01616 12.3285C4.97758 12.3285 4.97758 12.3285 4.95829 12.3672C4.93899 12.4831 4.88112 12.5991 4.82324 12.715C4.80395 12.7536 4.82324 12.773 4.82324 12.7923C5.05475 12.9469 5.26697 13.1015 5.49848 13.2367C5.55636 13.2754 5.59494 13.314 5.57565 13.3913C5.57565 13.4107 5.57565 13.43 5.57565 13.4686C5.55636 13.4493 5.53706 13.43 5.51777 13.43C5.26697 13.2367 5.03546 13.0628 4.78465 12.8696C4.78465 12.8696 4.74607 12.8309 4.72678 12.8696C4.70748 12.8889 4.68819 12.9082 4.72678 12.9469C4.97758 13.1788 5.24768 13.3913 5.49848 13.6232C5.55636 13.6619 5.57565 13.7198 5.57565 13.7778C5.57565 13.8937 5.57565 13.8937 5.45989 13.8937C5.38272 13.8937 5.34414 13.8744 5.30555 13.8164C5.09333 13.5652 4.86182 13.314 4.64961 13.0628C4.64961 13.0628 4.63031 13.0049 4.59173 13.0242C4.55314 13.0242 4.55314 13.0628 4.59173 13.1015C4.78465 13.3527 4.97758 13.5846 5.15121 13.8358C5.15121 13.8358 5.1898 13.8744 5.1898 13.8937C5.13192 13.8937 5.09333 13.8937 5.05475 13.8937C5.01616 13.8937 5.01616 13.8744 4.99687 13.8551C4.84253 13.6232 4.68819 13.3913 4.53385 13.1594C4.51456 13.1208 4.49526 13.1208 4.45668 13.1594C4.36022 13.2174 4.24446 13.2754 4.1287 13.2947C4.09012 13.2947 4.07083 13.314 4.09012 13.3527C4.148 13.6232 4.20587 13.8937 4.26375 14.1643C4.26375 14.2029 4.26375 14.2416 4.22517 14.2609C4.20588 14.2802 4.18658 14.3189 4.148 14.3382C4.148 14.3382 4.148 14.3382 4.1287 14.3382C4.10941 14.1836 4.09012 14.029 4.07083 13.8744C4.05153 13.7005 4.03224 13.5459 4.01295 13.372C4.01295 13.3527 4.01295 13.314 3.97436 13.314C3.91649 13.314 3.93578 13.3527 3.93578 13.372C3.95507 13.7198 3.97436 14.0483 4.01295 14.3962C4.01295 14.4735 3.99366 14.5121 3.93578 14.5507C3.85861 14.628 3.85861 14.628 3.78144 14.5507C3.72356 14.4928 3.70427 14.4541 3.70427 14.3768C3.74285 14.0483 3.74285 13.7198 3.78144 13.3913C3.78144 13.372 3.78144 13.3527 3.78144 13.3334C3.76215 13.314 3.72356 13.3334 3.72356 13.372C3.68497 13.6812 3.64639 13.9904 3.6078 14.2995C3.6078 14.3189 3.6078 14.3382 3.58851 14.3768C3.54993 14.3382 3.51134 14.2995 3.49205 14.2609C3.49205 14.2609 3.49205 14.2222 3.49205 14.2029C3.54993 13.9324 3.6078 13.6619 3.66568 13.3913C3.66568 13.3334 3.66568 13.314 3.6078 13.2947C3.49205 13.2754 3.39559 13.2174 3.29912 13.1594C3.26054 13.1401 3.24124 13.1594 3.22195 13.1594C3.06761 13.3913 2.91327 13.6039 2.77822 13.8358C2.73964 13.8937 2.70105 13.9324 2.64317 13.9131C2.62388 13.9131 2.5853 13.9131 2.566 13.9131C2.566 13.8744 2.60459 13.8551 2.60459 13.8358C2.79751 13.6039 2.97115 13.3527 3.16407 13.1208C3.16407 13.1208 3.20266 13.1015 3.16407 13.0628C3.14478 13.0435 3.12549 13.0242 3.0869 13.0628C2.87469 13.2947 2.68176 13.5266 2.46954 13.7585C2.46954 13.7585 2.46954 13.7585 2.45025 13.7778C2.39237 13.8937 2.27661 13.9131 2.18015 13.8937C2.14157 13.8937 2.14157 13.8937 2.14157 13.8551C2.12227 13.7392 2.16086 13.6619 2.25732 13.6039C2.50813 13.3913 2.73964 13.1788 2.99044 12.9662C2.99044 12.9662 3.02903 12.9469 2.99044 12.9082C2.95186 12.8696 2.95186 12.9082 2.91327 12.9082C2.66247 13.1015 2.43096 13.2754 2.18015 13.4686C2.18015 13.4686 2.14157 13.4879 2.12227 13.5073C2.12227 13.4493 2.12227 13.4107 2.12227 13.3527C2.12227 13.314 2.14157 13.314 2.18015 13.2947C2.41166 13.1401 2.64317 12.9855 2.87469 12.8309C2.91327 12.8116 2.93256 12.7923 2.89398 12.7343C2.8361 12.6377 2.77822 12.5218 2.75893 12.4251C2.75893 12.3865 2.75893 12.3672 2.68176 12.3865C2.41166 12.4445 2.12227 12.5024 1.85218 12.5411C1.81359 12.5411 1.69784 12.4831 1.69784 12.4445C1.69784 12.4251 1.69784 12.4251 1.71713 12.4251C1.91005 12.4058 2.10298 12.3672 2.29591 12.3478C2.43096 12.3478 2.54671 12.3092 2.68176 12.2899C2.72034 12.2899 2.72034 12.2899 2.72034 12.2512C2.72034 12.2126 2.70105 12.2126 2.68176 12.2126C2.50813 12.2126 2.33449 12.2319 2.16086 12.2512C1.96793 12.2512 1.77501 12.2706 1.58208 12.2899C1.5435 12.2899 1.5242 12.2706 1.50491 12.2512C1.46632 12.2126 1.40845 12.1933 1.40845 12.1353C1.40845 12.0966 1.46632 12.058 1.50491 12.0193C1.5242 11.9807 1.56279 11.9807 1.62067 11.9807C1.96793 12 2.33449 12.0193 2.68176 12.0387C2.68176 12.0387 2.72034 12.0387 2.73964 12.0193C2.73964 11.9807 2.73964 11.9614 2.70105 11.9614C2.39237 11.9227 2.08369 11.8841 1.75571 11.8454H1.71713C1.71713 11.8454 1.71713 11.8261 1.73642 11.8068C1.7943 11.7488 1.83288 11.7295 1.92935 11.7488C2.18015 11.8068 2.45025 11.8454 2.72034 11.9034C2.75893 11.9034 2.77822 11.9034 2.77822 11.8648C2.79751 11.7488 2.85539 11.6329 2.91327 11.5363C2.93256 11.4976 2.91327 11.4783 2.89398 11.459C2.66247 11.3044 2.45025 11.1691 2.21874 11.0145C2.16086 10.9759 2.14157 10.9372 2.14157 10.8792C2.14157 10.8599 2.14157 10.8213 2.14157 10.802C2.18015 10.802 2.18015 10.802 2.19944 10.8406C2.45025 11.0338 2.68176 11.2078 2.93256 11.401C2.95186 11.401 2.97115 11.4396 3.00973 11.401C3.02903 11.3623 3.00973 11.3623 3.00973 11.343C2.75893 11.1305 2.50813 10.8986 2.23803 10.686C2.18015 10.6474 2.16086 10.5894 2.16086 10.5121C2.16086 10.3962 2.16086 10.3962 2.27661 10.3962C2.35378 10.3962 2.41166 10.3962 2.45025 10.4735C2.66247 10.7247 2.89398 10.9759 3.12549 11.2271C3.12549 11.2271 3.14478 11.2657 3.18337 11.2464C3.22195 11.2271 3.22195 11.2078 3.18337 11.1884C3.04832 11.0145 2.91327 10.8599 2.79751 10.686C2.72034 10.5894 2.66247 10.4928 2.5853 10.3962L2.43096 10.2416Z" fill="#F2CA29"/>
<path d="M9.20248 12.0193C9.08672 12.0773 8.95167 12.1353 8.83592 12.1932C8.79733 12.1932 8.77804 12.2319 8.77804 12.2898C8.77804 12.4638 8.77804 12.6377 8.77804 12.8116C8.75875 12.7729 8.73946 12.7343 8.72016 12.6956C8.66229 12.599 8.60441 12.4831 8.54653 12.3865C8.52724 12.3478 8.50794 12.3285 8.45007 12.3478C8.31502 12.4058 8.19926 12.4444 8.04492 12.5024C8.12209 12.3478 8.19926 12.1932 8.27643 12.058C8.31502 12 8.31502 11.942 8.27643 11.884C8.19926 11.7488 8.14138 11.6135 8.04492 11.4589C8.17997 11.5169 8.29573 11.5555 8.41148 11.6135C8.48865 11.6522 8.52724 11.6135 8.56582 11.5555C8.64299 11.4203 8.70087 11.3043 8.77804 11.1691C8.77804 11.3237 8.77804 11.4976 8.77804 11.6522C8.77804 11.7488 8.79733 11.7874 8.8745 11.8261C8.99026 11.8647 9.10602 11.9227 9.22177 11.9807C9.22177 11.9807 9.22177 11.9807 9.22177 12L9.20248 12.0193Z" fill="#F2CA29"/>
</g>
</g>
<defs>
<clipPath id="clip0_432_2215">
<rect width="20" height="20" fill="white" transform="translate(2 2)"/>
</clipPath>
<clipPath id="clip1_432_2215">
<rect width="24" height="16" fill="white" transform="translate(0 4)"/>
</clipPath>
</defs>
</svg>
