<svg width="24" height="24" viewBox="0 0 24 24" fill="none" xmlns="http://www.w3.org/2000/svg">
<rect width="24" height="24" fill="white" fill-opacity="0.01"/>
<g clip-path="url(#clip0_111_1170)">
<g clip-path="url(#clip1_111_1170)">
<path d="M23.8842 11.9999C23.8842 14.5507 23.8842 17.1014 23.8842 19.6521C23.8842 19.884 23.8263 19.942 23.5948 19.942C15.8585 19.942 8.12216 19.942 0.385825 19.942C0.154313 19.942 0.0964355 19.884 0.0964355 19.6521C0.0964355 17.1014 0.0964355 14.5507 0.0964355 11.9999C0.366532 11.7874 0.694506 11.8454 0.983895 11.8454C7.85206 11.8454 14.7395 11.8454 21.6077 11.8454C22.1479 11.8454 22.6881 11.8454 23.2283 11.8454C23.4405 11.8454 23.672 11.8454 23.8456 11.9999H23.8842Z" fill="white"/>
<path d="M23.8842 12H0.115723C0.115723 9.44929 0.115723 6.89856 0.115723 4.34784C0.115723 4.13528 0.115723 4.05798 0.385819 4.05798C8.12215 4.05798 15.8778 4.05798 23.6141 4.05798C23.8649 4.05798 23.8842 4.13528 23.8842 4.34784C23.8842 6.89856 23.8842 9.44929 23.8842 12Z" fill="#DE2F39"/>
<path d="M5.59474 5.21741C4.28284 5.75847 3.51114 6.686 3.54972 8.13528C3.58831 9.48794 4.36001 10.3382 5.57545 10.8406C4.84233 11.1691 3.6076 10.744 2.91307 9.91306C2.08349 8.92755 2.00632 7.47827 2.72014 6.39615C3.37609 5.42997 4.66869 4.8889 5.59474 5.21741Z" fill="white"/>
<path d="M5.76849 8.65698C5.84566 9.02413 6.01929 9.21737 6.38585 9.17872C6.03858 9.37196 6.05788 9.62317 6.21222 9.97099C5.88424 9.73911 5.63344 9.58452 5.36334 9.97099C5.4598 9.64249 5.4791 9.39128 5.15112 9.19805C5.51768 9.23669 5.67202 9.02413 5.76849 8.67631V8.65698Z" fill="#FDF1F0"/>
<path d="M7.67847 7.3237C8.00644 7.26573 8.27654 7.26573 8.29583 6.82129C8.45017 7.13047 8.56593 7.38168 8.95178 7.26573C8.72027 7.47829 8.54663 7.67153 8.75885 8.07733C8.41159 7.82612 8.18007 7.8068 7.94856 8.09665C7.94856 7.78747 8.14149 7.45897 7.67847 7.3237Z" fill="#FDF1F1"/>
<path d="M7.69769 8.71497C7.81345 9.02414 7.9485 9.21738 8.4501 9.12076C8.10284 9.39129 7.9485 9.60385 8.21859 9.971C7.87132 9.77777 7.62052 9.54588 7.36972 9.971C7.38901 9.66183 7.52406 9.37197 7.06104 9.2367C7.38901 9.12076 7.73628 9.15941 7.71698 8.71497H7.69769Z" fill="#FDF1F1"/>
<path d="M5.74914 7.30437C5.49834 7.49761 5.32471 7.69084 5.55622 8.03867C5.28612 7.88408 5.05461 7.78746 4.76522 8.05799C4.8038 7.72949 4.84239 7.45896 4.47583 7.32369C4.8231 7.32369 5.05461 7.22707 5.0739 6.76331C5.22824 7.14978 5.38258 7.36234 5.72985 7.32369L5.74914 7.30437Z" fill="#FDF1F1"/>
<path d="M7.13826 6.95653C6.86816 6.53141 6.59807 6.78261 6.17363 6.95653C6.57877 6.55073 6.36655 6.35749 6.01929 6.12561C6.42443 6.16426 6.65594 6.12561 6.71382 5.73914C6.82958 6.04831 7.0225 6.22223 7.46623 6.10629C7.11897 6.35749 6.90675 6.57005 7.13826 6.97585V6.95653Z" fill="#FEF8F9"/>
</g>
</g>
<defs>
<clipPath id="clip0_111_1170">
<rect width="20" height="20" fill="white" transform="translate(2 2)"/>
</clipPath>
<clipPath id="clip1_111_1170">
<rect width="24" height="16" fill="white" transform="translate(0 4)"/>
</clipPath>
</defs>
</svg>
