<svg width="24" height="24" viewBox="0 0 24 24" fill="none" xmlns="http://www.w3.org/2000/svg">
<rect width="24" height="24" fill="white" fill-opacity="0.01"/>
<g clip-path="url(#clip0_432_2659)">
<g clip-path="url(#clip1_432_2659)">
<path d="M0.115723 14.6087V9.31402C0.115723 9.31402 0.1736 9.27537 0.212186 9.27537C0.250771 9.27537 0.289356 9.27537 0.327941 9.27537C8.10286 9.27537 15.8778 9.27537 23.6527 9.27537C23.7299 9.27537 23.807 9.25605 23.8649 9.31402V14.6087C23.8649 14.6087 23.807 14.6474 23.7685 14.6474C23.7299 14.6474 23.6913 14.6474 23.6527 14.6474C15.8778 14.6474 8.10286 14.6474 0.327941 14.6474C0.250771 14.6474 0.1736 14.6667 0.115723 14.6087Z" fill="#2B2A49"/>
<path d="M0.115723 6.66665C0.115723 5.81641 0.115723 4.94685 0.115723 4.09661C0.115723 4.03864 0.115723 4.03864 0.1736 4.03864C8.04498 4.03864 15.9357 4.03864 23.807 4.03864C23.8649 4.03864 23.8649 4.03864 23.8649 4.09661C23.8649 4.94685 23.8649 5.81641 23.8649 6.66665C23.8456 6.7053 23.807 6.7053 23.7685 6.7053C23.7299 6.7053 23.6913 6.7053 23.6527 6.7053C15.8778 6.7053 8.10286 6.7053 0.327941 6.7053C0.250771 6.7053 0.1736 6.72463 0.115723 6.66665Z" fill="#9D1F30"/>
<path d="M0.115723 6.66669C0.115723 6.66669 0.1736 6.66669 0.212186 6.66669C8.08357 6.66669 15.9357 6.66669 23.807 6.66669C23.8456 6.66669 23.8649 6.66669 23.9035 6.66669V9.31403C23.9035 9.31403 23.8263 9.31403 23.807 9.31403C15.955 9.31403 8.10286 9.31403 0.231478 9.31403C0.192893 9.31403 0.154308 9.31403 0.135015 9.31403C0.135015 8.42514 0.135015 7.55558 0.135015 6.66669H0.115723Z" fill="#F4F5F8"/>
<path d="M0.115723 14.6087C0.115723 14.6087 0.192893 14.6087 0.212186 14.6087C8.06428 14.6087 15.9164 14.6087 23.7878 14.6087C23.8263 14.6087 23.8649 14.6087 23.8842 14.6087V17.256C23.8842 17.256 23.8263 17.2947 23.7878 17.2947C23.7492 17.2947 23.7106 17.2947 23.672 17.2947C15.8971 17.2947 8.12215 17.2947 0.347234 17.2947C0.270064 17.2947 0.192893 17.314 0.135015 17.256C0.135015 16.3672 0.135015 15.4976 0.135015 14.6087H0.115723Z" fill="#F4F5F8"/>
<path d="M0.115723 17.256C0.115723 17.256 0.1736 17.256 0.212186 17.256C8.08357 17.256 15.9357 17.256 23.807 17.256C23.8456 17.256 23.8649 17.256 23.9035 17.256C23.9035 18.1063 23.9035 18.9565 23.9035 19.8067C23.9035 19.884 23.9035 19.884 23.8263 19.884C15.9357 19.884 8.02569 19.884 0.135015 19.884C0.135015 18.9951 0.135015 18.1256 0.135015 17.2367L0.115723 17.256Z" fill="#9D1F30"/>
</g>
</g>
<defs>
<clipPath id="clip0_432_2659">
<rect width="20" height="20" fill="white" transform="translate(2 2)"/>
</clipPath>
<clipPath id="clip1_432_2659">
<rect width="24" height="16" fill="white" transform="translate(0 4)"/>
</clipPath>
</defs>
</svg>
