<svg width="24" height="24" viewBox="0 0 24 24" fill="none" xmlns="http://www.w3.org/2000/svg">
<g clip-path="url(#clip0_93_75206)">
<rect width="24" height="24" fill="white" fill-opacity="0.01"/>
<g clip-path="url(#clip1_93_75206)">
<path d="M2 4V18.5H21V11.5L17.5 8.12L17 4H2Z" fill="#EEF6F4"/>
<path d="M21 19.5H2C1.45 19.5 1 19.05 1 18.5V4C1 3.45 1.45 3 2 3H17C17.51 3 17.93 3.38 17.99 3.88L18.45 7.64L21.7 10.78C21.89 10.97 22 11.23 22 11.5V18.5C22 19.05 21.55 19.5 21 19.5ZM3 17.5H20V11.92L16.8 8.83C16.63 8.67 16.53 8.46 16.5 8.23L16.11 4.99H3V17.5Z" fill="#009688"/>
<path fill-rule="evenodd" clip-rule="evenodd" d="M3.70001 8.19995V9.61995H4.79001V13.8H6.22001V9.61995H7.30001V8.19995H3.70001ZM16.12 11.29C16 11.08 15.86 10.91 15.7 10.76C15.55 10.62 15.37 10.49 15.18 10.38L15.09 10.33C14.96 10.25 14.84 10.18 14.72 10.11L14.72 10.11C14.63 10.05 14.5 9.95995 14.42 9.87995C14.36 9.81995 14.36 9.76995 14.38 9.66995C14.47 9.60995 14.86 9.58995 15.14 9.66995C15.31 9.71995 15.4 9.75995 15.44 9.78995L15.75 9.98995L16.27 8.62995L16.03 8.50995C15.85 8.41995 15.65 8.34995 15.4 8.29995C14.96 8.20995 14.42 8.18995 13.95 8.29995C13.72 8.35995 13.53 8.44995 13.37 8.57995C13.2 8.70995 13.06 8.87995 12.96 9.08995C12.86 9.29995 12.81 9.53995 12.81 9.80995C12.81 10.11 12.87 10.37 12.99 10.61C13.11 10.82 13.25 10.99 13.41 11.13C13.55 11.26 13.71 11.37 13.93 11.5L14.04 11.57L14.04 11.57C14.16 11.64 14.28 11.71 14.39 11.78L14.4187 11.7999C14.5122 11.8651 14.6175 11.9384 14.69 12.02C14.73 12.07 14.75 12.12 14.75 12.19C14.75 12.28 14.75 12.43 14.29 12.43C14.11 12.43 13.96 12.41 13.83 12.36C13.67 12.31 13.54 12.26 13.45 12.21L13.15 12.05L12.62 13.39L12.85 13.52C13.01 13.6 13.21 13.67 13.46 13.73C13.73 13.79 14.02 13.82 14.35 13.82C14.63 13.82 14.88 13.78 15.11 13.72C15.35 13.65 15.56 13.54 15.72 13.4C15.9 13.26 16.05 13.07 16.15 12.83C16.24 12.6 16.29 12.36 16.29 12.08C16.29 11.8 16.23 11.54 16.11 11.3L16.12 11.29ZM10.03 10.33L10.97 8.19995H12.3V13.8H10.82V11.78L10.32 12.88H9.65001L9.13001 11.78V13.8H7.70001V8.19995H9.03001L10.03 10.33Z" fill="#FA8C16"/>
<path d="M6 20.5C7.10457 20.5 8 19.6046 8 18.5C8 17.3954 7.10457 16.5 6 16.5C4.89543 16.5 4 17.3954 4 18.5C4 19.6046 4.89543 20.5 6 20.5Z" fill="#EEF6F4"/>
<path d="M6 21.5C4.35 21.5 3 20.15 3 18.5C3 16.85 4.35 15.5 6 15.5C7.65 15.5 9 16.85 9 18.5C9 20.15 7.65 21.5 6 21.5ZM6 17.5C5.45 17.5 5 17.95 5 18.5C5 19.05 5.45 19.5 6 19.5C6.55 19.5 7 19.05 7 18.5C7 17.95 6.55 17.5 6 17.5Z" fill="#009688"/>
<path d="M16 20.5C17.1046 20.5 18 19.6046 18 18.5C18 17.3954 17.1046 16.5 16 16.5C14.8954 16.5 14 17.3954 14 18.5C14 19.6046 14.8954 20.5 16 20.5Z" fill="#EEF6F4"/>
<path d="M16 21.5C14.35 21.5 13 20.15 13 18.5C13 16.85 14.35 15.5 16 15.5C17.65 15.5 19 16.85 19 18.5C19 20.15 17.65 21.5 16 21.5ZM16 17.5C15.45 17.5 15 17.95 15 18.5C15 19.05 15.45 19.5 16 19.5C16.55 19.5 17 19.05 17 18.5C17 17.95 16.55 17.5 16 17.5Z" fill="#009688"/>
</g>
</g>
<defs>
<clipPath id="clip0_93_75206">
<rect width="24" height="24" fill="white"/>
</clipPath>
<clipPath id="clip1_93_75206">
<rect width="21" height="18.5" fill="white" transform="translate(1 3)"/>
</clipPath>
</defs>
</svg>
