<svg width="24" height="24" viewBox="0 0 24 24" fill="none" xmlns="http://www.w3.org/2000/svg">
<path fill-rule="evenodd" clip-rule="evenodd" d="M10.3299 20.13C10.4199 20.3 10.5699 20.37 10.8199 20.37H11.5399C11.8299 18.66 14.1899 18.66 14.4799 20.37H15.9099C16.5799 20.37 16.5799 20.21 16.5799 19.58V15.26C16.5799 14.3177 16.6309 13.9167 16.4568 13.7478C16.3039 13.5994 15.9773 13.63 15.2899 13.63H10.9699C10.3299 13.63 10.2899 13.76 10.2899 14.38V18.72C10.2899 18.7773 10.2876 18.8661 10.285 18.9721C10.275 19.3657 10.259 19.9961 10.3299 20.13ZM7.1499 13.96H9.1899V15.71H7.1499V13.96ZM20.2199 19.87C19.5899 18.74 17.7799 18.81 17.4499 20.38C17.1299 20.38 17.0299 20.15 17.0299 19.84V15.96C17.0299 15.63 17.0899 15.4 17.3899 15.35H19.3299C19.6308 15.3586 19.7543 15.5076 19.8784 15.6573C19.8986 15.6817 19.9189 15.7061 19.9399 15.73C19.9819 15.778 20.0239 15.8368 20.0659 15.8956L20.0659 15.8956C20.0939 15.9348 20.1219 15.974 20.1499 16.01C20.2223 16.1108 20.3114 16.2276 20.4066 16.3526L20.4066 16.3526C20.6798 16.711 21.0038 17.136 21.1299 17.44C21.2589 17.7464 21.2449 18.443 21.2346 18.9529V18.9529V18.953V18.953V18.9531C21.2321 19.0755 21.2299 19.1871 21.2299 19.28C21.2299 19.3678 21.2315 19.4512 21.2331 19.5298C21.2454 20.15 21.2518 20.4776 20.3999 20.38C20.3663 20.3002 20.3486 20.2328 20.3312 20.1666L20.3312 20.1666C20.3071 20.0752 20.2837 19.986 20.2199 19.87ZM13.2399 21.53C13.6899 21.43 14.1099 20.95 13.9699 20.37H13.9599C13.8499 19.92 13.3899 19.49 12.7999 19.64C12.3499 19.76 11.9399 20.21 12.0799 20.81C12.1899 21.26 12.6499 21.66 13.2399 21.53ZM19.8699 20.48C19.9199 21.05 19.5099 21.49 18.9999 21.54C18.4299 21.59 17.9899 21.17 17.9399 20.66C17.8899 20.08 18.3199 19.67 18.8299 19.62C19.3799 19.57 19.8199 20 19.8699 20.49V20.48ZM7.1499 16.33H9.1899V18.09H7.1499V16.33Z" fill="#FFC069"/>
<path d="M2.82007 6.94999V21.55H6.17007V9.62999H17.8501V12H21.2001V6.99999C21.2001 6.81999 20.8501 6.71999 20.7101 6.65999L19.8401 6.24999C19.7201 6.19999 19.6601 6.14999 19.5401 6.09999C19.3201 5.99999 19.1701 5.92999 18.9501 5.82999C17.8901 5.35999 16.5401 4.63999 15.4801 4.18999L12.2701 2.66999C11.7001 2.38999 11.8301 2.38999 11.3901 2.58999L8.52007 4.03999C8.33007 4.13999 8.14007 4.20999 7.94007 4.31999L3.35007 6.61999C3.23007 6.67999 2.82007 6.78999 2.82007 6.95999V6.94999Z" fill="#F7931E"/>
</svg>
