<svg width="24" height="24" viewBox="0 0 24 24" fill="none" xmlns="http://www.w3.org/2000/svg">
<g clip-path="url(#clip0_93_75227)">
<rect width="24" height="24" fill="white" fill-opacity="0.01"/>
<path d="M20.0031 21.35H5.00308L4.00308 7.84998L12.0031 3.84998L20.0031 7.84998V21.35Z" fill="#EEF6F4"/>
<path d="M15.5031 13.35C14.9531 13.35 14.5031 12.9 14.5031 12.35V10.35H10.0031V12.35C10.0031 12.9 9.55308 13.35 9.00308 13.35C8.45308 13.35 8.00308 12.9 8.00308 12.35V9.34998C8.00308 8.79998 8.45308 8.34998 9.00308 8.34998H15.5031C16.0531 8.34998 16.5031 8.79998 16.5031 9.34998V12.35C16.5031 12.9 16.0531 13.35 15.5031 13.35Z" fill="#009688"/>
<path d="M5.50309 21.35H4.00309C3.45309 21.35 3.00309 20.9 3.00309 20.35V9.21998L2.95309 9.24998C2.45309 9.49998 1.85309 9.29998 1.61309 8.79998C1.36309 8.30998 1.56309 7.70998 2.06309 7.45998L3.54309 6.71998C3.54309 6.71998 3.54309 6.71998 3.55309 6.71998L11.5331 2.46998C11.8231 2.30998 12.1831 2.30998 12.4731 2.46998L20.4531 6.70998C20.4531 6.70998 20.4531 6.70998 20.4631 6.70998L21.9431 7.44998C22.4331 7.69998 22.6331 8.29998 22.3931 8.78998C22.1531 9.27998 21.5431 9.47998 21.0531 9.23998L21.0031 9.20998V12.34C21.0031 12.89 20.5531 13.34 20.0031 13.34C19.4531 13.34 19.0031 12.89 19.0031 12.34V8.19998L12.0031 4.47998L5.00309 8.19998V19.35H5.50309C6.05309 19.35 6.50309 19.8 6.50309 20.35C6.50309 20.9 6.05309 21.35 5.50309 21.35Z" fill="#009688"/>
<path d="M22.1331 18.74C22.0131 18.49 21.8831 18.29 21.7231 18.12C21.5731 17.95 21.4031 17.8 21.2031 17.66L21.1131 17.6C20.9831 17.51 20.8531 17.42 20.7431 17.33C20.6031 17.22 20.5031 17.13 20.4331 17.05C20.3831 16.98 20.3531 16.9 20.3531 16.82C20.3531 16.75 20.3731 16.69 20.3931 16.67C20.5331 16.56 20.8831 16.59 21.1131 16.67C21.2831 16.72 21.3631 16.78 21.4031 16.81L21.7431 17.07L22.2331 15.52L22.0331 15.4C21.8531 15.29 21.6431 15.21 21.4031 15.15C20.9531 15.04 20.4031 15.01 19.9231 15.15C19.6931 15.23 19.4931 15.34 19.3331 15.49C19.1631 15.64 19.0331 15.85 18.9331 16.08C18.8431 16.31 18.7931 16.59 18.7931 16.91C18.7931 17.25 18.8531 17.55 18.9631 17.81C19.0831 18.05 19.2131 18.25 19.3731 18.42C19.5131 18.57 19.6731 18.71 19.8931 18.87L20.0231 18.96C20.1431 19.04 20.2531 19.12 20.3531 19.2C20.4631 19.28 20.5731 19.38 20.6631 19.49C20.7131 19.56 20.7431 19.65 20.7431 19.76C20.7431 19.95 20.7131 20.1 20.2831 20.1C20.1031 20.1 19.9631 20.08 19.8331 20.02C19.6731 19.96 19.5531 19.9 19.4631 19.84L19.1331 19.63L18.6231 21.15L18.8131 21.28C18.9731 21.38 19.1731 21.47 19.4331 21.54C19.7031 21.61 20.0031 21.65 20.3331 21.65C20.6131 21.65 20.8731 21.61 21.1031 21.52C21.3431 21.43 21.5531 21.3 21.7231 21.14C21.9031 20.98 22.0431 20.76 22.1431 20.48C22.2331 20.22 22.2731 19.94 22.2731 19.62C22.2731 19.3 22.2231 19.01 22.1031 18.74H22.1331Z" fill="#FA8C16"/>
<path d="M16.7631 15.0499L15.5431 17.7099L14.2431 15.0499H12.7031V21.6499H14.3431L14.3331 18.9699L15.1231 20.5499H15.8531L16.6031 18.9499V21.6499H18.3031V15.0499H16.7631Z" fill="#FA8C16"/>
<path d="M10.8531 15.0499L10.5531 17.3299L10.1131 15.0599H9.0131L8.5531 17.3699L8.2231 15.0599H6.6431L7.8431 21.6499H8.9831L9.5231 19.0499L10.0531 21.6499H11.1631L12.3631 15.0499H10.8531Z" fill="#FA8C16"/>
</g>
<defs>
<clipPath id="clip0_93_75227">
<rect width="24" height="24" fill="white"/>
</clipPath>
</defs>
</svg>
