<svg xmlns="http://www.w3.org/2000/svg" xmlns:xlink="http://www.w3.org/1999/xlink" fill="none" version="1.1" width="16"
    height="16" viewBox="0 0 16 16">
    <defs>
        <clipPath id="master_svg0_1782_76540">
            <rect x="0" y="0" width="16" height="16" rx="0" />
        </clipPath>
    </defs>
    <g clip-path="url(#master_svg0_1782_76540)">
        <g>
            <path
                d="M13,1C13,1,3,1,3,1C2.723437,1,2.5,1.223437,2.5,1.5C2.5,1.5,2.5,9.76562,2.5,9.76562C2.5,9.75625,2.50625,9.75,2.515625,9.75C2.515625,9.75,5.94219,9.75,5.94219,9.75C5.94219,9.75,6.02344,10.13594,6.02344,10.13594C6.2125,11.0703,7.04375,11.75,8,11.75C8.95625,11.75,9.7875,11.0703,9.975,10.13594C9.975,10.13594,10.05625,9.75,10.05625,9.75C10.05625,9.75,13.4844,9.75,13.4844,9.75C13.4938,9.75,13.5,9.75625,13.5,9.76562C13.5,9.76562,13.5,1.5,13.5,1.5C13.5,1.223437,13.2766,1,13,1ZM11.125,7.70312C11.125,7.77187,11.06875,7.82812,11,7.82812C11,7.82812,5,7.82812,5,7.82812C4.93125,7.82812,4.875,7.77187,4.875,7.70312C4.875,7.70312,4.875,6.95312,4.875,6.95312C4.875,6.88438,4.93125,6.82812,5,6.82812C5,6.82812,11,6.82812,11,6.82812C11.06875,6.82812,11.125,6.88438,11.125,6.95312C11.125,6.95312,11.125,7.70312,11.125,7.70312ZM11.125,5.20312C11.125,5.27188,11.06875,5.32812,11,5.32812C11,5.32812,5,5.32812,5,5.32812C4.93125,5.32812,4.875,5.27188,4.875,5.20312C4.875,5.20312,4.875,4.45312,4.875,4.45312C4.875,4.38438,4.93125,4.32812,5,4.32812C5,4.32812,11,4.32812,11,4.32812C11.06875,4.32812,11.125,4.38438,11.125,4.45312C11.125,4.45312,11.125,5.20312,11.125,5.20312ZM13.4844,10.73438C13.4844,10.73438,10.84531,10.73438,10.84531,10.73438C10.66406,11.2469,10.34531,11.7078,9.92188,12.0578C9.38281,12.5047,8.7,12.75,8,12.75C7.3,12.75,6.61719,12.5031,6.07812,12.0578C5.65639,11.7082,5.33727,11.2509,5.15469,10.73438C5.15469,10.73438,2.515625,10.73438,2.515625,10.73438C2.50625,10.73438,2.5,10.72813,2.5,10.71875C2.5,10.71875,2.5,14.5,2.5,14.5C2.5,14.7766,2.723437,15,3,15C3,15,13,15,13,15C13.2766,15,13.5,14.7766,13.5,14.5C13.5,14.5,13.5,10.71875,13.5,10.71875C13.5,10.72813,13.4938,10.73438,13.4844,10.73438Z"
                fill="#F28532" fill-opacity="1" />
        </g>
    </g>
</svg>