<svg width="24" height="24" viewBox="0 0 24 24" fill="currentColor" xmlns="http://www.w3.org/2000/svg">
  <g id="&#232;&#138;&#130;&#231;&#130;&#185;&#229;&#136;&#134;&#231;&#177;&#187;">
    <path id="Vector"
      d="M21 21.2222C21 21.4285 20.921 21.6263 20.7803 21.7722C20.6397 21.9181 20.4489 22 20.25 22H3.75C3.55109 22 3.36032 21.9181 3.21967 21.7722C3.07902 21.6263 3 21.4285 3 21.2222C3 21.0159 3.07902 20.8181 3.21967 20.6723C3.36032 20.5264 3.55109 20.4444 3.75 20.4444H20.25C20.4489 20.4444 20.6397 20.5264 20.7803 20.6723C20.921 20.8181 21 21.0159 21 21.2222ZM19.5 11.8889H14.2097L15.6825 4.76347C15.7763 4.30992 15.7711 3.84036 15.6673 3.38916C15.5635 2.93796 15.3637 2.51654 15.0826 2.15575C14.8015 1.79495 14.4461 1.50392 14.0425 1.30395C13.6389 1.10397 13.1973 1.00012 12.75 1H11.25C10.8027 1.00012 10.3611 1.10397 9.9575 1.30395C9.5539 1.50392 9.19853 1.79495 8.9174 2.15575C8.63627 2.51654 8.4365 2.93796 8.3327 3.38916C8.2289 3.84036 8.22371 4.30992 8.3175 4.76347L9.79031 11.8889H4.5C4.10218 11.8889 3.72064 12.0528 3.43934 12.3445C3.15804 12.6362 3 13.0319 3 13.4444V17.3333C3 17.7459 3.15804 18.1416 3.43934 18.4333C3.72064 18.725 4.10218 18.8889 4.5 18.8889H19.5C19.8978 18.8889 20.2794 18.725 20.5607 18.4333C20.842 18.1416 21 17.7459 21 17.3333V13.4444C21 13.0319 20.842 12.6362 20.5607 12.3445C20.2794 12.0528 19.8978 11.8889 19.5 11.8889Z"
      fill="currentColor" />
  </g>
</svg>