<svg width="24" height="24" viewBox="0 0 24 24" fill="currentColor" xmlns="http://www.w3.org/2000/svg">
  <g id="&#232;&#138;&#130;&#231;&#130;&#185;&#229;&#136;&#134;&#231;&#177;&#187;">
    <path id="Vector"
      d="M1 19.3346C1.00035 20.0204 1.19297 20.6924 1.55599 21.2742C1.91901 21.856 2.43789 22.3244 3.05369 22.6261C3.66949 22.9278 4.35753 23.0507 5.03968 22.981C5.72184 22.9112 6.37076 22.6515 6.91276 22.2314C7.45476 21.8113 7.86811 21.2476 8.10586 20.6043C8.34362 19.961 8.39626 19.2639 8.25781 18.5922C8.11935 17.9205 7.79534 17.3011 7.32259 16.8043C6.84983 16.3076 6.24727 15.9533 5.58333 15.7819L5.58333 13.8336C5.58333 13.5905 5.67991 13.3573 5.85182 13.1853C6.02372 13.0134 6.25688 12.9168 6.5 12.9168L17.5 12.9168C17.7431 12.9168 17.9763 13.0134 18.1482 13.1854C18.3201 13.3573 18.4167 13.5905 18.4167 13.8336L18.4167 15.7819C17.5526 16.005 16.7995 16.5357 16.2986 17.2745C15.7977 18.0132 15.5834 18.9093 15.6959 19.7948C15.8083 20.6803 16.2398 21.4943 16.9094 22.0844C17.5791 22.6745 18.4409 23 19.3333 23C20.2258 23 21.0876 22.6745 21.7572 22.0844C22.4268 21.4943 22.8583 20.6803 22.9708 19.7948C23.0832 18.9093 22.8689 18.0132 22.368 17.2745C21.8672 16.5357 21.1141 16.005 20.25 15.7819L20.25 13.8336C20.25 13.1042 19.9603 12.4046 19.4445 11.8888C18.9288 11.373 18.2293 11.0832 17.5 11.0832L12.9167 11.0832L12.9167 8.21811C13.7808 7.99497 14.5338 7.46428 15.0347 6.72552C15.5356 5.98677 15.7499 5.09067 15.6374 4.20519C15.525 3.31971 15.0935 2.50565 14.4239 1.91559C13.7542 1.32554 12.8924 0.999999 12 0.999999C11.1076 0.999999 10.2457 1.32554 9.57612 1.91559C8.90649 2.50565 8.47501 3.31971 8.36256 4.20519C8.2501 5.09067 8.4644 5.98677 8.96528 6.72552C9.46616 7.46428 10.2192 7.99497 11.0833 8.21811L11.0833 11.0832L6.5 11.0832C5.77065 11.0832 5.07118 11.373 4.55546 11.8888C4.03973 12.4046 3.75 13.1042 3.75 13.8336L3.75 15.7819C2.9632 15.9863 2.26642 16.4459 1.76878 17.0888C1.27115 17.7317 1.00077 18.5215 1 19.3346ZM10.1667 4.66543C10.1667 4.30277 10.2742 3.94826 10.4756 3.64672C10.6771 3.34518 10.9634 3.11016 11.2984 2.97137C11.6334 2.83259 12.002 2.79628 12.3577 2.86703C12.7133 2.93778 13.04 3.11241 13.2964 3.36885C13.5528 3.62529 13.7274 3.95202 13.7981 4.30771C13.8688 4.6634 13.8325 5.03208 13.6938 5.36714C13.555 5.70219 13.32 5.98857 13.0185 6.19005C12.7171 6.39153 12.3626 6.49908 12 6.49908C11.5138 6.49908 11.0475 6.30589 10.7036 5.96201C10.3598 5.61814 10.1667 5.15175 10.1667 4.66543Z"
      fill="currentColor" />
  </g>
</svg>