<svg width="24" height="24" viewBox="0 0 24 24" fill="currentColor" xmlns="http://www.w3.org/2000/svg">
  <g id="&#232;&#138;&#130;&#231;&#130;&#185;&#229;&#136;&#134;&#231;&#177;&#187;">
    <path id="Vector"
      d="M5.16559 5.88889C5.16559 4.59227 5.66607 3.34877 6.55692 2.43192C7.44778 1.51508 8.65605 1 9.91591 1C11.1758 1 12.384 1.51508 13.2749 2.43192C14.1658 3.34877 14.6662 4.59227 14.6662 5.88889C14.6662 6.10499 14.5828 6.31224 14.4343 6.46505C14.2859 6.61786 14.0845 6.7037 13.8745 6.7037C13.6645 6.7037 13.4632 6.61786 13.3147 6.46505C13.1662 6.31224 13.0828 6.10499 13.0828 5.88889C13.0828 5.02448 12.7491 4.19547 12.1552 3.58424C11.5613 2.97301 10.7558 2.62963 9.91591 2.62963C9.076 2.62963 8.27049 2.97301 7.67659 3.58424C7.08268 4.19547 6.74903 5.02448 6.74903 5.88889C6.74903 6.10499 6.66562 6.31224 6.51714 6.46505C6.36866 6.61786 6.16729 6.7037 5.95731 6.7037C5.74733 6.7037 5.54595 6.61786 5.39748 6.46505C5.249 6.31224 5.16559 6.10499 5.16559 5.88889ZM19.3404 11.5926C18.4883 11.6333 17.8331 12.3891 17.8331 13.266V14.0075C17.8359 14.2178 17.7612 14.4213 17.624 14.5772C17.4869 14.7331 17.2974 14.8298 17.0938 14.8478C16.9855 14.8552 16.8769 14.8396 16.7747 14.802C16.6725 14.7643 16.579 14.7055 16.4998 14.6291C16.4206 14.5527 16.3576 14.4603 16.3145 14.3578C16.2715 14.2552 16.2494 14.1447 16.2497 14.033V11.6384C16.2497 10.7615 15.5945 10.0088 14.7424 9.965C14.5283 9.95438 14.3144 9.98861 14.1135 10.0656C13.9127 10.1426 13.7291 10.2608 13.5739 10.413C13.4187 10.5651 13.2952 10.7482 13.2108 10.9509C13.1263 11.1537 13.0828 11.372 13.0828 11.5926V13.1947C13.0855 13.405 13.0108 13.6086 12.8737 13.7644C12.7365 13.9203 12.5471 14.017 12.3435 14.035C12.2352 14.0424 12.1266 14.0268 12.0244 13.9892C11.9222 13.9516 11.8286 13.8927 11.7495 13.8163C11.6703 13.7399 11.6072 13.6475 11.5642 13.545C11.5212 13.4424 11.4991 13.3319 11.4994 13.2202V5.93472C11.4994 5.05778 10.8442 4.30509 9.99211 4.2613C9.77802 4.25068 9.56406 4.28491 9.36319 4.36191C9.16233 4.43891 8.97875 4.55708 8.82358 4.70926C8.6684 4.86144 8.54486 5.04446 8.46044 5.24723C8.37603 5.45 8.33249 5.66829 8.33247 5.88889V18.0846C8.33488 18.2817 8.26941 18.4733 8.14768 18.6254C8.02594 18.7775 7.85581 18.8804 7.66742 18.9157H7.65555C7.53745 18.9294 7.41807 18.9068 7.31242 18.8508C7.20677 18.7948 7.11956 18.7079 7.06176 18.601L4.98349 14.8895C4.55794 14.1297 3.62371 13.813 2.86564 14.2153C2.67408 14.3155 2.50436 14.4549 2.36681 14.6248C2.22926 14.7948 2.12677 14.9917 2.06556 15.2038C2.00436 15.4158 1.98574 15.6384 2.01082 15.8581C2.03591 16.0777 2.10418 16.2898 2.21148 16.4815L5.27445 22.5977C5.34432 22.7202 5.4441 22.8218 5.56388 22.8923C5.68366 22.9629 5.81929 23 5.95731 23H19.4166C19.5636 23.0001 19.7078 22.958 19.833 22.8785C19.9582 22.799 20.0593 22.6852 20.1251 22.5498C20.1608 22.4765 21 21.0159 21 18.4095V13.2222C21.0002 13.0015 20.9569 12.7829 20.8726 12.5799C20.7883 12.3769 20.6648 12.1937 20.5096 12.0413C20.3544 11.8889 20.1707 11.7705 19.9697 11.6934C19.7687 11.6163 19.5546 11.582 19.3404 11.5926Z"
      fill="currentColor" />
  </g>
</svg>