<svg xmlns="http://www.w3.org/2000/svg" xmlns:xlink="http://www.w3.org/1999/xlink" height="33.29361286133093"
  width="34.570979611822054">
  <g opacity="1">
    <g opacity="1">
      <g opacity="1">
        <g opacity="1">
          <g opacity="1">
            <path fill="rgb(253,198,56)" fill-opacity="1" opacity="1" fill-rule="evenodd"
              d="M34.415531308642244 1.6806522846484313L25.674275562392477 1.6806522846484313C25.587513718757243 1.6806522846484313 25.518827259212685 1.7496207369342236 25.518827259212685 1.8367387819268035L25.518827259212685 6.591932071105126C25.518827259212685 6.679050116097705 25.587513718757243 6.748018568383499 25.674275562392477 6.748018568383499L30.203966815515287 6.748018568383499L30.218427122787826 20.487260247421624L34.5565193045495 18.076994335960247L34.567364535003904 1.8367387819268035C34.57097961182204 1.7496207369342236 34.502293152277474 1.6806522846484313 34.415531308642244 1.6806522846484313L34.415531308642244 1.6806522846484313Z" />
          </g>
          <g opacity="1">
            <path fill="rgb(255,126,0)" fill-opacity="1" opacity="1" fill-rule="evenodd"
              d="M34.560134381367774 18.076994335960308L30.222042199606133 20.487260247421688L30.222042199606133 27.010223866241116L25.515212182394748 27.010223866241116L25.515212182394748 32.11388933538976L34.560134381367774 32.11388933538976L34.560134381367774 18.076994335960308Z" />
          </g>
        </g>
        <g opacity="1">
          <g opacity="1">
            <path fill="rgb(0,150,136)" fill-opacity="1" opacity="1" fill-rule="evenodd"
              d="M0.15544830317979147 1.6806522846484313L8.896704049429461 1.6806522846484313C8.983465893064695 1.6806522846484313 9.052152352609253 1.7496207369342238 9.052152352609253 1.8367387819268035L9.052152352609253 6.591932071105125C9.052152352609253 6.679050116097704 8.983465893064695 6.748018568383498 8.896704049429461 6.748018568383498L4.3670127963067 6.748018568383498L4.352552489034161 15.91356288531118L0.01446030727253839 18.076994335960247L0 1.8367387819268035C0 1.7496207369342238 0.06868645954455906 1.6806522846484313 0.15544830317979147 1.6806522846484313L0.15544830317979147 1.6806522846484313Z" />
          </g>
          <g opacity="1">
            <path fill="rgb(253,198,56)" fill-opacity="1" opacity="1" fill-rule="evenodd"
              d="M0.01084523045426522 18.076994335960265L4.348937412215966 15.913562885311194L4.348937412215966 27.010223866241084L8.896704049429482 27.010223866241084C8.983465893064716 27.010223866241084 9.052152352609276 27.079192318526875 9.052152352609276 27.166310363519454L9.052152352609276 31.95780283811136C9.052152352609276 32.04492088310394 8.983465893064716 32.11388933538973 8.896704049429482 32.11388933538973L0.1662935336340595 32.11388933538973C0.07953168999882544 32.11388933538973 0.01084523045426522 32.04492088310394 0.01084523045426522 31.95780283811136L0.01084523045426522 18.076994335960265L0.01084523045426522 18.076994335960265Z" />
          </g>
        </g>
        <g opacity="1">
          <g opacity="1">
            <g opacity="1">
              <path fill="rgb(253,198,56)" fill-opacity="1" opacity="1" fill-rule="evenodd"
                d="M17.225841038411673 6.2507197282176L11.980364575298193 3.208847990560023C11.915293192571767 3.1689188866050904 11.915293192571767 3.074541004529795 11.980364575298193 3.034611900574863L17.18607519341219 0.018149592706787485C17.2186108847754 0 17.25476165295675 0 17.287297344319963 0.018149592706787485L22.536388884251576 3.0600213303643655C22.601460266978 3.0999504343192976 22.601460266978 3.194328316394593 22.536388884251576 3.234257420349525L17.327063189319443 6.254349646758958C17.29452749795623 6.268869320924388 17.258376729774884 6.268869320924388 17.22584103841167 6.2507197282176L17.225841038411673 6.2507197282176Z" />
            </g>
            <g opacity="1">
              <path fill="rgb(0,150,136)" fill-opacity="1" opacity="1" fill-rule="evenodd"
                d="M16.943865046597235 12.835391962240047L11.694773506665499 9.793520224582466C11.662237815302285 9.77537063187568 11.644162431211612 9.742701365003462 11.644162431211612 9.706402179589887L11.644162431211612 3.669847645312374C11.644162431211612 3.5936193559438667 11.727309198028713 3.542800496364862 11.795995657573274 3.582729600319794L17.04508719750501 6.624601337977373C17.07762288886822 6.642750930684161 17.095698272958895 6.675420197556378 17.095698272958895 6.711719382969954L17.095698272958895 12.751903835788823C17.09208319614076 12.828132125157332 17.00893642932366 12.875321066194978 16.943865046597235 12.835391962240047L16.943865046597235 12.835391962240047Z" />
            </g>
            <g opacity="1">
              <path fill="rgb(255,126,0)" fill-opacity="1" opacity="1" fill-rule="evenodd"
                d="M22.890666412428793 9.79352022458246L17.641574872497255 12.835391962240038C17.57650348977083 12.87532106619497 17.4897416461356 12.824502206615964 17.4897416461356 12.748273917247458L17.4897416461356 6.711719382969951C17.4897416461356 6.675420197556376 17.50781703022627 6.642750930684159 17.540352721589482 6.624601337977371L22.78944426152102 3.582729600319794C22.854515644247442 3.542800496364862 22.94127748788268 3.5936193559438663 22.94127748788268 3.669847645312374L22.94127748788268 9.71003209813124C22.94127748788268 9.742701365003455 22.923202103792008 9.775370631875674 22.890666412428793 9.793520224582462L22.890666412428793 9.79352022458246Z" />
            </g>
          </g>
          <g opacity="1">
            <path fill="rgb(255,126,0)" fill-opacity="1" opacity="1" fill-rule="evenodd"
              d="M17.21138073113937 19.93551262913545L11.962289191207825 16.893640891477858C11.8972178084814 16.853711787522922 11.8972178084814 16.75933390544763 11.962289191207825 16.719404801492697L17.17161488613989 13.699312575083251C17.2041505775031 13.681162982376463 17.240301345684447 13.681162982376463 17.27283703704766 13.699312575083251L22.521928576979207 16.74118431274084C22.58699995970563 16.781113416695774 22.58699995970563 16.875491298771067 22.521928576979207 16.915420402726003L17.31260288204714 19.93551262913545C17.28006719068393 19.953662221842237 17.240301345684447 19.953662221842237 17.211380731139368 19.93551262913545L17.21138073113937 19.93551262913545Z" />
          </g>
          <g opacity="1">
            <path fill="rgb(253,198,56)" fill-opacity="1" opacity="1" fill-rule="evenodd"
              d="M16.92578966250651 26.52018486315792L11.676698122575129 23.478313125500325C11.64416243121192 23.460163532793537 11.626087047121246 23.427494265921318 11.626087047121246 23.391195080507742L11.626087047121246 17.351010627688837C11.626087047121246 17.27478233832033 11.70923381393834 17.223963478741325 11.777920273482897 17.263892582696258L17.027011813414276 20.305764320353852C17.059547504777488 20.32391391306064 17.077622888868163 20.35658317993286 17.077622888868163 20.392882365346434L17.077622888868163 26.433066818165337C17.077622888868163 26.509295107533845 16.994476122051065 26.560113967112848 16.92578966250651 26.520184863157915L16.92578966250651 26.52018486315792Z" />
          </g>
          <g opacity="1">
            <path fill="rgb(0,150,136)" fill-opacity="1" opacity="1" fill-rule="evenodd"
              d="M22.87620610515613 23.47831312550032L17.62711456522449 26.520184863157915C17.562043182498062 26.560113967112848 17.47528133886283 26.509295107533845 17.47528133886283 26.433066818165337L17.47528133886283 20.392882365346434C17.47528133886283 20.356583179932862 17.493356722953504 20.323913913060643 17.525892414316715 20.305764320353855L22.77498395424836 17.263892582696258C22.840055336974782 17.223963478741325 22.92681718061002 17.274782338320332 22.92681718061002 17.351010627688837L22.92681718061002 23.391195080507735C22.923202103791883 23.42749426592131 22.905126719701208 23.46016353279353 22.876206105156133 23.478313125500318L22.87620610515613 23.47831312550032Z" />
          </g>
          <g opacity="1">
            <path fill="rgb(0,150,136)" fill-opacity="1" opacity="1" fill-rule="evenodd"
              d="M16.92578966250651 33.253683757375995L11.676698122575129 30.21181201971841C11.64416243121192 30.19366242701162 11.626087047121246 30.160993160139405 11.626087047121246 30.12469397472583L11.626087047121246 24.088139440448302C11.626087047121246 24.011911151079794 11.70923381393834 23.96109229150079 11.777920273482897 24.001021395455723L17.027011813414276 27.042893133113306C17.059547504777488 27.061042725820094 17.077622888868163 27.093711992692313 17.077622888868163 27.130011178105885L17.077622888868163 33.170195630924766C17.077622888868163 33.24279400175192 16.994476122051065 33.29361286133092 16.92578966250651 33.25368375737599L16.92578966250651 33.253683757375995Z" />
          </g>
          <g opacity="1">
            <path fill="rgb(255,126,0)" fill-opacity="1" opacity="1" fill-rule="evenodd"
              d="M22.87620610515612 30.211812019718405L17.62711456522449 33.25368375737599C17.562043182498062 33.29361286133092 17.47528133886283 33.24279400175192 17.47528133886283 33.16656571238341L17.47528133886283 27.130011178105885C17.47528133886283 27.09371199269231 17.493356722953504 27.061042725820094 17.525892414316715 27.042893133113306L22.77498395424835 24.001021395455723C22.84005533697477 23.96109229150079 22.92681718061001 24.011911151079794 22.92681718061001 24.088139440448302L22.92681718061001 30.12832389326718C22.923202103791873 30.160993160139398 22.9051267197012 30.193662427011613 22.876206105156122 30.2118120197184L22.87620610515612 30.211812019718405Z" />
          </g>
        </g>
      </g>
    </g>
  </g>
</svg>