<svg xmlns="http://www.w3.org/2000/svg" xmlns:xlink="http://www.w3.org/1999/xlink" fill="none" version="1.1" width="36"
    height="36" viewBox="0 0 36 36">
    <defs>
        <clipPath id="master_svg0_577_23188">
            <rect x="8" y="8" width="20" height="20" rx="0" />
        </clipPath>
    </defs>
    <g>
        <g>
            <rect x="0" y="0" width="36" height="36" rx="2" fill="#F5F5F5" fill-opacity="1" />
            <rect x="0.5" y="0.5" width="35" height="35" rx="1.5" fill-opacity="0" stroke-opacity="1" stroke="#D9D9D9"
                fill="none" stroke-width="1" />
        </g>
        <g clip-path="url(#master_svg0_577_23188)">
            <g>
                <path
                    d="M22.732521875,11.4434425C22.732521875,11.4434425,22.732521875,9.7179955,22.732521875,9.7179955C22.732521875,9.5684415,22.560621875000002,9.4858521,22.444521875,9.57737C22.444521875,9.57737,12.382007875,17.436732499999998,12.382007875,17.436732499999998C12.296512875,17.5032325,12.227332875,17.588392499999998,12.179746275,17.685672500000003C12.132159175,17.7829525,12.107421875,17.8898425,12.107421875,17.9981225C12.107421875,18.1064525,12.132159175,18.2132825,12.179746275,18.3106225C12.227332875,18.407892500000003,12.296512875,18.4930125,12.382007875,18.5595025C12.382007875,18.5595025,22.444521875,26.4188625,22.444521875,26.4188625C22.562821874999997,26.5103625,22.732521875,26.4278625,22.732521875,26.2782625C22.732521875,26.2782625,22.732521875,24.5528625,22.732521875,24.5528625C22.732521875,24.443462500000003,22.681121875000002,24.3384625,22.596321875,24.2715625C22.596321875,24.2715625,14.560581875,17.999232499999998,14.560581875,17.999232499999998C14.560581875,17.999232499999998,22.596321875,11.7246925,22.596321875,11.7246925C22.681121875000002,11.6577325,22.732521875,11.5528225,22.732521875,11.4434425C22.732521875,11.4434425,22.732521875,11.4434425,22.732521875,11.4434425Z"
                    fill="#878787" fill-opacity="1" />
            </g>
        </g>
    </g>
</svg>