<svg xmlns="http://www.w3.org/2000/svg" xmlns:xlink="http://www.w3.org/1999/xlink" fill="none" version="1.1" width="36"
    height="36" viewBox="0 0 36 36">
    <defs>
        <clipPath id="master_svg0_577_22476">
            <rect x="44" y="44" width="20" height="20" rx="0" />
        </clipPath>
    </defs>
    <g transform="matrix(-1,0,0,-1,72,72)">
        <g>
            <rect x="36" y="36" width="36" height="36" rx="2" fill="#009688" fill-opacity="1" />
        </g>
        <g clip-path="url(#master_svg0_577_22476)">
            <g>
                <path
                    d="M59.6629,53.438515625C59.6629,53.438515625,49.600448,45.579136225,49.600448,45.579136225C49.574154,45.558435725,49.542555,45.545571345,49.50928,45.542020215C49.476004,45.538469095,49.442402,45.544375295,49.4123322,45.559060725C49.3822617,45.573746025,49.356944,45.596615025,49.3392853,45.625041125C49.3216265,45.653466625,49.312343276,45.686297625,49.31250200184,45.719761625C49.31250200184,45.719761625,49.31250200184,47.445205625,49.31250200184,47.445205625C49.31250200184,47.554585625,49.3638414,47.659495625,49.448663,47.726455625C49.448663,47.726455625,57.48439,54.001015625,57.48439,54.001015625C57.48439,54.001015625,49.448663,60.275615625,49.448663,60.275615625C49.3616093,60.342515625000004,49.31250200184,60.447415625,49.31250200184,60.556815625C49.31250200184,60.556815625,49.31250200184,62.282215625,49.31250200184,62.282215625C49.31250200184,62.431815625,49.484377,62.514415625,49.600448,62.422915625C49.600448,62.422915625,59.6629,54.563515625,59.6629,54.563515625C59.7485,54.496795625000004,59.8177,54.411455625,59.8652,54.314015624999996C59.912800000000004,54.216515625,59.9376,54.109455625,59.9376,54.001015625C59.9376,53.892565625,59.912800000000004,53.785515625,59.8652,53.688015625C59.8177,53.590565624999996,59.7485,53.505235625,59.6629,53.438515625C59.6629,53.438515625,59.6629,53.438515625,59.6629,53.438515625Z"
                    fill="#FFFFFF" fill-opacity="1" />
            </g>
        </g>
    </g>
</svg>