<svg xmlns="http://www.w3.org/2000/svg" xmlns:xlink="http://www.w3.org/1999/xlink" fill="none" version="1.1" width="36"
    height="36" viewBox="0 0 36 36">
    <defs>
        <clipPath id="master_svg0_481_40449">
            <rect x="8" y="8" width="20" height="20" rx="0" />
        </clipPath>
    </defs>
    <g>
        <g>
            <rect x="0" y="0" width="36" height="36" rx="2" fill="#009688" fill-opacity="1" />
        </g>
        <g clip-path="url(#master_svg0_481_40449)">
            <g>
                <path
                    d="M23.6629,17.438515625C23.6629,17.438515625,13.600448,9.579136225,13.600448,9.579136225C13.574154,9.558435725,13.542555,9.545571345,13.50928,9.542020215C13.476004,9.538469095,13.442402,9.544375295,13.4123322,9.559060725C13.3822617,9.573746025,13.356944,9.596615025,13.3392853,9.625041125C13.3216265,9.653466625,13.312343276,9.686297625,13.31250200184,9.719761625C13.31250200184,9.719761625,13.31250200184,11.445205625,13.31250200184,11.445205625C13.31250200184,11.554585625,13.3638414,11.659495625,13.448663,11.726455625C13.448663,11.726455625,21.484389999999998,18.001015625,21.484389999999998,18.001015625C21.484389999999998,18.001015625,13.448663,24.275615625,13.448663,24.275615625C13.3616093,24.342515625,13.31250200184,24.447415624999998,13.31250200184,24.556815625C13.31250200184,24.556815625,13.31250200184,26.282215625,13.31250200184,26.282215625C13.31250200184,26.431815625,13.484377,26.514415625,13.600448,26.422915625C13.600448,26.422915625,23.6629,18.563515625,23.6629,18.563515625C23.7485,18.496795625,23.817700000000002,18.411455625000002,23.8652,18.314015625C23.9128,18.216515625,23.9376,18.109455625000002,23.9376,18.001015625C23.9376,17.892565625,23.9128,17.785515625000002,23.8652,17.688015625C23.817700000000002,17.590565625,23.7485,17.505235625,23.6629,17.438515625C23.6629,17.438515625,23.6629,17.438515625,23.6629,17.438515625Z"
                    fill="#FFFFFF" fill-opacity="1" />
            </g>
        </g>
    </g>
</svg>