<svg xmlns="http://www.w3.org/2000/svg" xmlns:xlink="http://www.w3.org/1999/xlink" fill="none" version="1.1" width="36" height="36" viewBox="0 0 36 36"><defs><clipPath id="master_svg0_577_23310"><rect x="44" y="8" width="20" height="20" rx="0"/></clipPath></defs><g transform="matrix(-1,-5.2146120310681e-8,-5.2146120310681e-8,1,72,0.000001877260331184516)"><g><rect x="36" y="0" width="36" height="36" rx="2" fill="#F5F5F5" fill-opacity="1"/><rect x="36.5" y="0.5" width="35" height="35" rx="1.5" fill-opacity="0" stroke-opacity="1" stroke="#D9D9D9" fill="none" stroke-width="1"/></g><g clip-path="url(#master_svg0_577_23310)"><g><path d="M58.732521875,11.4434425C58.732521875,11.4434425,58.732521875,9.7179955,58.732521875,9.7179955C58.732521875,9.5684415,58.560621875,9.4858521,58.444521875,9.57737C58.444521875,9.57737,48.382007875,17.436732499999998,48.382007875,17.436732499999998C48.296512875,17.5032325,48.227332875,17.588392499999998,48.179746275,17.685672500000003C48.132159175,17.7829525,48.107421875,17.8898425,48.107421875,17.9981225C48.107421875,18.1064525,48.132159175,18.2132825,48.179746275,18.3106225C48.227332875,18.407892500000003,48.296512875,18.4930125,48.382007875,18.5595025C48.382007875,18.5595025,58.444521875,26.4188625,58.444521875,26.4188625C58.562821875,26.5103625,58.732521875,26.4278625,58.732521875,26.2782625C58.732521875,26.2782625,58.732521875,24.5528625,58.732521875,24.5528625C58.732521875,24.443462500000003,58.681121875,24.3384625,58.596321875,24.2715625C58.596321875,24.2715625,50.560581875,17.999232499999998,50.560581875,17.999232499999998C50.560581875,17.999232499999998,58.596321875,11.7246925,58.596321875,11.7246925C58.681121875,11.6577325,58.732521875,11.5528225,58.732521875,11.4434425C58.732521875,11.4434425,58.732521875,11.4434425,58.732521875,11.4434425Z" fill="#878787" fill-opacity="1"/></g></g></g></svg>