<svg xmlns="http://www.w3.org/2000/svg" xmlns:xlink="http://www.w3.org/1999/xlink" fill="currentColor" version="1.1" width="20"
  height="20" viewBox="0 0 20 20">
  <defs>
    <clipPath id="master_svg0_1833_67822">
      <rect x="0" y="0" width="20" height="20" rx="0" />
    </clipPath>
  </defs>
  <g>
    <g clip-path="url(#master_svg0_1833_67822)">
      <g>
        <path
          d="M13.0890625,5.5430078125L4.0390625,5.5430078125C3.4857285,5.5430078125,3.0390625,5.9896778125,3.0390625,6.5430078125L3.0390625,16.3330078125C3.0390625,16.8863078125,3.4857295,17.3330078125,4.0390625,17.3330078125L13.0923625,17.3330078125C13.6457625,17.3330078125,14.0923625,16.8863078125,14.0923625,16.3330078125L14.0923625,6.5430078125C14.0905625,5.9901878125,13.6418625,5.5430078125,13.0890625,5.5430078125ZM12.7557325,15.9997078125L4.3723925,15.9997078125L4.3723925,6.8763378125L12.7590625,6.8763378125L12.7590625,15.9997078125L12.7557325,15.9997078125ZM15.5290625,2.3330078125L6.6857325,2.3330078125C6.319062499999999,2.3330078125,6.0190625,2.6330078125,6.0190625,2.9996748125C6.0190625,3.3663378125000003,6.319062499999999,3.6663378125,6.6857325,3.6663378125L15.5290625,3.6663378125C15.7723625,3.6663378125,15.9690625,3.8630078125000002,15.9690625,4.1063378125L15.9690625,14.0530078125C15.9690625,14.4197078125,16.2690625,14.7197078125,16.6357625,14.7197078125C17.0023625,14.7197078125,17.3023625,14.4197078125,17.3023625,14.0530078125L17.3023625,4.1063378125C17.299062499999998,3.1263408125,16.5057625,2.3330078125,15.5290625,2.3330078125Z"
          fill="currentColor" fill-opacity="1" />
      </g>
    </g>
  </g>
</svg>