<svg xmlns="http://www.w3.org/2000/svg" xmlns:xlink="http://www.w3.org/1999/xlink" fill="currentColor" version="1.1" width="24"
  height="24" viewBox="0 0 24 24">
  <defs>
    <clipPath id="master_svg0_1833_67450">
      <rect x="0" y="0" width="24" height="24" rx="0" />
    </clipPath>
  </defs>
  <g clip-path="url(#master_svg0_1833_67450)">
    <g>
      <path
        d="M4.125,11.9765625C4.12499999636779,12.1489225,4.1589487,12.3195925,4.224908,12.4788325C4.290867,12.6380725,4.387546,12.7827625,4.509422,12.9046425C4.631299,13.026512499999999,4.775988,13.1231925,4.935228,13.1891525C5.094468,13.2551125,5.26514,13.2890625,5.4375,13.2890625C5.60986,13.2890625,5.78053,13.2551125,5.93977,13.1891525C6.09901,13.1231925,6.2437000000000005,13.026512499999999,6.36558,12.9046425C6.48745,12.7827625,6.58413,12.6380725,6.6500900000000005,12.4788325C6.71605,12.3195925,6.75,12.1489225,6.75,11.9765625C6.75,11.8042025,6.71605,11.633530499999999,6.6500900000000005,11.4742905C6.58413,11.3150505,6.48745,11.1703615,6.36558,11.0484845C6.2437000000000005,10.9266075,6.09901,10.8299305,5.93977,10.7639709C5.78053,10.6980115,5.60986,10.664062500000002,5.4375,10.664062500000002C5.26514,10.664062500000002,5.094468,10.6980115,4.935228,10.7639709C4.775988,10.8299305,4.631299,10.9266075,4.509422,11.0484845C4.387546,11.1703615,4.290867,11.3150505,4.224908,11.4742905C4.1589487,11.633530499999999,4.12499999636779,11.8042025,4.125,11.9765625C4.125,11.9765625,4.125,11.9765625,4.125,11.9765625ZM10.6875,11.9765625C10.6875,12.3246625,10.82578,12.6585025,11.07192,12.9046425C11.31806,13.1507825,11.651900000000001,13.2890625,12,13.2890625C12.3481,13.2890625,12.68194,13.1507825,12.92808,12.9046425C13.17422,12.6585025,13.3125,12.3246625,13.3125,11.9765625C13.3125,11.6284655,13.17422,11.2946265,12.92808,11.0484845C12.68194,10.8023435,12.3481,10.6640625,12,10.664062500000002C11.651900000000001,10.6640625,11.31806,10.8023435,11.07192,11.0484845C10.82578,11.2946265,10.6875,11.6284655,10.6875,11.9765625C10.6875,11.9765625,10.6875,11.9765625,10.6875,11.9765625ZM17.25,11.9765625C17.25,12.3246625,17.3883,12.6585025,17.6344,12.9046425C17.8806,13.1507825,18.214399999999998,13.2890625,18.5625,13.2890625C18.910600000000002,13.2890625,19.2444,13.1507825,19.4906,12.9046425C19.7367,12.6585025,19.875,12.3246625,19.875,11.9765625C19.875,11.6284655,19.7367,11.2946265,19.4906,11.0484845C19.2444,10.8023435,18.910600000000002,10.6640625,18.5625,10.664062500000002C18.214399999999998,10.6640625,17.8806,10.8023435,17.6344,11.0484845C17.3883,11.2946265,17.25,11.6284655,17.25,11.9765625C17.25,11.9765625,17.25,11.9765625,17.25,11.9765625Z"
        fill="currentColor" fill-opacity="1" />
    </g>
  </g>
</svg>