<svg xmlns="http://www.w3.org/2000/svg" width="22" height="22" viewBox="0 0 22 22" fill="none">
    <g clip-path="url(#clip0_1159_10828)">
        <path
            d="M21.8036 10.067H18.8031C18.3783 6.47232 15.5277 3.62165 11.933 3.19687V0.196429C11.933 0.0883928 11.8446 0 11.7366 0H10.2634C10.1554 0 10.067 0.0883928 10.067 0.196429V3.19687C6.47232 3.62165 3.62165 6.47232 3.19687 10.067H0.196429C0.0883928 10.067 0 10.1554 0 10.2634V11.7366C0 11.8446 0.0883928 11.933 0.196429 11.933H3.19687C3.62165 15.5277 6.47232 18.3783 10.067 18.8031V21.8036C10.067 21.9116 10.1554 22 10.2634 22H11.7366C11.8446 22 11.933 21.9116 11.933 21.8036V18.8031C15.5277 18.3783 18.3783 15.5277 18.8031 11.933H21.8036C21.9116 11.933 22 11.8446 22 11.7366V10.2634C22 10.1554 21.9116 10.067 21.8036 10.067ZM11 16.9911C7.69018 16.9911 5.00893 14.3098 5.00893 11C5.00893 7.69018 7.69018 5.00893 11 5.00893C14.3098 5.00893 16.9911 7.69018 16.9911 11C16.9911 14.3098 14.3098 16.9911 11 16.9911Z"
            fill="black" fill-opacity="0.85" />
        <path
            d="M11.0004 8.05658C10.2122 8.05658 9.4756 8.36104 8.91823 8.92087C8.36086 9.47823 8.05394 10.2148 8.05394 11.003C8.05394 11.7912 8.36086 12.5278 8.91823 13.0852C9.4756 13.6401 10.2147 13.9494 11.0004 13.9494C11.7861 13.9494 12.5252 13.6425 13.0825 13.0852C13.6374 12.5278 13.9468 11.7887 13.9468 11.003C13.9468 10.2173 13.6399 9.47823 13.0825 8.92087C12.8103 8.64562 12.486 8.42741 12.1285 8.279C11.771 8.1306 11.3875 8.05499 11.0004 8.05658Z"
            fill="black" fill-opacity="0.85" />
    </g>
    <defs>
        <clipPath id="clip0_1159_10828">
            <rect width="22" height="22" fill="white" />
        </clipPath>
    </defs>
</svg>