<svg xmlns="http://www.w3.org/2000/svg" width="22" height="22" viewBox="0 0 22 22" fill="none">
    <g clip-path="url(#clip0_1159_10827)">
        <rect width="22" height="22" fill="none" />
        <path
            d="M14.069 9.30688H11.1717V6.0167C11.1717 5.90866 11.0833 5.82027 10.9753 5.82027H9.50209C9.39405 5.82027 9.30566 5.90866 9.30566 6.0167V9.30688H6.40834C6.3003 9.30688 6.21191 9.39527 6.21191 9.50331V10.9765C6.21191 11.0846 6.3003 11.1729 6.40834 11.1729H9.30566V14.4631C9.30566 14.5712 9.39405 14.6596 9.50209 14.6596H10.9753C11.0833 14.6596 11.1717 14.5712 11.1717 14.4631V11.1729H14.069C14.1771 11.1729 14.2655 11.0846 14.2655 10.9765V9.50331C14.2655 9.39527 14.1771 9.30688 14.069 9.30688ZM21.0423 19.7176L17.4574 16.1328C20.4554 12.4767 20.2467 7.06023 16.819 3.635C13.1851 -0.00138122 7.28244 -0.00138122 3.63378 3.635C-0.00260186 7.28366 -0.00260186 13.1863 3.63378 16.8203C7.05901 20.248 12.4755 20.4567 16.1315 17.4587L19.7164 21.0435C19.7949 21.1122 19.9202 21.1122 19.9865 21.0435L21.0423 19.9877C21.111 19.9214 21.111 19.7962 21.0423 19.7176ZM15.5177 15.5189C12.6007 18.4334 7.87664 18.4334 4.95968 15.5189C2.04517 12.602 2.04517 7.87786 4.95968 4.9609C7.87664 2.04639 12.6007 2.04639 15.5177 4.9609C18.4322 7.87786 18.4322 12.602 15.5177 15.5189Z"
            fill="currentColor" fill-opacity="0.85" />
    </g>
    <defs>
        <clipPath id="clip0_1159_10827">
            <rect width="22" height="22" fill="white" />
        </clipPath>
    </defs>
</svg>